M48
; DRILL file {KiCad (5.1.5)-3} date 31/01/2020 21:08:58
; FORMAT={3:3/ absolute / metric / suppress leading zeros}
; #@! TF.CreationDate,2020-01-31T21:08:58-08:00
; #@! TF.GenerationSoftware,Kicad,Pcbnew,(5.1.5)-3
; #@! TF.FileFunction,Plated,1,2,PTH
FMAT,2
METRIC,TZ
T1C0.200
T2C0.300
T3C0.350
T4C0.400
T5C0.500
T6C1.000
%
G90
G05
T1
X96598Y-140925
X97340Y-140183
X97340Y-141667
X98083Y-139440
X98083Y-140925
X98083Y-142410
X98825Y-138698
X98825Y-140183
X98825Y-141667
X98825Y-143152
X99567Y-139440
X99567Y-140925
X99567Y-142410
X100310Y-140183
X100310Y-141667
X101052Y-140925
X228948Y-185150
X229690Y-184408
X229690Y-185892
X230433Y-183665
X230433Y-185150
X230433Y-186635
X231175Y-182923
X231175Y-184408
X231175Y-185892
X231175Y-187377
X231917Y-183665
X231917Y-185150
X231917Y-186635
X232660Y-184408
X232660Y-185892
X233402Y-185150
T2
X88225Y-138075
X88825Y-137500
X89400Y-136700
X89980Y-135825
X93876Y-137500
X94250Y-138275
X94350Y-140925
X94900Y-136700
X95550Y-135825
X96425Y-134700
X99890Y-134730
X100880Y-101468
X100880Y-158593
X100938Y-120451
X100938Y-177576
X101740Y-136560
X102310Y-136070
X103696Y-136690
X103725Y-143000
X106376Y-101496
X106376Y-120546
X106376Y-158621
X106376Y-177671
X107975Y-143000
X110415Y-139555
X115926Y-139596
X119930Y-101468
X119930Y-158593
X119988Y-120451
X119988Y-177576
X121025Y-88950
X121025Y-89950
X121025Y-90950
X121825Y-94775
X122025Y-88950
X122025Y-89950
X122025Y-90950
X123025Y-88950
X123025Y-89950
X123025Y-90950
X124750Y-94700
X124779Y-98600
X125236Y-101476
X125426Y-120546
X125426Y-158621
X125426Y-177671
X125475Y-96875
X125625Y-129650
X127050Y-97850
X129600Y-98250
X129600Y-100050
X129600Y-109850
X130056Y-94206
X130199Y-93326
X130350Y-100075
X130350Y-126750
X130998Y-93312
X131100Y-100100
X131100Y-146825
X131500Y-90300
X131862Y-100088
X132350Y-90225
X132875Y-100100
X133025Y-98325
X135008Y-98556
X138980Y-139568
X138980Y-158593
X139031Y-101409
X139038Y-120451
X139038Y-177576
X139738Y-92352
X141775Y-90600
X144476Y-101496
X144476Y-120546
X144476Y-139596
X144476Y-158621
X144476Y-177671
X144825Y-133000
X151450Y-93600
X158030Y-101468
X158030Y-139568
X158030Y-158618
X158088Y-120451
X158088Y-177576
X163526Y-120546
X163526Y-139596
X163526Y-158646
X163526Y-177671
X163605Y-101574
X164025Y-133725
X165883Y-100175
X177080Y-101468
X177080Y-139568
X177080Y-158618
X177138Y-120451
X177138Y-177576
X182576Y-101496
X182576Y-120546
X182576Y-139596
X182576Y-158646
X182576Y-177671
X183050Y-134175
X184979Y-99829
X196130Y-158618
X196137Y-101459
X196188Y-120451
X196188Y-139501
X196188Y-177576
X201626Y-101496
X201626Y-120546
X201626Y-139596
X201626Y-158646
X201626Y-177671
X202200Y-134700
X204025Y-99400
X214500Y-177250
X215172Y-139577
X215180Y-101468
X215180Y-158618
X215238Y-120451
X220676Y-101496
X220676Y-120546
X220676Y-139596
X220676Y-158646
X221050Y-176800
X221225Y-135075
X223079Y-99253
X223750Y-176050
X223750Y-176800
X223750Y-177550
X225025Y-184100
X226030Y-188040
X226740Y-187350
X226850Y-188890
X227080Y-183150
X227970Y-188582
X228680Y-188220
X228790Y-181440
X234165Y-181099
X234230Y-101468
X234230Y-139568
X234230Y-158618
X234288Y-120451
X235220Y-178900
X238630Y-175410
X239400Y-175420
X239726Y-101496
X239726Y-120546
X239726Y-139596
X239726Y-158646
X239730Y-160780
X239730Y-167550
X240100Y-134625
X240180Y-175440
X240740Y-176050
X240850Y-161980
X241693Y-177600
X241700Y-176800
X242125Y-98675
X243365Y-158015
X243732Y-177541
X248975Y-177525
X253280Y-101468
X253280Y-139568
X253280Y-158618
X253338Y-120451
X258776Y-101496
X258776Y-120546
X258776Y-139596
X258776Y-158646
X259100Y-135050
X261175Y-98175
X272330Y-101468
X272330Y-139568
X272330Y-158618
X272332Y-177665
X272388Y-120451
X277826Y-101496
X277826Y-120546
X277826Y-139596
X277826Y-158646
X277905Y-177774
X278125Y-135600
X280228Y-97725
X291200Y-177600
X291380Y-101468
X291380Y-139568
X291380Y-158618
X291438Y-120451
X296876Y-101496
X296876Y-120546
X296876Y-139596
X296876Y-158646
X296939Y-177759
X297175Y-136125
X299275Y-97325
X310275Y-177600
X310430Y-101468
X310430Y-139568
X310430Y-158618
X310488Y-120451
X315926Y-101496
X315926Y-120546
X315926Y-139596
X315926Y-158646
X315989Y-177759
X316125Y-136725
X318275Y-96925
X329425Y-177675
X329480Y-101468
X329480Y-139568
X329480Y-158618
X329538Y-120451
X334976Y-101496
X334976Y-120546
X334976Y-139596
X334976Y-158646
X335039Y-177759
X335250Y-137325
X337375Y-96875
X355235Y-103965
X355235Y-123015
X355235Y-142064
T3
X249436Y-179740
T4
X93858Y-132300
X107585Y-175395
X108775Y-109075
X108779Y-128162
X108779Y-166461
X108779Y-185511
X114548Y-85302
X126635Y-174650
X127829Y-109311
X127829Y-128361
X127829Y-146395
X127829Y-166461
X128555Y-185511
X131969Y-164861
X132858Y-183530
X145690Y-174200
X146879Y-109311
X146879Y-128361
X146879Y-147411
X146879Y-166461
X146879Y-185511
X164735Y-173500
X165929Y-109311
X165929Y-128361
X165929Y-147411
X165929Y-166461
X165929Y-185511
X183790Y-172800
X184979Y-109311
X184979Y-128361
X184979Y-147411
X184979Y-166461
X184979Y-185511
X202835Y-172080
X204029Y-109311
X204029Y-128361
X204029Y-147411
X204029Y-166461
X204029Y-185511
X221880Y-171345
X222825Y-190875
X223070Y-185170
X223079Y-109311
X223079Y-128361
X223079Y-147411
X223079Y-166461
X227080Y-185310
X236925Y-190475
X242129Y-109311
X242129Y-128361
X242129Y-147411
X242150Y-166461
X259930Y-172225
X261175Y-166350
X261179Y-109311
X261179Y-128361
X261179Y-147411
X279040Y-172560
X280229Y-109311
X280229Y-128361
X280229Y-147411
X280229Y-166461
X280229Y-185511
X298100Y-172830
X299279Y-109311
X299279Y-128361
X299279Y-147411
X299279Y-166461
X299279Y-185511
X317135Y-173205
X318329Y-109311
X318329Y-128361
X318329Y-147411
X318329Y-166461
X318329Y-185511
X336185Y-173845
X337379Y-109311
X337379Y-128361
X337379Y-147411
X337379Y-166461
X337379Y-185511
X355220Y-174780
X356429Y-109337
X356429Y-128387
X356429Y-147437
X356429Y-166487
X356429Y-185537
T5
X107343Y-104075
X107343Y-123040
X107585Y-161115
X107585Y-180165
X126635Y-103965
X126635Y-123015
X126635Y-141620
X126635Y-161115
X126635Y-180165
X145685Y-103965
X145685Y-123015
X145685Y-142064
X145685Y-161115
X145685Y-180165
X164735Y-103965
X164735Y-123015
X164735Y-142064
X164735Y-161115
X164735Y-180165
X183785Y-103965
X183785Y-123015
X183785Y-142064
X183785Y-161115
X183785Y-180165
X202835Y-103965
X202835Y-123015
X202835Y-142064
X202835Y-161115
X202835Y-180165
X221483Y-179763
X221885Y-103965
X221885Y-123015
X221885Y-142064
X221885Y-161115
X240935Y-103965
X240935Y-123015
X240935Y-142064
X251654Y-181765
X259985Y-103965
X259985Y-123015
X259985Y-142064
X260010Y-161115
X279035Y-103965
X279035Y-123015
X279035Y-142064
X279035Y-161115
X279035Y-180165
X298085Y-103965
X298085Y-123015
X298085Y-142064
X298085Y-161115
X298085Y-180165
X317135Y-103965
X317135Y-123015
X317135Y-142064
X317135Y-161115
X317135Y-180165
X336185Y-103965
X336185Y-123015
X336185Y-142064
X336185Y-161115
X336185Y-180165
X355235Y-161115
X355235Y-180165
T6
X86738Y-99438
T0
M30
