M48
; DRILL file {KiCad (5.1.5)-3} date 31/01/2020 21:08:58
; FORMAT={3:3/ absolute / metric / suppress leading zeros}
; #@! TF.CreationDate,2020-01-31T21:08:58-08:00
; #@! TF.GenerationSoftware,Kicad,Pcbnew,(5.1.5)-3
; #@! TF.FileFunction,NonPlated,1,2,NPTH
FMAT,2
METRIC,TZ
T1C3.000
T2C3.200
T3C3.988
%
G90
G05
T1
X174880Y-109855
X181230Y-112395
X232031Y-167005
X238381Y-169545
X193930Y-186055
X200280Y-188595
X241555Y-186055
X247905Y-188595
X136780Y-109855
X143130Y-112395
X232031Y-109855
X238381Y-112395
X308230Y-147955
X314580Y-150495
X270130Y-147955
X276480Y-150495
X289180Y-167005
X295530Y-169545
X308230Y-167005
X314580Y-169545
X136780Y-167005
X143130Y-169545
X155830Y-186055
X162180Y-188595
X193930Y-167005
X200280Y-169545
X117730Y-128905
X124080Y-131445
X251081Y-147955
X257431Y-150495
X327280Y-109855
X333630Y-112395
X270130Y-109855
X276480Y-112395
X289180Y-147955
X295530Y-150495
X136780Y-147955
X143130Y-150495
X155830Y-128905
X162180Y-131445
X98680Y-186055
X105030Y-188595
X174880Y-167005
X181230Y-169545
X117730Y-109855
X124080Y-112395
X251081Y-167005
X257431Y-169545
X212980Y-109855
X219330Y-112395
X346330Y-186055
X352680Y-188595
X212980Y-186055
X219330Y-188595
X346330Y-128905
X352680Y-131445
X136780Y-128905
X143130Y-131445
X155830Y-109855
X162180Y-112395
X98680Y-167005
X105030Y-169545
X193930Y-109855
X200280Y-112395
X98680Y-109855
X105030Y-112395
X270130Y-128905
X276480Y-131445
X232031Y-128905
X238381Y-131445
X308230Y-109855
X314580Y-112395
X270130Y-186055
X276480Y-188595
X289180Y-128905
X295530Y-131445
X155830Y-167005
X162180Y-169545
X174880Y-186055
X181230Y-188595
X136780Y-186055
X143130Y-188595
X155830Y-147955
X162180Y-150495
X117730Y-167005
X124080Y-169545
X212980Y-167005
X219330Y-169545
X327280Y-147955
X333630Y-150495
X251081Y-128905
X257431Y-131445
X327280Y-186055
X333630Y-188595
X251081Y-109855
X257431Y-112395
X308230Y-186055
X314580Y-188595
X174880Y-128905
X181230Y-131445
X193930Y-128905
X200280Y-131445
X212980Y-128905
X219330Y-131445
X117730Y-186055
X124080Y-188595
X308230Y-128905
X314580Y-131445
X270130Y-167005
X276480Y-169545
X327280Y-128905
X333630Y-131445
X232031Y-147955
X238381Y-150495
X327280Y-167005
X333630Y-169545
X193930Y-147955
X200280Y-150495
X174880Y-147955
X181230Y-150495
X98680Y-128905
X105030Y-131445
X346330Y-109855
X352680Y-112395
X212980Y-147955
X219330Y-150495
X108205Y-147955
X114555Y-150495
X346330Y-167005
X352680Y-169545
X289180Y-186055
X295530Y-188595
X346330Y-147955
X352680Y-150495
X289180Y-109855
X295530Y-112395
T2
X112015Y-140915
X292990Y-102815
X197740Y-179015
X140590Y-121865
X121540Y-159965
X312040Y-121865
X197740Y-159965
X331090Y-159965
X312040Y-102815
X178690Y-121865
X254891Y-102815
X331090Y-140915
X350140Y-102815
X121540Y-102815
X140590Y-179015
X235841Y-121865
X312040Y-179015
X331090Y-179015
X331090Y-121865
X178690Y-102815
X292990Y-121865
X273940Y-140915
X102490Y-159965
X216790Y-121865
X216790Y-179015
X273940Y-159965
X245365Y-179015
X140590Y-102815
X216790Y-140915
X273940Y-102815
X140590Y-140915
X235841Y-102815
X159640Y-159965
X235841Y-140915
X216790Y-159965
X102490Y-121865
X254891Y-159965
X292990Y-179015
X159640Y-140915
X331090Y-102815
X159640Y-121865
X350140Y-140915
X312040Y-140915
X178690Y-159965
X254891Y-140915
X140590Y-159965
X292990Y-159965
X312040Y-159965
X178690Y-140915
X197740Y-121865
X159640Y-102815
X350140Y-121865
X121540Y-121865
X121540Y-179015
X254891Y-121865
X159640Y-179015
X350140Y-159965
X197740Y-102815
X102490Y-102815
X216790Y-102815
X102490Y-179015
X197740Y-140915
X178690Y-179015
X273940Y-121865
X235841Y-159965
X273940Y-179015
X350140Y-179015
X292990Y-140915
T3
X140590Y-164465
X159640Y-183515
X197740Y-164465
X121540Y-126365
X254891Y-145415
X331090Y-107315
X273940Y-107315
X292990Y-145415
X140590Y-145415
X159640Y-126365
X102490Y-183515
X178690Y-164465
X121540Y-107315
X254891Y-164465
X216790Y-107315
X350140Y-183515
X216790Y-183515
X350140Y-126365
X140590Y-126365
X159640Y-107315
X102490Y-164465
X197740Y-107315
X102490Y-107315
X273940Y-126365
X235841Y-126365
X312040Y-107315
X273940Y-183515
X292990Y-126365
X159640Y-164465
X178690Y-183515
X140590Y-183515
X159640Y-145415
X121540Y-164465
X216790Y-164465
X331090Y-145415
X254891Y-126365
X331090Y-183515
X254891Y-107315
X312040Y-183515
X178690Y-126365
X197740Y-126365
X216790Y-126365
X121540Y-183515
X312040Y-126365
X273940Y-164465
X331090Y-126365
X235841Y-145415
X331090Y-164465
X197740Y-145415
X178690Y-145415
X102490Y-126365
X350140Y-107315
X216790Y-145415
X112015Y-145415
X350140Y-164465
X292990Y-183515
X350140Y-145415
X292990Y-107315
X178690Y-107315
X235841Y-164465
X197740Y-183515
X245365Y-183515
X140590Y-107315
X235841Y-107315
X312040Y-145415
X273940Y-145415
X292990Y-164465
X312040Y-164465
T0
M30
