G04 #@! TF.GenerationSoftware,KiCad,Pcbnew,(5.1.5)-3*
G04 #@! TF.CreationDate,2020-01-31T21:09:01-08:00*
G04 #@! TF.ProjectId,PCB,5043422e-6b69-4636-9164-5f7063625858,0.1*
G04 #@! TF.SameCoordinates,Original*
G04 #@! TF.FileFunction,Legend,Bot*
G04 #@! TF.FilePolarity,Positive*
%FSLAX46Y46*%
G04 Gerber Fmt 4.6, Leading zero omitted, Abs format (unit mm)*
G04 Created by KiCad (PCBNEW (5.1.5)-3) date 2020-01-31 21:09:01*
%MOMM*%
%LPD*%
G04 APERTURE LIST*
%ADD10C,0.200000*%
%ADD11C,0.160000*%
%ADD12C,0.150000*%
%ADD13C,4.089800*%
%ADD14C,3.102000*%
%ADD15C,3.402000*%
G04 APERTURE END LIST*
D10*
X356187857Y-89053571D02*
X356187857Y-87553571D01*
X355330714Y-89053571D01*
X355330714Y-87553571D01*
X354616428Y-89053571D02*
X354616428Y-87553571D01*
X354616428Y-88267857D02*
X353759285Y-88267857D01*
X353759285Y-89053571D02*
X353759285Y-87553571D01*
X353187857Y-87553571D02*
X352830714Y-89053571D01*
X352545000Y-87982142D01*
X352259285Y-89053571D01*
X351902142Y-87553571D01*
X350687857Y-87553571D02*
X350973571Y-87553571D01*
X351116428Y-87625000D01*
X351187857Y-87696428D01*
X351330714Y-87910714D01*
X351402142Y-88196428D01*
X351402142Y-88767857D01*
X351330714Y-88910714D01*
X351259285Y-88982142D01*
X351116428Y-89053571D01*
X350830714Y-89053571D01*
X350687857Y-88982142D01*
X350616428Y-88910714D01*
X350545000Y-88767857D01*
X350545000Y-88410714D01*
X350616428Y-88267857D01*
X350687857Y-88196428D01*
X350830714Y-88125000D01*
X351116428Y-88125000D01*
X351259285Y-88196428D01*
X351330714Y-88267857D01*
X351402142Y-88410714D01*
X349687857Y-88196428D02*
X349830714Y-88125000D01*
X349902142Y-88053571D01*
X349973571Y-87910714D01*
X349973571Y-87839285D01*
X349902142Y-87696428D01*
X349830714Y-87625000D01*
X349687857Y-87553571D01*
X349402142Y-87553571D01*
X349259285Y-87625000D01*
X349187857Y-87696428D01*
X349116428Y-87839285D01*
X349116428Y-87910714D01*
X349187857Y-88053571D01*
X349259285Y-88125000D01*
X349402142Y-88196428D01*
X349687857Y-88196428D01*
X349830714Y-88267857D01*
X349902142Y-88339285D01*
X349973571Y-88482142D01*
X349973571Y-88767857D01*
X349902142Y-88910714D01*
X349830714Y-88982142D01*
X349687857Y-89053571D01*
X349402142Y-89053571D01*
X349259285Y-88982142D01*
X349187857Y-88910714D01*
X349116428Y-88767857D01*
X349116428Y-88482142D01*
X349187857Y-88339285D01*
X349259285Y-88267857D01*
X349402142Y-88196428D01*
X355330714Y-91503571D02*
X355830714Y-90789285D01*
X356187857Y-91503571D02*
X356187857Y-90003571D01*
X355616428Y-90003571D01*
X355473571Y-90075000D01*
X355402142Y-90146428D01*
X355330714Y-90289285D01*
X355330714Y-90503571D01*
X355402142Y-90646428D01*
X355473571Y-90717857D01*
X355616428Y-90789285D01*
X356187857Y-90789285D01*
X354116428Y-91432142D02*
X354259285Y-91503571D01*
X354545000Y-91503571D01*
X354687857Y-91432142D01*
X354759285Y-91289285D01*
X354759285Y-90717857D01*
X354687857Y-90575000D01*
X354545000Y-90503571D01*
X354259285Y-90503571D01*
X354116428Y-90575000D01*
X354045000Y-90717857D01*
X354045000Y-90860714D01*
X354759285Y-91003571D01*
X353545000Y-90503571D02*
X353187857Y-91503571D01*
X352830714Y-90503571D01*
X352259285Y-91360714D02*
X352187857Y-91432142D01*
X352259285Y-91503571D01*
X352330714Y-91432142D01*
X352259285Y-91360714D01*
X352259285Y-91503571D01*
X352259285Y-90575000D02*
X352187857Y-90646428D01*
X352259285Y-90717857D01*
X352330714Y-90646428D01*
X352259285Y-90575000D01*
X352259285Y-90717857D01*
X351259285Y-90003571D02*
X351116428Y-90003571D01*
X350973571Y-90075000D01*
X350902142Y-90146428D01*
X350830714Y-90289285D01*
X350759285Y-90575000D01*
X350759285Y-90932142D01*
X350830714Y-91217857D01*
X350902142Y-91360714D01*
X350973571Y-91432142D01*
X351116428Y-91503571D01*
X351259285Y-91503571D01*
X351402142Y-91432142D01*
X351473571Y-91360714D01*
X351545000Y-91217857D01*
X351616428Y-90932142D01*
X351616428Y-90575000D01*
X351545000Y-90289285D01*
X351473571Y-90146428D01*
X351402142Y-90075000D01*
X351259285Y-90003571D01*
X350116428Y-91360714D02*
X350045000Y-91432142D01*
X350116428Y-91503571D01*
X350187857Y-91432142D01*
X350116428Y-91360714D01*
X350116428Y-91503571D01*
X348616428Y-91503571D02*
X349473571Y-91503571D01*
X349045000Y-91503571D02*
X349045000Y-90003571D01*
X349187857Y-90217857D01*
X349330714Y-90360714D01*
X349473571Y-90432142D01*
X356187857Y-93953571D02*
X356187857Y-92453571D01*
X355687857Y-93525000D01*
X355187857Y-92453571D01*
X355187857Y-93953571D01*
X354473571Y-93953571D02*
X354473571Y-92453571D01*
X353973571Y-92453571D02*
X353116428Y-92453571D01*
X353545000Y-93953571D02*
X353545000Y-92453571D01*
X350759285Y-93953571D02*
X351473571Y-93953571D01*
X351473571Y-92453571D01*
X350259285Y-93953571D02*
X350259285Y-92953571D01*
X350259285Y-92453571D02*
X350330714Y-92525000D01*
X350259285Y-92596428D01*
X350187857Y-92525000D01*
X350259285Y-92453571D01*
X350259285Y-92596428D01*
X348902142Y-93882142D02*
X349045000Y-93953571D01*
X349330714Y-93953571D01*
X349473571Y-93882142D01*
X349545000Y-93810714D01*
X349616428Y-93667857D01*
X349616428Y-93239285D01*
X349545000Y-93096428D01*
X349473571Y-93025000D01*
X349330714Y-92953571D01*
X349045000Y-92953571D01*
X348902142Y-93025000D01*
X347687857Y-93882142D02*
X347830714Y-93953571D01*
X348116428Y-93953571D01*
X348259285Y-93882142D01*
X348330714Y-93739285D01*
X348330714Y-93167857D01*
X348259285Y-93025000D01*
X348116428Y-92953571D01*
X347830714Y-92953571D01*
X347687857Y-93025000D01*
X347616428Y-93167857D01*
X347616428Y-93310714D01*
X348330714Y-93453571D01*
X346973571Y-92953571D02*
X346973571Y-93953571D01*
X346973571Y-93096428D02*
X346902142Y-93025000D01*
X346759285Y-92953571D01*
X346545000Y-92953571D01*
X346402142Y-93025000D01*
X346330714Y-93167857D01*
X346330714Y-93953571D01*
X345687857Y-93882142D02*
X345545000Y-93953571D01*
X345259285Y-93953571D01*
X345116428Y-93882142D01*
X345045000Y-93739285D01*
X345045000Y-93667857D01*
X345116428Y-93525000D01*
X345259285Y-93453571D01*
X345473571Y-93453571D01*
X345616428Y-93382142D01*
X345687857Y-93239285D01*
X345687857Y-93167857D01*
X345616428Y-93025000D01*
X345473571Y-92953571D01*
X345259285Y-92953571D01*
X345116428Y-93025000D01*
X343830714Y-93882142D02*
X343973571Y-93953571D01*
X344259285Y-93953571D01*
X344402142Y-93882142D01*
X344473571Y-93739285D01*
X344473571Y-93167857D01*
X344402142Y-93025000D01*
X344259285Y-92953571D01*
X343973571Y-92953571D01*
X343830714Y-93025000D01*
X343759285Y-93167857D01*
X343759285Y-93310714D01*
X344473571Y-93453571D01*
X355330714Y-96260714D02*
X355402142Y-96332142D01*
X355616428Y-96403571D01*
X355759285Y-96403571D01*
X355973571Y-96332142D01*
X356116428Y-96189285D01*
X356187857Y-96046428D01*
X356259285Y-95760714D01*
X356259285Y-95546428D01*
X356187857Y-95260714D01*
X356116428Y-95117857D01*
X355973571Y-94975000D01*
X355759285Y-94903571D01*
X355616428Y-94903571D01*
X355402142Y-94975000D01*
X355330714Y-95046428D01*
X354473571Y-96403571D02*
X354616428Y-96332142D01*
X354687857Y-96260714D01*
X354759285Y-96117857D01*
X354759285Y-95689285D01*
X354687857Y-95546428D01*
X354616428Y-95475000D01*
X354473571Y-95403571D01*
X354259285Y-95403571D01*
X354116428Y-95475000D01*
X354045000Y-95546428D01*
X353973571Y-95689285D01*
X353973571Y-96117857D01*
X354045000Y-96260714D01*
X354116428Y-96332142D01*
X354259285Y-96403571D01*
X354473571Y-96403571D01*
X353330714Y-95403571D02*
X353330714Y-96903571D01*
X353330714Y-95475000D02*
X353187857Y-95403571D01*
X352902142Y-95403571D01*
X352759285Y-95475000D01*
X352687857Y-95546428D01*
X352616428Y-95689285D01*
X352616428Y-96117857D01*
X352687857Y-96260714D01*
X352759285Y-96332142D01*
X352902142Y-96403571D01*
X353187857Y-96403571D01*
X353330714Y-96332142D01*
X352116428Y-95403571D02*
X351759285Y-96403571D01*
X351402142Y-95403571D02*
X351759285Y-96403571D01*
X351902142Y-96760714D01*
X351973571Y-96832142D01*
X352116428Y-96903571D01*
X350830714Y-96403571D02*
X350830714Y-95403571D01*
X350830714Y-95689285D02*
X350759285Y-95546428D01*
X350687857Y-95475000D01*
X350545000Y-95403571D01*
X350402142Y-95403571D01*
X349902142Y-96403571D02*
X349902142Y-95403571D01*
X349902142Y-94903571D02*
X349973571Y-94975000D01*
X349902142Y-95046428D01*
X349830714Y-94975000D01*
X349902142Y-94903571D01*
X349902142Y-95046428D01*
X348545000Y-95403571D02*
X348545000Y-96617857D01*
X348616428Y-96760714D01*
X348687857Y-96832142D01*
X348830714Y-96903571D01*
X349045000Y-96903571D01*
X349187857Y-96832142D01*
X348545000Y-96332142D02*
X348687857Y-96403571D01*
X348973571Y-96403571D01*
X349116428Y-96332142D01*
X349187857Y-96260714D01*
X349259285Y-96117857D01*
X349259285Y-95689285D01*
X349187857Y-95546428D01*
X349116428Y-95475000D01*
X348973571Y-95403571D01*
X348687857Y-95403571D01*
X348545000Y-95475000D01*
X347830714Y-96403571D02*
X347830714Y-94903571D01*
X347187857Y-96403571D02*
X347187857Y-95617857D01*
X347259285Y-95475000D01*
X347402142Y-95403571D01*
X347616428Y-95403571D01*
X347759285Y-95475000D01*
X347830714Y-95546428D01*
X346687857Y-95403571D02*
X346116428Y-95403571D01*
X346473571Y-94903571D02*
X346473571Y-96189285D01*
X346402142Y-96332142D01*
X346259285Y-96403571D01*
X346116428Y-96403571D01*
X344044999Y-96975000D02*
X344116428Y-96903571D01*
X344259285Y-96689285D01*
X344330714Y-96546428D01*
X344402142Y-96332142D01*
X344473571Y-95975000D01*
X344473571Y-95689285D01*
X344402142Y-95332142D01*
X344330714Y-95117857D01*
X344259285Y-94975000D01*
X344116428Y-94760714D01*
X344044999Y-94689285D01*
X342830714Y-96332142D02*
X342973571Y-96403571D01*
X343259285Y-96403571D01*
X343402142Y-96332142D01*
X343473571Y-96260714D01*
X343544999Y-96117857D01*
X343544999Y-95689285D01*
X343473571Y-95546428D01*
X343402142Y-95475000D01*
X343259285Y-95403571D01*
X342973571Y-95403571D01*
X342830714Y-95475000D01*
X342330714Y-96975000D02*
X342259285Y-96903571D01*
X342116428Y-96689285D01*
X342044999Y-96546428D01*
X341973571Y-96332142D01*
X341902142Y-95975000D01*
X341902142Y-95689285D01*
X341973571Y-95332142D01*
X342044999Y-95117857D01*
X342116428Y-94975000D01*
X342259285Y-94760714D01*
X342330714Y-94689285D01*
X340116428Y-95046428D02*
X340044999Y-94975000D01*
X339902142Y-94903571D01*
X339544999Y-94903571D01*
X339402142Y-94975000D01*
X339330714Y-95046428D01*
X339259285Y-95189285D01*
X339259285Y-95332142D01*
X339330714Y-95546428D01*
X340187857Y-96403571D01*
X339259285Y-96403571D01*
X338330714Y-94903571D02*
X338187857Y-94903571D01*
X338044999Y-94975000D01*
X337973571Y-95046428D01*
X337902142Y-95189285D01*
X337830714Y-95475000D01*
X337830714Y-95832142D01*
X337902142Y-96117857D01*
X337973571Y-96260714D01*
X338044999Y-96332142D01*
X338187857Y-96403571D01*
X338330714Y-96403571D01*
X338473571Y-96332142D01*
X338544999Y-96260714D01*
X338616428Y-96117857D01*
X338687857Y-95832142D01*
X338687857Y-95475000D01*
X338616428Y-95189285D01*
X338544999Y-95046428D01*
X338473571Y-94975000D01*
X338330714Y-94903571D01*
X336402142Y-96403571D02*
X337259285Y-96403571D01*
X336830714Y-96403571D02*
X336830714Y-94903571D01*
X336973571Y-95117857D01*
X337116428Y-95260714D01*
X337259285Y-95332142D01*
X335687857Y-96403571D02*
X335402142Y-96403571D01*
X335259285Y-96332142D01*
X335187857Y-96260714D01*
X335044999Y-96046428D01*
X334973571Y-95760714D01*
X334973571Y-95189285D01*
X335044999Y-95046428D01*
X335116428Y-94975000D01*
X335259285Y-94903571D01*
X335544999Y-94903571D01*
X335687857Y-94975000D01*
X335759285Y-95046428D01*
X335830714Y-95189285D01*
X335830714Y-95546428D01*
X335759285Y-95689285D01*
X335687857Y-95760714D01*
X335544999Y-95832142D01*
X335259285Y-95832142D01*
X335116428Y-95760714D01*
X335044999Y-95689285D01*
X334973571Y-95546428D01*
X332902142Y-95689285D02*
X332902142Y-96403571D01*
X333402142Y-94903571D02*
X332902142Y-95689285D01*
X332402142Y-94903571D01*
X331902142Y-96403571D02*
X331902142Y-95403571D01*
X331902142Y-94903571D02*
X331973571Y-94975000D01*
X331902142Y-95046428D01*
X331830714Y-94975000D01*
X331902142Y-94903571D01*
X331902142Y-95046428D01*
X331402142Y-95403571D02*
X330830714Y-95403571D01*
X331187857Y-96403571D02*
X331187857Y-95117857D01*
X331116428Y-94975000D01*
X330973571Y-94903571D01*
X330830714Y-94903571D01*
X329759285Y-96332142D02*
X329902142Y-96403571D01*
X330187857Y-96403571D01*
X330330714Y-96332142D01*
X330402142Y-96189285D01*
X330402142Y-95617857D01*
X330330714Y-95475000D01*
X330187857Y-95403571D01*
X329902142Y-95403571D01*
X329759285Y-95475000D01*
X329687857Y-95617857D01*
X329687857Y-95760714D01*
X330402142Y-95903571D01*
X329044999Y-96403571D02*
X329044999Y-95403571D01*
X329044999Y-94903571D02*
X329116428Y-94975000D01*
X329044999Y-95046428D01*
X328973571Y-94975000D01*
X329044999Y-94903571D01*
X329044999Y-95046428D01*
X327187857Y-96403571D02*
X327187857Y-94903571D01*
X326830714Y-94903571D01*
X326616428Y-94975000D01*
X326473571Y-95117857D01*
X326402142Y-95260714D01*
X326330714Y-95546428D01*
X326330714Y-95760714D01*
X326402142Y-96046428D01*
X326473571Y-96189285D01*
X326616428Y-96332142D01*
X326830714Y-96403571D01*
X327187857Y-96403571D01*
X325687857Y-96403571D02*
X325687857Y-95403571D01*
X325687857Y-94903571D02*
X325759285Y-94975000D01*
X325687857Y-95046428D01*
X325616428Y-94975000D01*
X325687857Y-94903571D01*
X325687857Y-95046428D01*
X324973571Y-95403571D02*
X324973571Y-96403571D01*
X324973571Y-95546428D02*
X324902142Y-95475000D01*
X324759285Y-95403571D01*
X324544999Y-95403571D01*
X324402142Y-95475000D01*
X324330714Y-95617857D01*
X324330714Y-96403571D01*
X322973571Y-95403571D02*
X322973571Y-96617857D01*
X323044999Y-96760714D01*
X323116428Y-96832142D01*
X323259285Y-96903571D01*
X323473571Y-96903571D01*
X323616428Y-96832142D01*
X322973571Y-96332142D02*
X323116428Y-96403571D01*
X323402142Y-96403571D01*
X323544999Y-96332142D01*
X323616428Y-96260714D01*
X323687857Y-96117857D01*
X323687857Y-95689285D01*
X323616428Y-95546428D01*
X323544999Y-95475000D01*
X323402142Y-95403571D01*
X323116428Y-95403571D01*
X322973571Y-95475000D01*
X356187857Y-98853571D02*
X356187857Y-97353571D01*
X355545000Y-98853571D02*
X355545000Y-98067857D01*
X355616428Y-97925000D01*
X355759285Y-97853571D01*
X355973571Y-97853571D01*
X356116428Y-97925000D01*
X356187857Y-97996428D01*
X355045000Y-97853571D02*
X354473571Y-97853571D01*
X354830714Y-97353571D02*
X354830714Y-98639285D01*
X354759285Y-98782142D01*
X354616428Y-98853571D01*
X354473571Y-98853571D01*
X354187857Y-97853571D02*
X353616428Y-97853571D01*
X353973571Y-97353571D02*
X353973571Y-98639285D01*
X353902142Y-98782142D01*
X353759285Y-98853571D01*
X353616428Y-98853571D01*
X353116428Y-97853571D02*
X353116428Y-99353571D01*
X353116428Y-97925000D02*
X352973571Y-97853571D01*
X352687857Y-97853571D01*
X352545000Y-97925000D01*
X352473571Y-97996428D01*
X352402142Y-98139285D01*
X352402142Y-98567857D01*
X352473571Y-98710714D01*
X352545000Y-98782142D01*
X352687857Y-98853571D01*
X352973571Y-98853571D01*
X353116428Y-98782142D01*
X351830714Y-98782142D02*
X351687857Y-98853571D01*
X351402142Y-98853571D01*
X351259285Y-98782142D01*
X351187857Y-98639285D01*
X351187857Y-98567857D01*
X351259285Y-98425000D01*
X351402142Y-98353571D01*
X351616428Y-98353571D01*
X351759285Y-98282142D01*
X351830714Y-98139285D01*
X351830714Y-98067857D01*
X351759285Y-97925000D01*
X351616428Y-97853571D01*
X351402142Y-97853571D01*
X351259285Y-97925000D01*
X350545000Y-98710714D02*
X350473571Y-98782142D01*
X350545000Y-98853571D01*
X350616428Y-98782142D01*
X350545000Y-98710714D01*
X350545000Y-98853571D01*
X350545000Y-97925000D02*
X350473571Y-97996428D01*
X350545000Y-98067857D01*
X350616428Y-97996428D01*
X350545000Y-97925000D01*
X350545000Y-98067857D01*
X348759285Y-97282142D02*
X350045000Y-99210714D01*
X347187857Y-97282142D02*
X348473571Y-99210714D01*
X346045000Y-97853571D02*
X346045000Y-99067857D01*
X346116428Y-99210714D01*
X346187857Y-99282142D01*
X346330714Y-99353571D01*
X346545000Y-99353571D01*
X346687857Y-99282142D01*
X346045000Y-98782142D02*
X346187857Y-98853571D01*
X346473571Y-98853571D01*
X346616428Y-98782142D01*
X346687857Y-98710714D01*
X346759285Y-98567857D01*
X346759285Y-98139285D01*
X346687857Y-97996428D01*
X346616428Y-97925000D01*
X346473571Y-97853571D01*
X346187857Y-97853571D01*
X346045000Y-97925000D01*
X345330714Y-98853571D02*
X345330714Y-97853571D01*
X345330714Y-97353571D02*
X345402142Y-97425000D01*
X345330714Y-97496428D01*
X345259285Y-97425000D01*
X345330714Y-97353571D01*
X345330714Y-97496428D01*
X344830714Y-97853571D02*
X344259285Y-97853571D01*
X344616428Y-97353571D02*
X344616428Y-98639285D01*
X344545000Y-98782142D01*
X344402142Y-98853571D01*
X344259285Y-98853571D01*
X343759285Y-98853571D02*
X343759285Y-97353571D01*
X343116428Y-98853571D02*
X343116428Y-98067857D01*
X343187857Y-97925000D01*
X343330714Y-97853571D01*
X343545000Y-97853571D01*
X343687857Y-97925000D01*
X343759285Y-97996428D01*
X341759285Y-97853571D02*
X341759285Y-98853571D01*
X342402142Y-97853571D02*
X342402142Y-98639285D01*
X342330714Y-98782142D01*
X342187857Y-98853571D01*
X341973571Y-98853571D01*
X341830714Y-98782142D01*
X341759285Y-98710714D01*
X341045000Y-98853571D02*
X341045000Y-97353571D01*
X341045000Y-97925000D02*
X340902142Y-97853571D01*
X340616428Y-97853571D01*
X340473571Y-97925000D01*
X340402142Y-97996428D01*
X340330714Y-98139285D01*
X340330714Y-98567857D01*
X340402142Y-98710714D01*
X340473571Y-98782142D01*
X340616428Y-98853571D01*
X340902142Y-98853571D01*
X341045000Y-98782142D01*
X339687857Y-98710714D02*
X339616428Y-98782142D01*
X339687857Y-98853571D01*
X339759285Y-98782142D01*
X339687857Y-98710714D01*
X339687857Y-98853571D01*
X338330714Y-98782142D02*
X338473571Y-98853571D01*
X338759285Y-98853571D01*
X338902142Y-98782142D01*
X338973571Y-98710714D01*
X339045000Y-98567857D01*
X339045000Y-98139285D01*
X338973571Y-97996428D01*
X338902142Y-97925000D01*
X338759285Y-97853571D01*
X338473571Y-97853571D01*
X338330714Y-97925000D01*
X337473571Y-98853571D02*
X337616428Y-98782142D01*
X337687857Y-98710714D01*
X337759285Y-98567857D01*
X337759285Y-98139285D01*
X337687857Y-97996428D01*
X337616428Y-97925000D01*
X337473571Y-97853571D01*
X337259285Y-97853571D01*
X337116428Y-97925000D01*
X337045000Y-97996428D01*
X336973571Y-98139285D01*
X336973571Y-98567857D01*
X337045000Y-98710714D01*
X337116428Y-98782142D01*
X337259285Y-98853571D01*
X337473571Y-98853571D01*
X336330714Y-98853571D02*
X336330714Y-97853571D01*
X336330714Y-97996428D02*
X336259285Y-97925000D01*
X336116428Y-97853571D01*
X335902142Y-97853571D01*
X335759285Y-97925000D01*
X335687857Y-98067857D01*
X335687857Y-98853571D01*
X335687857Y-98067857D02*
X335616428Y-97925000D01*
X335473571Y-97853571D01*
X335259285Y-97853571D01*
X335116428Y-97925000D01*
X335045000Y-98067857D01*
X335045000Y-98853571D01*
X333259285Y-97282142D02*
X334545000Y-99210714D01*
X332116428Y-98853571D02*
X332116428Y-97353571D01*
X332116428Y-98782142D02*
X332259285Y-98853571D01*
X332545000Y-98853571D01*
X332687857Y-98782142D01*
X332759285Y-98710714D01*
X332830714Y-98567857D01*
X332830714Y-98139285D01*
X332759285Y-97996428D01*
X332687857Y-97925000D01*
X332545000Y-97853571D01*
X332259285Y-97853571D01*
X332116428Y-97925000D01*
X331402142Y-98853571D02*
X331402142Y-97853571D01*
X331402142Y-97353571D02*
X331473571Y-97425000D01*
X331402142Y-97496428D01*
X331330714Y-97425000D01*
X331402142Y-97353571D01*
X331402142Y-97496428D01*
X330687857Y-97853571D02*
X330687857Y-98853571D01*
X330687857Y-97996428D02*
X330616428Y-97925000D01*
X330473571Y-97853571D01*
X330259285Y-97853571D01*
X330116428Y-97925000D01*
X330045000Y-98067857D01*
X330045000Y-98853571D01*
X328687857Y-97853571D02*
X328687857Y-99067857D01*
X328759285Y-99210714D01*
X328830714Y-99282142D01*
X328973571Y-99353571D01*
X329187857Y-99353571D01*
X329330714Y-99282142D01*
X328687857Y-98782142D02*
X328830714Y-98853571D01*
X329116428Y-98853571D01*
X329259285Y-98782142D01*
X329330714Y-98710714D01*
X329402142Y-98567857D01*
X329402142Y-98139285D01*
X329330714Y-97996428D01*
X329259285Y-97925000D01*
X329116428Y-97853571D01*
X328830714Y-97853571D01*
X328687857Y-97925000D01*
X328116428Y-97853571D02*
X327759285Y-98853571D01*
X327402142Y-97853571D02*
X327759285Y-98853571D01*
X327902142Y-99210714D01*
X327973571Y-99282142D01*
X328116428Y-99353571D01*
X326830714Y-98853571D02*
X326830714Y-97853571D01*
X326830714Y-97353571D02*
X326902142Y-97425000D01*
X326830714Y-97496428D01*
X326759285Y-97425000D01*
X326830714Y-97353571D01*
X326830714Y-97496428D01*
X326330714Y-97853571D02*
X325759285Y-97853571D01*
X326116428Y-98853571D02*
X326116428Y-97567857D01*
X326045000Y-97425000D01*
X325902142Y-97353571D01*
X325759285Y-97353571D01*
X324687857Y-98782142D02*
X324830714Y-98853571D01*
X325116428Y-98853571D01*
X325259285Y-98782142D01*
X325330714Y-98639285D01*
X325330714Y-98067857D01*
X325259285Y-97925000D01*
X325116428Y-97853571D01*
X324830714Y-97853571D01*
X324687857Y-97925000D01*
X324616428Y-98067857D01*
X324616428Y-98210714D01*
X325330714Y-98353571D01*
X323973571Y-98853571D02*
X323973571Y-97853571D01*
X323973571Y-97353571D02*
X324045000Y-97425000D01*
X323973571Y-97496428D01*
X323902142Y-97425000D01*
X323973571Y-97353571D01*
X323973571Y-97496428D01*
X322187857Y-97282142D02*
X323473571Y-99210714D01*
X321687857Y-98853571D02*
X321687857Y-97353571D01*
X320830714Y-98853571D01*
X320830714Y-97353571D01*
X320116428Y-98853571D02*
X320116428Y-97353571D01*
X320116428Y-98067857D02*
X319259285Y-98067857D01*
X319259285Y-98853571D02*
X319259285Y-97353571D01*
X318687857Y-97353571D02*
X318330714Y-98853571D01*
X318045000Y-97782142D01*
X317759285Y-98853571D01*
X317402142Y-97353571D01*
X316187857Y-97353571D02*
X316473571Y-97353571D01*
X316616428Y-97425000D01*
X316687857Y-97496428D01*
X316830714Y-97710714D01*
X316902142Y-97996428D01*
X316902142Y-98567857D01*
X316830714Y-98710714D01*
X316759285Y-98782142D01*
X316616428Y-98853571D01*
X316330714Y-98853571D01*
X316187857Y-98782142D01*
X316116428Y-98710714D01*
X316045000Y-98567857D01*
X316045000Y-98210714D01*
X316116428Y-98067857D01*
X316187857Y-97996428D01*
X316330714Y-97925000D01*
X316616428Y-97925000D01*
X316759285Y-97996428D01*
X316830714Y-98067857D01*
X316902142Y-98210714D01*
X315187857Y-97996428D02*
X315330714Y-97925000D01*
X315402142Y-97853571D01*
X315473571Y-97710714D01*
X315473571Y-97639285D01*
X315402142Y-97496428D01*
X315330714Y-97425000D01*
X315187857Y-97353571D01*
X314902142Y-97353571D01*
X314759285Y-97425000D01*
X314687857Y-97496428D01*
X314616428Y-97639285D01*
X314616428Y-97710714D01*
X314687857Y-97853571D01*
X314759285Y-97925000D01*
X314902142Y-97996428D01*
X315187857Y-97996428D01*
X315330714Y-98067857D01*
X315402142Y-98139285D01*
X315473571Y-98282142D01*
X315473571Y-98567857D01*
X315402142Y-98710714D01*
X315330714Y-98782142D01*
X315187857Y-98853571D01*
X314902142Y-98853571D01*
X314759285Y-98782142D01*
X314687857Y-98710714D01*
X314616428Y-98567857D01*
X314616428Y-98282142D01*
X314687857Y-98139285D01*
X314759285Y-98067857D01*
X314902142Y-97996428D01*
X312902142Y-97282142D02*
X314187857Y-99210714D01*
D11*
X222316035Y-90789728D02*
X230316035Y-90789728D01*
X359666001Y-90789728D02*
G75*
G03X355666001Y-86789728I-4000000J0D01*
G01*
X355666001Y-86789728D02*
X234316035Y-86789728D01*
X359666001Y-193039800D02*
X359666001Y-90789728D01*
X234316035Y-86789728D02*
G75*
G03X230316035Y-90789728I0J-4000000D01*
G01*
X222316035Y-90789728D02*
G75*
G03X218316035Y-86789728I-4000000J0D01*
G01*
X96966085Y-86789728D02*
G75*
G03X92966085Y-90789728I0J-4000000D01*
G01*
X218316035Y-86789728D02*
X96966085Y-86789728D01*
X92966085Y-90789728D02*
X92966085Y-193039800D01*
X359666001Y-193039800D02*
X92966085Y-193039800D01*
D12*
X242841199Y-171465351D02*
X242841199Y-170465351D01*
X241841199Y-157465351D02*
X242841199Y-157465351D01*
X242841199Y-171465351D02*
X241841199Y-171465351D01*
X242841199Y-158465351D02*
X242841199Y-157465351D01*
X228841199Y-157465351D02*
X228841199Y-158465351D01*
X229841199Y-171465351D02*
X228841199Y-171465351D01*
X228841199Y-157465351D02*
X229841199Y-157465351D01*
X228841199Y-170465351D02*
X228841199Y-171465351D01*
X252365199Y-190515265D02*
X252365199Y-189515265D01*
X251365199Y-176515265D02*
X252365199Y-176515265D01*
X252365199Y-190515265D02*
X251365199Y-190515265D01*
X252365199Y-177515265D02*
X252365199Y-176515265D01*
X238365199Y-176515265D02*
X238365199Y-177515265D01*
X239365199Y-190515265D02*
X238365199Y-190515265D01*
X238365199Y-176515265D02*
X239365199Y-176515265D01*
X238365199Y-189515265D02*
X238365199Y-190515265D01*
X119015199Y-152415365D02*
X119015199Y-151415365D01*
X118015199Y-138415365D02*
X119015199Y-138415365D01*
X119015199Y-152415365D02*
X118015199Y-152415365D01*
X119015199Y-139415365D02*
X119015199Y-138415365D01*
X105015199Y-138415365D02*
X105015199Y-139415365D01*
X106015199Y-152415365D02*
X105015199Y-152415365D01*
X105015199Y-138415365D02*
X106015199Y-138415365D01*
X105015199Y-151415365D02*
X105015199Y-152415365D01*
X128540199Y-190515266D02*
X128540199Y-189515266D01*
X127540199Y-176515266D02*
X128540199Y-176515266D01*
X128540199Y-190515266D02*
X127540199Y-190515266D01*
X128540199Y-177515266D02*
X128540199Y-176515266D01*
X114540199Y-176515266D02*
X114540199Y-177515266D01*
X115540199Y-190515266D02*
X114540199Y-190515266D01*
X114540199Y-176515266D02*
X115540199Y-176515266D01*
X114540199Y-189515266D02*
X114540199Y-190515266D01*
X357140274Y-114315350D02*
X357140274Y-113315350D01*
X356140274Y-100315350D02*
X357140274Y-100315350D01*
X357140274Y-114315350D02*
X356140274Y-114315350D01*
X357140274Y-101315350D02*
X357140274Y-100315350D01*
X343140274Y-100315350D02*
X343140274Y-101315350D01*
X344140274Y-114315350D02*
X343140274Y-114315350D01*
X343140274Y-100315350D02*
X344140274Y-100315350D01*
X343140274Y-113315350D02*
X343140274Y-114315350D01*
X109490199Y-114315350D02*
X109490199Y-113315350D01*
X108490199Y-100315350D02*
X109490199Y-100315350D01*
X109490199Y-114315350D02*
X108490199Y-114315350D01*
X109490199Y-101315350D02*
X109490199Y-100315350D01*
X95490199Y-100315350D02*
X95490199Y-101315350D01*
X96490199Y-114315350D02*
X95490199Y-114315350D01*
X95490199Y-100315350D02*
X96490199Y-100315350D01*
X95490199Y-113315350D02*
X95490199Y-114315350D01*
X128540199Y-114315350D02*
X128540199Y-113315350D01*
X127540199Y-100315350D02*
X128540199Y-100315350D01*
X128540199Y-114315350D02*
X127540199Y-114315350D01*
X128540199Y-101315350D02*
X128540199Y-100315350D01*
X114540199Y-100315350D02*
X114540199Y-101315350D01*
X115540199Y-114315350D02*
X114540199Y-114315350D01*
X114540199Y-100315350D02*
X115540199Y-100315350D01*
X114540199Y-113315350D02*
X114540199Y-114315350D01*
X147590199Y-114315350D02*
X147590199Y-113315350D01*
X146590199Y-100315350D02*
X147590199Y-100315350D01*
X147590199Y-114315350D02*
X146590199Y-114315350D01*
X147590199Y-101315350D02*
X147590199Y-100315350D01*
X133590199Y-100315350D02*
X133590199Y-101315350D01*
X134590199Y-114315350D02*
X133590199Y-114315350D01*
X133590199Y-100315350D02*
X134590199Y-100315350D01*
X133590199Y-113315350D02*
X133590199Y-114315350D01*
X357140274Y-133365350D02*
X357140274Y-132365350D01*
X356140274Y-119365350D02*
X357140274Y-119365350D01*
X357140274Y-133365350D02*
X356140274Y-133365350D01*
X357140274Y-120365350D02*
X357140274Y-119365350D01*
X343140274Y-119365350D02*
X343140274Y-120365350D01*
X344140274Y-133365350D02*
X343140274Y-133365350D01*
X343140274Y-119365350D02*
X344140274Y-119365350D01*
X343140274Y-132365350D02*
X343140274Y-133365350D01*
X357140274Y-152415365D02*
X357140274Y-151415365D01*
X356140274Y-138415365D02*
X357140274Y-138415365D01*
X357140274Y-152415365D02*
X356140274Y-152415365D01*
X357140274Y-139415365D02*
X357140274Y-138415365D01*
X343140274Y-138415365D02*
X343140274Y-139415365D01*
X344140274Y-152415365D02*
X343140274Y-152415365D01*
X343140274Y-138415365D02*
X344140274Y-138415365D01*
X343140274Y-151415365D02*
X343140274Y-152415365D01*
X357140274Y-171465351D02*
X357140274Y-170465351D01*
X356140274Y-157465351D02*
X357140274Y-157465351D01*
X357140274Y-171465351D02*
X356140274Y-171465351D01*
X357140274Y-158465351D02*
X357140274Y-157465351D01*
X343140274Y-157465351D02*
X343140274Y-158465351D01*
X344140274Y-171465351D02*
X343140274Y-171465351D01*
X343140274Y-157465351D02*
X344140274Y-157465351D01*
X343140274Y-170465351D02*
X343140274Y-171465351D01*
X357140275Y-190515265D02*
X357140275Y-189515265D01*
X356140275Y-176515265D02*
X357140275Y-176515265D01*
X357140275Y-190515265D02*
X356140275Y-190515265D01*
X357140275Y-177515265D02*
X357140275Y-176515265D01*
X343140275Y-176515265D02*
X343140275Y-177515265D01*
X344140275Y-190515265D02*
X343140275Y-190515265D01*
X343140275Y-176515265D02*
X344140275Y-176515265D01*
X343140275Y-189515265D02*
X343140275Y-190515265D01*
X338090349Y-114315350D02*
X338090349Y-113315350D01*
X337090349Y-100315350D02*
X338090349Y-100315350D01*
X338090349Y-114315350D02*
X337090349Y-114315350D01*
X338090349Y-101315350D02*
X338090349Y-100315350D01*
X324090349Y-100315350D02*
X324090349Y-101315350D01*
X325090349Y-114315350D02*
X324090349Y-114315350D01*
X324090349Y-100315350D02*
X325090349Y-100315350D01*
X324090349Y-113315350D02*
X324090349Y-114315350D01*
X338090349Y-133365350D02*
X338090349Y-132365350D01*
X337090349Y-119365350D02*
X338090349Y-119365350D01*
X338090349Y-133365350D02*
X337090349Y-133365350D01*
X338090349Y-120365350D02*
X338090349Y-119365350D01*
X324090349Y-119365350D02*
X324090349Y-120365350D01*
X325090349Y-133365350D02*
X324090349Y-133365350D01*
X324090349Y-119365350D02*
X325090349Y-119365350D01*
X324090349Y-132365350D02*
X324090349Y-133365350D01*
X338090349Y-152415365D02*
X338090349Y-151415365D01*
X337090349Y-138415365D02*
X338090349Y-138415365D01*
X338090349Y-152415365D02*
X337090349Y-152415365D01*
X338090349Y-139415365D02*
X338090349Y-138415365D01*
X324090349Y-138415365D02*
X324090349Y-139415365D01*
X325090349Y-152415365D02*
X324090349Y-152415365D01*
X324090349Y-138415365D02*
X325090349Y-138415365D01*
X324090349Y-151415365D02*
X324090349Y-152415365D01*
X338090349Y-171465351D02*
X338090349Y-170465351D01*
X337090349Y-157465351D02*
X338090349Y-157465351D01*
X338090349Y-171465351D02*
X337090349Y-171465351D01*
X338090349Y-158465351D02*
X338090349Y-157465351D01*
X324090349Y-157465351D02*
X324090349Y-158465351D01*
X325090349Y-171465351D02*
X324090349Y-171465351D01*
X324090349Y-157465351D02*
X325090349Y-157465351D01*
X324090349Y-170465351D02*
X324090349Y-171465351D01*
X338090350Y-190515265D02*
X338090350Y-189515265D01*
X337090350Y-176515265D02*
X338090350Y-176515265D01*
X338090350Y-190515265D02*
X337090350Y-190515265D01*
X338090350Y-177515265D02*
X338090350Y-176515265D01*
X324090350Y-176515265D02*
X324090350Y-177515265D01*
X325090350Y-190515265D02*
X324090350Y-190515265D01*
X324090350Y-176515265D02*
X325090350Y-176515265D01*
X324090350Y-189515265D02*
X324090350Y-190515265D01*
X319040349Y-114315350D02*
X319040349Y-113315350D01*
X318040349Y-100315350D02*
X319040349Y-100315350D01*
X319040349Y-114315350D02*
X318040349Y-114315350D01*
X319040349Y-101315350D02*
X319040349Y-100315350D01*
X305040349Y-100315350D02*
X305040349Y-101315350D01*
X306040349Y-114315350D02*
X305040349Y-114315350D01*
X305040349Y-100315350D02*
X306040349Y-100315350D01*
X305040349Y-113315350D02*
X305040349Y-114315350D01*
X319040349Y-133365350D02*
X319040349Y-132365350D01*
X318040349Y-119365350D02*
X319040349Y-119365350D01*
X319040349Y-133365350D02*
X318040349Y-133365350D01*
X319040349Y-120365350D02*
X319040349Y-119365350D01*
X305040349Y-119365350D02*
X305040349Y-120365350D01*
X306040349Y-133365350D02*
X305040349Y-133365350D01*
X305040349Y-119365350D02*
X306040349Y-119365350D01*
X305040349Y-132365350D02*
X305040349Y-133365350D01*
X319040349Y-152415365D02*
X319040349Y-151415365D01*
X318040349Y-138415365D02*
X319040349Y-138415365D01*
X319040349Y-152415365D02*
X318040349Y-152415365D01*
X319040349Y-139415365D02*
X319040349Y-138415365D01*
X305040349Y-138415365D02*
X305040349Y-139415365D01*
X306040349Y-152415365D02*
X305040349Y-152415365D01*
X305040349Y-138415365D02*
X306040349Y-138415365D01*
X305040349Y-151415365D02*
X305040349Y-152415365D01*
X319040349Y-171465351D02*
X319040349Y-170465351D01*
X318040349Y-157465351D02*
X319040349Y-157465351D01*
X319040349Y-171465351D02*
X318040349Y-171465351D01*
X319040349Y-158465351D02*
X319040349Y-157465351D01*
X305040349Y-157465351D02*
X305040349Y-158465351D01*
X306040349Y-171465351D02*
X305040349Y-171465351D01*
X305040349Y-157465351D02*
X306040349Y-157465351D01*
X305040349Y-170465351D02*
X305040349Y-171465351D01*
X319040350Y-190515265D02*
X319040350Y-189515265D01*
X318040350Y-176515265D02*
X319040350Y-176515265D01*
X319040350Y-190515265D02*
X318040350Y-190515265D01*
X319040350Y-177515265D02*
X319040350Y-176515265D01*
X305040350Y-176515265D02*
X305040350Y-177515265D01*
X306040350Y-190515265D02*
X305040350Y-190515265D01*
X305040350Y-176515265D02*
X306040350Y-176515265D01*
X305040350Y-189515265D02*
X305040350Y-190515265D01*
X299990349Y-114315350D02*
X299990349Y-113315350D01*
X298990349Y-100315350D02*
X299990349Y-100315350D01*
X299990349Y-114315350D02*
X298990349Y-114315350D01*
X299990349Y-101315350D02*
X299990349Y-100315350D01*
X285990349Y-100315350D02*
X285990349Y-101315350D01*
X286990349Y-114315350D02*
X285990349Y-114315350D01*
X285990349Y-100315350D02*
X286990349Y-100315350D01*
X285990349Y-113315350D02*
X285990349Y-114315350D01*
X299990349Y-133365350D02*
X299990349Y-132365350D01*
X298990349Y-119365350D02*
X299990349Y-119365350D01*
X299990349Y-133365350D02*
X298990349Y-133365350D01*
X299990349Y-120365350D02*
X299990349Y-119365350D01*
X285990349Y-119365350D02*
X285990349Y-120365350D01*
X286990349Y-133365350D02*
X285990349Y-133365350D01*
X285990349Y-119365350D02*
X286990349Y-119365350D01*
X285990349Y-132365350D02*
X285990349Y-133365350D01*
X299990349Y-152415365D02*
X299990349Y-151415365D01*
X298990349Y-138415365D02*
X299990349Y-138415365D01*
X299990349Y-152415365D02*
X298990349Y-152415365D01*
X299990349Y-139415365D02*
X299990349Y-138415365D01*
X285990349Y-138415365D02*
X285990349Y-139415365D01*
X286990349Y-152415365D02*
X285990349Y-152415365D01*
X285990349Y-138415365D02*
X286990349Y-138415365D01*
X285990349Y-151415365D02*
X285990349Y-152415365D01*
X299990349Y-171465351D02*
X299990349Y-170465351D01*
X298990349Y-157465351D02*
X299990349Y-157465351D01*
X299990349Y-171465351D02*
X298990349Y-171465351D01*
X299990349Y-158465351D02*
X299990349Y-157465351D01*
X285990349Y-157465351D02*
X285990349Y-158465351D01*
X286990349Y-171465351D02*
X285990349Y-171465351D01*
X285990349Y-157465351D02*
X286990349Y-157465351D01*
X285990349Y-170465351D02*
X285990349Y-171465351D01*
X299990350Y-190515265D02*
X299990350Y-189515265D01*
X298990350Y-176515265D02*
X299990350Y-176515265D01*
X299990350Y-190515265D02*
X298990350Y-190515265D01*
X299990350Y-177515265D02*
X299990350Y-176515265D01*
X285990350Y-176515265D02*
X285990350Y-177515265D01*
X286990350Y-190515265D02*
X285990350Y-190515265D01*
X285990350Y-176515265D02*
X286990350Y-176515265D01*
X285990350Y-189515265D02*
X285990350Y-190515265D01*
X280940349Y-114315350D02*
X280940349Y-113315350D01*
X279940349Y-100315350D02*
X280940349Y-100315350D01*
X280940349Y-114315350D02*
X279940349Y-114315350D01*
X280940349Y-101315350D02*
X280940349Y-100315350D01*
X266940349Y-100315350D02*
X266940349Y-101315350D01*
X267940349Y-114315350D02*
X266940349Y-114315350D01*
X266940349Y-100315350D02*
X267940349Y-100315350D01*
X266940349Y-113315350D02*
X266940349Y-114315350D01*
X280940349Y-133365350D02*
X280940349Y-132365350D01*
X279940349Y-119365350D02*
X280940349Y-119365350D01*
X280940349Y-133365350D02*
X279940349Y-133365350D01*
X280940349Y-120365350D02*
X280940349Y-119365350D01*
X266940349Y-119365350D02*
X266940349Y-120365350D01*
X267940349Y-133365350D02*
X266940349Y-133365350D01*
X266940349Y-119365350D02*
X267940349Y-119365350D01*
X266940349Y-132365350D02*
X266940349Y-133365350D01*
X280940349Y-152415365D02*
X280940349Y-151415365D01*
X279940349Y-138415365D02*
X280940349Y-138415365D01*
X280940349Y-152415365D02*
X279940349Y-152415365D01*
X280940349Y-139415365D02*
X280940349Y-138415365D01*
X266940349Y-138415365D02*
X266940349Y-139415365D01*
X267940349Y-152415365D02*
X266940349Y-152415365D01*
X266940349Y-138415365D02*
X267940349Y-138415365D01*
X266940349Y-151415365D02*
X266940349Y-152415365D01*
X280940349Y-171465351D02*
X280940349Y-170465351D01*
X279940349Y-157465351D02*
X280940349Y-157465351D01*
X280940349Y-171465351D02*
X279940349Y-171465351D01*
X280940349Y-158465351D02*
X280940349Y-157465351D01*
X266940349Y-157465351D02*
X266940349Y-158465351D01*
X267940349Y-171465351D02*
X266940349Y-171465351D01*
X266940349Y-157465351D02*
X267940349Y-157465351D01*
X266940349Y-170465351D02*
X266940349Y-171465351D01*
X280940350Y-190515265D02*
X280940350Y-189515265D01*
X279940350Y-176515265D02*
X280940350Y-176515265D01*
X280940350Y-190515265D02*
X279940350Y-190515265D01*
X280940350Y-177515265D02*
X280940350Y-176515265D01*
X266940350Y-176515265D02*
X266940350Y-177515265D01*
X267940350Y-190515265D02*
X266940350Y-190515265D01*
X266940350Y-176515265D02*
X267940350Y-176515265D01*
X266940350Y-189515265D02*
X266940350Y-190515265D01*
X261891049Y-114315350D02*
X261891049Y-113315350D01*
X260891049Y-100315350D02*
X261891049Y-100315350D01*
X261891049Y-114315350D02*
X260891049Y-114315350D01*
X261891049Y-101315350D02*
X261891049Y-100315350D01*
X247891049Y-100315350D02*
X247891049Y-101315350D01*
X248891049Y-114315350D02*
X247891049Y-114315350D01*
X247891049Y-100315350D02*
X248891049Y-100315350D01*
X247891049Y-113315350D02*
X247891049Y-114315350D01*
X261891049Y-133365350D02*
X261891049Y-132365350D01*
X260891049Y-119365350D02*
X261891049Y-119365350D01*
X261891049Y-133365350D02*
X260891049Y-133365350D01*
X261891049Y-120365350D02*
X261891049Y-119365350D01*
X247891049Y-119365350D02*
X247891049Y-120365350D01*
X248891049Y-133365350D02*
X247891049Y-133365350D01*
X247891049Y-119365350D02*
X248891049Y-119365350D01*
X247891049Y-132365350D02*
X247891049Y-133365350D01*
X261891049Y-152415365D02*
X261891049Y-151415365D01*
X260891049Y-138415365D02*
X261891049Y-138415365D01*
X261891049Y-152415365D02*
X260891049Y-152415365D01*
X261891049Y-139415365D02*
X261891049Y-138415365D01*
X247891049Y-138415365D02*
X247891049Y-139415365D01*
X248891049Y-152415365D02*
X247891049Y-152415365D01*
X247891049Y-138415365D02*
X248891049Y-138415365D01*
X247891049Y-151415365D02*
X247891049Y-152415365D01*
X261891049Y-171465351D02*
X261891049Y-170465351D01*
X260891049Y-157465351D02*
X261891049Y-157465351D01*
X261891049Y-171465351D02*
X260891049Y-171465351D01*
X261891049Y-158465351D02*
X261891049Y-157465351D01*
X247891049Y-157465351D02*
X247891049Y-158465351D01*
X248891049Y-171465351D02*
X247891049Y-171465351D01*
X247891049Y-157465351D02*
X248891049Y-157465351D01*
X247891049Y-170465351D02*
X247891049Y-171465351D01*
X242841199Y-114315350D02*
X242841199Y-113315350D01*
X241841199Y-100315350D02*
X242841199Y-100315350D01*
X242841199Y-114315350D02*
X241841199Y-114315350D01*
X242841199Y-101315350D02*
X242841199Y-100315350D01*
X228841199Y-100315350D02*
X228841199Y-101315350D01*
X229841199Y-114315350D02*
X228841199Y-114315350D01*
X228841199Y-100315350D02*
X229841199Y-100315350D01*
X228841199Y-113315350D02*
X228841199Y-114315350D01*
X242841199Y-133365350D02*
X242841199Y-132365350D01*
X241841199Y-119365350D02*
X242841199Y-119365350D01*
X242841199Y-133365350D02*
X241841199Y-133365350D01*
X242841199Y-120365350D02*
X242841199Y-119365350D01*
X228841199Y-119365350D02*
X228841199Y-120365350D01*
X229841199Y-133365350D02*
X228841199Y-133365350D01*
X228841199Y-119365350D02*
X229841199Y-119365350D01*
X228841199Y-132365350D02*
X228841199Y-133365350D01*
X242841199Y-152415365D02*
X242841199Y-151415365D01*
X241841199Y-138415365D02*
X242841199Y-138415365D01*
X242841199Y-152415365D02*
X241841199Y-152415365D01*
X242841199Y-139415365D02*
X242841199Y-138415365D01*
X228841199Y-138415365D02*
X228841199Y-139415365D01*
X229841199Y-152415365D02*
X228841199Y-152415365D01*
X228841199Y-138415365D02*
X229841199Y-138415365D01*
X228841199Y-151415365D02*
X228841199Y-152415365D01*
X223790200Y-114315350D02*
X223790200Y-113315350D01*
X222790200Y-100315350D02*
X223790200Y-100315350D01*
X223790200Y-114315350D02*
X222790200Y-114315350D01*
X223790200Y-101315350D02*
X223790200Y-100315350D01*
X209790200Y-100315350D02*
X209790200Y-101315350D01*
X210790200Y-114315350D02*
X209790200Y-114315350D01*
X209790200Y-100315350D02*
X210790200Y-100315350D01*
X209790200Y-113315350D02*
X209790200Y-114315350D01*
X223790200Y-133365351D02*
X223790200Y-132365351D01*
X222790200Y-119365351D02*
X223790200Y-119365351D01*
X223790200Y-133365351D02*
X222790200Y-133365351D01*
X223790200Y-120365351D02*
X223790200Y-119365351D01*
X209790200Y-119365351D02*
X209790200Y-120365351D01*
X210790200Y-133365351D02*
X209790200Y-133365351D01*
X209790200Y-119365351D02*
X210790200Y-119365351D01*
X209790200Y-132365351D02*
X209790200Y-133365351D01*
X223790200Y-152415365D02*
X223790200Y-151415365D01*
X222790200Y-138415365D02*
X223790200Y-138415365D01*
X223790200Y-152415365D02*
X222790200Y-152415365D01*
X223790200Y-139415365D02*
X223790200Y-138415365D01*
X209790200Y-138415365D02*
X209790200Y-139415365D01*
X210790200Y-152415365D02*
X209790200Y-152415365D01*
X209790200Y-138415365D02*
X210790200Y-138415365D01*
X209790200Y-151415365D02*
X209790200Y-152415365D01*
X223790200Y-171465351D02*
X223790200Y-170465351D01*
X222790200Y-157465351D02*
X223790200Y-157465351D01*
X223790200Y-171465351D02*
X222790200Y-171465351D01*
X223790200Y-158465351D02*
X223790200Y-157465351D01*
X209790200Y-157465351D02*
X209790200Y-158465351D01*
X210790200Y-171465351D02*
X209790200Y-171465351D01*
X209790200Y-157465351D02*
X210790200Y-157465351D01*
X209790200Y-170465351D02*
X209790200Y-171465351D01*
X223790200Y-190515266D02*
X223790200Y-189515266D01*
X222790200Y-176515266D02*
X223790200Y-176515266D01*
X223790200Y-190515266D02*
X222790200Y-190515266D01*
X223790200Y-177515266D02*
X223790200Y-176515266D01*
X209790200Y-176515266D02*
X209790200Y-177515266D01*
X210790200Y-190515266D02*
X209790200Y-190515266D01*
X209790200Y-176515266D02*
X210790200Y-176515266D01*
X209790200Y-189515266D02*
X209790200Y-190515266D01*
X204740199Y-114315350D02*
X204740199Y-113315350D01*
X203740199Y-100315350D02*
X204740199Y-100315350D01*
X204740199Y-114315350D02*
X203740199Y-114315350D01*
X204740199Y-101315350D02*
X204740199Y-100315350D01*
X190740199Y-100315350D02*
X190740199Y-101315350D01*
X191740199Y-114315350D02*
X190740199Y-114315350D01*
X190740199Y-100315350D02*
X191740199Y-100315350D01*
X190740199Y-113315350D02*
X190740199Y-114315350D01*
X204740199Y-133365351D02*
X204740199Y-132365351D01*
X203740199Y-119365351D02*
X204740199Y-119365351D01*
X204740199Y-133365351D02*
X203740199Y-133365351D01*
X204740199Y-120365351D02*
X204740199Y-119365351D01*
X190740199Y-119365351D02*
X190740199Y-120365351D01*
X191740199Y-133365351D02*
X190740199Y-133365351D01*
X190740199Y-119365351D02*
X191740199Y-119365351D01*
X190740199Y-132365351D02*
X190740199Y-133365351D01*
X204740199Y-152415365D02*
X204740199Y-151415365D01*
X203740199Y-138415365D02*
X204740199Y-138415365D01*
X204740199Y-152415365D02*
X203740199Y-152415365D01*
X204740199Y-139415365D02*
X204740199Y-138415365D01*
X190740199Y-138415365D02*
X190740199Y-139415365D01*
X191740199Y-152415365D02*
X190740199Y-152415365D01*
X190740199Y-138415365D02*
X191740199Y-138415365D01*
X190740199Y-151415365D02*
X190740199Y-152415365D01*
X204740199Y-171465351D02*
X204740199Y-170465351D01*
X203740199Y-157465351D02*
X204740199Y-157465351D01*
X204740199Y-171465351D02*
X203740199Y-171465351D01*
X204740199Y-158465351D02*
X204740199Y-157465351D01*
X190740199Y-157465351D02*
X190740199Y-158465351D01*
X191740199Y-171465351D02*
X190740199Y-171465351D01*
X190740199Y-157465351D02*
X191740199Y-157465351D01*
X190740199Y-170465351D02*
X190740199Y-171465351D01*
X204740199Y-190515266D02*
X204740199Y-189515266D01*
X203740199Y-176515266D02*
X204740199Y-176515266D01*
X204740199Y-190515266D02*
X203740199Y-190515266D01*
X204740199Y-177515266D02*
X204740199Y-176515266D01*
X190740199Y-176515266D02*
X190740199Y-177515266D01*
X191740199Y-190515266D02*
X190740199Y-190515266D01*
X190740199Y-176515266D02*
X191740199Y-176515266D01*
X190740199Y-189515266D02*
X190740199Y-190515266D01*
X185690199Y-114315350D02*
X185690199Y-113315350D01*
X184690199Y-100315350D02*
X185690199Y-100315350D01*
X185690199Y-114315350D02*
X184690199Y-114315350D01*
X185690199Y-101315350D02*
X185690199Y-100315350D01*
X171690199Y-100315350D02*
X171690199Y-101315350D01*
X172690199Y-114315350D02*
X171690199Y-114315350D01*
X171690199Y-100315350D02*
X172690199Y-100315350D01*
X171690199Y-113315350D02*
X171690199Y-114315350D01*
X185690199Y-133365351D02*
X185690199Y-132365351D01*
X184690199Y-119365351D02*
X185690199Y-119365351D01*
X185690199Y-133365351D02*
X184690199Y-133365351D01*
X185690199Y-120365351D02*
X185690199Y-119365351D01*
X171690199Y-119365351D02*
X171690199Y-120365351D01*
X172690199Y-133365351D02*
X171690199Y-133365351D01*
X171690199Y-119365351D02*
X172690199Y-119365351D01*
X171690199Y-132365351D02*
X171690199Y-133365351D01*
X185690199Y-152415365D02*
X185690199Y-151415365D01*
X184690199Y-138415365D02*
X185690199Y-138415365D01*
X185690199Y-152415365D02*
X184690199Y-152415365D01*
X185690199Y-139415365D02*
X185690199Y-138415365D01*
X171690199Y-138415365D02*
X171690199Y-139415365D01*
X172690199Y-152415365D02*
X171690199Y-152415365D01*
X171690199Y-138415365D02*
X172690199Y-138415365D01*
X171690199Y-151415365D02*
X171690199Y-152415365D01*
X185690199Y-171465351D02*
X185690199Y-170465351D01*
X184690199Y-157465351D02*
X185690199Y-157465351D01*
X185690199Y-171465351D02*
X184690199Y-171465351D01*
X185690199Y-158465351D02*
X185690199Y-157465351D01*
X171690199Y-157465351D02*
X171690199Y-158465351D01*
X172690199Y-171465351D02*
X171690199Y-171465351D01*
X171690199Y-157465351D02*
X172690199Y-157465351D01*
X171690199Y-170465351D02*
X171690199Y-171465351D01*
X185690199Y-190515266D02*
X185690199Y-189515266D01*
X184690199Y-176515266D02*
X185690199Y-176515266D01*
X185690199Y-190515266D02*
X184690199Y-190515266D01*
X185690199Y-177515266D02*
X185690199Y-176515266D01*
X171690199Y-176515266D02*
X171690199Y-177515266D01*
X172690199Y-190515266D02*
X171690199Y-190515266D01*
X171690199Y-176515266D02*
X172690199Y-176515266D01*
X171690199Y-189515266D02*
X171690199Y-190515266D01*
X166640199Y-114315350D02*
X166640199Y-113315350D01*
X165640199Y-100315350D02*
X166640199Y-100315350D01*
X166640199Y-114315350D02*
X165640199Y-114315350D01*
X166640199Y-101315350D02*
X166640199Y-100315350D01*
X152640199Y-100315350D02*
X152640199Y-101315350D01*
X153640199Y-114315350D02*
X152640199Y-114315350D01*
X152640199Y-100315350D02*
X153640199Y-100315350D01*
X152640199Y-113315350D02*
X152640199Y-114315350D01*
X166640199Y-133365351D02*
X166640199Y-132365351D01*
X165640199Y-119365351D02*
X166640199Y-119365351D01*
X166640199Y-133365351D02*
X165640199Y-133365351D01*
X166640199Y-120365351D02*
X166640199Y-119365351D01*
X152640199Y-119365351D02*
X152640199Y-120365351D01*
X153640199Y-133365351D02*
X152640199Y-133365351D01*
X152640199Y-119365351D02*
X153640199Y-119365351D01*
X152640199Y-132365351D02*
X152640199Y-133365351D01*
X166640199Y-152415365D02*
X166640199Y-151415365D01*
X165640199Y-138415365D02*
X166640199Y-138415365D01*
X166640199Y-152415365D02*
X165640199Y-152415365D01*
X166640199Y-139415365D02*
X166640199Y-138415365D01*
X152640199Y-138415365D02*
X152640199Y-139415365D01*
X153640199Y-152415365D02*
X152640199Y-152415365D01*
X152640199Y-138415365D02*
X153640199Y-138415365D01*
X152640199Y-151415365D02*
X152640199Y-152415365D01*
X166640199Y-171465351D02*
X166640199Y-170465351D01*
X165640199Y-157465351D02*
X166640199Y-157465351D01*
X166640199Y-171465351D02*
X165640199Y-171465351D01*
X166640199Y-158465351D02*
X166640199Y-157465351D01*
X152640199Y-157465351D02*
X152640199Y-158465351D01*
X153640199Y-171465351D02*
X152640199Y-171465351D01*
X152640199Y-157465351D02*
X153640199Y-157465351D01*
X152640199Y-170465351D02*
X152640199Y-171465351D01*
X166640199Y-190515266D02*
X166640199Y-189515266D01*
X165640199Y-176515266D02*
X166640199Y-176515266D01*
X166640199Y-190515266D02*
X165640199Y-190515266D01*
X166640199Y-177515266D02*
X166640199Y-176515266D01*
X152640199Y-176515266D02*
X152640199Y-177515266D01*
X153640199Y-190515266D02*
X152640199Y-190515266D01*
X152640199Y-176515266D02*
X153640199Y-176515266D01*
X152640199Y-189515266D02*
X152640199Y-190515266D01*
X147590199Y-133365351D02*
X147590199Y-132365351D01*
X146590199Y-119365351D02*
X147590199Y-119365351D01*
X147590199Y-133365351D02*
X146590199Y-133365351D01*
X147590199Y-120365351D02*
X147590199Y-119365351D01*
X133590199Y-119365351D02*
X133590199Y-120365351D01*
X134590199Y-133365351D02*
X133590199Y-133365351D01*
X133590199Y-119365351D02*
X134590199Y-119365351D01*
X133590199Y-132365351D02*
X133590199Y-133365351D01*
X147590199Y-152415365D02*
X147590199Y-151415365D01*
X146590199Y-138415365D02*
X147590199Y-138415365D01*
X147590199Y-152415365D02*
X146590199Y-152415365D01*
X147590199Y-139415365D02*
X147590199Y-138415365D01*
X133590199Y-138415365D02*
X133590199Y-139415365D01*
X134590199Y-152415365D02*
X133590199Y-152415365D01*
X133590199Y-138415365D02*
X134590199Y-138415365D01*
X133590199Y-151415365D02*
X133590199Y-152415365D01*
X147590199Y-171465351D02*
X147590199Y-170465351D01*
X146590199Y-157465351D02*
X147590199Y-157465351D01*
X147590199Y-171465351D02*
X146590199Y-171465351D01*
X147590199Y-158465351D02*
X147590199Y-157465351D01*
X133590199Y-157465351D02*
X133590199Y-158465351D01*
X134590199Y-171465351D02*
X133590199Y-171465351D01*
X133590199Y-157465351D02*
X134590199Y-157465351D01*
X133590199Y-170465351D02*
X133590199Y-171465351D01*
X147590199Y-190515266D02*
X147590199Y-189515266D01*
X146590199Y-176515266D02*
X147590199Y-176515266D01*
X147590199Y-190515266D02*
X146590199Y-190515266D01*
X147590199Y-177515266D02*
X147590199Y-176515266D01*
X133590199Y-176515266D02*
X133590199Y-177515266D01*
X134590199Y-190515266D02*
X133590199Y-190515266D01*
X133590199Y-176515266D02*
X134590199Y-176515266D01*
X133590199Y-189515266D02*
X133590199Y-190515266D01*
X128540199Y-133365351D02*
X128540199Y-132365351D01*
X127540199Y-119365351D02*
X128540199Y-119365351D01*
X128540199Y-133365351D02*
X127540199Y-133365351D01*
X128540199Y-120365351D02*
X128540199Y-119365351D01*
X114540199Y-119365351D02*
X114540199Y-120365351D01*
X115540199Y-133365351D02*
X114540199Y-133365351D01*
X114540199Y-119365351D02*
X115540199Y-119365351D01*
X114540199Y-132365351D02*
X114540199Y-133365351D01*
X128540199Y-171465351D02*
X128540199Y-170465351D01*
X127540199Y-157465351D02*
X128540199Y-157465351D01*
X128540199Y-171465351D02*
X127540199Y-171465351D01*
X128540199Y-158465351D02*
X128540199Y-157465351D01*
X114540199Y-157465351D02*
X114540199Y-158465351D01*
X115540199Y-171465351D02*
X114540199Y-171465351D01*
X114540199Y-157465351D02*
X115540199Y-157465351D01*
X114540199Y-170465351D02*
X114540199Y-171465351D01*
X109490199Y-133365351D02*
X109490199Y-132365351D01*
X108490199Y-119365351D02*
X109490199Y-119365351D01*
X109490199Y-133365351D02*
X108490199Y-133365351D01*
X109490199Y-120365351D02*
X109490199Y-119365351D01*
X95490199Y-119365351D02*
X95490199Y-120365351D01*
X96490199Y-133365351D02*
X95490199Y-133365351D01*
X95490199Y-119365351D02*
X96490199Y-119365351D01*
X95490199Y-132365351D02*
X95490199Y-133365351D01*
X109490199Y-171465351D02*
X109490199Y-170465351D01*
X108490199Y-157465351D02*
X109490199Y-157465351D01*
X109490199Y-171465351D02*
X108490199Y-171465351D01*
X109490199Y-158465351D02*
X109490199Y-157465351D01*
X95490199Y-157465351D02*
X95490199Y-158465351D01*
X96490199Y-171465351D02*
X95490199Y-171465351D01*
X95490199Y-157465351D02*
X96490199Y-157465351D01*
X95490199Y-170465351D02*
X95490199Y-171465351D01*
X109490199Y-190515266D02*
X109490199Y-189515266D01*
X108490199Y-176515266D02*
X109490199Y-176515266D01*
X109490199Y-190515266D02*
X108490199Y-190515266D01*
X109490199Y-177515266D02*
X109490199Y-176515266D01*
X95490199Y-176515266D02*
X95490199Y-177515266D01*
X96490199Y-190515266D02*
X95490199Y-190515266D01*
X95490199Y-176515266D02*
X96490199Y-176515266D01*
X95490199Y-189515266D02*
X95490199Y-190515266D01*
%LPC*%
D13*
X235841199Y-164465351D03*
D14*
X232031199Y-167005351D03*
X238381199Y-169545351D03*
D13*
X245365199Y-183515265D03*
D14*
X241555199Y-186055265D03*
X247905199Y-188595265D03*
D13*
X112015199Y-145415365D03*
D14*
X108205199Y-147955365D03*
X114555199Y-150495365D03*
D13*
X121540199Y-183515266D03*
D14*
X117730199Y-186055266D03*
X124080199Y-188595266D03*
D13*
X350140274Y-107315350D03*
D14*
X346330274Y-109855350D03*
X352680274Y-112395350D03*
D13*
X102490199Y-107315350D03*
D14*
X98680199Y-109855350D03*
X105030199Y-112395350D03*
D13*
X121540199Y-107315350D03*
D14*
X117730199Y-109855350D03*
X124080199Y-112395350D03*
D13*
X140590199Y-107315350D03*
D14*
X136780199Y-109855350D03*
X143130199Y-112395350D03*
D15*
X140590199Y-102815350D03*
D13*
X350140274Y-126365350D03*
D14*
X346330274Y-128905350D03*
X352680274Y-131445350D03*
D13*
X350140274Y-145415365D03*
D14*
X346330274Y-147955365D03*
X352680274Y-150495365D03*
D13*
X350140274Y-164465351D03*
D14*
X346330274Y-167005351D03*
X352680274Y-169545351D03*
D13*
X350140275Y-183515265D03*
D14*
X346330275Y-186055265D03*
X352680275Y-188595265D03*
D13*
X331090349Y-107315350D03*
D14*
X327280349Y-109855350D03*
X333630349Y-112395350D03*
D13*
X331090349Y-126365350D03*
D14*
X327280349Y-128905350D03*
X333630349Y-131445350D03*
D13*
X331090349Y-145415365D03*
D14*
X327280349Y-147955365D03*
X333630349Y-150495365D03*
D13*
X331090349Y-164465351D03*
D14*
X327280349Y-167005351D03*
X333630349Y-169545351D03*
D13*
X331090350Y-183515265D03*
D14*
X327280350Y-186055265D03*
X333630350Y-188595265D03*
D13*
X312040349Y-107315350D03*
D14*
X308230349Y-109855350D03*
X314580349Y-112395350D03*
D13*
X312040349Y-126365350D03*
D14*
X308230349Y-128905350D03*
X314580349Y-131445350D03*
D13*
X312040349Y-145415365D03*
D14*
X308230349Y-147955365D03*
X314580349Y-150495365D03*
D13*
X312040349Y-164465351D03*
D14*
X308230349Y-167005351D03*
X314580349Y-169545351D03*
D13*
X312040350Y-183515265D03*
D14*
X308230350Y-186055265D03*
X314580350Y-188595265D03*
D13*
X292990349Y-107315350D03*
D14*
X289180349Y-109855350D03*
X295530349Y-112395350D03*
D13*
X292990349Y-126365350D03*
D14*
X289180349Y-128905350D03*
X295530349Y-131445350D03*
D13*
X292990349Y-145415365D03*
D14*
X289180349Y-147955365D03*
X295530349Y-150495365D03*
D13*
X292990349Y-164465351D03*
D14*
X289180349Y-167005351D03*
X295530349Y-169545351D03*
D13*
X292990350Y-183515265D03*
D14*
X289180350Y-186055265D03*
X295530350Y-188595265D03*
D13*
X273940349Y-107315350D03*
D14*
X270130349Y-109855350D03*
X276480349Y-112395350D03*
D13*
X273940349Y-126365350D03*
D14*
X270130349Y-128905350D03*
X276480349Y-131445350D03*
D13*
X273940349Y-145415365D03*
D14*
X270130349Y-147955365D03*
X276480349Y-150495365D03*
D13*
X273940349Y-164465351D03*
D14*
X270130349Y-167005351D03*
X276480349Y-169545351D03*
D13*
X273940350Y-183515265D03*
D14*
X270130350Y-186055265D03*
X276480350Y-188595265D03*
D13*
X254891049Y-107315350D03*
D14*
X251081049Y-109855350D03*
X257431049Y-112395350D03*
D13*
X254891049Y-126365350D03*
D14*
X251081049Y-128905350D03*
X257431049Y-131445350D03*
D13*
X254891049Y-145415365D03*
D14*
X251081049Y-147955365D03*
X257431049Y-150495365D03*
D13*
X254891049Y-164465351D03*
D14*
X251081049Y-167005351D03*
X257431049Y-169545351D03*
D13*
X235841199Y-107315350D03*
D14*
X232031199Y-109855350D03*
X238381199Y-112395350D03*
D13*
X235841199Y-126365350D03*
D14*
X232031199Y-128905350D03*
X238381199Y-131445350D03*
D13*
X235841199Y-145415365D03*
D14*
X232031199Y-147955365D03*
X238381199Y-150495365D03*
D13*
X216790200Y-107315350D03*
D14*
X212980200Y-109855350D03*
X219330200Y-112395350D03*
D13*
X216790200Y-126365351D03*
D14*
X212980200Y-128905351D03*
X219330200Y-131445351D03*
D13*
X216790200Y-145415365D03*
D14*
X212980200Y-147955365D03*
X219330200Y-150495365D03*
D13*
X216790200Y-164465351D03*
D14*
X212980200Y-167005351D03*
X219330200Y-169545351D03*
D13*
X216790200Y-183515266D03*
D14*
X212980200Y-186055266D03*
X219330200Y-188595266D03*
D13*
X197740199Y-107315350D03*
D14*
X193930199Y-109855350D03*
X200280199Y-112395350D03*
D13*
X197740199Y-126365351D03*
D14*
X193930199Y-128905351D03*
X200280199Y-131445351D03*
D13*
X197740199Y-145415365D03*
D14*
X193930199Y-147955365D03*
X200280199Y-150495365D03*
D13*
X197740199Y-164465351D03*
D14*
X193930199Y-167005351D03*
X200280199Y-169545351D03*
D13*
X197740199Y-183515266D03*
D14*
X193930199Y-186055266D03*
X200280199Y-188595266D03*
D13*
X178690199Y-107315350D03*
D14*
X174880199Y-109855350D03*
X181230199Y-112395350D03*
D13*
X178690199Y-126365351D03*
D14*
X174880199Y-128905351D03*
X181230199Y-131445351D03*
D13*
X178690199Y-145415365D03*
D14*
X174880199Y-147955365D03*
X181230199Y-150495365D03*
D13*
X178690199Y-164465351D03*
D14*
X174880199Y-167005351D03*
X181230199Y-169545351D03*
D13*
X178690199Y-183515266D03*
D14*
X174880199Y-186055266D03*
X181230199Y-188595266D03*
D13*
X159640199Y-107315350D03*
D14*
X155830199Y-109855350D03*
X162180199Y-112395350D03*
D13*
X159640199Y-126365351D03*
D14*
X155830199Y-128905351D03*
X162180199Y-131445351D03*
D13*
X159640199Y-145415365D03*
D14*
X155830199Y-147955365D03*
X162180199Y-150495365D03*
D13*
X159640199Y-164465351D03*
D14*
X155830199Y-167005351D03*
X162180199Y-169545351D03*
D13*
X159640199Y-183515266D03*
D14*
X155830199Y-186055266D03*
X162180199Y-188595266D03*
D13*
X140590199Y-126365351D03*
D14*
X136780199Y-128905351D03*
X143130199Y-131445351D03*
D13*
X140590199Y-145415365D03*
D14*
X136780199Y-147955365D03*
X143130199Y-150495365D03*
D13*
X140590199Y-164465351D03*
D14*
X136780199Y-167005351D03*
X143130199Y-169545351D03*
D13*
X140590199Y-183515266D03*
D14*
X136780199Y-186055266D03*
X143130199Y-188595266D03*
D13*
X121540199Y-126365351D03*
D14*
X117730199Y-128905351D03*
X124080199Y-131445351D03*
D13*
X121540199Y-164465351D03*
D14*
X117730199Y-167005351D03*
X124080199Y-169545351D03*
D13*
X102490199Y-126365351D03*
D14*
X98680199Y-128905351D03*
X105030199Y-131445351D03*
D13*
X102490199Y-164465351D03*
D14*
X98680199Y-167005351D03*
X105030199Y-169545351D03*
D13*
X102490199Y-183515266D03*
D14*
X98680199Y-186055266D03*
X105030199Y-188595266D03*
D15*
X350140274Y-159965351D03*
X350140275Y-179015265D03*
X331090349Y-159965351D03*
X331090350Y-179015265D03*
X312040349Y-159965351D03*
X312040350Y-179015265D03*
X292990349Y-159965351D03*
X292990350Y-179015265D03*
X273940349Y-159965351D03*
X273940350Y-179015265D03*
X254891049Y-159965351D03*
X245365199Y-179015265D03*
X235841199Y-159965351D03*
X216790200Y-159965351D03*
X216790200Y-179015266D03*
X197740199Y-159965351D03*
X197740199Y-179015266D03*
X178690199Y-159965351D03*
X178690199Y-179015266D03*
X159640199Y-159965351D03*
X159640199Y-179015266D03*
X140590199Y-159965351D03*
X140590199Y-179015266D03*
X121540199Y-159965351D03*
X121540199Y-179015266D03*
X102490199Y-159965351D03*
X102490199Y-179015266D03*
X350140274Y-102815350D03*
X350140274Y-121865350D03*
X350140274Y-140915365D03*
X331090349Y-102815350D03*
X331090349Y-121865350D03*
X331090349Y-140915365D03*
X312040349Y-102815350D03*
X312040349Y-121865350D03*
X312040349Y-140915365D03*
X292990349Y-102815350D03*
X292990349Y-121865350D03*
X292990349Y-140915365D03*
X273940349Y-102815350D03*
X273940349Y-121865350D03*
X273940349Y-140915365D03*
X254891049Y-102815350D03*
X254891049Y-121865350D03*
X254891049Y-140915365D03*
X235841199Y-102815350D03*
X235841199Y-121865350D03*
X235841199Y-140915365D03*
X216790200Y-102815350D03*
X216790200Y-121865351D03*
X216790200Y-140915365D03*
X197740199Y-102815350D03*
X197740199Y-121865351D03*
X197740199Y-140915365D03*
X178690199Y-102815350D03*
X178690199Y-121865351D03*
X178690199Y-140915365D03*
X159640199Y-102815350D03*
X159640199Y-121865351D03*
X159640199Y-140915365D03*
X140590199Y-121865351D03*
X140590199Y-140915365D03*
X121540199Y-102815350D03*
X121540199Y-121865351D03*
X112015199Y-140915365D03*
X102490199Y-102815350D03*
X102490199Y-121865351D03*
M02*
