G04 #@! TF.GenerationSoftware,KiCad,Pcbnew,(5.1.5)-3*
G04 #@! TF.CreationDate,2020-03-27T18:15:20-07:00*
G04 #@! TF.ProjectId,Mounting_PCB,4d6f756e-7469-46e6-975f-5043422e6b69,rev?*
G04 #@! TF.SameCoordinates,Original*
G04 #@! TF.FileFunction,Profile,NP*
%FSLAX46Y46*%
G04 Gerber Fmt 4.6, Leading zero omitted, Abs format (unit mm)*
G04 Created by KiCad (PCBNEW (5.1.5)-3) date 2020-03-27 18:15:20*
%MOMM*%
%LPD*%
G04 APERTURE LIST*
%ADD10C,0.200000*%
G04 APERTURE END LIST*
D10*
X354138966Y-142725800D02*
X340139966Y-142725800D01*
X340139966Y-156725100D02*
X354138966Y-156725100D01*
X244889966Y-156725100D02*
X258888966Y-156725100D01*
X244889966Y-142725800D02*
X244889966Y-156725100D01*
X258888966Y-156725100D02*
X258888966Y-142725800D01*
X340139966Y-142725800D02*
X340139966Y-156725100D01*
X220788965Y-156725100D02*
X220788965Y-142725800D01*
X225839966Y-156725100D02*
X239838966Y-156725100D01*
X225839966Y-142725800D02*
X225839966Y-156725100D01*
X149639666Y-142725800D02*
X149639666Y-156725100D01*
X206787966Y-142725800D02*
X206787966Y-156725100D01*
X149639666Y-156725100D02*
X163638965Y-156725100D01*
X220788965Y-142725800D02*
X206787966Y-142725800D01*
X263939966Y-156725100D02*
X277938966Y-156725100D01*
X263939966Y-142725800D02*
X263939966Y-156725100D01*
X277938966Y-142725800D02*
X263939966Y-142725800D01*
X354138966Y-156725100D02*
X354138966Y-142725800D01*
X239838966Y-156725100D02*
X239838966Y-142725800D01*
X206787966Y-156725100D02*
X220788965Y-156725100D01*
X239838966Y-142725800D02*
X225839966Y-142725800D01*
X258888966Y-142725800D02*
X244889966Y-142725800D01*
X163638965Y-156725100D02*
X163638965Y-142725800D01*
X163638965Y-142725800D02*
X149639666Y-142725800D01*
X346139965Y-163245800D02*
X346139965Y-166476200D01*
X352888966Y-166476200D02*
X352888966Y-163245800D01*
X239838966Y-175775100D02*
X239838966Y-161775800D01*
X353714966Y-166476200D02*
X352888966Y-166476200D01*
X282989966Y-175775100D02*
X296988966Y-175775100D01*
X353714966Y-169276200D02*
X353714966Y-166476200D01*
X302039966Y-180825800D02*
X302039966Y-194825100D01*
X263939966Y-161775800D02*
X263939966Y-175775100D01*
X277938966Y-161775800D02*
X263939966Y-161775800D01*
X111539666Y-161775800D02*
X111539666Y-175775100D01*
X239838966Y-180825800D02*
X225839966Y-180825800D01*
X168689665Y-161775800D02*
X168689665Y-175775100D01*
X330614966Y-166476200D02*
X329088966Y-166476200D01*
X330614966Y-161775800D02*
X330614966Y-166476200D01*
X316038966Y-194825100D02*
X316038966Y-180825800D01*
X302039966Y-194825100D02*
X316038966Y-194825100D01*
X225839966Y-194825100D02*
X239838966Y-194825100D01*
X344613966Y-161775800D02*
X330614966Y-161775800D01*
X344613966Y-166476200D02*
X344613966Y-161775800D01*
X352888966Y-175545100D02*
X352888966Y-169276200D01*
X168689665Y-175775100D02*
X182688966Y-175775100D01*
X125538966Y-175775100D02*
X125538966Y-161775800D01*
X201738966Y-161775800D02*
X187738266Y-161775800D01*
X263939966Y-175775100D02*
X277938966Y-175775100D01*
X225839966Y-161775800D02*
X225839966Y-175775100D01*
X225839966Y-175775100D02*
X239838966Y-175775100D01*
X182688966Y-175775100D02*
X182688966Y-161775800D01*
X187738266Y-175775100D02*
X201738966Y-175775100D01*
X125538966Y-161775800D02*
X111539666Y-161775800D01*
X187738266Y-161775800D02*
X187738266Y-175775100D01*
X201738966Y-175775100D02*
X201738966Y-161775800D01*
X182688966Y-161775800D02*
X168689665Y-161775800D01*
X282989966Y-161775800D02*
X282989966Y-175775100D01*
X111539666Y-175775100D02*
X125538966Y-175775100D01*
X346139965Y-166476200D02*
X344613966Y-166476200D01*
X352888966Y-163245800D02*
X346139965Y-163245800D01*
X316038966Y-180825800D02*
X302039966Y-180825800D01*
X352888966Y-169276200D02*
X353714966Y-169276200D01*
X351164966Y-175545100D02*
X352888966Y-175545100D01*
X239838966Y-161775800D02*
X225839966Y-161775800D01*
X296988966Y-161775800D02*
X282989966Y-161775800D01*
X296988966Y-175775100D02*
X296988966Y-161775800D01*
X239838966Y-194825100D02*
X239838966Y-180825800D01*
X277938966Y-175775100D02*
X277938966Y-161775800D01*
X329088966Y-163245800D02*
X322339966Y-163245800D01*
X329088966Y-166476200D02*
X329088966Y-163245800D01*
X111539666Y-123675800D02*
X111539666Y-137675100D01*
X125538966Y-123675800D02*
X111539666Y-123675800D01*
X206787966Y-123675800D02*
X206787966Y-137675100D01*
X206787966Y-137675100D02*
X220788965Y-137675100D01*
X220788965Y-123675800D02*
X206787966Y-123675800D01*
X220788965Y-137675100D02*
X220788965Y-123675800D01*
X144588965Y-123675800D02*
X130589666Y-123675800D01*
X201738966Y-137675100D02*
X201738966Y-123675800D01*
X201738966Y-123675800D02*
X187738266Y-123675800D01*
X168689665Y-123675800D02*
X168689665Y-137675100D01*
X277938966Y-137675100D02*
X277938966Y-123675800D01*
X263939966Y-137675100D02*
X277938966Y-137675100D01*
X263939966Y-123675800D02*
X263939966Y-137675100D01*
X182688966Y-137675100D02*
X182688966Y-123675800D01*
X277938966Y-123675800D02*
X263939966Y-123675800D01*
X144588965Y-137675100D02*
X144588965Y-123675800D01*
X111539666Y-137675100D02*
X125538966Y-137675100D01*
X125538966Y-137675100D02*
X125538966Y-123675800D01*
X130589666Y-137675100D02*
X144588965Y-137675100D01*
X187738266Y-123675800D02*
X187738266Y-137675100D01*
X130589666Y-123675800D02*
X130589666Y-137675100D01*
X187738266Y-137675100D02*
X201738966Y-137675100D01*
X182688966Y-123675800D02*
X168689665Y-123675800D01*
X130589666Y-142725800D02*
X130589666Y-156725100D01*
X316038966Y-156725100D02*
X316038966Y-142725800D01*
X364664965Y-216401072D02*
G75*
G02X356664966Y-224401071I-7999999J0D01*
G01*
X364664966Y-115151000D02*
X364664966Y-216401072D01*
X182688966Y-156725100D02*
X182688966Y-142725800D01*
X92489616Y-123675800D02*
X92489616Y-137675100D01*
X89965050Y-107151000D02*
X356664966Y-107151000D01*
X144588965Y-142725800D02*
X130589666Y-142725800D01*
X302039966Y-156725100D02*
X316038966Y-156725100D01*
X316038966Y-142725800D02*
X302039966Y-142725800D01*
X130589666Y-156725100D02*
X144588965Y-156725100D01*
X81965050Y-115151000D02*
G75*
G02X89965050Y-107151000I8000000J0D01*
G01*
X187738266Y-142725800D02*
X187738266Y-156725100D01*
X187738266Y-156725100D02*
X201738966Y-156725100D01*
X89965050Y-224401071D02*
G75*
G02X81965051Y-216401072I0J7999999D01*
G01*
X168689665Y-156725100D02*
X182688966Y-156725100D01*
X296988966Y-156725100D02*
X296988966Y-142725800D01*
X282989966Y-142725800D02*
X282989966Y-156725100D01*
X144588965Y-156725100D02*
X144588965Y-142725800D01*
X81965051Y-216401072D02*
X81965051Y-115151000D01*
X356664966Y-224401071D02*
X89965050Y-224401071D01*
X282989966Y-156725100D02*
X296988966Y-156725100D01*
X356664966Y-107151000D02*
G75*
G02X364664966Y-115151000I0J-8000000D01*
G01*
X106489166Y-137675100D02*
X106489166Y-123675800D01*
X168689665Y-142725800D02*
X168689665Y-156725100D01*
X201738966Y-142725800D02*
X187738266Y-142725800D01*
X106489166Y-123675800D02*
X92489616Y-123675800D01*
X302039966Y-142725800D02*
X302039966Y-156725100D01*
X92489616Y-137675100D02*
X106489166Y-137675100D01*
X182688966Y-142725800D02*
X168689665Y-142725800D01*
X296988966Y-142725800D02*
X282989966Y-142725800D01*
X329088966Y-171076100D02*
X330614966Y-171076100D01*
X322339966Y-163245800D02*
X322339966Y-166476200D01*
X330614966Y-175775100D02*
X344613966Y-175775100D01*
X220788965Y-175775100D02*
X220788965Y-161775800D01*
X335088966Y-142725800D02*
X321089966Y-142725800D01*
X327364966Y-176745200D02*
X327364966Y-175545100D01*
X321513966Y-166476200D02*
X321513966Y-169276200D01*
X201738966Y-156725100D02*
X201738966Y-142725800D01*
X163638965Y-161775800D02*
X149639666Y-161775800D01*
X258888966Y-175775100D02*
X258888966Y-161775800D01*
X344613966Y-175775100D02*
X344613966Y-171076100D01*
X324064966Y-175545100D02*
X324064966Y-176745200D01*
X322339966Y-166476200D02*
X321513966Y-166476200D01*
X316038966Y-175775100D02*
X316038966Y-161775800D01*
X351164966Y-176745200D02*
X351164966Y-175545100D01*
X163638965Y-175775100D02*
X163638965Y-161775800D01*
X220788965Y-161775800D02*
X206787966Y-161775800D01*
X330614966Y-171076100D02*
X330614966Y-175775100D01*
X144588965Y-161775800D02*
X130589666Y-161775800D01*
X316038966Y-161775800D02*
X302039966Y-161775800D01*
X322339966Y-175545100D02*
X324064966Y-175545100D01*
X149639666Y-175775100D02*
X163638965Y-175775100D01*
X149639666Y-161775800D02*
X149639666Y-175775100D01*
X206787966Y-161775800D02*
X206787966Y-175775100D01*
X144588965Y-175775100D02*
X144588965Y-161775800D01*
X130589666Y-175775100D02*
X144588965Y-175775100D01*
X130589666Y-161775800D02*
X130589666Y-175775100D01*
X324064966Y-176745200D02*
X327364966Y-176745200D01*
X321513966Y-169276200D02*
X322339966Y-169276200D01*
X335088966Y-156725100D02*
X335088966Y-142725800D01*
X302039966Y-175775100D02*
X316038966Y-175775100D01*
X302039966Y-161775800D02*
X302039966Y-175775100D01*
X321089966Y-156725100D02*
X335088966Y-156725100D01*
X346139965Y-171076100D02*
X346139965Y-175545100D01*
X206787966Y-175775100D02*
X220788965Y-175775100D01*
X258888966Y-161775800D02*
X244889966Y-161775800D01*
X321089966Y-142725800D02*
X321089966Y-156725100D01*
X347864966Y-176745200D02*
X351164966Y-176745200D01*
X346139965Y-175545100D02*
X347864966Y-175545100D01*
X244889966Y-175775100D02*
X258888966Y-175775100D01*
X244889966Y-161775800D02*
X244889966Y-175775100D01*
X327364966Y-175545100D02*
X329088966Y-175545100D01*
X322339966Y-169276200D02*
X322339966Y-175545100D01*
X347864966Y-175545100D02*
X347864966Y-176745200D01*
X329088966Y-175545100D02*
X329088966Y-171076100D01*
X344613966Y-171076100D02*
X346139965Y-171076100D01*
X92489616Y-156725100D02*
X106489166Y-156725100D01*
X92489616Y-142725800D02*
X92489616Y-156725100D01*
X244889966Y-180825800D02*
X244889966Y-194825100D01*
X335088966Y-194825100D02*
X335088966Y-180825800D01*
X335088966Y-180825800D02*
X321089966Y-180825800D01*
X111539666Y-156725100D02*
X125538966Y-156725100D01*
X354138966Y-194825100D02*
X354138966Y-180825800D01*
X296988966Y-194825100D02*
X296988966Y-180825800D01*
X340139966Y-180825800D02*
X340139966Y-194825100D01*
X111539666Y-142725800D02*
X111539666Y-156725100D01*
X277938966Y-194825100D02*
X277938966Y-180825800D01*
X277938966Y-156725100D02*
X277938966Y-142725800D01*
X106489166Y-142725800D02*
X92489616Y-142725800D01*
X206787966Y-180825800D02*
X206787966Y-194825100D01*
X244889966Y-194825100D02*
X258888966Y-194825100D01*
X220788965Y-194825100D02*
X220788965Y-180825800D01*
X282989966Y-194825100D02*
X296988966Y-194825100D01*
X206787966Y-194825100D02*
X220788965Y-194825100D01*
X354138966Y-180825800D02*
X340139966Y-180825800D01*
X130589666Y-194825100D02*
X144588965Y-194825100D01*
X263939966Y-194825100D02*
X277938966Y-194825100D01*
X201738966Y-180825800D02*
X187738266Y-180825800D01*
X263939966Y-180825800D02*
X263939966Y-194825100D01*
X187738266Y-180825800D02*
X187738266Y-194825100D01*
X296988966Y-180825800D02*
X282989966Y-180825800D01*
X321089966Y-180825800D02*
X321089966Y-194825100D01*
X201738966Y-194825100D02*
X201738966Y-180825800D01*
X187738266Y-194825100D02*
X201738966Y-194825100D01*
X340139966Y-194825100D02*
X354138966Y-194825100D01*
X225839966Y-180825800D02*
X225839966Y-194825100D01*
X92489616Y-161775800D02*
X92489616Y-175775100D01*
X106489166Y-156725100D02*
X106489166Y-142725800D01*
X258888966Y-194825100D02*
X258888966Y-180825800D01*
X125538966Y-156725100D02*
X125538966Y-142725800D01*
X130589666Y-180825800D02*
X130589666Y-194825100D01*
X106489166Y-161775800D02*
X92489616Y-161775800D01*
X106489166Y-175775100D02*
X106489166Y-161775800D01*
X277938966Y-180825800D02*
X263939966Y-180825800D01*
X125538966Y-142725800D02*
X111539666Y-142725800D01*
X92489616Y-175775100D02*
X106489166Y-175775100D01*
X144588965Y-180825800D02*
X130589666Y-180825800D01*
X258888966Y-180825800D02*
X244889966Y-180825800D01*
X144588965Y-194825100D02*
X144588965Y-180825800D01*
X220788965Y-180825800D02*
X206787966Y-180825800D01*
X321089966Y-194825100D02*
X335088966Y-194825100D01*
X282989966Y-180825800D02*
X282989966Y-194825100D01*
X92489616Y-180825800D02*
X92489616Y-194825100D01*
X335088966Y-199875600D02*
X321089966Y-199875600D01*
X335088966Y-213875130D02*
X335088966Y-199875600D01*
X258888966Y-199875600D02*
X244889966Y-199875600D01*
X277938966Y-213875130D02*
X277938966Y-199875600D01*
X258888966Y-213875130D02*
X258888966Y-199875600D01*
X244889966Y-213875130D02*
X258888966Y-213875130D01*
X106489166Y-180825800D02*
X92489616Y-180825800D01*
X244889966Y-199875600D02*
X244889966Y-213875130D01*
X125538966Y-194825100D02*
X125538966Y-180825800D01*
X111539666Y-194825100D02*
X125538966Y-194825100D01*
X106489166Y-194825100D02*
X106489166Y-180825800D01*
X125538966Y-180825800D02*
X111539666Y-180825800D01*
X263939966Y-199875600D02*
X263939966Y-213875130D01*
X277938966Y-199875600D02*
X263939966Y-199875600D01*
X282989966Y-213875130D02*
X296988966Y-213875130D01*
X263939966Y-213875130D02*
X277938966Y-213875130D01*
X111539666Y-180825800D02*
X111539666Y-194825100D01*
X296988966Y-213875130D02*
X296988966Y-199875600D01*
X92489616Y-194825100D02*
X106489166Y-194825100D01*
X296988966Y-199875600D02*
X282989966Y-199875600D01*
X282989966Y-199875600D02*
X282989966Y-213875130D01*
X163638965Y-180825800D02*
X149639666Y-180825800D01*
X302039966Y-213875130D02*
X316038966Y-213875130D01*
X316038966Y-213875130D02*
X316038966Y-199875600D01*
X239838966Y-199875600D02*
X225839966Y-199875600D01*
X239838966Y-213875130D02*
X239838966Y-199875600D01*
X194014966Y-214845261D02*
X194014966Y-213644990D01*
X190714966Y-213644990D02*
X190714966Y-214845261D01*
X316038966Y-199875600D02*
X302039966Y-199875600D01*
X225839966Y-213875130D02*
X239838966Y-213875130D01*
X225839966Y-199875600D02*
X225839966Y-213875130D01*
X182688966Y-199875600D02*
X168689665Y-199875600D01*
X182688966Y-213875130D02*
X182688966Y-199875600D01*
X197264966Y-213875130D02*
X211263966Y-213875130D01*
X197264966Y-209174641D02*
X197264966Y-213875130D01*
X195738966Y-209174641D02*
X197264966Y-209174641D01*
X195738966Y-213644990D02*
X195738966Y-209174641D01*
X168689665Y-199875600D02*
X168689665Y-213875130D01*
X194014966Y-213644990D02*
X195738966Y-213644990D01*
X190714966Y-214845261D02*
X194014966Y-214845261D01*
X302039966Y-199875600D02*
X302039966Y-213875130D01*
X149639666Y-213875130D02*
X163638965Y-213875130D01*
X340139966Y-199875600D02*
X340139966Y-213875130D01*
X163638965Y-199875600D02*
X149639666Y-199875600D01*
X354138966Y-199875600D02*
X340139966Y-199875600D01*
X340139966Y-213875130D02*
X354138966Y-213875130D01*
X321089966Y-199875600D02*
X321089966Y-213875130D01*
X163638965Y-213875130D02*
X163638965Y-199875600D01*
X354138966Y-213875130D02*
X354138966Y-199875600D01*
X149639666Y-199875600D02*
X149639666Y-213875130D01*
X321089966Y-213875130D02*
X335088966Y-213875130D01*
X168689665Y-213875130D02*
X182688966Y-213875130D01*
X188164066Y-207376281D02*
X188988166Y-207376281D01*
X188988166Y-207376281D02*
X188988166Y-213644990D01*
X149639666Y-123675800D02*
X149639666Y-137675100D01*
X163638965Y-123675800D02*
X149639666Y-123675800D01*
X130589666Y-199875600D02*
X130589666Y-213875130D01*
X106489166Y-199875600D02*
X92489616Y-199875600D01*
X188988166Y-213644990D02*
X190714966Y-213644990D01*
X106489166Y-213875130D02*
X106489166Y-199875600D01*
X188988166Y-204576101D02*
X188164066Y-204576101D01*
X188164066Y-204576101D02*
X188164066Y-207376281D01*
X125538966Y-199875600D02*
X111539666Y-199875600D01*
X92489616Y-199875600D02*
X92489616Y-213875130D01*
X111539666Y-213875130D02*
X125538966Y-213875130D01*
X125538966Y-213875130D02*
X125538966Y-199875600D01*
X302039966Y-137675100D02*
X316038966Y-137675100D01*
X302039966Y-123675800D02*
X302039966Y-137675100D01*
X149639666Y-137675100D02*
X163638965Y-137675100D01*
X144588965Y-213875130D02*
X144588965Y-199875600D01*
X144588965Y-199875600D02*
X130589666Y-199875600D01*
X163638965Y-137675100D02*
X163638965Y-123675800D01*
X130589666Y-213875130D02*
X144588965Y-213875130D01*
X92489616Y-213875130D02*
X106489166Y-213875130D01*
X111539666Y-199875600D02*
X111539666Y-213875130D01*
X211263966Y-204576101D02*
X211263966Y-199875600D01*
X212789966Y-204576101D02*
X211263966Y-204576101D01*
X212789966Y-201346001D02*
X212789966Y-204576101D01*
X219538965Y-207376281D02*
X220364966Y-207376281D01*
X217814966Y-214845261D02*
X217814966Y-213644990D01*
X219538965Y-204576101D02*
X219538965Y-201346001D01*
X220364966Y-204576101D02*
X219538965Y-204576101D01*
X219538965Y-213644990D02*
X219538965Y-207376281D01*
X217814966Y-213644990D02*
X219538965Y-213644990D01*
X219538965Y-201346001D02*
X212789966Y-201346001D01*
X214514966Y-214845261D02*
X217814966Y-214845261D01*
X211263966Y-213875130D02*
X211263966Y-209174641D01*
X214514966Y-213644990D02*
X214514966Y-214845261D01*
X212789966Y-209174641D02*
X212789966Y-213644990D01*
X211263966Y-209174641D02*
X212789966Y-209174641D01*
X188988166Y-201346001D02*
X188988166Y-204576101D01*
X195738966Y-201346001D02*
X188988166Y-201346001D01*
X195738966Y-204576101D02*
X195738966Y-201346001D01*
X211263966Y-199875600D02*
X197264966Y-199875600D01*
X212789966Y-213644990D02*
X214514966Y-213644990D01*
X220364966Y-207376281D02*
X220364966Y-204576101D01*
X197264966Y-204576101D02*
X195738966Y-204576101D01*
X197264966Y-199875600D02*
X197264966Y-204576101D01*
X282989966Y-137675100D02*
X296988966Y-137675100D01*
X316038966Y-123675800D02*
X302039966Y-123675800D01*
X239838966Y-137675100D02*
X239838966Y-123675800D01*
X258888966Y-137675100D02*
X258888966Y-123675800D01*
X282989966Y-123675800D02*
X282989966Y-137675100D01*
X340139966Y-137675100D02*
X354138966Y-137675100D01*
X296988966Y-123675800D02*
X282989966Y-123675800D01*
X321089966Y-123675800D02*
X321089966Y-137675100D01*
X335088966Y-137675100D02*
X335088966Y-123675800D01*
X321089966Y-137675100D02*
X335088966Y-137675100D01*
X225839966Y-137675100D02*
X239838966Y-137675100D01*
X239838966Y-123675800D02*
X225839966Y-123675800D01*
X354138966Y-123675800D02*
X340139966Y-123675800D01*
X354138966Y-137675100D02*
X354138966Y-123675800D01*
X316038966Y-137675100D02*
X316038966Y-123675800D01*
X340139966Y-123675800D02*
X340139966Y-137675100D01*
X335088966Y-123675800D02*
X321089966Y-123675800D01*
X168689665Y-137675100D02*
X182688966Y-137675100D01*
X244889966Y-123675800D02*
X244889966Y-137675100D01*
X244889966Y-137675100D02*
X258888966Y-137675100D01*
X225839966Y-123675800D02*
X225839966Y-137675100D01*
X296988966Y-137675100D02*
X296988966Y-123675800D01*
X258888966Y-123675800D02*
X244889966Y-123675800D01*
X149639666Y-194825100D02*
X163638965Y-194825100D01*
X149639666Y-180825800D02*
X149639666Y-194825100D01*
X182688966Y-180825800D02*
X168689665Y-180825800D01*
X168689665Y-180825800D02*
X168689665Y-194825100D01*
X182688966Y-194825100D02*
X182688966Y-180825800D01*
X163638965Y-194825100D02*
X163638965Y-180825800D01*
X168689665Y-194825100D02*
X182688966Y-194825100D01*
M02*
