G04 #@! TF.GenerationSoftware,KiCad,Pcbnew,(5.1.5)-3*
G04 #@! TF.CreationDate,2020-03-27T18:15:20-07:00*
G04 #@! TF.ProjectId,Mounting_PCB,4d6f756e-7469-46e6-975f-5043422e6b69,rev?*
G04 #@! TF.SameCoordinates,Original*
G04 #@! TF.FileFunction,Soldermask,Top*
G04 #@! TF.FilePolarity,Negative*
%FSLAX46Y46*%
G04 Gerber Fmt 4.6, Leading zero omitted, Abs format (unit mm)*
G04 Created by KiCad (PCBNEW (5.1.5)-3) date 2020-03-27 18:15:20*
%MOMM*%
%LPD*%
G04 APERTURE LIST*
%ADD10C,0.500000*%
%ADD11C,0.010000*%
%ADD12C,0.100000*%
G04 APERTURE END LIST*
D10*
X123362857Y-116079852D02*
X123362857Y-113079852D01*
X125077142Y-116079852D01*
X125077142Y-113079852D01*
X126505714Y-116079852D02*
X126505714Y-113079852D01*
X126505714Y-114508424D02*
X128220000Y-114508424D01*
X128220000Y-116079852D02*
X128220000Y-113079852D01*
X129362857Y-113079852D02*
X130077142Y-116079852D01*
X130648571Y-113936995D01*
X131220000Y-116079852D01*
X131934285Y-113079852D01*
X134362857Y-113079852D02*
X133791428Y-113079852D01*
X133505714Y-113222710D01*
X133362857Y-113365567D01*
X133077142Y-113794138D01*
X132934285Y-114365567D01*
X132934285Y-115508424D01*
X133077142Y-115794138D01*
X133220000Y-115936995D01*
X133505714Y-116079852D01*
X134077142Y-116079852D01*
X134362857Y-115936995D01*
X134505714Y-115794138D01*
X134648571Y-115508424D01*
X134648571Y-114794138D01*
X134505714Y-114508424D01*
X134362857Y-114365567D01*
X134077142Y-114222710D01*
X133505714Y-114222710D01*
X133220000Y-114365567D01*
X133077142Y-114508424D01*
X132934285Y-114794138D01*
X136362857Y-114365567D02*
X136077142Y-114222710D01*
X135934285Y-114079852D01*
X135791428Y-113794138D01*
X135791428Y-113651281D01*
X135934285Y-113365567D01*
X136077142Y-113222710D01*
X136362857Y-113079852D01*
X136934285Y-113079852D01*
X137220000Y-113222710D01*
X137362857Y-113365567D01*
X137505714Y-113651281D01*
X137505714Y-113794138D01*
X137362857Y-114079852D01*
X137220000Y-114222710D01*
X136934285Y-114365567D01*
X136362857Y-114365567D01*
X136077142Y-114508424D01*
X135934285Y-114651281D01*
X135791428Y-114936995D01*
X135791428Y-115508424D01*
X135934285Y-115794138D01*
X136077142Y-115936995D01*
X136362857Y-116079852D01*
X136934285Y-116079852D01*
X137220000Y-115936995D01*
X137362857Y-115794138D01*
X137505714Y-115508424D01*
X137505714Y-114936995D01*
X137362857Y-114651281D01*
X137220000Y-114508424D01*
X136934285Y-114365567D01*
X140648571Y-113079852D02*
X141648571Y-116079852D01*
X142648571Y-113079852D01*
X145220000Y-116079852D02*
X143505714Y-116079852D01*
X144362857Y-116079852D02*
X144362857Y-113079852D01*
X144077142Y-113508424D01*
X143791428Y-113794138D01*
X143505714Y-113936995D01*
X146505714Y-115794138D02*
X146648571Y-115936995D01*
X146505714Y-116079852D01*
X146362857Y-115936995D01*
X146505714Y-115794138D01*
X146505714Y-116079852D01*
X148505714Y-113079852D02*
X148791428Y-113079852D01*
X149077142Y-113222710D01*
X149220000Y-113365567D01*
X149362857Y-113651281D01*
X149505714Y-114222710D01*
X149505714Y-114936995D01*
X149362857Y-115508424D01*
X149220000Y-115794138D01*
X149077142Y-115936995D01*
X148791428Y-116079852D01*
X148505714Y-116079852D01*
X148220000Y-115936995D01*
X148077142Y-115794138D01*
X147934285Y-115508424D01*
X147791428Y-114936995D01*
X147791428Y-114222710D01*
X147934285Y-113651281D01*
X148077142Y-113365567D01*
X148220000Y-113222710D01*
X148505714Y-113079852D01*
X154077142Y-114508424D02*
X154505714Y-114651281D01*
X154648571Y-114794138D01*
X154791428Y-115079852D01*
X154791428Y-115508424D01*
X154648571Y-115794138D01*
X154505714Y-115936995D01*
X154220000Y-116079852D01*
X153077142Y-116079852D01*
X153077142Y-113079852D01*
X154077142Y-113079852D01*
X154362857Y-113222710D01*
X154505714Y-113365567D01*
X154648571Y-113651281D01*
X154648571Y-113936995D01*
X154505714Y-114222710D01*
X154362857Y-114365567D01*
X154077142Y-114508424D01*
X153077142Y-114508424D01*
X155791428Y-114079852D02*
X156505714Y-116079852D01*
X157220000Y-114079852D02*
X156505714Y-116079852D01*
X156220000Y-116794138D01*
X156077142Y-116936995D01*
X155791428Y-117079852D01*
X161220000Y-114651281D02*
X161220000Y-116079852D01*
X160220000Y-113079852D02*
X161220000Y-114651281D01*
X162220000Y-113079852D01*
X163220000Y-116079852D02*
X163220000Y-114079852D01*
X163220000Y-113079852D02*
X163077142Y-113222710D01*
X163220000Y-113365567D01*
X163362857Y-113222710D01*
X163220000Y-113079852D01*
X163220000Y-113365567D01*
X164220000Y-114079852D02*
X165362857Y-114079852D01*
X164648571Y-116079852D02*
X164648571Y-113508424D01*
X164791428Y-113222710D01*
X165077142Y-113079852D01*
X165362857Y-113079852D01*
X167505714Y-115936995D02*
X167220000Y-116079852D01*
X166648571Y-116079852D01*
X166362857Y-115936995D01*
X166220000Y-115651281D01*
X166220000Y-114508424D01*
X166362857Y-114222710D01*
X166648571Y-114079852D01*
X167220000Y-114079852D01*
X167505714Y-114222710D01*
X167648571Y-114508424D01*
X167648571Y-114794138D01*
X166220000Y-115079852D01*
X168934285Y-116079852D02*
X168934285Y-114079852D01*
X168934285Y-113079852D02*
X168791428Y-113222710D01*
X168934285Y-113365567D01*
X169077142Y-113222710D01*
X168934285Y-113079852D01*
X168934285Y-113365567D01*
X172648571Y-116079852D02*
X172648571Y-113079852D01*
X173362857Y-113079852D01*
X173791428Y-113222710D01*
X174077142Y-113508424D01*
X174220000Y-113794138D01*
X174362857Y-114365567D01*
X174362857Y-114794138D01*
X174220000Y-115365567D01*
X174077142Y-115651281D01*
X173791428Y-115936995D01*
X173362857Y-116079852D01*
X172648571Y-116079852D01*
X175648571Y-116079852D02*
X175648571Y-114079852D01*
X175648571Y-113079852D02*
X175505714Y-113222710D01*
X175648571Y-113365567D01*
X175791428Y-113222710D01*
X175648571Y-113079852D01*
X175648571Y-113365567D01*
X177077142Y-114079852D02*
X177077142Y-116079852D01*
X177077142Y-114365567D02*
X177220000Y-114222710D01*
X177505714Y-114079852D01*
X177934285Y-114079852D01*
X178220000Y-114222710D01*
X178362857Y-114508424D01*
X178362857Y-116079852D01*
X181077142Y-114079852D02*
X181077142Y-116508424D01*
X180934285Y-116794138D01*
X180791428Y-116936995D01*
X180505714Y-117079852D01*
X180077142Y-117079852D01*
X179791428Y-116936995D01*
X181077142Y-115936995D02*
X180791428Y-116079852D01*
X180220000Y-116079852D01*
X179934285Y-115936995D01*
X179791428Y-115794138D01*
X179648571Y-115508424D01*
X179648571Y-114651281D01*
X179791428Y-114365567D01*
X179934285Y-114222710D01*
X180220000Y-114079852D01*
X180791428Y-114079852D01*
X181077142Y-114222710D01*
D11*
G36*
X118823210Y-116853078D02*
G01*
X118920029Y-116894208D01*
X118950524Y-116914230D01*
X118989499Y-116944999D01*
X119013965Y-116969192D01*
X119018212Y-116977072D01*
X119006218Y-116994558D01*
X118975521Y-117024229D01*
X118950946Y-117044938D01*
X118883680Y-117098995D01*
X118830564Y-117054301D01*
X118789518Y-117025448D01*
X118749497Y-117015488D01*
X118703693Y-117017920D01*
X118630958Y-117036004D01*
X118580890Y-117073540D01*
X118550463Y-117134221D01*
X118536651Y-117221740D01*
X118536647Y-117221795D01*
X118537842Y-117319617D01*
X118556406Y-117391389D01*
X118593438Y-117440254D01*
X118618684Y-117456802D01*
X118685731Y-117477408D01*
X118757343Y-117477421D01*
X118819649Y-117457427D01*
X118834397Y-117447659D01*
X118871384Y-117422706D01*
X118900302Y-117418617D01*
X118931490Y-117437189D01*
X118965970Y-117470546D01*
X119020546Y-117526855D01*
X118959952Y-117576801D01*
X118866332Y-117633172D01*
X118760759Y-117660952D01*
X118650432Y-117658941D01*
X118577977Y-117640521D01*
X118493290Y-117594969D01*
X118425561Y-117523309D01*
X118394791Y-117472725D01*
X118369870Y-117400147D01*
X118357400Y-117308228D01*
X118357304Y-117208607D01*
X118369504Y-117112926D01*
X118393924Y-117032828D01*
X118397770Y-117024615D01*
X118454727Y-116944072D01*
X118531843Y-116885430D01*
X118623024Y-116849906D01*
X118722177Y-116838716D01*
X118823210Y-116853078D01*
G37*
X118823210Y-116853078D02*
X118920029Y-116894208D01*
X118950524Y-116914230D01*
X118989499Y-116944999D01*
X119013965Y-116969192D01*
X119018212Y-116977072D01*
X119006218Y-116994558D01*
X118975521Y-117024229D01*
X118950946Y-117044938D01*
X118883680Y-117098995D01*
X118830564Y-117054301D01*
X118789518Y-117025448D01*
X118749497Y-117015488D01*
X118703693Y-117017920D01*
X118630958Y-117036004D01*
X118580890Y-117073540D01*
X118550463Y-117134221D01*
X118536651Y-117221740D01*
X118536647Y-117221795D01*
X118537842Y-117319617D01*
X118556406Y-117391389D01*
X118593438Y-117440254D01*
X118618684Y-117456802D01*
X118685731Y-117477408D01*
X118757343Y-117477421D01*
X118819649Y-117457427D01*
X118834397Y-117447659D01*
X118871384Y-117422706D01*
X118900302Y-117418617D01*
X118931490Y-117437189D01*
X118965970Y-117470546D01*
X119020546Y-117526855D01*
X118959952Y-117576801D01*
X118866332Y-117633172D01*
X118760759Y-117660952D01*
X118650432Y-117658941D01*
X118577977Y-117640521D01*
X118493290Y-117594969D01*
X118425561Y-117523309D01*
X118394791Y-117472725D01*
X118369870Y-117400147D01*
X118357400Y-117308228D01*
X118357304Y-117208607D01*
X118369504Y-117112926D01*
X118393924Y-117032828D01*
X118397770Y-117024615D01*
X118454727Y-116944072D01*
X118531843Y-116885430D01*
X118623024Y-116849906D01*
X118722177Y-116838716D01*
X118823210Y-116853078D01*
G36*
X112503418Y-116854763D02*
G01*
X112590839Y-116893413D01*
X112657204Y-116957949D01*
X112702610Y-117048471D01*
X112727152Y-117165077D01*
X112728911Y-117183283D01*
X112730290Y-117311643D01*
X112712418Y-117424155D01*
X112676384Y-117515347D01*
X112657089Y-117544681D01*
X112589879Y-117606765D01*
X112504284Y-117646975D01*
X112408524Y-117663662D01*
X112310821Y-117655176D01*
X112236551Y-117629039D01*
X112172681Y-117584994D01*
X112120480Y-117527246D01*
X112119577Y-117525895D01*
X112098378Y-117490252D01*
X112084601Y-117454411D01*
X112076258Y-117409178D01*
X112071361Y-117345360D01*
X112069203Y-117293027D01*
X112068305Y-117245569D01*
X112235377Y-117245569D01*
X112237010Y-117292813D01*
X112242938Y-117355705D01*
X112253395Y-117396066D01*
X112272253Y-117424781D01*
X112289915Y-117441555D01*
X112352528Y-117476675D01*
X112418042Y-117481369D01*
X112479055Y-117456099D01*
X112509562Y-117427783D01*
X112531545Y-117399248D01*
X112544403Y-117371943D01*
X112550046Y-117336409D01*
X112550385Y-117283183D01*
X112548646Y-117234165D01*
X112544905Y-117164141D01*
X112538975Y-117118723D01*
X112528287Y-117089099D01*
X112510273Y-117066456D01*
X112495997Y-117053514D01*
X112436285Y-117019519D01*
X112371868Y-117017824D01*
X112317853Y-117037960D01*
X112271774Y-117080011D01*
X112244323Y-117149087D01*
X112235377Y-117245569D01*
X112068305Y-117245569D01*
X112067233Y-117188958D01*
X112070598Y-117111127D01*
X112080679Y-117052589D01*
X112098860Y-117006396D01*
X112126524Y-116965601D01*
X112136780Y-116953487D01*
X112200912Y-116893133D01*
X112269700Y-116857879D01*
X112353823Y-116843109D01*
X112394843Y-116841902D01*
X112503418Y-116854763D01*
G37*
X112503418Y-116854763D02*
X112590839Y-116893413D01*
X112657204Y-116957949D01*
X112702610Y-117048471D01*
X112727152Y-117165077D01*
X112728911Y-117183283D01*
X112730290Y-117311643D01*
X112712418Y-117424155D01*
X112676384Y-117515347D01*
X112657089Y-117544681D01*
X112589879Y-117606765D01*
X112504284Y-117646975D01*
X112408524Y-117663662D01*
X112310821Y-117655176D01*
X112236551Y-117629039D01*
X112172681Y-117584994D01*
X112120480Y-117527246D01*
X112119577Y-117525895D01*
X112098378Y-117490252D01*
X112084601Y-117454411D01*
X112076258Y-117409178D01*
X112071361Y-117345360D01*
X112069203Y-117293027D01*
X112068305Y-117245569D01*
X112235377Y-117245569D01*
X112237010Y-117292813D01*
X112242938Y-117355705D01*
X112253395Y-117396066D01*
X112272253Y-117424781D01*
X112289915Y-117441555D01*
X112352528Y-117476675D01*
X112418042Y-117481369D01*
X112479055Y-117456099D01*
X112509562Y-117427783D01*
X112531545Y-117399248D01*
X112544403Y-117371943D01*
X112550046Y-117336409D01*
X112550385Y-117283183D01*
X112548646Y-117234165D01*
X112544905Y-117164141D01*
X112538975Y-117118723D01*
X112528287Y-117089099D01*
X112510273Y-117066456D01*
X112495997Y-117053514D01*
X112436285Y-117019519D01*
X112371868Y-117017824D01*
X112317853Y-117037960D01*
X112271774Y-117080011D01*
X112244323Y-117149087D01*
X112235377Y-117245569D01*
X112068305Y-117245569D01*
X112067233Y-117188958D01*
X112070598Y-117111127D01*
X112080679Y-117052589D01*
X112098860Y-117006396D01*
X112126524Y-116965601D01*
X112136780Y-116953487D01*
X112200912Y-116893133D01*
X112269700Y-116857879D01*
X112353823Y-116843109D01*
X112394843Y-116841902D01*
X112503418Y-116854763D01*
G36*
X115609265Y-118918185D02*
G01*
X115517357Y-118918185D01*
X115464011Y-118916621D01*
X115436227Y-118910144D01*
X115426224Y-118896077D01*
X115425449Y-118886565D01*
X115423762Y-118867491D01*
X115413124Y-118863833D01*
X115385169Y-118875591D01*
X115363429Y-118886565D01*
X115279966Y-118912570D01*
X115189238Y-118914075D01*
X115115476Y-118894680D01*
X115046788Y-118847824D01*
X114994428Y-118778663D01*
X114965756Y-118697086D01*
X114965026Y-118692525D01*
X114960766Y-118642760D01*
X114958648Y-118571318D01*
X114958818Y-118517285D01*
X115141354Y-118517285D01*
X115145583Y-118589100D01*
X115155202Y-118648293D01*
X115168224Y-118681719D01*
X115217490Y-118727399D01*
X115275984Y-118743774D01*
X115336305Y-118730532D01*
X115387851Y-118691032D01*
X115407372Y-118664466D01*
X115418786Y-118632765D01*
X115424132Y-118586491D01*
X115425449Y-118516987D01*
X115423092Y-118448158D01*
X115416867Y-118387685D01*
X115408042Y-118347215D01*
X115406571Y-118343588D01*
X115370981Y-118300461D01*
X115319034Y-118276783D01*
X115260912Y-118272960D01*
X115206794Y-118289397D01*
X115166860Y-118326499D01*
X115162717Y-118333881D01*
X115149750Y-118378898D01*
X115142686Y-118443626D01*
X115141354Y-118517285D01*
X114958818Y-118517285D01*
X114958905Y-118489889D01*
X114960106Y-118446064D01*
X114968279Y-118337647D01*
X114985264Y-118256247D01*
X115013521Y-118196071D01*
X115055506Y-118151325D01*
X115096266Y-118125059D01*
X115153215Y-118106594D01*
X115224045Y-118100261D01*
X115296575Y-118105419D01*
X115358620Y-118121428D01*
X115391402Y-118140579D01*
X115425449Y-118171391D01*
X115425449Y-117781869D01*
X115609265Y-117781869D01*
X115609265Y-118918185D01*
G37*
X115609265Y-118918185D02*
X115517357Y-118918185D01*
X115464011Y-118916621D01*
X115436227Y-118910144D01*
X115426224Y-118896077D01*
X115425449Y-118886565D01*
X115423762Y-118867491D01*
X115413124Y-118863833D01*
X115385169Y-118875591D01*
X115363429Y-118886565D01*
X115279966Y-118912570D01*
X115189238Y-118914075D01*
X115115476Y-118894680D01*
X115046788Y-118847824D01*
X114994428Y-118778663D01*
X114965756Y-118697086D01*
X114965026Y-118692525D01*
X114960766Y-118642760D01*
X114958648Y-118571318D01*
X114958818Y-118517285D01*
X115141354Y-118517285D01*
X115145583Y-118589100D01*
X115155202Y-118648293D01*
X115168224Y-118681719D01*
X115217490Y-118727399D01*
X115275984Y-118743774D01*
X115336305Y-118730532D01*
X115387851Y-118691032D01*
X115407372Y-118664466D01*
X115418786Y-118632765D01*
X115424132Y-118586491D01*
X115425449Y-118516987D01*
X115423092Y-118448158D01*
X115416867Y-118387685D01*
X115408042Y-118347215D01*
X115406571Y-118343588D01*
X115370981Y-118300461D01*
X115319034Y-118276783D01*
X115260912Y-118272960D01*
X115206794Y-118289397D01*
X115166860Y-118326499D01*
X115162717Y-118333881D01*
X115149750Y-118378898D01*
X115142686Y-118443626D01*
X115141354Y-118517285D01*
X114958818Y-118517285D01*
X114958905Y-118489889D01*
X114960106Y-118446064D01*
X114968279Y-118337647D01*
X114985264Y-118256247D01*
X115013521Y-118196071D01*
X115055506Y-118151325D01*
X115096266Y-118125059D01*
X115153215Y-118106594D01*
X115224045Y-118100261D01*
X115296575Y-118105419D01*
X115358620Y-118121428D01*
X115391402Y-118140579D01*
X115425449Y-118171391D01*
X115425449Y-117781869D01*
X115609265Y-117781869D01*
X115609265Y-118918185D01*
G36*
X114037091Y-118105843D02*
G01*
X114115704Y-118126819D01*
X114175550Y-118164839D01*
X114217781Y-118214637D01*
X114230909Y-118235889D01*
X114240602Y-118258151D01*
X114247378Y-118286629D01*
X114251757Y-118326530D01*
X114254258Y-118383060D01*
X114255402Y-118461426D01*
X114255706Y-118566835D01*
X114255712Y-118594801D01*
X114255712Y-118918185D01*
X114175502Y-118918185D01*
X114124340Y-118914602D01*
X114086511Y-118905525D01*
X114077033Y-118899927D01*
X114051122Y-118890265D01*
X114024658Y-118899927D01*
X113981086Y-118911989D01*
X113917794Y-118916844D01*
X113847644Y-118914737D01*
X113783494Y-118905915D01*
X113746041Y-118894596D01*
X113673567Y-118848071D01*
X113628274Y-118783505D01*
X113607912Y-118697659D01*
X113607722Y-118695455D01*
X113609509Y-118657372D01*
X113771107Y-118657372D01*
X113785235Y-118700689D01*
X113808246Y-118725067D01*
X113854438Y-118743504D01*
X113915409Y-118750864D01*
X113977583Y-118747242D01*
X114027385Y-118732733D01*
X114041337Y-118723424D01*
X114065719Y-118680412D01*
X114071897Y-118631516D01*
X114071897Y-118567264D01*
X113979452Y-118567264D01*
X113891629Y-118574025D01*
X113825052Y-118593179D01*
X113783636Y-118623035D01*
X113771107Y-118657372D01*
X113609509Y-118657372D01*
X113612124Y-118601663D01*
X113643058Y-118527506D01*
X113701215Y-118471426D01*
X113709254Y-118466324D01*
X113743797Y-118449714D01*
X113786552Y-118439655D01*
X113846320Y-118434766D01*
X113917324Y-118433642D01*
X114071897Y-118433580D01*
X114071897Y-118368784D01*
X114065340Y-118318509D01*
X114048609Y-118284828D01*
X114046650Y-118283035D01*
X114009417Y-118268301D01*
X113953214Y-118262590D01*
X113891101Y-118265396D01*
X113836144Y-118276215D01*
X113803533Y-118292441D01*
X113785862Y-118305439D01*
X113767203Y-118307921D01*
X113741453Y-118297272D01*
X113702507Y-118270877D01*
X113644264Y-118226124D01*
X113638918Y-118221932D01*
X113641657Y-118206419D01*
X113664510Y-118180619D01*
X113699243Y-118151948D01*
X113737624Y-118127825D01*
X113749682Y-118122129D01*
X113793668Y-118110762D01*
X113858121Y-118102654D01*
X113930131Y-118099402D01*
X113933498Y-118099395D01*
X114037091Y-118105843D01*
G37*
X114037091Y-118105843D02*
X114115704Y-118126819D01*
X114175550Y-118164839D01*
X114217781Y-118214637D01*
X114230909Y-118235889D01*
X114240602Y-118258151D01*
X114247378Y-118286629D01*
X114251757Y-118326530D01*
X114254258Y-118383060D01*
X114255402Y-118461426D01*
X114255706Y-118566835D01*
X114255712Y-118594801D01*
X114255712Y-118918185D01*
X114175502Y-118918185D01*
X114124340Y-118914602D01*
X114086511Y-118905525D01*
X114077033Y-118899927D01*
X114051122Y-118890265D01*
X114024658Y-118899927D01*
X113981086Y-118911989D01*
X113917794Y-118916844D01*
X113847644Y-118914737D01*
X113783494Y-118905915D01*
X113746041Y-118894596D01*
X113673567Y-118848071D01*
X113628274Y-118783505D01*
X113607912Y-118697659D01*
X113607722Y-118695455D01*
X113609509Y-118657372D01*
X113771107Y-118657372D01*
X113785235Y-118700689D01*
X113808246Y-118725067D01*
X113854438Y-118743504D01*
X113915409Y-118750864D01*
X113977583Y-118747242D01*
X114027385Y-118732733D01*
X114041337Y-118723424D01*
X114065719Y-118680412D01*
X114071897Y-118631516D01*
X114071897Y-118567264D01*
X113979452Y-118567264D01*
X113891629Y-118574025D01*
X113825052Y-118593179D01*
X113783636Y-118623035D01*
X113771107Y-118657372D01*
X113609509Y-118657372D01*
X113612124Y-118601663D01*
X113643058Y-118527506D01*
X113701215Y-118471426D01*
X113709254Y-118466324D01*
X113743797Y-118449714D01*
X113786552Y-118439655D01*
X113846320Y-118434766D01*
X113917324Y-118433642D01*
X114071897Y-118433580D01*
X114071897Y-118368784D01*
X114065340Y-118318509D01*
X114048609Y-118284828D01*
X114046650Y-118283035D01*
X114009417Y-118268301D01*
X113953214Y-118262590D01*
X113891101Y-118265396D01*
X113836144Y-118276215D01*
X113803533Y-118292441D01*
X113785862Y-118305439D01*
X113767203Y-118307921D01*
X113741453Y-118297272D01*
X113702507Y-118270877D01*
X113644264Y-118226124D01*
X113638918Y-118221932D01*
X113641657Y-118206419D01*
X113664510Y-118180619D01*
X113699243Y-118151948D01*
X113737624Y-118127825D01*
X113749682Y-118122129D01*
X113793668Y-118110762D01*
X113858121Y-118102654D01*
X113930131Y-118099402D01*
X113933498Y-118099395D01*
X114037091Y-118105843D01*
G36*
X118049801Y-118099106D02*
G01*
X118114042Y-118111771D01*
X118150614Y-118130523D01*
X118189087Y-118161676D01*
X118134351Y-118230786D01*
X118100603Y-118272638D01*
X118077687Y-118293057D01*
X118054913Y-118296176D01*
X118021590Y-118286131D01*
X118005948Y-118280448D01*
X117942176Y-118272063D01*
X117883774Y-118290037D01*
X117840898Y-118330641D01*
X117833933Y-118343588D01*
X117826347Y-118377883D01*
X117820493Y-118441086D01*
X117816645Y-118528719D01*
X117815077Y-118636299D01*
X117815055Y-118651603D01*
X117815055Y-118918185D01*
X117631239Y-118918185D01*
X117631239Y-118099369D01*
X117723147Y-118099369D01*
X117776141Y-118100753D01*
X117803749Y-118106911D01*
X117813958Y-118120853D01*
X117815055Y-118134003D01*
X117815055Y-118168637D01*
X117859084Y-118134003D01*
X117909571Y-118110375D01*
X117977394Y-118098692D01*
X118049801Y-118099106D01*
G37*
X118049801Y-118099106D02*
X118114042Y-118111771D01*
X118150614Y-118130523D01*
X118189087Y-118161676D01*
X118134351Y-118230786D01*
X118100603Y-118272638D01*
X118077687Y-118293057D01*
X118054913Y-118296176D01*
X118021590Y-118286131D01*
X118005948Y-118280448D01*
X117942176Y-118272063D01*
X117883774Y-118290037D01*
X117840898Y-118330641D01*
X117833933Y-118343588D01*
X117826347Y-118377883D01*
X117820493Y-118441086D01*
X117816645Y-118528719D01*
X117815077Y-118636299D01*
X117815055Y-118651603D01*
X117815055Y-118918185D01*
X117631239Y-118918185D01*
X117631239Y-118099369D01*
X117723147Y-118099369D01*
X117776141Y-118100753D01*
X117803749Y-118106911D01*
X117813958Y-118120853D01*
X117815055Y-118134003D01*
X117815055Y-118168637D01*
X117859084Y-118134003D01*
X117909571Y-118110375D01*
X117977394Y-118098692D01*
X118049801Y-118099106D01*
G36*
X114556515Y-118101145D02*
G01*
X114581522Y-118108641D01*
X114589584Y-118125110D01*
X114589923Y-118132545D01*
X114591370Y-118153253D01*
X114601332Y-118156504D01*
X114628246Y-118142307D01*
X114644232Y-118132607D01*
X114694667Y-118111834D01*
X114754906Y-118101563D01*
X114818068Y-118100773D01*
X114877271Y-118108445D01*
X114925636Y-118123557D01*
X114956280Y-118145091D01*
X114962323Y-118172025D01*
X114959273Y-118179319D01*
X114937040Y-118209596D01*
X114902564Y-118246834D01*
X114896328Y-118252854D01*
X114863467Y-118280534D01*
X114835114Y-118289477D01*
X114795461Y-118283235D01*
X114779576Y-118279088D01*
X114730143Y-118269126D01*
X114695386Y-118273606D01*
X114666034Y-118289405D01*
X114639147Y-118310608D01*
X114619344Y-118337273D01*
X114605582Y-118374486D01*
X114596818Y-118427332D01*
X114592008Y-118500896D01*
X114590108Y-118600264D01*
X114589923Y-118660260D01*
X114589923Y-118918185D01*
X114422818Y-118918185D01*
X114422818Y-118099369D01*
X114506370Y-118099369D01*
X114556515Y-118101145D01*
G37*
X114556515Y-118101145D02*
X114581522Y-118108641D01*
X114589584Y-118125110D01*
X114589923Y-118132545D01*
X114591370Y-118153253D01*
X114601332Y-118156504D01*
X114628246Y-118142307D01*
X114644232Y-118132607D01*
X114694667Y-118111834D01*
X114754906Y-118101563D01*
X114818068Y-118100773D01*
X114877271Y-118108445D01*
X114925636Y-118123557D01*
X114956280Y-118145091D01*
X114962323Y-118172025D01*
X114959273Y-118179319D01*
X114937040Y-118209596D01*
X114902564Y-118246834D01*
X114896328Y-118252854D01*
X114863467Y-118280534D01*
X114835114Y-118289477D01*
X114795461Y-118283235D01*
X114779576Y-118279088D01*
X114730143Y-118269126D01*
X114695386Y-118273606D01*
X114666034Y-118289405D01*
X114639147Y-118310608D01*
X114619344Y-118337273D01*
X114605582Y-118374486D01*
X114596818Y-118427332D01*
X114592008Y-118500896D01*
X114590108Y-118600264D01*
X114589923Y-118660260D01*
X114589923Y-118918185D01*
X114422818Y-118918185D01*
X114422818Y-118099369D01*
X114506370Y-118099369D01*
X114556515Y-118101145D01*
G36*
X114073652Y-116864686D02*
G01*
X114090304Y-116872525D01*
X114147939Y-116914745D01*
X114202439Y-116976359D01*
X114243133Y-117044202D01*
X114254708Y-117075393D01*
X114265268Y-117131108D01*
X114271565Y-117198440D01*
X114272330Y-117226244D01*
X114272423Y-117313975D01*
X113767484Y-117313975D01*
X113778247Y-117359929D01*
X113804667Y-117414279D01*
X113850856Y-117461250D01*
X113905806Y-117491507D01*
X113940823Y-117497790D01*
X113988311Y-117490165D01*
X114044969Y-117471042D01*
X114064216Y-117462243D01*
X114135393Y-117426695D01*
X114196136Y-117473026D01*
X114231186Y-117504362D01*
X114249836Y-117530226D01*
X114250781Y-117537817D01*
X114234119Y-117556215D01*
X114197604Y-117584174D01*
X114164462Y-117605986D01*
X114075027Y-117645196D01*
X113974763Y-117662944D01*
X113875388Y-117658329D01*
X113796173Y-117634210D01*
X113714514Y-117582543D01*
X113656483Y-117514515D01*
X113620180Y-117426502D01*
X113603706Y-117314875D01*
X113602245Y-117263797D01*
X113608091Y-117146750D01*
X113608809Y-117143345D01*
X113776123Y-117143345D01*
X113780731Y-117154321D01*
X113799670Y-117160374D01*
X113838732Y-117162969D01*
X113903711Y-117163569D01*
X113928731Y-117163580D01*
X114004855Y-117162673D01*
X114053130Y-117159379D01*
X114079094Y-117152840D01*
X114088282Y-117142196D01*
X114088607Y-117138778D01*
X114078121Y-117111615D01*
X114051876Y-117073562D01*
X114040593Y-117060238D01*
X113998706Y-117022555D01*
X113955043Y-117007739D01*
X113931519Y-117006501D01*
X113867877Y-117021988D01*
X113814507Y-117063589D01*
X113780653Y-117124012D01*
X113780053Y-117125981D01*
X113776123Y-117143345D01*
X113608809Y-117143345D01*
X113627533Y-117054587D01*
X113662556Y-116980849D01*
X113705390Y-116928507D01*
X113784582Y-116871751D01*
X113877674Y-116841421D01*
X113976689Y-116838680D01*
X114073652Y-116864686D01*
G37*
X114073652Y-116864686D02*
X114090304Y-116872525D01*
X114147939Y-116914745D01*
X114202439Y-116976359D01*
X114243133Y-117044202D01*
X114254708Y-117075393D01*
X114265268Y-117131108D01*
X114271565Y-117198440D01*
X114272330Y-117226244D01*
X114272423Y-117313975D01*
X113767484Y-117313975D01*
X113778247Y-117359929D01*
X113804667Y-117414279D01*
X113850856Y-117461250D01*
X113905806Y-117491507D01*
X113940823Y-117497790D01*
X113988311Y-117490165D01*
X114044969Y-117471042D01*
X114064216Y-117462243D01*
X114135393Y-117426695D01*
X114196136Y-117473026D01*
X114231186Y-117504362D01*
X114249836Y-117530226D01*
X114250781Y-117537817D01*
X114234119Y-117556215D01*
X114197604Y-117584174D01*
X114164462Y-117605986D01*
X114075027Y-117645196D01*
X113974763Y-117662944D01*
X113875388Y-117658329D01*
X113796173Y-117634210D01*
X113714514Y-117582543D01*
X113656483Y-117514515D01*
X113620180Y-117426502D01*
X113603706Y-117314875D01*
X113602245Y-117263797D01*
X113608091Y-117146750D01*
X113608809Y-117143345D01*
X113776123Y-117143345D01*
X113780731Y-117154321D01*
X113799670Y-117160374D01*
X113838732Y-117162969D01*
X113903711Y-117163569D01*
X113928731Y-117163580D01*
X114004855Y-117162673D01*
X114053130Y-117159379D01*
X114079094Y-117152840D01*
X114088282Y-117142196D01*
X114088607Y-117138778D01*
X114078121Y-117111615D01*
X114051876Y-117073562D01*
X114040593Y-117060238D01*
X113998706Y-117022555D01*
X113955043Y-117007739D01*
X113931519Y-117006501D01*
X113867877Y-117021988D01*
X113814507Y-117063589D01*
X113780653Y-117124012D01*
X113780053Y-117125981D01*
X113776123Y-117143345D01*
X113608809Y-117143345D01*
X113627533Y-117054587D01*
X113662556Y-116980849D01*
X113705390Y-116928507D01*
X113784582Y-116871751D01*
X113877674Y-116841421D01*
X113976689Y-116838680D01*
X114073652Y-116864686D01*
G36*
X115895262Y-116843206D02*
G01*
X115958542Y-116855207D01*
X116024191Y-116880307D01*
X116031206Y-116883507D01*
X116080990Y-116909685D01*
X116115468Y-116934012D01*
X116126612Y-116949596D01*
X116116000Y-116975012D01*
X116090222Y-117012512D01*
X116078780Y-117026511D01*
X116031626Y-117081613D01*
X115970835Y-117045745D01*
X115912981Y-117021851D01*
X115846134Y-117009079D01*
X115782028Y-117008272D01*
X115732398Y-117020274D01*
X115720488Y-117027764D01*
X115697806Y-117062109D01*
X115695050Y-117101672D01*
X115712022Y-117132579D01*
X115722061Y-117138572D01*
X115752144Y-117146016D01*
X115805023Y-117154765D01*
X115870209Y-117163126D01*
X115882234Y-117164437D01*
X115986931Y-117182547D01*
X116062866Y-117213310D01*
X116113226Y-117259566D01*
X116141198Y-117324156D01*
X116149912Y-117403046D01*
X116137874Y-117492724D01*
X116098785Y-117563145D01*
X116032489Y-117614436D01*
X115938828Y-117646726D01*
X115834857Y-117659466D01*
X115750072Y-117659313D01*
X115681299Y-117647742D01*
X115634331Y-117631768D01*
X115574984Y-117603934D01*
X115520140Y-117571632D01*
X115500647Y-117557414D01*
X115450515Y-117516494D01*
X115571437Y-117394136D01*
X115640177Y-117439626D01*
X115709122Y-117473792D01*
X115782745Y-117491663D01*
X115853517Y-117493548D01*
X115913908Y-117479760D01*
X115956391Y-117450608D01*
X115970108Y-117426011D01*
X115968051Y-117386563D01*
X115933964Y-117356396D01*
X115867942Y-117335565D01*
X115795608Y-117325938D01*
X115684286Y-117307569D01*
X115601586Y-117272913D01*
X115546399Y-117220956D01*
X115517622Y-117150682D01*
X115513635Y-117067366D01*
X115533327Y-116980340D01*
X115578223Y-116914561D01*
X115648725Y-116869727D01*
X115745235Y-116845538D01*
X115816734Y-116840796D01*
X115895262Y-116843206D01*
G37*
X115895262Y-116843206D02*
X115958542Y-116855207D01*
X116024191Y-116880307D01*
X116031206Y-116883507D01*
X116080990Y-116909685D01*
X116115468Y-116934012D01*
X116126612Y-116949596D01*
X116116000Y-116975012D01*
X116090222Y-117012512D01*
X116078780Y-117026511D01*
X116031626Y-117081613D01*
X115970835Y-117045745D01*
X115912981Y-117021851D01*
X115846134Y-117009079D01*
X115782028Y-117008272D01*
X115732398Y-117020274D01*
X115720488Y-117027764D01*
X115697806Y-117062109D01*
X115695050Y-117101672D01*
X115712022Y-117132579D01*
X115722061Y-117138572D01*
X115752144Y-117146016D01*
X115805023Y-117154765D01*
X115870209Y-117163126D01*
X115882234Y-117164437D01*
X115986931Y-117182547D01*
X116062866Y-117213310D01*
X116113226Y-117259566D01*
X116141198Y-117324156D01*
X116149912Y-117403046D01*
X116137874Y-117492724D01*
X116098785Y-117563145D01*
X116032489Y-117614436D01*
X115938828Y-117646726D01*
X115834857Y-117659466D01*
X115750072Y-117659313D01*
X115681299Y-117647742D01*
X115634331Y-117631768D01*
X115574984Y-117603934D01*
X115520140Y-117571632D01*
X115500647Y-117557414D01*
X115450515Y-117516494D01*
X115571437Y-117394136D01*
X115640177Y-117439626D01*
X115709122Y-117473792D01*
X115782745Y-117491663D01*
X115853517Y-117493548D01*
X115913908Y-117479760D01*
X115956391Y-117450608D01*
X115970108Y-117426011D01*
X115968051Y-117386563D01*
X115933964Y-117356396D01*
X115867942Y-117335565D01*
X115795608Y-117325938D01*
X115684286Y-117307569D01*
X115601586Y-117272913D01*
X115546399Y-117220956D01*
X115517622Y-117150682D01*
X115513635Y-117067366D01*
X115533327Y-116980340D01*
X115578223Y-116914561D01*
X115648725Y-116869727D01*
X115745235Y-116845538D01*
X115816734Y-116840796D01*
X115895262Y-116843206D01*
G36*
X118268022Y-116845304D02*
G01*
X118325499Y-116862865D01*
X118362506Y-116885054D01*
X118374561Y-116902601D01*
X118371243Y-116923401D01*
X118349713Y-116956078D01*
X118331508Y-116979221D01*
X118293978Y-117021061D01*
X118265782Y-117038664D01*
X118241745Y-117037515D01*
X118170442Y-117019369D01*
X118118076Y-117020193D01*
X118075552Y-117040757D01*
X118061276Y-117052793D01*
X118015581Y-117095142D01*
X118015581Y-117648185D01*
X117831765Y-117648185D01*
X117831765Y-116846080D01*
X117923673Y-116846080D01*
X117978853Y-116848262D01*
X118007322Y-116856010D01*
X118015577Y-116871127D01*
X118015581Y-116871575D01*
X118019479Y-116887408D01*
X118037108Y-116885343D01*
X118061535Y-116873920D01*
X118111984Y-116852664D01*
X118152950Y-116839875D01*
X118205662Y-116836597D01*
X118268022Y-116845304D01*
G37*
X118268022Y-116845304D02*
X118325499Y-116862865D01*
X118362506Y-116885054D01*
X118374561Y-116902601D01*
X118371243Y-116923401D01*
X118349713Y-116956078D01*
X118331508Y-116979221D01*
X118293978Y-117021061D01*
X118265782Y-117038664D01*
X118241745Y-117037515D01*
X118170442Y-117019369D01*
X118118076Y-117020193D01*
X118075552Y-117040757D01*
X118061276Y-117052793D01*
X118015581Y-117095142D01*
X118015581Y-117648185D01*
X117831765Y-117648185D01*
X117831765Y-116846080D01*
X117923673Y-116846080D01*
X117978853Y-116848262D01*
X118007322Y-116856010D01*
X118015577Y-116871127D01*
X118015581Y-116871575D01*
X118019479Y-116887408D01*
X118037108Y-116885343D01*
X118061535Y-116873920D01*
X118111984Y-116852664D01*
X118152950Y-116839875D01*
X118205662Y-116836597D01*
X118268022Y-116845304D01*
G36*
X118577827Y-118103737D02*
G01*
X118657702Y-118124504D01*
X118724596Y-118167364D01*
X118756985Y-118199382D01*
X118810079Y-118275072D01*
X118840507Y-118362875D01*
X118850961Y-118470809D01*
X118851014Y-118479534D01*
X118851107Y-118567264D01*
X118346168Y-118567264D01*
X118356932Y-118613218D01*
X118376366Y-118654837D01*
X118410379Y-118698203D01*
X118417494Y-118705126D01*
X118478637Y-118742594D01*
X118548363Y-118748948D01*
X118628621Y-118724297D01*
X118642226Y-118717659D01*
X118683953Y-118697478D01*
X118711902Y-118685980D01*
X118716779Y-118684917D01*
X118733802Y-118695242D01*
X118766267Y-118720504D01*
X118782748Y-118734309D01*
X118816898Y-118766020D01*
X118828112Y-118786958D01*
X118820329Y-118806219D01*
X118816169Y-118811486D01*
X118787991Y-118834537D01*
X118741496Y-118862551D01*
X118709068Y-118878905D01*
X118617019Y-118907718D01*
X118515110Y-118917054D01*
X118418597Y-118905991D01*
X118391568Y-118898071D01*
X118307910Y-118853240D01*
X118245900Y-118784257D01*
X118205179Y-118690453D01*
X118185389Y-118571157D01*
X118183216Y-118508777D01*
X118189560Y-118417957D01*
X118349791Y-118417957D01*
X118365289Y-118424671D01*
X118406946Y-118429939D01*
X118467510Y-118433048D01*
X118508541Y-118433580D01*
X118582345Y-118433067D01*
X118628927Y-118430665D01*
X118654482Y-118425081D01*
X118665203Y-118415020D01*
X118667291Y-118400422D01*
X118652965Y-118355455D01*
X118616896Y-118311012D01*
X118569449Y-118276901D01*
X118521983Y-118262947D01*
X118457513Y-118275325D01*
X118401704Y-118311111D01*
X118363008Y-118362692D01*
X118349791Y-118417957D01*
X118189560Y-118417957D01*
X118192455Y-118376525D01*
X118220970Y-118271157D01*
X118269363Y-118191837D01*
X118338238Y-118137730D01*
X118428199Y-118108002D01*
X118476934Y-118102277D01*
X118577827Y-118103737D01*
G37*
X118577827Y-118103737D02*
X118657702Y-118124504D01*
X118724596Y-118167364D01*
X118756985Y-118199382D01*
X118810079Y-118275072D01*
X118840507Y-118362875D01*
X118850961Y-118470809D01*
X118851014Y-118479534D01*
X118851107Y-118567264D01*
X118346168Y-118567264D01*
X118356932Y-118613218D01*
X118376366Y-118654837D01*
X118410379Y-118698203D01*
X118417494Y-118705126D01*
X118478637Y-118742594D01*
X118548363Y-118748948D01*
X118628621Y-118724297D01*
X118642226Y-118717659D01*
X118683953Y-118697478D01*
X118711902Y-118685980D01*
X118716779Y-118684917D01*
X118733802Y-118695242D01*
X118766267Y-118720504D01*
X118782748Y-118734309D01*
X118816898Y-118766020D01*
X118828112Y-118786958D01*
X118820329Y-118806219D01*
X118816169Y-118811486D01*
X118787991Y-118834537D01*
X118741496Y-118862551D01*
X118709068Y-118878905D01*
X118617019Y-118907718D01*
X118515110Y-118917054D01*
X118418597Y-118905991D01*
X118391568Y-118898071D01*
X118307910Y-118853240D01*
X118245900Y-118784257D01*
X118205179Y-118690453D01*
X118185389Y-118571157D01*
X118183216Y-118508777D01*
X118189560Y-118417957D01*
X118349791Y-118417957D01*
X118365289Y-118424671D01*
X118406946Y-118429939D01*
X118467510Y-118433048D01*
X118508541Y-118433580D01*
X118582345Y-118433067D01*
X118628927Y-118430665D01*
X118654482Y-118425081D01*
X118665203Y-118415020D01*
X118667291Y-118400422D01*
X118652965Y-118355455D01*
X118616896Y-118311012D01*
X118569449Y-118276901D01*
X118521983Y-118262947D01*
X118457513Y-118275325D01*
X118401704Y-118311111D01*
X118363008Y-118362692D01*
X118349791Y-118417957D01*
X118189560Y-118417957D01*
X118192455Y-118376525D01*
X118220970Y-118271157D01*
X118269363Y-118191837D01*
X118338238Y-118137730D01*
X118428199Y-118108002D01*
X118476934Y-118102277D01*
X118577827Y-118103737D01*
G36*
X116377598Y-111306235D02*
G01*
X116453147Y-111706981D01*
X117010675Y-111936813D01*
X117345099Y-111709407D01*
X117438756Y-111646090D01*
X117523416Y-111589555D01*
X117595129Y-111542386D01*
X117649945Y-111507161D01*
X117683914Y-111486464D01*
X117693164Y-111482001D01*
X117709829Y-111493479D01*
X117745440Y-111525210D01*
X117796005Y-111573142D01*
X117857534Y-111633221D01*
X117926033Y-111701392D01*
X117997513Y-111773604D01*
X118067981Y-111845801D01*
X118133445Y-111913932D01*
X118189914Y-111973942D01*
X118233397Y-112021778D01*
X118259902Y-112053386D01*
X118266239Y-112063964D01*
X118257120Y-112083465D01*
X118231554Y-112126190D01*
X118192231Y-112187957D01*
X118141837Y-112264590D01*
X118083061Y-112351907D01*
X118049002Y-112401711D01*
X117986923Y-112492652D01*
X117931760Y-112574718D01*
X117886188Y-112643822D01*
X117852884Y-112695881D01*
X117834524Y-112726809D01*
X117831765Y-112733309D01*
X117838019Y-112751780D01*
X117855068Y-112794831D01*
X117880337Y-112856408D01*
X117911256Y-112930458D01*
X117945252Y-113010929D01*
X117979752Y-113091766D01*
X118012185Y-113166917D01*
X118039977Y-113230330D01*
X118060557Y-113275952D01*
X118071353Y-113297728D01*
X118071990Y-113298585D01*
X118088941Y-113302743D01*
X118134085Y-113312020D01*
X118202744Y-113325503D01*
X118290236Y-113342280D01*
X118391884Y-113361440D01*
X118451190Y-113372489D01*
X118559806Y-113393169D01*
X118657911Y-113412848D01*
X118740543Y-113430448D01*
X118802738Y-113444892D01*
X118839533Y-113455105D01*
X118846930Y-113458345D01*
X118854174Y-113480276D01*
X118860019Y-113529806D01*
X118864469Y-113601144D01*
X118867527Y-113688498D01*
X118869199Y-113786076D01*
X118869487Y-113888085D01*
X118868395Y-113988734D01*
X118865928Y-114082231D01*
X118862090Y-114162784D01*
X118856884Y-114224601D01*
X118850315Y-114261889D01*
X118846375Y-114269652D01*
X118822822Y-114278957D01*
X118772916Y-114292259D01*
X118703257Y-114307996D01*
X118620447Y-114324605D01*
X118591539Y-114329978D01*
X118452165Y-114355507D01*
X118342070Y-114376067D01*
X118257616Y-114392474D01*
X118195164Y-114405546D01*
X118151078Y-114416100D01*
X118121719Y-114424953D01*
X118103449Y-114432922D01*
X118092632Y-114440824D01*
X118091119Y-114442386D01*
X118076011Y-114467545D01*
X118052963Y-114516509D01*
X118024278Y-114583280D01*
X117992256Y-114661864D01*
X117959199Y-114746266D01*
X117927407Y-114830489D01*
X117899183Y-114908538D01*
X117876827Y-114974418D01*
X117862641Y-115022132D01*
X117858927Y-115045686D01*
X117859236Y-115046511D01*
X117871823Y-115065763D01*
X117900378Y-115108122D01*
X117941901Y-115169180D01*
X117993390Y-115244527D01*
X118051845Y-115329755D01*
X118068492Y-115353974D01*
X118127849Y-115441782D01*
X118180081Y-115521897D01*
X118222342Y-115589721D01*
X118251787Y-115640652D01*
X118265571Y-115670090D01*
X118266239Y-115673707D01*
X118254658Y-115692716D01*
X118222658Y-115730373D01*
X118174352Y-115782632D01*
X118113854Y-115845445D01*
X118045278Y-115914765D01*
X117972738Y-115986544D01*
X117900346Y-116056736D01*
X117832218Y-116121294D01*
X117772466Y-116176169D01*
X117725205Y-116217315D01*
X117694547Y-116240685D01*
X117686066Y-116244501D01*
X117666325Y-116235514D01*
X117625908Y-116211275D01*
X117571397Y-116175868D01*
X117529457Y-116147370D01*
X117453463Y-116095077D01*
X117363468Y-116033504D01*
X117273198Y-115972029D01*
X117224666Y-115939128D01*
X117060396Y-115828018D01*
X116922503Y-115902575D01*
X116859683Y-115935237D01*
X116806263Y-115960625D01*
X116770118Y-115975105D01*
X116760918Y-115977119D01*
X116749855Y-115962243D01*
X116728028Y-115920206D01*
X116697068Y-115854886D01*
X116658604Y-115770159D01*
X116614266Y-115669904D01*
X116565681Y-115557998D01*
X116514480Y-115438318D01*
X116462293Y-115314743D01*
X116410747Y-115191150D01*
X116361474Y-115071416D01*
X116316101Y-114959418D01*
X116276259Y-114859036D01*
X116243576Y-114774145D01*
X116219683Y-114708624D01*
X116206208Y-114666349D01*
X116204040Y-114651831D01*
X116221217Y-114633312D01*
X116258824Y-114603249D01*
X116309000Y-114567891D01*
X116313212Y-114565093D01*
X116442898Y-114461284D01*
X116547468Y-114340174D01*
X116626015Y-114205635D01*
X116677633Y-114061541D01*
X116701416Y-113911764D01*
X116696457Y-113760176D01*
X116661851Y-113610651D01*
X116596691Y-113467059D01*
X116577520Y-113435643D01*
X116477808Y-113308784D01*
X116360011Y-113206914D01*
X116228205Y-113130563D01*
X116086467Y-113080261D01*
X115938876Y-113056538D01*
X115789507Y-113059924D01*
X115642437Y-113090947D01*
X115501745Y-113150139D01*
X115371507Y-113238028D01*
X115331220Y-113273701D01*
X115228689Y-113385365D01*
X115153975Y-113502916D01*
X115102724Y-113634679D01*
X115074180Y-113765166D01*
X115067134Y-113911875D01*
X115090630Y-114059312D01*
X115142283Y-114202493D01*
X115219705Y-114336436D01*
X115320509Y-114456157D01*
X115442310Y-114556673D01*
X115458318Y-114567268D01*
X115509032Y-114601965D01*
X115547584Y-114632029D01*
X115566015Y-114651224D01*
X115566283Y-114651831D01*
X115562326Y-114672595D01*
X115546641Y-114719721D01*
X115520856Y-114789332D01*
X115486603Y-114877552D01*
X115445511Y-114980503D01*
X115399210Y-115094309D01*
X115349330Y-115215094D01*
X115297501Y-115338980D01*
X115245353Y-115462091D01*
X115194516Y-115580550D01*
X115146621Y-115690482D01*
X115103296Y-115788008D01*
X115066172Y-115869252D01*
X115036878Y-115930338D01*
X115017046Y-115967389D01*
X115009060Y-115977119D01*
X114984655Y-115969542D01*
X114938992Y-115949219D01*
X114879944Y-115919784D01*
X114847474Y-115902575D01*
X114709581Y-115828018D01*
X114545311Y-115939128D01*
X114461455Y-115996049D01*
X114369647Y-116058689D01*
X114283614Y-116117670D01*
X114240521Y-116147370D01*
X114179911Y-116188069D01*
X114128589Y-116220322D01*
X114093249Y-116240043D01*
X114081771Y-116244213D01*
X114065064Y-116232966D01*
X114028088Y-116201570D01*
X113974429Y-116153283D01*
X113907672Y-116091367D01*
X113831400Y-116019080D01*
X113783161Y-115972667D01*
X113698767Y-115889746D01*
X113625831Y-115815579D01*
X113567303Y-115753339D01*
X113526131Y-115706200D01*
X113505262Y-115677332D01*
X113503260Y-115671474D01*
X113512551Y-115649191D01*
X113538225Y-115604136D01*
X113577434Y-115540870D01*
X113627331Y-115463954D01*
X113685067Y-115377951D01*
X113701485Y-115353974D01*
X113761311Y-115266829D01*
X113814984Y-115188369D01*
X113859504Y-115123004D01*
X113891869Y-115075143D01*
X113909079Y-115049194D01*
X113910741Y-115046511D01*
X113908255Y-115025831D01*
X113895057Y-114980363D01*
X113873448Y-114916103D01*
X113845730Y-114839046D01*
X113814204Y-114755188D01*
X113781171Y-114670525D01*
X113748933Y-114591051D01*
X113719791Y-114522763D01*
X113696046Y-114471656D01*
X113679999Y-114443726D01*
X113678859Y-114442386D01*
X113669046Y-114434404D01*
X113652473Y-114426510D01*
X113625502Y-114417888D01*
X113584495Y-114407721D01*
X113525814Y-114395190D01*
X113445821Y-114379480D01*
X113340879Y-114359772D01*
X113207349Y-114335251D01*
X113178438Y-114329978D01*
X113092752Y-114313423D01*
X113018052Y-114297228D01*
X112960940Y-114282955D01*
X112928017Y-114272167D01*
X112923603Y-114269652D01*
X112916328Y-114247355D01*
X112910415Y-114197528D01*
X112905868Y-114125963D01*
X112902689Y-114038452D01*
X112900885Y-113940787D01*
X112900457Y-113838760D01*
X112901411Y-113738162D01*
X112903750Y-113644786D01*
X112907478Y-113564424D01*
X112912600Y-113502868D01*
X112919118Y-113465909D01*
X112923048Y-113458345D01*
X112944926Y-113450715D01*
X112994743Y-113438301D01*
X113067537Y-113422181D01*
X113158345Y-113403432D01*
X113262203Y-113383130D01*
X113318788Y-113372489D01*
X113426148Y-113352419D01*
X113521888Y-113334239D01*
X113601328Y-113318858D01*
X113659788Y-113307190D01*
X113692589Y-113300147D01*
X113697988Y-113298585D01*
X113707112Y-113280981D01*
X113726399Y-113238577D01*
X113753279Y-113177431D01*
X113785180Y-113103602D01*
X113819532Y-113023148D01*
X113853763Y-112942127D01*
X113885303Y-112866596D01*
X113911580Y-112802614D01*
X113930023Y-112756239D01*
X113938063Y-112733528D01*
X113938212Y-112732535D01*
X113929099Y-112714620D01*
X113903548Y-112673392D01*
X113864246Y-112612950D01*
X113813877Y-112537390D01*
X113755128Y-112450811D01*
X113720976Y-112401080D01*
X113658744Y-112309895D01*
X113603470Y-112227108D01*
X113557852Y-112156908D01*
X113524586Y-112103483D01*
X113506370Y-112071020D01*
X113503739Y-112063742D01*
X113515048Y-112046804D01*
X113546315Y-112010637D01*
X113593544Y-111959294D01*
X113652742Y-111896826D01*
X113719915Y-111827285D01*
X113791068Y-111754724D01*
X113862208Y-111683194D01*
X113929341Y-111616746D01*
X113988473Y-111559433D01*
X114035609Y-111515306D01*
X114066757Y-111488418D01*
X114077177Y-111482001D01*
X114094143Y-111491024D01*
X114134723Y-111516374D01*
X114194971Y-111555469D01*
X114270941Y-111605730D01*
X114358688Y-111664576D01*
X114424878Y-111709407D01*
X114759302Y-111936813D01*
X115038067Y-111821897D01*
X115316831Y-111706981D01*
X115392380Y-111306235D01*
X115467928Y-110905488D01*
X116302049Y-110905488D01*
X116377598Y-111306235D01*
G37*
X116377598Y-111306235D02*
X116453147Y-111706981D01*
X117010675Y-111936813D01*
X117345099Y-111709407D01*
X117438756Y-111646090D01*
X117523416Y-111589555D01*
X117595129Y-111542386D01*
X117649945Y-111507161D01*
X117683914Y-111486464D01*
X117693164Y-111482001D01*
X117709829Y-111493479D01*
X117745440Y-111525210D01*
X117796005Y-111573142D01*
X117857534Y-111633221D01*
X117926033Y-111701392D01*
X117997513Y-111773604D01*
X118067981Y-111845801D01*
X118133445Y-111913932D01*
X118189914Y-111973942D01*
X118233397Y-112021778D01*
X118259902Y-112053386D01*
X118266239Y-112063964D01*
X118257120Y-112083465D01*
X118231554Y-112126190D01*
X118192231Y-112187957D01*
X118141837Y-112264590D01*
X118083061Y-112351907D01*
X118049002Y-112401711D01*
X117986923Y-112492652D01*
X117931760Y-112574718D01*
X117886188Y-112643822D01*
X117852884Y-112695881D01*
X117834524Y-112726809D01*
X117831765Y-112733309D01*
X117838019Y-112751780D01*
X117855068Y-112794831D01*
X117880337Y-112856408D01*
X117911256Y-112930458D01*
X117945252Y-113010929D01*
X117979752Y-113091766D01*
X118012185Y-113166917D01*
X118039977Y-113230330D01*
X118060557Y-113275952D01*
X118071353Y-113297728D01*
X118071990Y-113298585D01*
X118088941Y-113302743D01*
X118134085Y-113312020D01*
X118202744Y-113325503D01*
X118290236Y-113342280D01*
X118391884Y-113361440D01*
X118451190Y-113372489D01*
X118559806Y-113393169D01*
X118657911Y-113412848D01*
X118740543Y-113430448D01*
X118802738Y-113444892D01*
X118839533Y-113455105D01*
X118846930Y-113458345D01*
X118854174Y-113480276D01*
X118860019Y-113529806D01*
X118864469Y-113601144D01*
X118867527Y-113688498D01*
X118869199Y-113786076D01*
X118869487Y-113888085D01*
X118868395Y-113988734D01*
X118865928Y-114082231D01*
X118862090Y-114162784D01*
X118856884Y-114224601D01*
X118850315Y-114261889D01*
X118846375Y-114269652D01*
X118822822Y-114278957D01*
X118772916Y-114292259D01*
X118703257Y-114307996D01*
X118620447Y-114324605D01*
X118591539Y-114329978D01*
X118452165Y-114355507D01*
X118342070Y-114376067D01*
X118257616Y-114392474D01*
X118195164Y-114405546D01*
X118151078Y-114416100D01*
X118121719Y-114424953D01*
X118103449Y-114432922D01*
X118092632Y-114440824D01*
X118091119Y-114442386D01*
X118076011Y-114467545D01*
X118052963Y-114516509D01*
X118024278Y-114583280D01*
X117992256Y-114661864D01*
X117959199Y-114746266D01*
X117927407Y-114830489D01*
X117899183Y-114908538D01*
X117876827Y-114974418D01*
X117862641Y-115022132D01*
X117858927Y-115045686D01*
X117859236Y-115046511D01*
X117871823Y-115065763D01*
X117900378Y-115108122D01*
X117941901Y-115169180D01*
X117993390Y-115244527D01*
X118051845Y-115329755D01*
X118068492Y-115353974D01*
X118127849Y-115441782D01*
X118180081Y-115521897D01*
X118222342Y-115589721D01*
X118251787Y-115640652D01*
X118265571Y-115670090D01*
X118266239Y-115673707D01*
X118254658Y-115692716D01*
X118222658Y-115730373D01*
X118174352Y-115782632D01*
X118113854Y-115845445D01*
X118045278Y-115914765D01*
X117972738Y-115986544D01*
X117900346Y-116056736D01*
X117832218Y-116121294D01*
X117772466Y-116176169D01*
X117725205Y-116217315D01*
X117694547Y-116240685D01*
X117686066Y-116244501D01*
X117666325Y-116235514D01*
X117625908Y-116211275D01*
X117571397Y-116175868D01*
X117529457Y-116147370D01*
X117453463Y-116095077D01*
X117363468Y-116033504D01*
X117273198Y-115972029D01*
X117224666Y-115939128D01*
X117060396Y-115828018D01*
X116922503Y-115902575D01*
X116859683Y-115935237D01*
X116806263Y-115960625D01*
X116770118Y-115975105D01*
X116760918Y-115977119D01*
X116749855Y-115962243D01*
X116728028Y-115920206D01*
X116697068Y-115854886D01*
X116658604Y-115770159D01*
X116614266Y-115669904D01*
X116565681Y-115557998D01*
X116514480Y-115438318D01*
X116462293Y-115314743D01*
X116410747Y-115191150D01*
X116361474Y-115071416D01*
X116316101Y-114959418D01*
X116276259Y-114859036D01*
X116243576Y-114774145D01*
X116219683Y-114708624D01*
X116206208Y-114666349D01*
X116204040Y-114651831D01*
X116221217Y-114633312D01*
X116258824Y-114603249D01*
X116309000Y-114567891D01*
X116313212Y-114565093D01*
X116442898Y-114461284D01*
X116547468Y-114340174D01*
X116626015Y-114205635D01*
X116677633Y-114061541D01*
X116701416Y-113911764D01*
X116696457Y-113760176D01*
X116661851Y-113610651D01*
X116596691Y-113467059D01*
X116577520Y-113435643D01*
X116477808Y-113308784D01*
X116360011Y-113206914D01*
X116228205Y-113130563D01*
X116086467Y-113080261D01*
X115938876Y-113056538D01*
X115789507Y-113059924D01*
X115642437Y-113090947D01*
X115501745Y-113150139D01*
X115371507Y-113238028D01*
X115331220Y-113273701D01*
X115228689Y-113385365D01*
X115153975Y-113502916D01*
X115102724Y-113634679D01*
X115074180Y-113765166D01*
X115067134Y-113911875D01*
X115090630Y-114059312D01*
X115142283Y-114202493D01*
X115219705Y-114336436D01*
X115320509Y-114456157D01*
X115442310Y-114556673D01*
X115458318Y-114567268D01*
X115509032Y-114601965D01*
X115547584Y-114632029D01*
X115566015Y-114651224D01*
X115566283Y-114651831D01*
X115562326Y-114672595D01*
X115546641Y-114719721D01*
X115520856Y-114789332D01*
X115486603Y-114877552D01*
X115445511Y-114980503D01*
X115399210Y-115094309D01*
X115349330Y-115215094D01*
X115297501Y-115338980D01*
X115245353Y-115462091D01*
X115194516Y-115580550D01*
X115146621Y-115690482D01*
X115103296Y-115788008D01*
X115066172Y-115869252D01*
X115036878Y-115930338D01*
X115017046Y-115967389D01*
X115009060Y-115977119D01*
X114984655Y-115969542D01*
X114938992Y-115949219D01*
X114879944Y-115919784D01*
X114847474Y-115902575D01*
X114709581Y-115828018D01*
X114545311Y-115939128D01*
X114461455Y-115996049D01*
X114369647Y-116058689D01*
X114283614Y-116117670D01*
X114240521Y-116147370D01*
X114179911Y-116188069D01*
X114128589Y-116220322D01*
X114093249Y-116240043D01*
X114081771Y-116244213D01*
X114065064Y-116232966D01*
X114028088Y-116201570D01*
X113974429Y-116153283D01*
X113907672Y-116091367D01*
X113831400Y-116019080D01*
X113783161Y-115972667D01*
X113698767Y-115889746D01*
X113625831Y-115815579D01*
X113567303Y-115753339D01*
X113526131Y-115706200D01*
X113505262Y-115677332D01*
X113503260Y-115671474D01*
X113512551Y-115649191D01*
X113538225Y-115604136D01*
X113577434Y-115540870D01*
X113627331Y-115463954D01*
X113685067Y-115377951D01*
X113701485Y-115353974D01*
X113761311Y-115266829D01*
X113814984Y-115188369D01*
X113859504Y-115123004D01*
X113891869Y-115075143D01*
X113909079Y-115049194D01*
X113910741Y-115046511D01*
X113908255Y-115025831D01*
X113895057Y-114980363D01*
X113873448Y-114916103D01*
X113845730Y-114839046D01*
X113814204Y-114755188D01*
X113781171Y-114670525D01*
X113748933Y-114591051D01*
X113719791Y-114522763D01*
X113696046Y-114471656D01*
X113679999Y-114443726D01*
X113678859Y-114442386D01*
X113669046Y-114434404D01*
X113652473Y-114426510D01*
X113625502Y-114417888D01*
X113584495Y-114407721D01*
X113525814Y-114395190D01*
X113445821Y-114379480D01*
X113340879Y-114359772D01*
X113207349Y-114335251D01*
X113178438Y-114329978D01*
X113092752Y-114313423D01*
X113018052Y-114297228D01*
X112960940Y-114282955D01*
X112928017Y-114272167D01*
X112923603Y-114269652D01*
X112916328Y-114247355D01*
X112910415Y-114197528D01*
X112905868Y-114125963D01*
X112902689Y-114038452D01*
X112900885Y-113940787D01*
X112900457Y-113838760D01*
X112901411Y-113738162D01*
X112903750Y-113644786D01*
X112907478Y-113564424D01*
X112912600Y-113502868D01*
X112919118Y-113465909D01*
X112923048Y-113458345D01*
X112944926Y-113450715D01*
X112994743Y-113438301D01*
X113067537Y-113422181D01*
X113158345Y-113403432D01*
X113262203Y-113383130D01*
X113318788Y-113372489D01*
X113426148Y-113352419D01*
X113521888Y-113334239D01*
X113601328Y-113318858D01*
X113659788Y-113307190D01*
X113692589Y-113300147D01*
X113697988Y-113298585D01*
X113707112Y-113280981D01*
X113726399Y-113238577D01*
X113753279Y-113177431D01*
X113785180Y-113103602D01*
X113819532Y-113023148D01*
X113853763Y-112942127D01*
X113885303Y-112866596D01*
X113911580Y-112802614D01*
X113930023Y-112756239D01*
X113938063Y-112733528D01*
X113938212Y-112732535D01*
X113929099Y-112714620D01*
X113903548Y-112673392D01*
X113864246Y-112612950D01*
X113813877Y-112537390D01*
X113755128Y-112450811D01*
X113720976Y-112401080D01*
X113658744Y-112309895D01*
X113603470Y-112227108D01*
X113557852Y-112156908D01*
X113524586Y-112103483D01*
X113506370Y-112071020D01*
X113503739Y-112063742D01*
X113515048Y-112046804D01*
X113546315Y-112010637D01*
X113593544Y-111959294D01*
X113652742Y-111896826D01*
X113719915Y-111827285D01*
X113791068Y-111754724D01*
X113862208Y-111683194D01*
X113929341Y-111616746D01*
X113988473Y-111559433D01*
X114035609Y-111515306D01*
X114066757Y-111488418D01*
X114077177Y-111482001D01*
X114094143Y-111491024D01*
X114134723Y-111516374D01*
X114194971Y-111555469D01*
X114270941Y-111605730D01*
X114358688Y-111664576D01*
X114424878Y-111709407D01*
X114759302Y-111936813D01*
X115038067Y-111821897D01*
X115316831Y-111706981D01*
X115392380Y-111306235D01*
X115467928Y-110905488D01*
X116302049Y-110905488D01*
X116377598Y-111306235D01*
G36*
X117256626Y-118104332D02*
G01*
X117327061Y-118121439D01*
X117347421Y-118130503D01*
X117386887Y-118154242D01*
X117417175Y-118180980D01*
X117439586Y-118215358D01*
X117455420Y-118262019D01*
X117465977Y-118325605D01*
X117472558Y-118410758D01*
X117476462Y-118522121D01*
X117477944Y-118596508D01*
X117483399Y-118918185D01*
X117390214Y-118918185D01*
X117333681Y-118915815D01*
X117304556Y-118907714D01*
X117297028Y-118894110D01*
X117293054Y-118879400D01*
X117275286Y-118882213D01*
X117251074Y-118894007D01*
X117190462Y-118912086D01*
X117112563Y-118916958D01*
X117030629Y-118908989D01*
X116957915Y-118888548D01*
X116951393Y-118885710D01*
X116884936Y-118839024D01*
X116841125Y-118774123D01*
X116820966Y-118698259D01*
X116822506Y-118671003D01*
X116986979Y-118671003D01*
X117001471Y-118707683D01*
X117044439Y-118733968D01*
X117113763Y-118748076D01*
X117150811Y-118749949D01*
X117212553Y-118745153D01*
X117253594Y-118726517D01*
X117263607Y-118717659D01*
X117290734Y-118669465D01*
X117297028Y-118625751D01*
X117297028Y-118567264D01*
X117215564Y-118567264D01*
X117120868Y-118572091D01*
X117054447Y-118587272D01*
X117012480Y-118613859D01*
X117003083Y-118625711D01*
X116986979Y-118671003D01*
X116822506Y-118671003D01*
X116825463Y-118618685D01*
X116855619Y-118542654D01*
X116896765Y-118491271D01*
X116921686Y-118469056D01*
X116946082Y-118454457D01*
X116977825Y-118445556D01*
X117024786Y-118440434D01*
X117094838Y-118437174D01*
X117122624Y-118436236D01*
X117297028Y-118430538D01*
X117296772Y-118377750D01*
X117290018Y-118322262D01*
X117265598Y-118288711D01*
X117216264Y-118267277D01*
X117214940Y-118266895D01*
X117144994Y-118258467D01*
X117076548Y-118269475D01*
X117025681Y-118296244D01*
X117005271Y-118309462D01*
X116983288Y-118307633D01*
X116949460Y-118288483D01*
X116929595Y-118274967D01*
X116890740Y-118246091D01*
X116866672Y-118224445D01*
X116862810Y-118218248D01*
X116878713Y-118186178D01*
X116925699Y-118147878D01*
X116946107Y-118134956D01*
X117004777Y-118112700D01*
X117083846Y-118100091D01*
X117171675Y-118097259D01*
X117256626Y-118104332D01*
G37*
X117256626Y-118104332D02*
X117327061Y-118121439D01*
X117347421Y-118130503D01*
X117386887Y-118154242D01*
X117417175Y-118180980D01*
X117439586Y-118215358D01*
X117455420Y-118262019D01*
X117465977Y-118325605D01*
X117472558Y-118410758D01*
X117476462Y-118522121D01*
X117477944Y-118596508D01*
X117483399Y-118918185D01*
X117390214Y-118918185D01*
X117333681Y-118915815D01*
X117304556Y-118907714D01*
X117297028Y-118894110D01*
X117293054Y-118879400D01*
X117275286Y-118882213D01*
X117251074Y-118894007D01*
X117190462Y-118912086D01*
X117112563Y-118916958D01*
X117030629Y-118908989D01*
X116957915Y-118888548D01*
X116951393Y-118885710D01*
X116884936Y-118839024D01*
X116841125Y-118774123D01*
X116820966Y-118698259D01*
X116822506Y-118671003D01*
X116986979Y-118671003D01*
X117001471Y-118707683D01*
X117044439Y-118733968D01*
X117113763Y-118748076D01*
X117150811Y-118749949D01*
X117212553Y-118745153D01*
X117253594Y-118726517D01*
X117263607Y-118717659D01*
X117290734Y-118669465D01*
X117297028Y-118625751D01*
X117297028Y-118567264D01*
X117215564Y-118567264D01*
X117120868Y-118572091D01*
X117054447Y-118587272D01*
X117012480Y-118613859D01*
X117003083Y-118625711D01*
X116986979Y-118671003D01*
X116822506Y-118671003D01*
X116825463Y-118618685D01*
X116855619Y-118542654D01*
X116896765Y-118491271D01*
X116921686Y-118469056D01*
X116946082Y-118454457D01*
X116977825Y-118445556D01*
X117024786Y-118440434D01*
X117094838Y-118437174D01*
X117122624Y-118436236D01*
X117297028Y-118430538D01*
X117296772Y-118377750D01*
X117290018Y-118322262D01*
X117265598Y-118288711D01*
X117216264Y-118267277D01*
X117214940Y-118266895D01*
X117144994Y-118258467D01*
X117076548Y-118269475D01*
X117025681Y-118296244D01*
X117005271Y-118309462D01*
X116983288Y-118307633D01*
X116949460Y-118288483D01*
X116929595Y-118274967D01*
X116890740Y-118246091D01*
X116866672Y-118224445D01*
X116862810Y-118218248D01*
X116878713Y-118186178D01*
X116925699Y-118147878D01*
X116946107Y-118134956D01*
X117004777Y-118112700D01*
X117083846Y-118100091D01*
X117171675Y-118097259D01*
X117256626Y-118104332D01*
G36*
X117196765Y-117106192D02*
G01*
X117198344Y-117228748D01*
X117204115Y-117321838D01*
X117215625Y-117389310D01*
X117234424Y-117435014D01*
X117262060Y-117462798D01*
X117300082Y-117476513D01*
X117347160Y-117480017D01*
X117396466Y-117476091D01*
X117433917Y-117461748D01*
X117461062Y-117433137D01*
X117479449Y-117386410D01*
X117490627Y-117317717D01*
X117496145Y-117223209D01*
X117497555Y-117106192D01*
X117497555Y-116846080D01*
X117681370Y-116846080D01*
X117681370Y-117648185D01*
X117589462Y-117648185D01*
X117534056Y-117645940D01*
X117505525Y-117638055D01*
X117497555Y-117623087D01*
X117492754Y-117609756D01*
X117473648Y-117612576D01*
X117435138Y-117631442D01*
X117346873Y-117660546D01*
X117253257Y-117658484D01*
X117163555Y-117626880D01*
X117120838Y-117601916D01*
X117088255Y-117574885D01*
X117064451Y-117541064D01*
X117048073Y-117495727D01*
X117037765Y-117434148D01*
X117032175Y-117351602D01*
X117029946Y-117243364D01*
X117029660Y-117159663D01*
X117029660Y-116846080D01*
X117196765Y-116846080D01*
X117196765Y-117106192D01*
G37*
X117196765Y-117106192D02*
X117198344Y-117228748D01*
X117204115Y-117321838D01*
X117215625Y-117389310D01*
X117234424Y-117435014D01*
X117262060Y-117462798D01*
X117300082Y-117476513D01*
X117347160Y-117480017D01*
X117396466Y-117476091D01*
X117433917Y-117461748D01*
X117461062Y-117433137D01*
X117479449Y-117386410D01*
X117490627Y-117317717D01*
X117496145Y-117223209D01*
X117497555Y-117106192D01*
X117497555Y-116846080D01*
X117681370Y-116846080D01*
X117681370Y-117648185D01*
X117589462Y-117648185D01*
X117534056Y-117645940D01*
X117505525Y-117638055D01*
X117497555Y-117623087D01*
X117492754Y-117609756D01*
X117473648Y-117612576D01*
X117435138Y-117631442D01*
X117346873Y-117660546D01*
X117253257Y-117658484D01*
X117163555Y-117626880D01*
X117120838Y-117601916D01*
X117088255Y-117574885D01*
X117064451Y-117541064D01*
X117048073Y-117495727D01*
X117037765Y-117434148D01*
X117032175Y-117351602D01*
X117029946Y-117243364D01*
X117029660Y-117159663D01*
X117029660Y-116846080D01*
X117196765Y-116846080D01*
X117196765Y-117106192D01*
G36*
X119435418Y-116843213D02*
G01*
X119478208Y-116853608D01*
X119560243Y-116891672D01*
X119630391Y-116949808D01*
X119678939Y-117019511D01*
X119685609Y-117035161D01*
X119694758Y-117076155D01*
X119701163Y-117136797D01*
X119703344Y-117198089D01*
X119703344Y-117313975D01*
X119461041Y-117313975D01*
X119361105Y-117314352D01*
X119290703Y-117316646D01*
X119245947Y-117322597D01*
X119222949Y-117333944D01*
X119217823Y-117352430D01*
X119226682Y-117379795D01*
X119242551Y-117411814D01*
X119286818Y-117465251D01*
X119348333Y-117491874D01*
X119423519Y-117491006D01*
X119508687Y-117462030D01*
X119582293Y-117426270D01*
X119643368Y-117474563D01*
X119704444Y-117522856D01*
X119646985Y-117575944D01*
X119570275Y-117626104D01*
X119475936Y-117656347D01*
X119374461Y-117664810D01*
X119276345Y-117649633D01*
X119260515Y-117644483D01*
X119174281Y-117599450D01*
X119110135Y-117532311D01*
X119066725Y-117441064D01*
X119042698Y-117323703D01*
X119042418Y-117321188D01*
X119040267Y-117193286D01*
X119048963Y-117147656D01*
X119218739Y-117147656D01*
X119234331Y-117154672D01*
X119276663Y-117160047D01*
X119339068Y-117163116D01*
X119378615Y-117163580D01*
X119452362Y-117163289D01*
X119498474Y-117161442D01*
X119522734Y-117156571D01*
X119530928Y-117147214D01*
X119528840Y-117131904D01*
X119527089Y-117125981D01*
X119497194Y-117070327D01*
X119450176Y-117025474D01*
X119408683Y-117005764D01*
X119353560Y-117006954D01*
X119297702Y-117031534D01*
X119250846Y-117072229D01*
X119222728Y-117121767D01*
X119218739Y-117147656D01*
X119048963Y-117147656D01*
X119061708Y-117080792D01*
X119104245Y-116986386D01*
X119165381Y-116912747D01*
X119242619Y-116862552D01*
X119333464Y-116838481D01*
X119435418Y-116843213D01*
G37*
X119435418Y-116843213D02*
X119478208Y-116853608D01*
X119560243Y-116891672D01*
X119630391Y-116949808D01*
X119678939Y-117019511D01*
X119685609Y-117035161D01*
X119694758Y-117076155D01*
X119701163Y-117136797D01*
X119703344Y-117198089D01*
X119703344Y-117313975D01*
X119461041Y-117313975D01*
X119361105Y-117314352D01*
X119290703Y-117316646D01*
X119245947Y-117322597D01*
X119222949Y-117333944D01*
X119217823Y-117352430D01*
X119226682Y-117379795D01*
X119242551Y-117411814D01*
X119286818Y-117465251D01*
X119348333Y-117491874D01*
X119423519Y-117491006D01*
X119508687Y-117462030D01*
X119582293Y-117426270D01*
X119643368Y-117474563D01*
X119704444Y-117522856D01*
X119646985Y-117575944D01*
X119570275Y-117626104D01*
X119475936Y-117656347D01*
X119374461Y-117664810D01*
X119276345Y-117649633D01*
X119260515Y-117644483D01*
X119174281Y-117599450D01*
X119110135Y-117532311D01*
X119066725Y-117441064D01*
X119042698Y-117323703D01*
X119042418Y-117321188D01*
X119040267Y-117193286D01*
X119048963Y-117147656D01*
X119218739Y-117147656D01*
X119234331Y-117154672D01*
X119276663Y-117160047D01*
X119339068Y-117163116D01*
X119378615Y-117163580D01*
X119452362Y-117163289D01*
X119498474Y-117161442D01*
X119522734Y-117156571D01*
X119530928Y-117147214D01*
X119528840Y-117131904D01*
X119527089Y-117125981D01*
X119497194Y-117070327D01*
X119450176Y-117025474D01*
X119408683Y-117005764D01*
X119353560Y-117006954D01*
X119297702Y-117031534D01*
X119250846Y-117072229D01*
X119222728Y-117121767D01*
X119218739Y-117147656D01*
X119048963Y-117147656D01*
X119061708Y-117080792D01*
X119104245Y-116986386D01*
X119165381Y-116912747D01*
X119242619Y-116862552D01*
X119333464Y-116838481D01*
X119435418Y-116843213D01*
G36*
X116250764Y-118102763D02*
G01*
X116316854Y-118107725D01*
X116403260Y-118366738D01*
X116489665Y-118625751D01*
X116516758Y-118533843D01*
X116533062Y-118477043D01*
X116554509Y-118400284D01*
X116577669Y-118315910D01*
X116589914Y-118270652D01*
X116635978Y-118099369D01*
X116826021Y-118099369D01*
X116769216Y-118279008D01*
X116741241Y-118367363D01*
X116707447Y-118473940D01*
X116672154Y-118585113D01*
X116640647Y-118684238D01*
X116568884Y-118909830D01*
X116413920Y-118919912D01*
X116371904Y-118781187D01*
X116345993Y-118695010D01*
X116317717Y-118600006D01*
X116293003Y-118516100D01*
X116292028Y-118512761D01*
X116273569Y-118455907D01*
X116257283Y-118417115D01*
X116245876Y-118402446D01*
X116243532Y-118404142D01*
X116235305Y-118426884D01*
X116219672Y-118475599D01*
X116198538Y-118544161D01*
X116173804Y-118626444D01*
X116160421Y-118671705D01*
X116087945Y-118918185D01*
X115934129Y-118918185D01*
X115811165Y-118529665D01*
X115776622Y-118420681D01*
X115745155Y-118321707D01*
X115718250Y-118237395D01*
X115697393Y-118172393D01*
X115684072Y-118131351D01*
X115680022Y-118119360D01*
X115683228Y-118107082D01*
X115708399Y-118101705D01*
X115760780Y-118102243D01*
X115768979Y-118102649D01*
X115866116Y-118107725D01*
X115929734Y-118341672D01*
X115953118Y-118426992D01*
X115974015Y-118501994D01*
X115990585Y-118560166D01*
X116000988Y-118594996D01*
X116002910Y-118600675D01*
X116010875Y-118594145D01*
X116026938Y-118560313D01*
X116049255Y-118503786D01*
X116075979Y-118429169D01*
X116098571Y-118361766D01*
X116184675Y-118097802D01*
X116250764Y-118102763D01*
G37*
X116250764Y-118102763D02*
X116316854Y-118107725D01*
X116403260Y-118366738D01*
X116489665Y-118625751D01*
X116516758Y-118533843D01*
X116533062Y-118477043D01*
X116554509Y-118400284D01*
X116577669Y-118315910D01*
X116589914Y-118270652D01*
X116635978Y-118099369D01*
X116826021Y-118099369D01*
X116769216Y-118279008D01*
X116741241Y-118367363D01*
X116707447Y-118473940D01*
X116672154Y-118585113D01*
X116640647Y-118684238D01*
X116568884Y-118909830D01*
X116413920Y-118919912D01*
X116371904Y-118781187D01*
X116345993Y-118695010D01*
X116317717Y-118600006D01*
X116293003Y-118516100D01*
X116292028Y-118512761D01*
X116273569Y-118455907D01*
X116257283Y-118417115D01*
X116245876Y-118402446D01*
X116243532Y-118404142D01*
X116235305Y-118426884D01*
X116219672Y-118475599D01*
X116198538Y-118544161D01*
X116173804Y-118626444D01*
X116160421Y-118671705D01*
X116087945Y-118918185D01*
X115934129Y-118918185D01*
X115811165Y-118529665D01*
X115776622Y-118420681D01*
X115745155Y-118321707D01*
X115718250Y-118237395D01*
X115697393Y-118172393D01*
X115684072Y-118131351D01*
X115680022Y-118119360D01*
X115683228Y-118107082D01*
X115708399Y-118101705D01*
X115760780Y-118102243D01*
X115768979Y-118102649D01*
X115866116Y-118107725D01*
X115929734Y-118341672D01*
X115953118Y-118426992D01*
X115974015Y-118501994D01*
X115990585Y-118560166D01*
X116000988Y-118594996D01*
X116002910Y-118600675D01*
X116010875Y-118594145D01*
X116026938Y-118560313D01*
X116049255Y-118503786D01*
X116075979Y-118429169D01*
X116098571Y-118361766D01*
X116184675Y-118097802D01*
X116250764Y-118102763D01*
G36*
X113339994Y-116860127D02*
G01*
X113375226Y-116877533D01*
X113418674Y-116907865D01*
X113450340Y-116940942D01*
X113472028Y-116982476D01*
X113485537Y-117038181D01*
X113492672Y-117113770D01*
X113495234Y-117214955D01*
X113495384Y-117258456D01*
X113494946Y-117353794D01*
X113493130Y-117421930D01*
X113489179Y-117469077D01*
X113482336Y-117501449D01*
X113471845Y-117525259D01*
X113460930Y-117541502D01*
X113391253Y-117610611D01*
X113309200Y-117652180D01*
X113220684Y-117664682D01*
X113131615Y-117646593D01*
X113103397Y-117633801D01*
X113035844Y-117598590D01*
X113035844Y-118150359D01*
X113085146Y-118124864D01*
X113150107Y-118105139D01*
X113229954Y-118100086D01*
X113309686Y-118109415D01*
X113369899Y-118130373D01*
X113419842Y-118170286D01*
X113462515Y-118227400D01*
X113465724Y-118233264D01*
X113479256Y-118260886D01*
X113489139Y-118288727D01*
X113495943Y-118322453D01*
X113500235Y-118367730D01*
X113502585Y-118430221D01*
X113503562Y-118515594D01*
X113503739Y-118611669D01*
X113503739Y-118918185D01*
X113319923Y-118918185D01*
X113319923Y-118352998D01*
X113268509Y-118309736D01*
X113215100Y-118275131D01*
X113164522Y-118268839D01*
X113113664Y-118285031D01*
X113086559Y-118300886D01*
X113066385Y-118323469D01*
X113052037Y-118357599D01*
X113042410Y-118408093D01*
X113036397Y-118479770D01*
X113032894Y-118577447D01*
X113031660Y-118642461D01*
X113027489Y-118909830D01*
X112939759Y-118914881D01*
X112852028Y-118919932D01*
X112852028Y-117260760D01*
X113035844Y-117260760D01*
X113040530Y-117353259D01*
X113056322Y-117417468D01*
X113085817Y-117457418D01*
X113131614Y-117477139D01*
X113177884Y-117481080D01*
X113230262Y-117476551D01*
X113265024Y-117458728D01*
X113286762Y-117435178D01*
X113303874Y-117409848D01*
X113314061Y-117381628D01*
X113318594Y-117342090D01*
X113318743Y-117282801D01*
X113317218Y-117233157D01*
X113313715Y-117158369D01*
X113308501Y-117109270D01*
X113299721Y-117078126D01*
X113285520Y-117057204D01*
X113272118Y-117045111D01*
X113216121Y-117018740D01*
X113149845Y-117014481D01*
X113111790Y-117023565D01*
X113074111Y-117055855D01*
X113049153Y-117118665D01*
X113037056Y-117211553D01*
X113035844Y-117260760D01*
X112852028Y-117260760D01*
X112852028Y-116846080D01*
X112943936Y-116846080D01*
X112999117Y-116848262D01*
X113027586Y-116856010D01*
X113035840Y-116871127D01*
X113035844Y-116871575D01*
X113039674Y-116886379D01*
X113056567Y-116884698D01*
X113090153Y-116868431D01*
X113168412Y-116843546D01*
X113256461Y-116840930D01*
X113339994Y-116860127D01*
G37*
X113339994Y-116860127D02*
X113375226Y-116877533D01*
X113418674Y-116907865D01*
X113450340Y-116940942D01*
X113472028Y-116982476D01*
X113485537Y-117038181D01*
X113492672Y-117113770D01*
X113495234Y-117214955D01*
X113495384Y-117258456D01*
X113494946Y-117353794D01*
X113493130Y-117421930D01*
X113489179Y-117469077D01*
X113482336Y-117501449D01*
X113471845Y-117525259D01*
X113460930Y-117541502D01*
X113391253Y-117610611D01*
X113309200Y-117652180D01*
X113220684Y-117664682D01*
X113131615Y-117646593D01*
X113103397Y-117633801D01*
X113035844Y-117598590D01*
X113035844Y-118150359D01*
X113085146Y-118124864D01*
X113150107Y-118105139D01*
X113229954Y-118100086D01*
X113309686Y-118109415D01*
X113369899Y-118130373D01*
X113419842Y-118170286D01*
X113462515Y-118227400D01*
X113465724Y-118233264D01*
X113479256Y-118260886D01*
X113489139Y-118288727D01*
X113495943Y-118322453D01*
X113500235Y-118367730D01*
X113502585Y-118430221D01*
X113503562Y-118515594D01*
X113503739Y-118611669D01*
X113503739Y-118918185D01*
X113319923Y-118918185D01*
X113319923Y-118352998D01*
X113268509Y-118309736D01*
X113215100Y-118275131D01*
X113164522Y-118268839D01*
X113113664Y-118285031D01*
X113086559Y-118300886D01*
X113066385Y-118323469D01*
X113052037Y-118357599D01*
X113042410Y-118408093D01*
X113036397Y-118479770D01*
X113032894Y-118577447D01*
X113031660Y-118642461D01*
X113027489Y-118909830D01*
X112939759Y-118914881D01*
X112852028Y-118919932D01*
X112852028Y-117260760D01*
X113035844Y-117260760D01*
X113040530Y-117353259D01*
X113056322Y-117417468D01*
X113085817Y-117457418D01*
X113131614Y-117477139D01*
X113177884Y-117481080D01*
X113230262Y-117476551D01*
X113265024Y-117458728D01*
X113286762Y-117435178D01*
X113303874Y-117409848D01*
X113314061Y-117381628D01*
X113318594Y-117342090D01*
X113318743Y-117282801D01*
X113317218Y-117233157D01*
X113313715Y-117158369D01*
X113308501Y-117109270D01*
X113299721Y-117078126D01*
X113285520Y-117057204D01*
X113272118Y-117045111D01*
X113216121Y-117018740D01*
X113149845Y-117014481D01*
X113111790Y-117023565D01*
X113074111Y-117055855D01*
X113049153Y-117118665D01*
X113037056Y-117211553D01*
X113035844Y-117260760D01*
X112852028Y-117260760D01*
X112852028Y-116846080D01*
X112943936Y-116846080D01*
X112999117Y-116848262D01*
X113027586Y-116856010D01*
X113035840Y-116871127D01*
X113035844Y-116871575D01*
X113039674Y-116886379D01*
X113056567Y-116884698D01*
X113090153Y-116868431D01*
X113168412Y-116843546D01*
X113256461Y-116840930D01*
X113339994Y-116860127D01*
G36*
X116688303Y-116855969D02*
G01*
X116772826Y-116901999D01*
X116838955Y-116974665D01*
X116870112Y-117033765D01*
X116883489Y-117085964D01*
X116892156Y-117160378D01*
X116895871Y-117246101D01*
X116894388Y-117332228D01*
X116887465Y-117407852D01*
X116879379Y-117448243D01*
X116852099Y-117503499D01*
X116804854Y-117562189D01*
X116747916Y-117613511D01*
X116691558Y-117646664D01*
X116690184Y-117647190D01*
X116620250Y-117661677D01*
X116537371Y-117662036D01*
X116458611Y-117648847D01*
X116428200Y-117638276D01*
X116349873Y-117593860D01*
X116293777Y-117535666D01*
X116256920Y-117458624D01*
X116236314Y-117357660D01*
X116231652Y-117304775D01*
X116232247Y-117238322D01*
X116411370Y-117238322D01*
X116417404Y-117335289D01*
X116434772Y-117409182D01*
X116462374Y-117456395D01*
X116482038Y-117469896D01*
X116532421Y-117479310D01*
X116592307Y-117476523D01*
X116644083Y-117462975D01*
X116657661Y-117455521D01*
X116693483Y-117412110D01*
X116717127Y-117345673D01*
X116727192Y-117264820D01*
X116722276Y-117178161D01*
X116711289Y-117126008D01*
X116679743Y-117065610D01*
X116629945Y-117027856D01*
X116569971Y-117014802D01*
X116507898Y-117028508D01*
X116460216Y-117062031D01*
X116435159Y-117089690D01*
X116420534Y-117116953D01*
X116413563Y-117153849D01*
X116411467Y-117210409D01*
X116411370Y-117238322D01*
X116232247Y-117238322D01*
X116232916Y-117163653D01*
X116255899Y-117047930D01*
X116300606Y-116957600D01*
X116367039Y-116892659D01*
X116455199Y-116853104D01*
X116474129Y-116848517D01*
X116587900Y-116837749D01*
X116688303Y-116855969D01*
G37*
X116688303Y-116855969D02*
X116772826Y-116901999D01*
X116838955Y-116974665D01*
X116870112Y-117033765D01*
X116883489Y-117085964D01*
X116892156Y-117160378D01*
X116895871Y-117246101D01*
X116894388Y-117332228D01*
X116887465Y-117407852D01*
X116879379Y-117448243D01*
X116852099Y-117503499D01*
X116804854Y-117562189D01*
X116747916Y-117613511D01*
X116691558Y-117646664D01*
X116690184Y-117647190D01*
X116620250Y-117661677D01*
X116537371Y-117662036D01*
X116458611Y-117648847D01*
X116428200Y-117638276D01*
X116349873Y-117593860D01*
X116293777Y-117535666D01*
X116256920Y-117458624D01*
X116236314Y-117357660D01*
X116231652Y-117304775D01*
X116232247Y-117238322D01*
X116411370Y-117238322D01*
X116417404Y-117335289D01*
X116434772Y-117409182D01*
X116462374Y-117456395D01*
X116482038Y-117469896D01*
X116532421Y-117479310D01*
X116592307Y-117476523D01*
X116644083Y-117462975D01*
X116657661Y-117455521D01*
X116693483Y-117412110D01*
X116717127Y-117345673D01*
X116727192Y-117264820D01*
X116722276Y-117178161D01*
X116711289Y-117126008D01*
X116679743Y-117065610D01*
X116629945Y-117027856D01*
X116569971Y-117014802D01*
X116507898Y-117028508D01*
X116460216Y-117062031D01*
X116435159Y-117089690D01*
X116420534Y-117116953D01*
X116413563Y-117153849D01*
X116411467Y-117210409D01*
X116411370Y-117238322D01*
X116232247Y-117238322D01*
X116232916Y-117163653D01*
X116255899Y-117047930D01*
X116300606Y-116957600D01*
X116367039Y-116892659D01*
X116455199Y-116853104D01*
X116474129Y-116848517D01*
X116587900Y-116837749D01*
X116688303Y-116855969D01*
G36*
X114874591Y-116859885D02*
G01*
X114916180Y-116879749D01*
X114956459Y-116908443D01*
X114987144Y-116941468D01*
X115009495Y-116983590D01*
X115024770Y-117039574D01*
X115034226Y-117114187D01*
X115039121Y-117212194D01*
X115040715Y-117338361D01*
X115040740Y-117351573D01*
X115041107Y-117648185D01*
X114857291Y-117648185D01*
X114857291Y-117374740D01*
X114857161Y-117273436D01*
X114856255Y-117200012D01*
X114853807Y-117148930D01*
X114849048Y-117114649D01*
X114841208Y-117091630D01*
X114829519Y-117074332D01*
X114813236Y-117057240D01*
X114756268Y-117020516D01*
X114694079Y-117013701D01*
X114634833Y-117036920D01*
X114614229Y-117054202D01*
X114599104Y-117070450D01*
X114588244Y-117087850D01*
X114580944Y-117111871D01*
X114576497Y-117147981D01*
X114574198Y-117201647D01*
X114573338Y-117278339D01*
X114573212Y-117371702D01*
X114573212Y-117648185D01*
X114389397Y-117648185D01*
X114389397Y-116846080D01*
X114481305Y-116846080D01*
X114536485Y-116848262D01*
X114564954Y-116856010D01*
X114573209Y-116871127D01*
X114573212Y-116871575D01*
X114577042Y-116886379D01*
X114593935Y-116884699D01*
X114627522Y-116868432D01*
X114703697Y-116844499D01*
X114790834Y-116841837D01*
X114874591Y-116859885D01*
G37*
X114874591Y-116859885D02*
X114916180Y-116879749D01*
X114956459Y-116908443D01*
X114987144Y-116941468D01*
X115009495Y-116983590D01*
X115024770Y-117039574D01*
X115034226Y-117114187D01*
X115039121Y-117212194D01*
X115040715Y-117338361D01*
X115040740Y-117351573D01*
X115041107Y-117648185D01*
X114857291Y-117648185D01*
X114857291Y-117374740D01*
X114857161Y-117273436D01*
X114856255Y-117200012D01*
X114853807Y-117148930D01*
X114849048Y-117114649D01*
X114841208Y-117091630D01*
X114829519Y-117074332D01*
X114813236Y-117057240D01*
X114756268Y-117020516D01*
X114694079Y-117013701D01*
X114634833Y-117036920D01*
X114614229Y-117054202D01*
X114599104Y-117070450D01*
X114588244Y-117087850D01*
X114580944Y-117111871D01*
X114576497Y-117147981D01*
X114574198Y-117201647D01*
X114573338Y-117278339D01*
X114573212Y-117371702D01*
X114573212Y-117648185D01*
X114389397Y-117648185D01*
X114389397Y-116846080D01*
X114481305Y-116846080D01*
X114536485Y-116848262D01*
X114564954Y-116856010D01*
X114573209Y-116871127D01*
X114573212Y-116871575D01*
X114577042Y-116886379D01*
X114593935Y-116884699D01*
X114627522Y-116868432D01*
X114703697Y-116844499D01*
X114790834Y-116841837D01*
X114874591Y-116859885D01*
G36*
X99338297Y-117170351D02*
G01*
X99413112Y-117175581D01*
X99482694Y-117183750D01*
X99542998Y-117194550D01*
X99589980Y-117207673D01*
X99619594Y-117222813D01*
X99624140Y-117227269D01*
X99639946Y-117261850D01*
X99635153Y-117297351D01*
X99610636Y-117327725D01*
X99609466Y-117328596D01*
X99595046Y-117337954D01*
X99579992Y-117342876D01*
X99558995Y-117343473D01*
X99526743Y-117339861D01*
X99477927Y-117332154D01*
X99474000Y-117331505D01*
X99401261Y-117322569D01*
X99322783Y-117318161D01*
X99244073Y-117318119D01*
X99170639Y-117322279D01*
X99107989Y-117330479D01*
X99061630Y-117342557D01*
X99058584Y-117343771D01*
X99024952Y-117362615D01*
X99013136Y-117381685D01*
X99022386Y-117400439D01*
X99051953Y-117418337D01*
X99101089Y-117434837D01*
X99169043Y-117449396D01*
X99214355Y-117456406D01*
X99308544Y-117469889D01*
X99383456Y-117482214D01*
X99442283Y-117494449D01*
X99488215Y-117507661D01*
X99524445Y-117522917D01*
X99554162Y-117541285D01*
X99580558Y-117563831D01*
X99601770Y-117585971D01*
X99626935Y-117616819D01*
X99639319Y-117643345D01*
X99643192Y-117676026D01*
X99643333Y-117687995D01*
X99640424Y-117727712D01*
X99628798Y-117757259D01*
X99608677Y-117783486D01*
X99567784Y-117823576D01*
X99522183Y-117854149D01*
X99468487Y-117876203D01*
X99403308Y-117890735D01*
X99323256Y-117898741D01*
X99224943Y-117901218D01*
X99208711Y-117901177D01*
X99143151Y-117899818D01*
X99078134Y-117896730D01*
X99020748Y-117892356D01*
X98978078Y-117887140D01*
X98974628Y-117886541D01*
X98932204Y-117876491D01*
X98896220Y-117863796D01*
X98875850Y-117852190D01*
X98856893Y-117821572D01*
X98855573Y-117785918D01*
X98871915Y-117754144D01*
X98875571Y-117750551D01*
X98890685Y-117739876D01*
X98909585Y-117735276D01*
X98938838Y-117736059D01*
X98974349Y-117740127D01*
X99014030Y-117743762D01*
X99069655Y-117746828D01*
X99134594Y-117749053D01*
X99202215Y-117750164D01*
X99220000Y-117750237D01*
X99287872Y-117749964D01*
X99337546Y-117748646D01*
X99373390Y-117745827D01*
X99399776Y-117741050D01*
X99421074Y-117733857D01*
X99433874Y-117727867D01*
X99462000Y-117711233D01*
X99479932Y-117696168D01*
X99482553Y-117691897D01*
X99477024Y-117674263D01*
X99450740Y-117657192D01*
X99405522Y-117641458D01*
X99343192Y-117627838D01*
X99324829Y-117624804D01*
X99228910Y-117609738D01*
X99152359Y-117597146D01*
X99092220Y-117586111D01*
X99045540Y-117575720D01*
X99009363Y-117565056D01*
X98980735Y-117553205D01*
X98956702Y-117539251D01*
X98934308Y-117522281D01*
X98910598Y-117501378D01*
X98902620Y-117494049D01*
X98874647Y-117466699D01*
X98859840Y-117445029D01*
X98854048Y-117420232D01*
X98853111Y-117388983D01*
X98863425Y-117327705D01*
X98894248Y-117275640D01*
X98945405Y-117232958D01*
X99016717Y-117199825D01*
X99067600Y-117184964D01*
X99122900Y-117175366D01*
X99189147Y-117169936D01*
X99262294Y-117168367D01*
X99338297Y-117170351D01*
G37*
X99338297Y-117170351D02*
X99413112Y-117175581D01*
X99482694Y-117183750D01*
X99542998Y-117194550D01*
X99589980Y-117207673D01*
X99619594Y-117222813D01*
X99624140Y-117227269D01*
X99639946Y-117261850D01*
X99635153Y-117297351D01*
X99610636Y-117327725D01*
X99609466Y-117328596D01*
X99595046Y-117337954D01*
X99579992Y-117342876D01*
X99558995Y-117343473D01*
X99526743Y-117339861D01*
X99477927Y-117332154D01*
X99474000Y-117331505D01*
X99401261Y-117322569D01*
X99322783Y-117318161D01*
X99244073Y-117318119D01*
X99170639Y-117322279D01*
X99107989Y-117330479D01*
X99061630Y-117342557D01*
X99058584Y-117343771D01*
X99024952Y-117362615D01*
X99013136Y-117381685D01*
X99022386Y-117400439D01*
X99051953Y-117418337D01*
X99101089Y-117434837D01*
X99169043Y-117449396D01*
X99214355Y-117456406D01*
X99308544Y-117469889D01*
X99383456Y-117482214D01*
X99442283Y-117494449D01*
X99488215Y-117507661D01*
X99524445Y-117522917D01*
X99554162Y-117541285D01*
X99580558Y-117563831D01*
X99601770Y-117585971D01*
X99626935Y-117616819D01*
X99639319Y-117643345D01*
X99643192Y-117676026D01*
X99643333Y-117687995D01*
X99640424Y-117727712D01*
X99628798Y-117757259D01*
X99608677Y-117783486D01*
X99567784Y-117823576D01*
X99522183Y-117854149D01*
X99468487Y-117876203D01*
X99403308Y-117890735D01*
X99323256Y-117898741D01*
X99224943Y-117901218D01*
X99208711Y-117901177D01*
X99143151Y-117899818D01*
X99078134Y-117896730D01*
X99020748Y-117892356D01*
X98978078Y-117887140D01*
X98974628Y-117886541D01*
X98932204Y-117876491D01*
X98896220Y-117863796D01*
X98875850Y-117852190D01*
X98856893Y-117821572D01*
X98855573Y-117785918D01*
X98871915Y-117754144D01*
X98875571Y-117750551D01*
X98890685Y-117739876D01*
X98909585Y-117735276D01*
X98938838Y-117736059D01*
X98974349Y-117740127D01*
X99014030Y-117743762D01*
X99069655Y-117746828D01*
X99134594Y-117749053D01*
X99202215Y-117750164D01*
X99220000Y-117750237D01*
X99287872Y-117749964D01*
X99337546Y-117748646D01*
X99373390Y-117745827D01*
X99399776Y-117741050D01*
X99421074Y-117733857D01*
X99433874Y-117727867D01*
X99462000Y-117711233D01*
X99479932Y-117696168D01*
X99482553Y-117691897D01*
X99477024Y-117674263D01*
X99450740Y-117657192D01*
X99405522Y-117641458D01*
X99343192Y-117627838D01*
X99324829Y-117624804D01*
X99228910Y-117609738D01*
X99152359Y-117597146D01*
X99092220Y-117586111D01*
X99045540Y-117575720D01*
X99009363Y-117565056D01*
X98980735Y-117553205D01*
X98956702Y-117539251D01*
X98934308Y-117522281D01*
X98910598Y-117501378D01*
X98902620Y-117494049D01*
X98874647Y-117466699D01*
X98859840Y-117445029D01*
X98854048Y-117420232D01*
X98853111Y-117388983D01*
X98863425Y-117327705D01*
X98894248Y-117275640D01*
X98945405Y-117232958D01*
X99016717Y-117199825D01*
X99067600Y-117184964D01*
X99122900Y-117175366D01*
X99189147Y-117169936D01*
X99262294Y-117168367D01*
X99338297Y-117170351D01*
G36*
X103260343Y-117169260D02*
G01*
X103336701Y-117170174D01*
X103395217Y-117172311D01*
X103438255Y-117176175D01*
X103468183Y-117182267D01*
X103487368Y-117191090D01*
X103498176Y-117203146D01*
X103502973Y-117218939D01*
X103504127Y-117238970D01*
X103504133Y-117241335D01*
X103503131Y-117263992D01*
X103498396Y-117281503D01*
X103487333Y-117294574D01*
X103467348Y-117303913D01*
X103435846Y-117310227D01*
X103390232Y-117314222D01*
X103327913Y-117316606D01*
X103246293Y-117318086D01*
X103221277Y-117318414D01*
X102979200Y-117321467D01*
X102975814Y-117386378D01*
X102972429Y-117451289D01*
X103140576Y-117451289D01*
X103206266Y-117451531D01*
X103253172Y-117452556D01*
X103285083Y-117454811D01*
X103305791Y-117458742D01*
X103319084Y-117464798D01*
X103328755Y-117473424D01*
X103328817Y-117473493D01*
X103346356Y-117507112D01*
X103345722Y-117543448D01*
X103327314Y-117574423D01*
X103323671Y-117577607D01*
X103310741Y-117585812D01*
X103293024Y-117591521D01*
X103266570Y-117595162D01*
X103227432Y-117597167D01*
X103171662Y-117597964D01*
X103135994Y-117598045D01*
X102973555Y-117598045D01*
X102973555Y-117756089D01*
X103220161Y-117756089D01*
X103301580Y-117756231D01*
X103363410Y-117756814D01*
X103408637Y-117758068D01*
X103440248Y-117760227D01*
X103461231Y-117763523D01*
X103474573Y-117768189D01*
X103483261Y-117774457D01*
X103485450Y-117776733D01*
X103501614Y-117808280D01*
X103502797Y-117844168D01*
X103489536Y-117875285D01*
X103479043Y-117885271D01*
X103468129Y-117890769D01*
X103451217Y-117895022D01*
X103425633Y-117898180D01*
X103388701Y-117900392D01*
X103337746Y-117901806D01*
X103270094Y-117902572D01*
X103183069Y-117902838D01*
X103163394Y-117902845D01*
X103074911Y-117902787D01*
X103006227Y-117902467D01*
X102954564Y-117901667D01*
X102917145Y-117900167D01*
X102891190Y-117897749D01*
X102873922Y-117894194D01*
X102862562Y-117889282D01*
X102854332Y-117882795D01*
X102849817Y-117878138D01*
X102843021Y-117869889D01*
X102837712Y-117859669D01*
X102833706Y-117844800D01*
X102830821Y-117822602D01*
X102828874Y-117790393D01*
X102827681Y-117745496D01*
X102827061Y-117685228D01*
X102826829Y-117606911D01*
X102826800Y-117540994D01*
X102826871Y-117448628D01*
X102827208Y-117376117D01*
X102827998Y-117320737D01*
X102829426Y-117279765D01*
X102831679Y-117250478D01*
X102834943Y-117230153D01*
X102839404Y-117216066D01*
X102845248Y-117205495D01*
X102850197Y-117198811D01*
X102873594Y-117169067D01*
X103163774Y-117169067D01*
X103260343Y-117169260D01*
G37*
X103260343Y-117169260D02*
X103336701Y-117170174D01*
X103395217Y-117172311D01*
X103438255Y-117176175D01*
X103468183Y-117182267D01*
X103487368Y-117191090D01*
X103498176Y-117203146D01*
X103502973Y-117218939D01*
X103504127Y-117238970D01*
X103504133Y-117241335D01*
X103503131Y-117263992D01*
X103498396Y-117281503D01*
X103487333Y-117294574D01*
X103467348Y-117303913D01*
X103435846Y-117310227D01*
X103390232Y-117314222D01*
X103327913Y-117316606D01*
X103246293Y-117318086D01*
X103221277Y-117318414D01*
X102979200Y-117321467D01*
X102975814Y-117386378D01*
X102972429Y-117451289D01*
X103140576Y-117451289D01*
X103206266Y-117451531D01*
X103253172Y-117452556D01*
X103285083Y-117454811D01*
X103305791Y-117458742D01*
X103319084Y-117464798D01*
X103328755Y-117473424D01*
X103328817Y-117473493D01*
X103346356Y-117507112D01*
X103345722Y-117543448D01*
X103327314Y-117574423D01*
X103323671Y-117577607D01*
X103310741Y-117585812D01*
X103293024Y-117591521D01*
X103266570Y-117595162D01*
X103227432Y-117597167D01*
X103171662Y-117597964D01*
X103135994Y-117598045D01*
X102973555Y-117598045D01*
X102973555Y-117756089D01*
X103220161Y-117756089D01*
X103301580Y-117756231D01*
X103363410Y-117756814D01*
X103408637Y-117758068D01*
X103440248Y-117760227D01*
X103461231Y-117763523D01*
X103474573Y-117768189D01*
X103483261Y-117774457D01*
X103485450Y-117776733D01*
X103501614Y-117808280D01*
X103502797Y-117844168D01*
X103489536Y-117875285D01*
X103479043Y-117885271D01*
X103468129Y-117890769D01*
X103451217Y-117895022D01*
X103425633Y-117898180D01*
X103388701Y-117900392D01*
X103337746Y-117901806D01*
X103270094Y-117902572D01*
X103183069Y-117902838D01*
X103163394Y-117902845D01*
X103074911Y-117902787D01*
X103006227Y-117902467D01*
X102954564Y-117901667D01*
X102917145Y-117900167D01*
X102891190Y-117897749D01*
X102873922Y-117894194D01*
X102862562Y-117889282D01*
X102854332Y-117882795D01*
X102849817Y-117878138D01*
X102843021Y-117869889D01*
X102837712Y-117859669D01*
X102833706Y-117844800D01*
X102830821Y-117822602D01*
X102828874Y-117790393D01*
X102827681Y-117745496D01*
X102827061Y-117685228D01*
X102826829Y-117606911D01*
X102826800Y-117540994D01*
X102826871Y-117448628D01*
X102827208Y-117376117D01*
X102827998Y-117320737D01*
X102829426Y-117279765D01*
X102831679Y-117250478D01*
X102834943Y-117230153D01*
X102839404Y-117216066D01*
X102845248Y-117205495D01*
X102850197Y-117198811D01*
X102873594Y-117169067D01*
X103163774Y-117169067D01*
X103260343Y-117169260D01*
G36*
X100106178Y-117191645D02*
G01*
X100112758Y-117199218D01*
X100117921Y-117208987D01*
X100121836Y-117223571D01*
X100124676Y-117245585D01*
X100126613Y-117277648D01*
X100127817Y-117322375D01*
X100128461Y-117382385D01*
X100128716Y-117460294D01*
X100128755Y-117535956D01*
X100128686Y-117629802D01*
X100128362Y-117703689D01*
X100127614Y-117760232D01*
X100126268Y-117802049D01*
X100124154Y-117831757D01*
X100121100Y-117851973D01*
X100116934Y-117865314D01*
X100111484Y-117874398D01*
X100106178Y-117880267D01*
X100073174Y-117899947D01*
X100038009Y-117898181D01*
X100006545Y-117876717D01*
X99999316Y-117868337D01*
X99993666Y-117858614D01*
X99989401Y-117844861D01*
X99986327Y-117824389D01*
X99984248Y-117794512D01*
X99982970Y-117752541D01*
X99982299Y-117695789D01*
X99982041Y-117621567D01*
X99982000Y-117537537D01*
X99982000Y-117224485D01*
X100009709Y-117196776D01*
X100043863Y-117173463D01*
X100076994Y-117172623D01*
X100106178Y-117191645D01*
G37*
X100106178Y-117191645D02*
X100112758Y-117199218D01*
X100117921Y-117208987D01*
X100121836Y-117223571D01*
X100124676Y-117245585D01*
X100126613Y-117277648D01*
X100127817Y-117322375D01*
X100128461Y-117382385D01*
X100128716Y-117460294D01*
X100128755Y-117535956D01*
X100128686Y-117629802D01*
X100128362Y-117703689D01*
X100127614Y-117760232D01*
X100126268Y-117802049D01*
X100124154Y-117831757D01*
X100121100Y-117851973D01*
X100116934Y-117865314D01*
X100111484Y-117874398D01*
X100106178Y-117880267D01*
X100073174Y-117899947D01*
X100038009Y-117898181D01*
X100006545Y-117876717D01*
X99999316Y-117868337D01*
X99993666Y-117858614D01*
X99989401Y-117844861D01*
X99986327Y-117824389D01*
X99984248Y-117794512D01*
X99982970Y-117752541D01*
X99982299Y-117695789D01*
X99982041Y-117621567D01*
X99982000Y-117537537D01*
X99982000Y-117224485D01*
X100009709Y-117196776D01*
X100043863Y-117173463D01*
X100076994Y-117172623D01*
X100106178Y-117191645D01*
G36*
X100083600Y-112389054D02*
G01*
X100094465Y-112502993D01*
X100126082Y-112610616D01*
X100176985Y-112709615D01*
X100245707Y-112797684D01*
X100330781Y-112872516D01*
X100427768Y-112930384D01*
X100534036Y-112970005D01*
X100641050Y-112988573D01*
X100746700Y-112987434D01*
X100848875Y-112967930D01*
X100945466Y-112931406D01*
X101034362Y-112879205D01*
X101113454Y-112812673D01*
X101180631Y-112733152D01*
X101233783Y-112641987D01*
X101270801Y-112540523D01*
X101289573Y-112430102D01*
X101291511Y-112380206D01*
X101291511Y-112292267D01*
X101343440Y-112292267D01*
X101379747Y-112295111D01*
X101406645Y-112306911D01*
X101433751Y-112330649D01*
X101472133Y-112369031D01*
X101472133Y-114560602D01*
X101472124Y-114822739D01*
X101472092Y-115063241D01*
X101472028Y-115283048D01*
X101471924Y-115483101D01*
X101471773Y-115664344D01*
X101471566Y-115827716D01*
X101471294Y-115974160D01*
X101470950Y-116104617D01*
X101470526Y-116220029D01*
X101470013Y-116321338D01*
X101469403Y-116409484D01*
X101468688Y-116485410D01*
X101467860Y-116550057D01*
X101466911Y-116604367D01*
X101465833Y-116649280D01*
X101464617Y-116685740D01*
X101463255Y-116714687D01*
X101461739Y-116737063D01*
X101460062Y-116753809D01*
X101458214Y-116765868D01*
X101456187Y-116774180D01*
X101453975Y-116779687D01*
X101452892Y-116781537D01*
X101448729Y-116788549D01*
X101445195Y-116794996D01*
X101441365Y-116800900D01*
X101436318Y-116806286D01*
X101429129Y-116811178D01*
X101418877Y-116815598D01*
X101404636Y-116819572D01*
X101385486Y-116823121D01*
X101360501Y-116826270D01*
X101328760Y-116829042D01*
X101289338Y-116831461D01*
X101241314Y-116833551D01*
X101183763Y-116835335D01*
X101115763Y-116836837D01*
X101036390Y-116838080D01*
X100944721Y-116839089D01*
X100839834Y-116839885D01*
X100720804Y-116840494D01*
X100586710Y-116840939D01*
X100436627Y-116841243D01*
X100269633Y-116841430D01*
X100084804Y-116841524D01*
X99881217Y-116841548D01*
X99657950Y-116841525D01*
X99414078Y-116841480D01*
X99148679Y-116841437D01*
X99110296Y-116841432D01*
X98843318Y-116841389D01*
X98597998Y-116841318D01*
X98373417Y-116841213D01*
X98168655Y-116841066D01*
X97982794Y-116840869D01*
X97814912Y-116840616D01*
X97664092Y-116840300D01*
X97529413Y-116839913D01*
X97409956Y-116839447D01*
X97304801Y-116838897D01*
X97213029Y-116838253D01*
X97133721Y-116837511D01*
X97065957Y-116836661D01*
X97008818Y-116835697D01*
X96961383Y-116834611D01*
X96922734Y-116833397D01*
X96891951Y-116832047D01*
X96868115Y-116830555D01*
X96850306Y-116828911D01*
X96837605Y-116827111D01*
X96829092Y-116825145D01*
X96824734Y-116823477D01*
X96816272Y-116819906D01*
X96808503Y-116817270D01*
X96801398Y-116814634D01*
X96794927Y-116811062D01*
X96789061Y-116805621D01*
X96783771Y-116797375D01*
X96779026Y-116785390D01*
X96774798Y-116768731D01*
X96771057Y-116746463D01*
X96767773Y-116717652D01*
X96764917Y-116681363D01*
X96762460Y-116636661D01*
X96760371Y-116582611D01*
X96758622Y-116518279D01*
X96757183Y-116442730D01*
X96756024Y-116355030D01*
X96755117Y-116254243D01*
X96754431Y-116139434D01*
X96753937Y-116009670D01*
X96753605Y-115864015D01*
X96753407Y-115701535D01*
X96753313Y-115521295D01*
X96753292Y-115322360D01*
X96753315Y-115103796D01*
X96753354Y-114864668D01*
X96753378Y-114604040D01*
X96753378Y-114561889D01*
X96753364Y-114298992D01*
X96753339Y-114057732D01*
X96753329Y-113837165D01*
X96753358Y-113636352D01*
X96753452Y-113454349D01*
X96753638Y-113290216D01*
X96753941Y-113143011D01*
X96754386Y-113011792D01*
X96754966Y-112901867D01*
X97057803Y-112901867D01*
X97097593Y-112959711D01*
X97108764Y-112975479D01*
X97118834Y-112989441D01*
X97127862Y-113002784D01*
X97135903Y-113016693D01*
X97143014Y-113032356D01*
X97149253Y-113050958D01*
X97154675Y-113073686D01*
X97159338Y-113101727D01*
X97163299Y-113136267D01*
X97166615Y-113178492D01*
X97169341Y-113229589D01*
X97171536Y-113290744D01*
X97173255Y-113363144D01*
X97174556Y-113447975D01*
X97175495Y-113546422D01*
X97176130Y-113659674D01*
X97176516Y-113788916D01*
X97176712Y-113935334D01*
X97176773Y-114100116D01*
X97176757Y-114284447D01*
X97176720Y-114489513D01*
X97176711Y-114612133D01*
X97176735Y-114829082D01*
X97176769Y-115024642D01*
X97176757Y-115199999D01*
X97176642Y-115356341D01*
X97176370Y-115494857D01*
X97175882Y-115616734D01*
X97175124Y-115723160D01*
X97174038Y-115815322D01*
X97172569Y-115894409D01*
X97170660Y-115961608D01*
X97168256Y-116018107D01*
X97165299Y-116065093D01*
X97161734Y-116103755D01*
X97157505Y-116135280D01*
X97152554Y-116160855D01*
X97146827Y-116181670D01*
X97140267Y-116198911D01*
X97132817Y-116213765D01*
X97124421Y-116227422D01*
X97115024Y-116241069D01*
X97104568Y-116255893D01*
X97098477Y-116264783D01*
X97059704Y-116322400D01*
X97591268Y-116322400D01*
X97714517Y-116322365D01*
X97817013Y-116322215D01*
X97900580Y-116321878D01*
X97967044Y-116321286D01*
X98018229Y-116320367D01*
X98055959Y-116319051D01*
X98082060Y-116317269D01*
X98098356Y-116314951D01*
X98106672Y-116312026D01*
X98108832Y-116308424D01*
X98106661Y-116304075D01*
X98105465Y-116302645D01*
X98080315Y-116265573D01*
X98054417Y-116212772D01*
X98030808Y-116150770D01*
X98022539Y-116124357D01*
X98017922Y-116106416D01*
X98014021Y-116085355D01*
X98010752Y-116059089D01*
X98008034Y-116025532D01*
X98005785Y-115982599D01*
X98003923Y-115928204D01*
X98002364Y-115860262D01*
X98001028Y-115776688D01*
X97999831Y-115675395D01*
X97998692Y-115554300D01*
X97998315Y-115509600D01*
X97997298Y-115384449D01*
X97996540Y-115280082D01*
X97996097Y-115194707D01*
X97996030Y-115126533D01*
X97996395Y-115073765D01*
X97997252Y-115034614D01*
X97998659Y-115007285D01*
X98000675Y-114989986D01*
X98003357Y-114980926D01*
X98006764Y-114978312D01*
X98010956Y-114980351D01*
X98015429Y-114984667D01*
X98025784Y-114997602D01*
X98047842Y-115026676D01*
X98080043Y-115069759D01*
X98120826Y-115124718D01*
X98168630Y-115189423D01*
X98221895Y-115261742D01*
X98279060Y-115339544D01*
X98338563Y-115420698D01*
X98398845Y-115503072D01*
X98458345Y-115584536D01*
X98515502Y-115662957D01*
X98568755Y-115736204D01*
X98616543Y-115802147D01*
X98657307Y-115858654D01*
X98689484Y-115903593D01*
X98711515Y-115934834D01*
X98716083Y-115941466D01*
X98739004Y-115978369D01*
X98765812Y-116026359D01*
X98791211Y-116075897D01*
X98794432Y-116082577D01*
X98816110Y-116130772D01*
X98828696Y-116168334D01*
X98834426Y-116204160D01*
X98835544Y-116246200D01*
X98834910Y-116322400D01*
X99989349Y-116322400D01*
X99898185Y-116228669D01*
X99851388Y-116178775D01*
X99801101Y-116122295D01*
X99755056Y-116068026D01*
X99734631Y-116042673D01*
X99704193Y-116003128D01*
X99664138Y-115949916D01*
X99615639Y-115884667D01*
X99559865Y-115809011D01*
X99497989Y-115724577D01*
X99431181Y-115632994D01*
X99360613Y-115535892D01*
X99287455Y-115434901D01*
X99212879Y-115331650D01*
X99138056Y-115227768D01*
X99064157Y-115124885D01*
X98992354Y-115024631D01*
X98923816Y-114928636D01*
X98859716Y-114838527D01*
X98801225Y-114755936D01*
X98749514Y-114682492D01*
X98705753Y-114619824D01*
X98671115Y-114569561D01*
X98646770Y-114533334D01*
X98633889Y-114512771D01*
X98632131Y-114508668D01*
X98640090Y-114497342D01*
X98660885Y-114470162D01*
X98693153Y-114428829D01*
X98735530Y-114375044D01*
X98786653Y-114310506D01*
X98845159Y-114236918D01*
X98909686Y-114155978D01*
X98978869Y-114069388D01*
X99051347Y-113978848D01*
X99125754Y-113886060D01*
X99185483Y-113811702D01*
X100196489Y-113811702D01*
X100202398Y-113824659D01*
X100216728Y-113846908D01*
X100217775Y-113848391D01*
X100236562Y-113878544D01*
X100256209Y-113915375D01*
X100260108Y-113923511D01*
X100263644Y-113931940D01*
X100266770Y-113942059D01*
X100269514Y-113955260D01*
X100271908Y-113972938D01*
X100273981Y-113996484D01*
X100275765Y-114027293D01*
X100277288Y-114066757D01*
X100278581Y-114116269D01*
X100279674Y-114177223D01*
X100280597Y-114251011D01*
X100281381Y-114339028D01*
X100282055Y-114442665D01*
X100282650Y-114563316D01*
X100283195Y-114702374D01*
X100283721Y-114861232D01*
X100284255Y-115040089D01*
X100284794Y-115225207D01*
X100285228Y-115389145D01*
X100285491Y-115533303D01*
X100285516Y-115659079D01*
X100285235Y-115767871D01*
X100284581Y-115861077D01*
X100283486Y-115940097D01*
X100281882Y-116006328D01*
X100279703Y-116061170D01*
X100276881Y-116106021D01*
X100273349Y-116142278D01*
X100269039Y-116171341D01*
X100263883Y-116194609D01*
X100257815Y-116213479D01*
X100250767Y-116229351D01*
X100242671Y-116243622D01*
X100233460Y-116257691D01*
X100224960Y-116270158D01*
X100207824Y-116296452D01*
X100197678Y-116314037D01*
X100196489Y-116317257D01*
X100207396Y-116318334D01*
X100238589Y-116319335D01*
X100287777Y-116320235D01*
X100352667Y-116321010D01*
X100430970Y-116321637D01*
X100520393Y-116322091D01*
X100618644Y-116322349D01*
X100687555Y-116322400D01*
X100792548Y-116322180D01*
X100889390Y-116321548D01*
X100975893Y-116320549D01*
X101049868Y-116319227D01*
X101109126Y-116317626D01*
X101151480Y-116315791D01*
X101174740Y-116313765D01*
X101178622Y-116312493D01*
X101170924Y-116297591D01*
X101162926Y-116289560D01*
X101149754Y-116272434D01*
X101132515Y-116242183D01*
X101120593Y-116217622D01*
X101093955Y-116158711D01*
X101090880Y-114981845D01*
X101087805Y-113804978D01*
X100642147Y-113804978D01*
X100544330Y-113805142D01*
X100453936Y-113805611D01*
X100373370Y-113806347D01*
X100305038Y-113807316D01*
X100251344Y-113808480D01*
X100214695Y-113809803D01*
X100197496Y-113811249D01*
X100196489Y-113811702D01*
X99185483Y-113811702D01*
X99200730Y-113792722D01*
X99274910Y-113700537D01*
X99346931Y-113611204D01*
X99415431Y-113526424D01*
X99479045Y-113447898D01*
X99536412Y-113377326D01*
X99586167Y-113316409D01*
X99626948Y-113266847D01*
X99644112Y-113246178D01*
X99730404Y-113145516D01*
X99807003Y-113062259D01*
X99875817Y-112994438D01*
X99938752Y-112940089D01*
X99948133Y-112932722D01*
X99987644Y-112902117D01*
X98855884Y-112901867D01*
X98861173Y-112949844D01*
X98857870Y-113007188D01*
X98836339Y-113075463D01*
X98796365Y-113155212D01*
X98751057Y-113227495D01*
X98734839Y-113250140D01*
X98706786Y-113287696D01*
X98668570Y-113338021D01*
X98621863Y-113398973D01*
X98568339Y-113468411D01*
X98509669Y-113544194D01*
X98447525Y-113624180D01*
X98383579Y-113706228D01*
X98319505Y-113788196D01*
X98256973Y-113867943D01*
X98197657Y-113943327D01*
X98143229Y-114012207D01*
X98095361Y-114072442D01*
X98055725Y-114121889D01*
X98025994Y-114158408D01*
X98007839Y-114179858D01*
X98004780Y-114183156D01*
X98001921Y-114175149D01*
X97999707Y-114144855D01*
X97998143Y-114092556D01*
X97997233Y-114018531D01*
X97996980Y-113923063D01*
X97997387Y-113806434D01*
X97998296Y-113686445D01*
X97999618Y-113554333D01*
X98001143Y-113442594D01*
X98003119Y-113349025D01*
X98005794Y-113271419D01*
X98009418Y-113207574D01*
X98014239Y-113155283D01*
X98020506Y-113112344D01*
X98028468Y-113076551D01*
X98038373Y-113045700D01*
X98050469Y-113017586D01*
X98065007Y-112990005D01*
X98079689Y-112964966D01*
X98117686Y-112901867D01*
X97057803Y-112901867D01*
X96754966Y-112901867D01*
X96754999Y-112895617D01*
X96755805Y-112793544D01*
X96756830Y-112704633D01*
X96758100Y-112627941D01*
X96759640Y-112562527D01*
X96761476Y-112507449D01*
X96763633Y-112461765D01*
X96766137Y-112424534D01*
X96769013Y-112394813D01*
X96772287Y-112371662D01*
X96775985Y-112354139D01*
X96780131Y-112341301D01*
X96784753Y-112332208D01*
X96789874Y-112325918D01*
X96795522Y-112321488D01*
X96801721Y-112317978D01*
X96808496Y-112314445D01*
X96814492Y-112310876D01*
X96819725Y-112308300D01*
X96827901Y-112305972D01*
X96840114Y-112303878D01*
X96857459Y-112302007D01*
X96881031Y-112300347D01*
X96911923Y-112298884D01*
X96951232Y-112297608D01*
X97000050Y-112296504D01*
X97059473Y-112295561D01*
X97130596Y-112294767D01*
X97214512Y-112294109D01*
X97312317Y-112293575D01*
X97425106Y-112293153D01*
X97553971Y-112292829D01*
X97700009Y-112292592D01*
X97864314Y-112292430D01*
X98047980Y-112292330D01*
X98252103Y-112292280D01*
X98463247Y-112292267D01*
X100083600Y-112292267D01*
X100083600Y-112389054D01*
G37*
X100083600Y-112389054D02*
X100094465Y-112502993D01*
X100126082Y-112610616D01*
X100176985Y-112709615D01*
X100245707Y-112797684D01*
X100330781Y-112872516D01*
X100427768Y-112930384D01*
X100534036Y-112970005D01*
X100641050Y-112988573D01*
X100746700Y-112987434D01*
X100848875Y-112967930D01*
X100945466Y-112931406D01*
X101034362Y-112879205D01*
X101113454Y-112812673D01*
X101180631Y-112733152D01*
X101233783Y-112641987D01*
X101270801Y-112540523D01*
X101289573Y-112430102D01*
X101291511Y-112380206D01*
X101291511Y-112292267D01*
X101343440Y-112292267D01*
X101379747Y-112295111D01*
X101406645Y-112306911D01*
X101433751Y-112330649D01*
X101472133Y-112369031D01*
X101472133Y-114560602D01*
X101472124Y-114822739D01*
X101472092Y-115063241D01*
X101472028Y-115283048D01*
X101471924Y-115483101D01*
X101471773Y-115664344D01*
X101471566Y-115827716D01*
X101471294Y-115974160D01*
X101470950Y-116104617D01*
X101470526Y-116220029D01*
X101470013Y-116321338D01*
X101469403Y-116409484D01*
X101468688Y-116485410D01*
X101467860Y-116550057D01*
X101466911Y-116604367D01*
X101465833Y-116649280D01*
X101464617Y-116685740D01*
X101463255Y-116714687D01*
X101461739Y-116737063D01*
X101460062Y-116753809D01*
X101458214Y-116765868D01*
X101456187Y-116774180D01*
X101453975Y-116779687D01*
X101452892Y-116781537D01*
X101448729Y-116788549D01*
X101445195Y-116794996D01*
X101441365Y-116800900D01*
X101436318Y-116806286D01*
X101429129Y-116811178D01*
X101418877Y-116815598D01*
X101404636Y-116819572D01*
X101385486Y-116823121D01*
X101360501Y-116826270D01*
X101328760Y-116829042D01*
X101289338Y-116831461D01*
X101241314Y-116833551D01*
X101183763Y-116835335D01*
X101115763Y-116836837D01*
X101036390Y-116838080D01*
X100944721Y-116839089D01*
X100839834Y-116839885D01*
X100720804Y-116840494D01*
X100586710Y-116840939D01*
X100436627Y-116841243D01*
X100269633Y-116841430D01*
X100084804Y-116841524D01*
X99881217Y-116841548D01*
X99657950Y-116841525D01*
X99414078Y-116841480D01*
X99148679Y-116841437D01*
X99110296Y-116841432D01*
X98843318Y-116841389D01*
X98597998Y-116841318D01*
X98373417Y-116841213D01*
X98168655Y-116841066D01*
X97982794Y-116840869D01*
X97814912Y-116840616D01*
X97664092Y-116840300D01*
X97529413Y-116839913D01*
X97409956Y-116839447D01*
X97304801Y-116838897D01*
X97213029Y-116838253D01*
X97133721Y-116837511D01*
X97065957Y-116836661D01*
X97008818Y-116835697D01*
X96961383Y-116834611D01*
X96922734Y-116833397D01*
X96891951Y-116832047D01*
X96868115Y-116830555D01*
X96850306Y-116828911D01*
X96837605Y-116827111D01*
X96829092Y-116825145D01*
X96824734Y-116823477D01*
X96816272Y-116819906D01*
X96808503Y-116817270D01*
X96801398Y-116814634D01*
X96794927Y-116811062D01*
X96789061Y-116805621D01*
X96783771Y-116797375D01*
X96779026Y-116785390D01*
X96774798Y-116768731D01*
X96771057Y-116746463D01*
X96767773Y-116717652D01*
X96764917Y-116681363D01*
X96762460Y-116636661D01*
X96760371Y-116582611D01*
X96758622Y-116518279D01*
X96757183Y-116442730D01*
X96756024Y-116355030D01*
X96755117Y-116254243D01*
X96754431Y-116139434D01*
X96753937Y-116009670D01*
X96753605Y-115864015D01*
X96753407Y-115701535D01*
X96753313Y-115521295D01*
X96753292Y-115322360D01*
X96753315Y-115103796D01*
X96753354Y-114864668D01*
X96753378Y-114604040D01*
X96753378Y-114561889D01*
X96753364Y-114298992D01*
X96753339Y-114057732D01*
X96753329Y-113837165D01*
X96753358Y-113636352D01*
X96753452Y-113454349D01*
X96753638Y-113290216D01*
X96753941Y-113143011D01*
X96754386Y-113011792D01*
X96754966Y-112901867D01*
X97057803Y-112901867D01*
X97097593Y-112959711D01*
X97108764Y-112975479D01*
X97118834Y-112989441D01*
X97127862Y-113002784D01*
X97135903Y-113016693D01*
X97143014Y-113032356D01*
X97149253Y-113050958D01*
X97154675Y-113073686D01*
X97159338Y-113101727D01*
X97163299Y-113136267D01*
X97166615Y-113178492D01*
X97169341Y-113229589D01*
X97171536Y-113290744D01*
X97173255Y-113363144D01*
X97174556Y-113447975D01*
X97175495Y-113546422D01*
X97176130Y-113659674D01*
X97176516Y-113788916D01*
X97176712Y-113935334D01*
X97176773Y-114100116D01*
X97176757Y-114284447D01*
X97176720Y-114489513D01*
X97176711Y-114612133D01*
X97176735Y-114829082D01*
X97176769Y-115024642D01*
X97176757Y-115199999D01*
X97176642Y-115356341D01*
X97176370Y-115494857D01*
X97175882Y-115616734D01*
X97175124Y-115723160D01*
X97174038Y-115815322D01*
X97172569Y-115894409D01*
X97170660Y-115961608D01*
X97168256Y-116018107D01*
X97165299Y-116065093D01*
X97161734Y-116103755D01*
X97157505Y-116135280D01*
X97152554Y-116160855D01*
X97146827Y-116181670D01*
X97140267Y-116198911D01*
X97132817Y-116213765D01*
X97124421Y-116227422D01*
X97115024Y-116241069D01*
X97104568Y-116255893D01*
X97098477Y-116264783D01*
X97059704Y-116322400D01*
X97591268Y-116322400D01*
X97714517Y-116322365D01*
X97817013Y-116322215D01*
X97900580Y-116321878D01*
X97967044Y-116321286D01*
X98018229Y-116320367D01*
X98055959Y-116319051D01*
X98082060Y-116317269D01*
X98098356Y-116314951D01*
X98106672Y-116312026D01*
X98108832Y-116308424D01*
X98106661Y-116304075D01*
X98105465Y-116302645D01*
X98080315Y-116265573D01*
X98054417Y-116212772D01*
X98030808Y-116150770D01*
X98022539Y-116124357D01*
X98017922Y-116106416D01*
X98014021Y-116085355D01*
X98010752Y-116059089D01*
X98008034Y-116025532D01*
X98005785Y-115982599D01*
X98003923Y-115928204D01*
X98002364Y-115860262D01*
X98001028Y-115776688D01*
X97999831Y-115675395D01*
X97998692Y-115554300D01*
X97998315Y-115509600D01*
X97997298Y-115384449D01*
X97996540Y-115280082D01*
X97996097Y-115194707D01*
X97996030Y-115126533D01*
X97996395Y-115073765D01*
X97997252Y-115034614D01*
X97998659Y-115007285D01*
X98000675Y-114989986D01*
X98003357Y-114980926D01*
X98006764Y-114978312D01*
X98010956Y-114980351D01*
X98015429Y-114984667D01*
X98025784Y-114997602D01*
X98047842Y-115026676D01*
X98080043Y-115069759D01*
X98120826Y-115124718D01*
X98168630Y-115189423D01*
X98221895Y-115261742D01*
X98279060Y-115339544D01*
X98338563Y-115420698D01*
X98398845Y-115503072D01*
X98458345Y-115584536D01*
X98515502Y-115662957D01*
X98568755Y-115736204D01*
X98616543Y-115802147D01*
X98657307Y-115858654D01*
X98689484Y-115903593D01*
X98711515Y-115934834D01*
X98716083Y-115941466D01*
X98739004Y-115978369D01*
X98765812Y-116026359D01*
X98791211Y-116075897D01*
X98794432Y-116082577D01*
X98816110Y-116130772D01*
X98828696Y-116168334D01*
X98834426Y-116204160D01*
X98835544Y-116246200D01*
X98834910Y-116322400D01*
X99989349Y-116322400D01*
X99898185Y-116228669D01*
X99851388Y-116178775D01*
X99801101Y-116122295D01*
X99755056Y-116068026D01*
X99734631Y-116042673D01*
X99704193Y-116003128D01*
X99664138Y-115949916D01*
X99615639Y-115884667D01*
X99559865Y-115809011D01*
X99497989Y-115724577D01*
X99431181Y-115632994D01*
X99360613Y-115535892D01*
X99287455Y-115434901D01*
X99212879Y-115331650D01*
X99138056Y-115227768D01*
X99064157Y-115124885D01*
X98992354Y-115024631D01*
X98923816Y-114928636D01*
X98859716Y-114838527D01*
X98801225Y-114755936D01*
X98749514Y-114682492D01*
X98705753Y-114619824D01*
X98671115Y-114569561D01*
X98646770Y-114533334D01*
X98633889Y-114512771D01*
X98632131Y-114508668D01*
X98640090Y-114497342D01*
X98660885Y-114470162D01*
X98693153Y-114428829D01*
X98735530Y-114375044D01*
X98786653Y-114310506D01*
X98845159Y-114236918D01*
X98909686Y-114155978D01*
X98978869Y-114069388D01*
X99051347Y-113978848D01*
X99125754Y-113886060D01*
X99185483Y-113811702D01*
X100196489Y-113811702D01*
X100202398Y-113824659D01*
X100216728Y-113846908D01*
X100217775Y-113848391D01*
X100236562Y-113878544D01*
X100256209Y-113915375D01*
X100260108Y-113923511D01*
X100263644Y-113931940D01*
X100266770Y-113942059D01*
X100269514Y-113955260D01*
X100271908Y-113972938D01*
X100273981Y-113996484D01*
X100275765Y-114027293D01*
X100277288Y-114066757D01*
X100278581Y-114116269D01*
X100279674Y-114177223D01*
X100280597Y-114251011D01*
X100281381Y-114339028D01*
X100282055Y-114442665D01*
X100282650Y-114563316D01*
X100283195Y-114702374D01*
X100283721Y-114861232D01*
X100284255Y-115040089D01*
X100284794Y-115225207D01*
X100285228Y-115389145D01*
X100285491Y-115533303D01*
X100285516Y-115659079D01*
X100285235Y-115767871D01*
X100284581Y-115861077D01*
X100283486Y-115940097D01*
X100281882Y-116006328D01*
X100279703Y-116061170D01*
X100276881Y-116106021D01*
X100273349Y-116142278D01*
X100269039Y-116171341D01*
X100263883Y-116194609D01*
X100257815Y-116213479D01*
X100250767Y-116229351D01*
X100242671Y-116243622D01*
X100233460Y-116257691D01*
X100224960Y-116270158D01*
X100207824Y-116296452D01*
X100197678Y-116314037D01*
X100196489Y-116317257D01*
X100207396Y-116318334D01*
X100238589Y-116319335D01*
X100287777Y-116320235D01*
X100352667Y-116321010D01*
X100430970Y-116321637D01*
X100520393Y-116322091D01*
X100618644Y-116322349D01*
X100687555Y-116322400D01*
X100792548Y-116322180D01*
X100889390Y-116321548D01*
X100975893Y-116320549D01*
X101049868Y-116319227D01*
X101109126Y-116317626D01*
X101151480Y-116315791D01*
X101174740Y-116313765D01*
X101178622Y-116312493D01*
X101170924Y-116297591D01*
X101162926Y-116289560D01*
X101149754Y-116272434D01*
X101132515Y-116242183D01*
X101120593Y-116217622D01*
X101093955Y-116158711D01*
X101090880Y-114981845D01*
X101087805Y-113804978D01*
X100642147Y-113804978D01*
X100544330Y-113805142D01*
X100453936Y-113805611D01*
X100373370Y-113806347D01*
X100305038Y-113807316D01*
X100251344Y-113808480D01*
X100214695Y-113809803D01*
X100197496Y-113811249D01*
X100196489Y-113811702D01*
X99185483Y-113811702D01*
X99200730Y-113792722D01*
X99274910Y-113700537D01*
X99346931Y-113611204D01*
X99415431Y-113526424D01*
X99479045Y-113447898D01*
X99536412Y-113377326D01*
X99586167Y-113316409D01*
X99626948Y-113266847D01*
X99644112Y-113246178D01*
X99730404Y-113145516D01*
X99807003Y-113062259D01*
X99875817Y-112994438D01*
X99938752Y-112940089D01*
X99948133Y-112932722D01*
X99987644Y-112902117D01*
X98855884Y-112901867D01*
X98861173Y-112949844D01*
X98857870Y-113007188D01*
X98836339Y-113075463D01*
X98796365Y-113155212D01*
X98751057Y-113227495D01*
X98734839Y-113250140D01*
X98706786Y-113287696D01*
X98668570Y-113338021D01*
X98621863Y-113398973D01*
X98568339Y-113468411D01*
X98509669Y-113544194D01*
X98447525Y-113624180D01*
X98383579Y-113706228D01*
X98319505Y-113788196D01*
X98256973Y-113867943D01*
X98197657Y-113943327D01*
X98143229Y-114012207D01*
X98095361Y-114072442D01*
X98055725Y-114121889D01*
X98025994Y-114158408D01*
X98007839Y-114179858D01*
X98004780Y-114183156D01*
X98001921Y-114175149D01*
X97999707Y-114144855D01*
X97998143Y-114092556D01*
X97997233Y-114018531D01*
X97996980Y-113923063D01*
X97997387Y-113806434D01*
X97998296Y-113686445D01*
X97999618Y-113554333D01*
X98001143Y-113442594D01*
X98003119Y-113349025D01*
X98005794Y-113271419D01*
X98009418Y-113207574D01*
X98014239Y-113155283D01*
X98020506Y-113112344D01*
X98028468Y-113076551D01*
X98038373Y-113045700D01*
X98050469Y-113017586D01*
X98065007Y-112990005D01*
X98079689Y-112964966D01*
X98117686Y-112901867D01*
X97057803Y-112901867D01*
X96754966Y-112901867D01*
X96754999Y-112895617D01*
X96755805Y-112793544D01*
X96756830Y-112704633D01*
X96758100Y-112627941D01*
X96759640Y-112562527D01*
X96761476Y-112507449D01*
X96763633Y-112461765D01*
X96766137Y-112424534D01*
X96769013Y-112394813D01*
X96772287Y-112371662D01*
X96775985Y-112354139D01*
X96780131Y-112341301D01*
X96784753Y-112332208D01*
X96789874Y-112325918D01*
X96795522Y-112321488D01*
X96801721Y-112317978D01*
X96808496Y-112314445D01*
X96814492Y-112310876D01*
X96819725Y-112308300D01*
X96827901Y-112305972D01*
X96840114Y-112303878D01*
X96857459Y-112302007D01*
X96881031Y-112300347D01*
X96911923Y-112298884D01*
X96951232Y-112297608D01*
X97000050Y-112296504D01*
X97059473Y-112295561D01*
X97130596Y-112294767D01*
X97214512Y-112294109D01*
X97312317Y-112293575D01*
X97425106Y-112293153D01*
X97553971Y-112292829D01*
X97700009Y-112292592D01*
X97864314Y-112292430D01*
X98047980Y-112292330D01*
X98252103Y-112292280D01*
X98463247Y-112292267D01*
X100083600Y-112292267D01*
X100083600Y-112389054D01*
G36*
X96908629Y-117169066D02*
G01*
X96948111Y-117169467D01*
X97063800Y-117172259D01*
X97160689Y-117180550D01*
X97242081Y-117195232D01*
X97311277Y-117217193D01*
X97371580Y-117247322D01*
X97426292Y-117286510D01*
X97445833Y-117303532D01*
X97478250Y-117343363D01*
X97507480Y-117397413D01*
X97530009Y-117457323D01*
X97542321Y-117514739D01*
X97543600Y-117535956D01*
X97535583Y-117594769D01*
X97514101Y-117659013D01*
X97483001Y-117719821D01*
X97446134Y-117768330D01*
X97440146Y-117774182D01*
X97389421Y-117815321D01*
X97333875Y-117847435D01*
X97270304Y-117871365D01*
X97195506Y-117887953D01*
X97106278Y-117898041D01*
X96999418Y-117902469D01*
X96950472Y-117902845D01*
X96888238Y-117902545D01*
X96844472Y-117901292D01*
X96815069Y-117898554D01*
X96795921Y-117893801D01*
X96782923Y-117886501D01*
X96775955Y-117880267D01*
X96769374Y-117872694D01*
X96764212Y-117862924D01*
X96760297Y-117848340D01*
X96757457Y-117826326D01*
X96755520Y-117794264D01*
X96754316Y-117749536D01*
X96753672Y-117689526D01*
X96753417Y-117611617D01*
X96753378Y-117535956D01*
X96753130Y-117435041D01*
X96753183Y-117354427D01*
X96754143Y-117315822D01*
X96900133Y-117315822D01*
X96900133Y-117756089D01*
X96993266Y-117756004D01*
X97049307Y-117754396D01*
X97108001Y-117750256D01*
X97156972Y-117744464D01*
X97158462Y-117744226D01*
X97237608Y-117725090D01*
X97298998Y-117695287D01*
X97345695Y-117652878D01*
X97375365Y-117606961D01*
X97393647Y-117556026D01*
X97392229Y-117508200D01*
X97371012Y-117456933D01*
X97329511Y-117403899D01*
X97272002Y-117364600D01*
X97197250Y-117338331D01*
X97147292Y-117329035D01*
X97090584Y-117322507D01*
X97030481Y-117317782D01*
X96979361Y-117315817D01*
X96976333Y-117315808D01*
X96900133Y-117315822D01*
X96754143Y-117315822D01*
X96754740Y-117291851D01*
X96759002Y-117245055D01*
X96767170Y-117211778D01*
X96780444Y-117189759D01*
X96800026Y-117176739D01*
X96827117Y-117170457D01*
X96862918Y-117168653D01*
X96908629Y-117169066D01*
G37*
X96908629Y-117169066D02*
X96948111Y-117169467D01*
X97063800Y-117172259D01*
X97160689Y-117180550D01*
X97242081Y-117195232D01*
X97311277Y-117217193D01*
X97371580Y-117247322D01*
X97426292Y-117286510D01*
X97445833Y-117303532D01*
X97478250Y-117343363D01*
X97507480Y-117397413D01*
X97530009Y-117457323D01*
X97542321Y-117514739D01*
X97543600Y-117535956D01*
X97535583Y-117594769D01*
X97514101Y-117659013D01*
X97483001Y-117719821D01*
X97446134Y-117768330D01*
X97440146Y-117774182D01*
X97389421Y-117815321D01*
X97333875Y-117847435D01*
X97270304Y-117871365D01*
X97195506Y-117887953D01*
X97106278Y-117898041D01*
X96999418Y-117902469D01*
X96950472Y-117902845D01*
X96888238Y-117902545D01*
X96844472Y-117901292D01*
X96815069Y-117898554D01*
X96795921Y-117893801D01*
X96782923Y-117886501D01*
X96775955Y-117880267D01*
X96769374Y-117872694D01*
X96764212Y-117862924D01*
X96760297Y-117848340D01*
X96757457Y-117826326D01*
X96755520Y-117794264D01*
X96754316Y-117749536D01*
X96753672Y-117689526D01*
X96753417Y-117611617D01*
X96753378Y-117535956D01*
X96753130Y-117435041D01*
X96753183Y-117354427D01*
X96754143Y-117315822D01*
X96900133Y-117315822D01*
X96900133Y-117756089D01*
X96993266Y-117756004D01*
X97049307Y-117754396D01*
X97108001Y-117750256D01*
X97156972Y-117744464D01*
X97158462Y-117744226D01*
X97237608Y-117725090D01*
X97298998Y-117695287D01*
X97345695Y-117652878D01*
X97375365Y-117606961D01*
X97393647Y-117556026D01*
X97392229Y-117508200D01*
X97371012Y-117456933D01*
X97329511Y-117403899D01*
X97272002Y-117364600D01*
X97197250Y-117338331D01*
X97147292Y-117329035D01*
X97090584Y-117322507D01*
X97030481Y-117317782D01*
X96979361Y-117315817D01*
X96976333Y-117315808D01*
X96900133Y-117315822D01*
X96754143Y-117315822D01*
X96754740Y-117291851D01*
X96759002Y-117245055D01*
X96767170Y-117211778D01*
X96780444Y-117189759D01*
X96800026Y-117176739D01*
X96827117Y-117170457D01*
X96862918Y-117168653D01*
X96908629Y-117169066D01*
G36*
X107218614Y-117175877D02*
G01*
X107242327Y-117190647D01*
X107268978Y-117212227D01*
X107268978Y-117533773D01*
X107268893Y-117627830D01*
X107268529Y-117701932D01*
X107267724Y-117758704D01*
X107266313Y-117800768D01*
X107264133Y-117830748D01*
X107261021Y-117851267D01*
X107256814Y-117864949D01*
X107251348Y-117874416D01*
X107247472Y-117879082D01*
X107216034Y-117899575D01*
X107180233Y-117898739D01*
X107148873Y-117881264D01*
X107122222Y-117859684D01*
X107122222Y-117212227D01*
X107148873Y-117190647D01*
X107174594Y-117174949D01*
X107195600Y-117169067D01*
X107218614Y-117175877D01*
G37*
X107218614Y-117175877D02*
X107242327Y-117190647D01*
X107268978Y-117212227D01*
X107268978Y-117533773D01*
X107268893Y-117627830D01*
X107268529Y-117701932D01*
X107267724Y-117758704D01*
X107266313Y-117800768D01*
X107264133Y-117830748D01*
X107261021Y-117851267D01*
X107256814Y-117864949D01*
X107251348Y-117874416D01*
X107247472Y-117879082D01*
X107216034Y-117899575D01*
X107180233Y-117898739D01*
X107148873Y-117881264D01*
X107122222Y-117859684D01*
X107122222Y-117212227D01*
X107148873Y-117190647D01*
X107174594Y-117174949D01*
X107195600Y-117169067D01*
X107218614Y-117175877D01*
G36*
X105703574Y-113766552D02*
G01*
X105855492Y-113786567D01*
X105990756Y-113820202D01*
X106110239Y-113867725D01*
X106214815Y-113929405D01*
X106292424Y-113992965D01*
X106361265Y-114067099D01*
X106415006Y-114146871D01*
X106457910Y-114239091D01*
X106473384Y-114282161D01*
X106486244Y-114321142D01*
X106497446Y-114357289D01*
X106507120Y-114392434D01*
X106515396Y-114428410D01*
X106522403Y-114467050D01*
X106528272Y-114510185D01*
X106533131Y-114559649D01*
X106537110Y-114617273D01*
X106540340Y-114684891D01*
X106542949Y-114764334D01*
X106545067Y-114857436D01*
X106546824Y-114966027D01*
X106548349Y-115091942D01*
X106549772Y-115237012D01*
X106551025Y-115379778D01*
X106552351Y-115535968D01*
X106553556Y-115671239D01*
X106554766Y-115787246D01*
X106556106Y-115885645D01*
X106557700Y-115968093D01*
X106559675Y-116036246D01*
X106562156Y-116091760D01*
X106565269Y-116136292D01*
X106569138Y-116171498D01*
X106573889Y-116199034D01*
X106579648Y-116220556D01*
X106586539Y-116237722D01*
X106594689Y-116252186D01*
X106604223Y-116265606D01*
X106615266Y-116279638D01*
X106619566Y-116285071D01*
X106635386Y-116307910D01*
X106642422Y-116323463D01*
X106642444Y-116323922D01*
X106631567Y-116326121D01*
X106600582Y-116328147D01*
X106551957Y-116329942D01*
X106488163Y-116331451D01*
X106411669Y-116332616D01*
X106324944Y-116333380D01*
X106230457Y-116333686D01*
X106219550Y-116333689D01*
X105796657Y-116333689D01*
X105793395Y-116237622D01*
X105790133Y-116141556D01*
X105728044Y-116192543D01*
X105630714Y-116260057D01*
X105520813Y-116314749D01*
X105434349Y-116344978D01*
X105365278Y-116359666D01*
X105281925Y-116369659D01*
X105192159Y-116374646D01*
X105103845Y-116374313D01*
X105024851Y-116368351D01*
X104988622Y-116362638D01*
X104848603Y-116324776D01*
X104722178Y-116269932D01*
X104610260Y-116198924D01*
X104513762Y-116112568D01*
X104433600Y-116011679D01*
X104370687Y-115897076D01*
X104326312Y-115770984D01*
X104313978Y-115714401D01*
X104306368Y-115652202D01*
X104302739Y-115577363D01*
X104302245Y-115543467D01*
X104302310Y-115540282D01*
X105062248Y-115540282D01*
X105071541Y-115615333D01*
X105099728Y-115679160D01*
X105148197Y-115734798D01*
X105153254Y-115739211D01*
X105201548Y-115774037D01*
X105253257Y-115796620D01*
X105313989Y-115808540D01*
X105389352Y-115811383D01*
X105407459Y-115810978D01*
X105461278Y-115808325D01*
X105501308Y-115802909D01*
X105536324Y-115792745D01*
X105575103Y-115775850D01*
X105585745Y-115770672D01*
X105646396Y-115734844D01*
X105693215Y-115692212D01*
X105705952Y-115676973D01*
X105750622Y-115620462D01*
X105750622Y-115424586D01*
X105750086Y-115345939D01*
X105748396Y-115287988D01*
X105745428Y-115248875D01*
X105741057Y-115226741D01*
X105736972Y-115220274D01*
X105721047Y-115217111D01*
X105687264Y-115214488D01*
X105640340Y-115212655D01*
X105584993Y-115211857D01*
X105576106Y-115211842D01*
X105455330Y-115217096D01*
X105352660Y-115233263D01*
X105266106Y-115260961D01*
X105193681Y-115300808D01*
X105138751Y-115347758D01*
X105094204Y-115405645D01*
X105069480Y-115468693D01*
X105062248Y-115540282D01*
X104302310Y-115540282D01*
X104304178Y-115449712D01*
X104312522Y-115370812D01*
X104328768Y-115299590D01*
X104354405Y-115228864D01*
X104378401Y-115176493D01*
X104437020Y-115081196D01*
X104515117Y-114993170D01*
X104610315Y-114914017D01*
X104720238Y-114845340D01*
X104842510Y-114788741D01*
X104974755Y-114745821D01*
X105039422Y-114730882D01*
X105175604Y-114708777D01*
X105324049Y-114694194D01*
X105475505Y-114687813D01*
X105602064Y-114689445D01*
X105763950Y-114696224D01*
X105756530Y-114637245D01*
X105737238Y-114538092D01*
X105706104Y-114457372D01*
X105662269Y-114394466D01*
X105604871Y-114348756D01*
X105533048Y-114319622D01*
X105445941Y-114306447D01*
X105342686Y-114308611D01*
X105304711Y-114312612D01*
X105163520Y-114337780D01*
X105026707Y-114378814D01*
X104932178Y-114416815D01*
X104887018Y-114436190D01*
X104848585Y-114451760D01*
X104822234Y-114461405D01*
X104814546Y-114463452D01*
X104804802Y-114454374D01*
X104788083Y-114425405D01*
X104764232Y-114376217D01*
X104733093Y-114306484D01*
X104694507Y-114215879D01*
X104687910Y-114200089D01*
X104657853Y-114127772D01*
X104630874Y-114062425D01*
X104608136Y-114006906D01*
X104590806Y-113964072D01*
X104580048Y-113936781D01*
X104576941Y-113927942D01*
X104586940Y-113923187D01*
X104613217Y-113917910D01*
X104641489Y-113914231D01*
X104671646Y-113909474D01*
X104719433Y-113900028D01*
X104780612Y-113886820D01*
X104850946Y-113870776D01*
X104926194Y-113852820D01*
X104954755Y-113845797D01*
X105059816Y-113820209D01*
X105147480Y-113800147D01*
X105222068Y-113784969D01*
X105287903Y-113774035D01*
X105349307Y-113766704D01*
X105410602Y-113762335D01*
X105476110Y-113760287D01*
X105534128Y-113759889D01*
X105703574Y-113766552D01*
G37*
X105703574Y-113766552D02*
X105855492Y-113786567D01*
X105990756Y-113820202D01*
X106110239Y-113867725D01*
X106214815Y-113929405D01*
X106292424Y-113992965D01*
X106361265Y-114067099D01*
X106415006Y-114146871D01*
X106457910Y-114239091D01*
X106473384Y-114282161D01*
X106486244Y-114321142D01*
X106497446Y-114357289D01*
X106507120Y-114392434D01*
X106515396Y-114428410D01*
X106522403Y-114467050D01*
X106528272Y-114510185D01*
X106533131Y-114559649D01*
X106537110Y-114617273D01*
X106540340Y-114684891D01*
X106542949Y-114764334D01*
X106545067Y-114857436D01*
X106546824Y-114966027D01*
X106548349Y-115091942D01*
X106549772Y-115237012D01*
X106551025Y-115379778D01*
X106552351Y-115535968D01*
X106553556Y-115671239D01*
X106554766Y-115787246D01*
X106556106Y-115885645D01*
X106557700Y-115968093D01*
X106559675Y-116036246D01*
X106562156Y-116091760D01*
X106565269Y-116136292D01*
X106569138Y-116171498D01*
X106573889Y-116199034D01*
X106579648Y-116220556D01*
X106586539Y-116237722D01*
X106594689Y-116252186D01*
X106604223Y-116265606D01*
X106615266Y-116279638D01*
X106619566Y-116285071D01*
X106635386Y-116307910D01*
X106642422Y-116323463D01*
X106642444Y-116323922D01*
X106631567Y-116326121D01*
X106600582Y-116328147D01*
X106551957Y-116329942D01*
X106488163Y-116331451D01*
X106411669Y-116332616D01*
X106324944Y-116333380D01*
X106230457Y-116333686D01*
X106219550Y-116333689D01*
X105796657Y-116333689D01*
X105793395Y-116237622D01*
X105790133Y-116141556D01*
X105728044Y-116192543D01*
X105630714Y-116260057D01*
X105520813Y-116314749D01*
X105434349Y-116344978D01*
X105365278Y-116359666D01*
X105281925Y-116369659D01*
X105192159Y-116374646D01*
X105103845Y-116374313D01*
X105024851Y-116368351D01*
X104988622Y-116362638D01*
X104848603Y-116324776D01*
X104722178Y-116269932D01*
X104610260Y-116198924D01*
X104513762Y-116112568D01*
X104433600Y-116011679D01*
X104370687Y-115897076D01*
X104326312Y-115770984D01*
X104313978Y-115714401D01*
X104306368Y-115652202D01*
X104302739Y-115577363D01*
X104302245Y-115543467D01*
X104302310Y-115540282D01*
X105062248Y-115540282D01*
X105071541Y-115615333D01*
X105099728Y-115679160D01*
X105148197Y-115734798D01*
X105153254Y-115739211D01*
X105201548Y-115774037D01*
X105253257Y-115796620D01*
X105313989Y-115808540D01*
X105389352Y-115811383D01*
X105407459Y-115810978D01*
X105461278Y-115808325D01*
X105501308Y-115802909D01*
X105536324Y-115792745D01*
X105575103Y-115775850D01*
X105585745Y-115770672D01*
X105646396Y-115734844D01*
X105693215Y-115692212D01*
X105705952Y-115676973D01*
X105750622Y-115620462D01*
X105750622Y-115424586D01*
X105750086Y-115345939D01*
X105748396Y-115287988D01*
X105745428Y-115248875D01*
X105741057Y-115226741D01*
X105736972Y-115220274D01*
X105721047Y-115217111D01*
X105687264Y-115214488D01*
X105640340Y-115212655D01*
X105584993Y-115211857D01*
X105576106Y-115211842D01*
X105455330Y-115217096D01*
X105352660Y-115233263D01*
X105266106Y-115260961D01*
X105193681Y-115300808D01*
X105138751Y-115347758D01*
X105094204Y-115405645D01*
X105069480Y-115468693D01*
X105062248Y-115540282D01*
X104302310Y-115540282D01*
X104304178Y-115449712D01*
X104312522Y-115370812D01*
X104328768Y-115299590D01*
X104354405Y-115228864D01*
X104378401Y-115176493D01*
X104437020Y-115081196D01*
X104515117Y-114993170D01*
X104610315Y-114914017D01*
X104720238Y-114845340D01*
X104842510Y-114788741D01*
X104974755Y-114745821D01*
X105039422Y-114730882D01*
X105175604Y-114708777D01*
X105324049Y-114694194D01*
X105475505Y-114687813D01*
X105602064Y-114689445D01*
X105763950Y-114696224D01*
X105756530Y-114637245D01*
X105737238Y-114538092D01*
X105706104Y-114457372D01*
X105662269Y-114394466D01*
X105604871Y-114348756D01*
X105533048Y-114319622D01*
X105445941Y-114306447D01*
X105342686Y-114308611D01*
X105304711Y-114312612D01*
X105163520Y-114337780D01*
X105026707Y-114378814D01*
X104932178Y-114416815D01*
X104887018Y-114436190D01*
X104848585Y-114451760D01*
X104822234Y-114461405D01*
X104814546Y-114463452D01*
X104804802Y-114454374D01*
X104788083Y-114425405D01*
X104764232Y-114376217D01*
X104733093Y-114306484D01*
X104694507Y-114215879D01*
X104687910Y-114200089D01*
X104657853Y-114127772D01*
X104630874Y-114062425D01*
X104608136Y-114006906D01*
X104590806Y-113964072D01*
X104580048Y-113936781D01*
X104576941Y-113927942D01*
X104586940Y-113923187D01*
X104613217Y-113917910D01*
X104641489Y-113914231D01*
X104671646Y-113909474D01*
X104719433Y-113900028D01*
X104780612Y-113886820D01*
X104850946Y-113870776D01*
X104926194Y-113852820D01*
X104954755Y-113845797D01*
X105059816Y-113820209D01*
X105147480Y-113800147D01*
X105222068Y-113784969D01*
X105287903Y-113774035D01*
X105349307Y-113766704D01*
X105410602Y-113762335D01*
X105476110Y-113760287D01*
X105534128Y-113759889D01*
X105703574Y-113766552D01*
G36*
X101729886Y-117173448D02*
G01*
X101753452Y-117187273D01*
X101784265Y-117209881D01*
X101823922Y-117242338D01*
X101874020Y-117285708D01*
X101936157Y-117341058D01*
X102011928Y-117409451D01*
X102098666Y-117488084D01*
X102279289Y-117651878D01*
X102284933Y-117432029D01*
X102286971Y-117356351D01*
X102288937Y-117299994D01*
X102291266Y-117259706D01*
X102294394Y-117232235D01*
X102298755Y-117214329D01*
X102304784Y-117202737D01*
X102312916Y-117194208D01*
X102317228Y-117190623D01*
X102351759Y-117171670D01*
X102384617Y-117174441D01*
X102410682Y-117190633D01*
X102437333Y-117212199D01*
X102440648Y-117527151D01*
X102441565Y-117619779D01*
X102442032Y-117692544D01*
X102441887Y-117748161D01*
X102440968Y-117789342D01*
X102439113Y-117818803D01*
X102436161Y-117839255D01*
X102431950Y-117853413D01*
X102426318Y-117863991D01*
X102420073Y-117872474D01*
X102406561Y-117888207D01*
X102393117Y-117898636D01*
X102377876Y-117902639D01*
X102358974Y-117899094D01*
X102334545Y-117886879D01*
X102302727Y-117864871D01*
X102261652Y-117831949D01*
X102209458Y-117786991D01*
X102144278Y-117728875D01*
X102070444Y-117662099D01*
X101805155Y-117421458D01*
X101799511Y-117640589D01*
X101797469Y-117716128D01*
X101795498Y-117772354D01*
X101793161Y-117812524D01*
X101790019Y-117839896D01*
X101785636Y-117857728D01*
X101779576Y-117869279D01*
X101771400Y-117877807D01*
X101767216Y-117881282D01*
X101730235Y-117900372D01*
X101695292Y-117897493D01*
X101664864Y-117873100D01*
X101657903Y-117863286D01*
X101652477Y-117851826D01*
X101648397Y-117835968D01*
X101645471Y-117812963D01*
X101643508Y-117780062D01*
X101642317Y-117734516D01*
X101641708Y-117673573D01*
X101641489Y-117594486D01*
X101641466Y-117535956D01*
X101641540Y-117444407D01*
X101641887Y-117372687D01*
X101642699Y-117318045D01*
X101644167Y-117277732D01*
X101646481Y-117248998D01*
X101649833Y-117229093D01*
X101654412Y-117215268D01*
X101660411Y-117204772D01*
X101664864Y-117198811D01*
X101676150Y-117184691D01*
X101686699Y-117174029D01*
X101698107Y-117167892D01*
X101711970Y-117167343D01*
X101729886Y-117173448D01*
G37*
X101729886Y-117173448D02*
X101753452Y-117187273D01*
X101784265Y-117209881D01*
X101823922Y-117242338D01*
X101874020Y-117285708D01*
X101936157Y-117341058D01*
X102011928Y-117409451D01*
X102098666Y-117488084D01*
X102279289Y-117651878D01*
X102284933Y-117432029D01*
X102286971Y-117356351D01*
X102288937Y-117299994D01*
X102291266Y-117259706D01*
X102294394Y-117232235D01*
X102298755Y-117214329D01*
X102304784Y-117202737D01*
X102312916Y-117194208D01*
X102317228Y-117190623D01*
X102351759Y-117171670D01*
X102384617Y-117174441D01*
X102410682Y-117190633D01*
X102437333Y-117212199D01*
X102440648Y-117527151D01*
X102441565Y-117619779D01*
X102442032Y-117692544D01*
X102441887Y-117748161D01*
X102440968Y-117789342D01*
X102439113Y-117818803D01*
X102436161Y-117839255D01*
X102431950Y-117853413D01*
X102426318Y-117863991D01*
X102420073Y-117872474D01*
X102406561Y-117888207D01*
X102393117Y-117898636D01*
X102377876Y-117902639D01*
X102358974Y-117899094D01*
X102334545Y-117886879D01*
X102302727Y-117864871D01*
X102261652Y-117831949D01*
X102209458Y-117786991D01*
X102144278Y-117728875D01*
X102070444Y-117662099D01*
X101805155Y-117421458D01*
X101799511Y-117640589D01*
X101797469Y-117716128D01*
X101795498Y-117772354D01*
X101793161Y-117812524D01*
X101790019Y-117839896D01*
X101785636Y-117857728D01*
X101779576Y-117869279D01*
X101771400Y-117877807D01*
X101767216Y-117881282D01*
X101730235Y-117900372D01*
X101695292Y-117897493D01*
X101664864Y-117873100D01*
X101657903Y-117863286D01*
X101652477Y-117851826D01*
X101648397Y-117835968D01*
X101645471Y-117812963D01*
X101643508Y-117780062D01*
X101642317Y-117734516D01*
X101641708Y-117673573D01*
X101641489Y-117594486D01*
X101641466Y-117535956D01*
X101641540Y-117444407D01*
X101641887Y-117372687D01*
X101642699Y-117318045D01*
X101644167Y-117277732D01*
X101646481Y-117248998D01*
X101649833Y-117229093D01*
X101654412Y-117215268D01*
X101660411Y-117204772D01*
X101664864Y-117198811D01*
X101676150Y-117184691D01*
X101686699Y-117174029D01*
X101698107Y-117167892D01*
X101711970Y-117167343D01*
X101729886Y-117173448D01*
G36*
X106774665Y-117171034D02*
G01*
X106794255Y-117178035D01*
X106795010Y-117178377D01*
X106821613Y-117198678D01*
X106836270Y-117219561D01*
X106839138Y-117229352D01*
X106838996Y-117242361D01*
X106834961Y-117260895D01*
X106826146Y-117287257D01*
X106811669Y-117323752D01*
X106790645Y-117372687D01*
X106762188Y-117436365D01*
X106725415Y-117517093D01*
X106705175Y-117561216D01*
X106668625Y-117639985D01*
X106634315Y-117712423D01*
X106603552Y-117775880D01*
X106577648Y-117827708D01*
X106557910Y-117865259D01*
X106545650Y-117885884D01*
X106543224Y-117888733D01*
X106512183Y-117901302D01*
X106477121Y-117899619D01*
X106449000Y-117884332D01*
X106447854Y-117883089D01*
X106436668Y-117866154D01*
X106417904Y-117833170D01*
X106393875Y-117788380D01*
X106366897Y-117736032D01*
X106357201Y-117716742D01*
X106284014Y-117570150D01*
X106204240Y-117729393D01*
X106175767Y-117784415D01*
X106149350Y-117832132D01*
X106127148Y-117868893D01*
X106111319Y-117891044D01*
X106105954Y-117895741D01*
X106064257Y-117902102D01*
X106029849Y-117888733D01*
X106019728Y-117874446D01*
X106002214Y-117842692D01*
X105978735Y-117796597D01*
X105950720Y-117739285D01*
X105919599Y-117673880D01*
X105886799Y-117603507D01*
X105853750Y-117531291D01*
X105821881Y-117460355D01*
X105792619Y-117393825D01*
X105767395Y-117334826D01*
X105747636Y-117286481D01*
X105734772Y-117251915D01*
X105730231Y-117234253D01*
X105730277Y-117233613D01*
X105741326Y-117211388D01*
X105763410Y-117188753D01*
X105764710Y-117187768D01*
X105791853Y-117172425D01*
X105816958Y-117172574D01*
X105826368Y-117175466D01*
X105837834Y-117181718D01*
X105850010Y-117194014D01*
X105864357Y-117214908D01*
X105882336Y-117246949D01*
X105905407Y-117292688D01*
X105935030Y-117354677D01*
X105961745Y-117411898D01*
X105992480Y-117478226D01*
X106020021Y-117537874D01*
X106042938Y-117587725D01*
X106059798Y-117624664D01*
X106069173Y-117645573D01*
X106070540Y-117648845D01*
X106076689Y-117643497D01*
X106090822Y-117621109D01*
X106111057Y-117584946D01*
X106135515Y-117538277D01*
X106145248Y-117519022D01*
X106178217Y-117454004D01*
X106203643Y-117406654D01*
X106223612Y-117374219D01*
X106240210Y-117353946D01*
X106255524Y-117343082D01*
X106271640Y-117338875D01*
X106282143Y-117338400D01*
X106300670Y-117340042D01*
X106316904Y-117346831D01*
X106333035Y-117361566D01*
X106351251Y-117387044D01*
X106373739Y-117426061D01*
X106402689Y-117481414D01*
X106418662Y-117512903D01*
X106444570Y-117563087D01*
X106467167Y-117604704D01*
X106484458Y-117634242D01*
X106494450Y-117648189D01*
X106495809Y-117648770D01*
X106502261Y-117637793D01*
X106516708Y-117609290D01*
X106537703Y-117566244D01*
X106563797Y-117511638D01*
X106593546Y-117448454D01*
X106608180Y-117417071D01*
X106646250Y-117336078D01*
X106676905Y-117273756D01*
X106701737Y-117228071D01*
X106722337Y-117196989D01*
X106740298Y-117178478D01*
X106757210Y-117170504D01*
X106774665Y-117171034D01*
G37*
X106774665Y-117171034D02*
X106794255Y-117178035D01*
X106795010Y-117178377D01*
X106821613Y-117198678D01*
X106836270Y-117219561D01*
X106839138Y-117229352D01*
X106838996Y-117242361D01*
X106834961Y-117260895D01*
X106826146Y-117287257D01*
X106811669Y-117323752D01*
X106790645Y-117372687D01*
X106762188Y-117436365D01*
X106725415Y-117517093D01*
X106705175Y-117561216D01*
X106668625Y-117639985D01*
X106634315Y-117712423D01*
X106603552Y-117775880D01*
X106577648Y-117827708D01*
X106557910Y-117865259D01*
X106545650Y-117885884D01*
X106543224Y-117888733D01*
X106512183Y-117901302D01*
X106477121Y-117899619D01*
X106449000Y-117884332D01*
X106447854Y-117883089D01*
X106436668Y-117866154D01*
X106417904Y-117833170D01*
X106393875Y-117788380D01*
X106366897Y-117736032D01*
X106357201Y-117716742D01*
X106284014Y-117570150D01*
X106204240Y-117729393D01*
X106175767Y-117784415D01*
X106149350Y-117832132D01*
X106127148Y-117868893D01*
X106111319Y-117891044D01*
X106105954Y-117895741D01*
X106064257Y-117902102D01*
X106029849Y-117888733D01*
X106019728Y-117874446D01*
X106002214Y-117842692D01*
X105978735Y-117796597D01*
X105950720Y-117739285D01*
X105919599Y-117673880D01*
X105886799Y-117603507D01*
X105853750Y-117531291D01*
X105821881Y-117460355D01*
X105792619Y-117393825D01*
X105767395Y-117334826D01*
X105747636Y-117286481D01*
X105734772Y-117251915D01*
X105730231Y-117234253D01*
X105730277Y-117233613D01*
X105741326Y-117211388D01*
X105763410Y-117188753D01*
X105764710Y-117187768D01*
X105791853Y-117172425D01*
X105816958Y-117172574D01*
X105826368Y-117175466D01*
X105837834Y-117181718D01*
X105850010Y-117194014D01*
X105864357Y-117214908D01*
X105882336Y-117246949D01*
X105905407Y-117292688D01*
X105935030Y-117354677D01*
X105961745Y-117411898D01*
X105992480Y-117478226D01*
X106020021Y-117537874D01*
X106042938Y-117587725D01*
X106059798Y-117624664D01*
X106069173Y-117645573D01*
X106070540Y-117648845D01*
X106076689Y-117643497D01*
X106090822Y-117621109D01*
X106111057Y-117584946D01*
X106135515Y-117538277D01*
X106145248Y-117519022D01*
X106178217Y-117454004D01*
X106203643Y-117406654D01*
X106223612Y-117374219D01*
X106240210Y-117353946D01*
X106255524Y-117343082D01*
X106271640Y-117338875D01*
X106282143Y-117338400D01*
X106300670Y-117340042D01*
X106316904Y-117346831D01*
X106333035Y-117361566D01*
X106351251Y-117387044D01*
X106373739Y-117426061D01*
X106402689Y-117481414D01*
X106418662Y-117512903D01*
X106444570Y-117563087D01*
X106467167Y-117604704D01*
X106484458Y-117634242D01*
X106494450Y-117648189D01*
X106495809Y-117648770D01*
X106502261Y-117637793D01*
X106516708Y-117609290D01*
X106537703Y-117566244D01*
X106563797Y-117511638D01*
X106593546Y-117448454D01*
X106608180Y-117417071D01*
X106646250Y-117336078D01*
X106676905Y-117273756D01*
X106701737Y-117228071D01*
X106722337Y-117196989D01*
X106740298Y-117178478D01*
X106757210Y-117170504D01*
X106774665Y-117171034D01*
G36*
X100756957Y-111926571D02*
G01*
X100853232Y-111950809D01*
X100939816Y-111993641D01*
X101014627Y-112053419D01*
X101075582Y-112128494D01*
X101120601Y-112217220D01*
X101146864Y-112313530D01*
X101152714Y-112410795D01*
X101137860Y-112504654D01*
X101104160Y-112592511D01*
X101053472Y-112671770D01*
X100987655Y-112739836D01*
X100908566Y-112794112D01*
X100818066Y-112832002D01*
X100766800Y-112844426D01*
X100722302Y-112851947D01*
X100688001Y-112854919D01*
X100655040Y-112853094D01*
X100614566Y-112846225D01*
X100581469Y-112839250D01*
X100488053Y-112807741D01*
X100404381Y-112756617D01*
X100332335Y-112687429D01*
X100273800Y-112601728D01*
X100259852Y-112574489D01*
X100243414Y-112538122D01*
X100233106Y-112507582D01*
X100227540Y-112475450D01*
X100225331Y-112434307D01*
X100225052Y-112388222D01*
X100229139Y-112303865D01*
X100242554Y-112234586D01*
X100267744Y-112173961D01*
X100307154Y-112115567D01*
X100345702Y-112071302D01*
X100417594Y-112005484D01*
X100492687Y-111960053D01*
X100575438Y-111932850D01*
X100653072Y-111922576D01*
X100756957Y-111926571D01*
G37*
X100756957Y-111926571D02*
X100853232Y-111950809D01*
X100939816Y-111993641D01*
X101014627Y-112053419D01*
X101075582Y-112128494D01*
X101120601Y-112217220D01*
X101146864Y-112313530D01*
X101152714Y-112410795D01*
X101137860Y-112504654D01*
X101104160Y-112592511D01*
X101053472Y-112671770D01*
X100987655Y-112739836D01*
X100908566Y-112794112D01*
X100818066Y-112832002D01*
X100766800Y-112844426D01*
X100722302Y-112851947D01*
X100688001Y-112854919D01*
X100655040Y-112853094D01*
X100614566Y-112846225D01*
X100581469Y-112839250D01*
X100488053Y-112807741D01*
X100404381Y-112756617D01*
X100332335Y-112687429D01*
X100273800Y-112601728D01*
X100259852Y-112574489D01*
X100243414Y-112538122D01*
X100233106Y-112507582D01*
X100227540Y-112475450D01*
X100225331Y-112434307D01*
X100225052Y-112388222D01*
X100229139Y-112303865D01*
X100242554Y-112234586D01*
X100267744Y-112173961D01*
X100307154Y-112115567D01*
X100345702Y-112071302D01*
X100417594Y-112005484D01*
X100492687Y-111960053D01*
X100575438Y-111932850D01*
X100653072Y-111922576D01*
X100756957Y-111926571D01*
G36*
X98317206Y-117169146D02*
G01*
X98386614Y-117169518D01*
X98439003Y-117170385D01*
X98477153Y-117171946D01*
X98503841Y-117174403D01*
X98521847Y-117177957D01*
X98533951Y-117182810D01*
X98542931Y-117189161D01*
X98546182Y-117192084D01*
X98565957Y-117223142D01*
X98569518Y-117258828D01*
X98556509Y-117290510D01*
X98550494Y-117296913D01*
X98540765Y-117303121D01*
X98525099Y-117307910D01*
X98500592Y-117311514D01*
X98464339Y-117314164D01*
X98413435Y-117316095D01*
X98344974Y-117317539D01*
X98282383Y-117318418D01*
X98034666Y-117321467D01*
X98031281Y-117386378D01*
X98027895Y-117451289D01*
X98196042Y-117451289D01*
X98269041Y-117451919D01*
X98322483Y-117454553D01*
X98359372Y-117460309D01*
X98382712Y-117470304D01*
X98395506Y-117485656D01*
X98400758Y-117507482D01*
X98401555Y-117527738D01*
X98399077Y-117552592D01*
X98389723Y-117570906D01*
X98370617Y-117583637D01*
X98338882Y-117591741D01*
X98291641Y-117596176D01*
X98226017Y-117597899D01*
X98190199Y-117598045D01*
X98029022Y-117598045D01*
X98029022Y-117756089D01*
X98277378Y-117756089D01*
X98358787Y-117756202D01*
X98420658Y-117756712D01*
X98466032Y-117757870D01*
X98497946Y-117759930D01*
X98519441Y-117763146D01*
X98533557Y-117767772D01*
X98543332Y-117774059D01*
X98548311Y-117778667D01*
X98565390Y-117805560D01*
X98570889Y-117829467D01*
X98563037Y-117858667D01*
X98548311Y-117880267D01*
X98540454Y-117887066D01*
X98530312Y-117892346D01*
X98515156Y-117896298D01*
X98492259Y-117899113D01*
X98458891Y-117900982D01*
X98412325Y-117902098D01*
X98349833Y-117902651D01*
X98268686Y-117902833D01*
X98226578Y-117902845D01*
X98136402Y-117902765D01*
X98066076Y-117902398D01*
X98012871Y-117901552D01*
X97974060Y-117900036D01*
X97946913Y-117897659D01*
X97928702Y-117894229D01*
X97916700Y-117889554D01*
X97908178Y-117883444D01*
X97904844Y-117880267D01*
X97898245Y-117872670D01*
X97893073Y-117862870D01*
X97889154Y-117848239D01*
X97886316Y-117826152D01*
X97884385Y-117793982D01*
X97883188Y-117749103D01*
X97882552Y-117688889D01*
X97882303Y-117610713D01*
X97882266Y-117537923D01*
X97882300Y-117444707D01*
X97882535Y-117371431D01*
X97883170Y-117315458D01*
X97884406Y-117274151D01*
X97886444Y-117244872D01*
X97889483Y-117224984D01*
X97893723Y-117211850D01*
X97899365Y-117202832D01*
X97906609Y-117195293D01*
X97908394Y-117193612D01*
X97917055Y-117186172D01*
X97927118Y-117180409D01*
X97941375Y-117176112D01*
X97962617Y-117173064D01*
X97993636Y-117171051D01*
X98037223Y-117169860D01*
X98096169Y-117169275D01*
X98173266Y-117169083D01*
X98227999Y-117169067D01*
X98317206Y-117169146D01*
G37*
X98317206Y-117169146D02*
X98386614Y-117169518D01*
X98439003Y-117170385D01*
X98477153Y-117171946D01*
X98503841Y-117174403D01*
X98521847Y-117177957D01*
X98533951Y-117182810D01*
X98542931Y-117189161D01*
X98546182Y-117192084D01*
X98565957Y-117223142D01*
X98569518Y-117258828D01*
X98556509Y-117290510D01*
X98550494Y-117296913D01*
X98540765Y-117303121D01*
X98525099Y-117307910D01*
X98500592Y-117311514D01*
X98464339Y-117314164D01*
X98413435Y-117316095D01*
X98344974Y-117317539D01*
X98282383Y-117318418D01*
X98034666Y-117321467D01*
X98031281Y-117386378D01*
X98027895Y-117451289D01*
X98196042Y-117451289D01*
X98269041Y-117451919D01*
X98322483Y-117454553D01*
X98359372Y-117460309D01*
X98382712Y-117470304D01*
X98395506Y-117485656D01*
X98400758Y-117507482D01*
X98401555Y-117527738D01*
X98399077Y-117552592D01*
X98389723Y-117570906D01*
X98370617Y-117583637D01*
X98338882Y-117591741D01*
X98291641Y-117596176D01*
X98226017Y-117597899D01*
X98190199Y-117598045D01*
X98029022Y-117598045D01*
X98029022Y-117756089D01*
X98277378Y-117756089D01*
X98358787Y-117756202D01*
X98420658Y-117756712D01*
X98466032Y-117757870D01*
X98497946Y-117759930D01*
X98519441Y-117763146D01*
X98533557Y-117767772D01*
X98543332Y-117774059D01*
X98548311Y-117778667D01*
X98565390Y-117805560D01*
X98570889Y-117829467D01*
X98563037Y-117858667D01*
X98548311Y-117880267D01*
X98540454Y-117887066D01*
X98530312Y-117892346D01*
X98515156Y-117896298D01*
X98492259Y-117899113D01*
X98458891Y-117900982D01*
X98412325Y-117902098D01*
X98349833Y-117902651D01*
X98268686Y-117902833D01*
X98226578Y-117902845D01*
X98136402Y-117902765D01*
X98066076Y-117902398D01*
X98012871Y-117901552D01*
X97974060Y-117900036D01*
X97946913Y-117897659D01*
X97928702Y-117894229D01*
X97916700Y-117889554D01*
X97908178Y-117883444D01*
X97904844Y-117880267D01*
X97898245Y-117872670D01*
X97893073Y-117862870D01*
X97889154Y-117848239D01*
X97886316Y-117826152D01*
X97884385Y-117793982D01*
X97883188Y-117749103D01*
X97882552Y-117688889D01*
X97882303Y-117610713D01*
X97882266Y-117537923D01*
X97882300Y-117444707D01*
X97882535Y-117371431D01*
X97883170Y-117315458D01*
X97884406Y-117274151D01*
X97886444Y-117244872D01*
X97889483Y-117224984D01*
X97893723Y-117211850D01*
X97899365Y-117202832D01*
X97906609Y-117195293D01*
X97908394Y-117193612D01*
X97917055Y-117186172D01*
X97927118Y-117180409D01*
X97941375Y-117176112D01*
X97962617Y-117173064D01*
X97993636Y-117171051D01*
X98037223Y-117169860D01*
X98096169Y-117169275D01*
X98173266Y-117169083D01*
X98227999Y-117169067D01*
X98317206Y-117169146D01*
G36*
X109216507Y-114372245D02*
G01*
X109216526Y-114606662D01*
X109216552Y-114819603D01*
X109216625Y-115012168D01*
X109216782Y-115185459D01*
X109217064Y-115340576D01*
X109217509Y-115478620D01*
X109218156Y-115600692D01*
X109219045Y-115707894D01*
X109220213Y-115801326D01*
X109221701Y-115882090D01*
X109223546Y-115951286D01*
X109225789Y-116010015D01*
X109228469Y-116059379D01*
X109231623Y-116100478D01*
X109235292Y-116134413D01*
X109239513Y-116162286D01*
X109244327Y-116185198D01*
X109249773Y-116204249D01*
X109255888Y-116220540D01*
X109262712Y-116235173D01*
X109270285Y-116249249D01*
X109278645Y-116263868D01*
X109283839Y-116272974D01*
X109318104Y-116333689D01*
X108459955Y-116333689D01*
X108459955Y-116237733D01*
X108459224Y-116194370D01*
X108457272Y-116161205D01*
X108454463Y-116143424D01*
X108453221Y-116141778D01*
X108441799Y-116148662D01*
X108419084Y-116166505D01*
X108396385Y-116185879D01*
X108341800Y-116226614D01*
X108272321Y-116267617D01*
X108195270Y-116305123D01*
X108117965Y-116335364D01*
X108087113Y-116345012D01*
X108018616Y-116359578D01*
X107935764Y-116369539D01*
X107846371Y-116374583D01*
X107758248Y-116374396D01*
X107679207Y-116368666D01*
X107641511Y-116362858D01*
X107503414Y-116324797D01*
X107376113Y-116267073D01*
X107260292Y-116190211D01*
X107156637Y-116094739D01*
X107065833Y-115981179D01*
X106999031Y-115870381D01*
X106944164Y-115753625D01*
X106902163Y-115634276D01*
X106872167Y-115508283D01*
X106853311Y-115371594D01*
X106844732Y-115220158D01*
X106844006Y-115142711D01*
X106846100Y-115085934D01*
X107675217Y-115085934D01*
X107675424Y-115179002D01*
X107678337Y-115266692D01*
X107684000Y-115343772D01*
X107692455Y-115405009D01*
X107695038Y-115417350D01*
X107726840Y-115524633D01*
X107768498Y-115611658D01*
X107820363Y-115678642D01*
X107882781Y-115725805D01*
X107956100Y-115753365D01*
X108040669Y-115761541D01*
X108136835Y-115750551D01*
X108200311Y-115734829D01*
X108249454Y-115716639D01*
X108303583Y-115690791D01*
X108344244Y-115667089D01*
X108414800Y-115620721D01*
X108414800Y-114470530D01*
X108347392Y-114426962D01*
X108268867Y-114386040D01*
X108184681Y-114359389D01*
X108099557Y-114347465D01*
X108018216Y-114350722D01*
X107945380Y-114369615D01*
X107913426Y-114385184D01*
X107855501Y-114428181D01*
X107806544Y-114484953D01*
X107765390Y-114557575D01*
X107730874Y-114648121D01*
X107701833Y-114758666D01*
X107700552Y-114764533D01*
X107690381Y-114826788D01*
X107682739Y-114904594D01*
X107677670Y-114992720D01*
X107675217Y-115085934D01*
X106846100Y-115085934D01*
X106851857Y-114929895D01*
X106873802Y-114734059D01*
X106909786Y-114555332D01*
X106959759Y-114393845D01*
X107023668Y-114249726D01*
X107101462Y-114123106D01*
X107193089Y-114014115D01*
X107298497Y-113922883D01*
X107343662Y-113891932D01*
X107444611Y-113835785D01*
X107547901Y-113796174D01*
X107657989Y-113772014D01*
X107779330Y-113762219D01*
X107871836Y-113763265D01*
X108001490Y-113774231D01*
X108114084Y-113796046D01*
X108212875Y-113829714D01*
X108301121Y-113876236D01*
X108349986Y-113910448D01*
X108379353Y-113932362D01*
X108401043Y-113947333D01*
X108409253Y-113951733D01*
X108410868Y-113940904D01*
X108412159Y-113910251D01*
X108413138Y-113862526D01*
X108413817Y-113800479D01*
X108414210Y-113726862D01*
X108414330Y-113644427D01*
X108414188Y-113555925D01*
X108413797Y-113464107D01*
X108413171Y-113371724D01*
X108412320Y-113281528D01*
X108411260Y-113196271D01*
X108410001Y-113118703D01*
X108408556Y-113051576D01*
X108406938Y-112997641D01*
X108405161Y-112959650D01*
X108404669Y-112952667D01*
X108397092Y-112882251D01*
X108385531Y-112827102D01*
X108367792Y-112779981D01*
X108341682Y-112733647D01*
X108335415Y-112724067D01*
X108310983Y-112687378D01*
X109216311Y-112687378D01*
X109216507Y-114372245D01*
G37*
X109216507Y-114372245D02*
X109216526Y-114606662D01*
X109216552Y-114819603D01*
X109216625Y-115012168D01*
X109216782Y-115185459D01*
X109217064Y-115340576D01*
X109217509Y-115478620D01*
X109218156Y-115600692D01*
X109219045Y-115707894D01*
X109220213Y-115801326D01*
X109221701Y-115882090D01*
X109223546Y-115951286D01*
X109225789Y-116010015D01*
X109228469Y-116059379D01*
X109231623Y-116100478D01*
X109235292Y-116134413D01*
X109239513Y-116162286D01*
X109244327Y-116185198D01*
X109249773Y-116204249D01*
X109255888Y-116220540D01*
X109262712Y-116235173D01*
X109270285Y-116249249D01*
X109278645Y-116263868D01*
X109283839Y-116272974D01*
X109318104Y-116333689D01*
X108459955Y-116333689D01*
X108459955Y-116237733D01*
X108459224Y-116194370D01*
X108457272Y-116161205D01*
X108454463Y-116143424D01*
X108453221Y-116141778D01*
X108441799Y-116148662D01*
X108419084Y-116166505D01*
X108396385Y-116185879D01*
X108341800Y-116226614D01*
X108272321Y-116267617D01*
X108195270Y-116305123D01*
X108117965Y-116335364D01*
X108087113Y-116345012D01*
X108018616Y-116359578D01*
X107935764Y-116369539D01*
X107846371Y-116374583D01*
X107758248Y-116374396D01*
X107679207Y-116368666D01*
X107641511Y-116362858D01*
X107503414Y-116324797D01*
X107376113Y-116267073D01*
X107260292Y-116190211D01*
X107156637Y-116094739D01*
X107065833Y-115981179D01*
X106999031Y-115870381D01*
X106944164Y-115753625D01*
X106902163Y-115634276D01*
X106872167Y-115508283D01*
X106853311Y-115371594D01*
X106844732Y-115220158D01*
X106844006Y-115142711D01*
X106846100Y-115085934D01*
X107675217Y-115085934D01*
X107675424Y-115179002D01*
X107678337Y-115266692D01*
X107684000Y-115343772D01*
X107692455Y-115405009D01*
X107695038Y-115417350D01*
X107726840Y-115524633D01*
X107768498Y-115611658D01*
X107820363Y-115678642D01*
X107882781Y-115725805D01*
X107956100Y-115753365D01*
X108040669Y-115761541D01*
X108136835Y-115750551D01*
X108200311Y-115734829D01*
X108249454Y-115716639D01*
X108303583Y-115690791D01*
X108344244Y-115667089D01*
X108414800Y-115620721D01*
X108414800Y-114470530D01*
X108347392Y-114426962D01*
X108268867Y-114386040D01*
X108184681Y-114359389D01*
X108099557Y-114347465D01*
X108018216Y-114350722D01*
X107945380Y-114369615D01*
X107913426Y-114385184D01*
X107855501Y-114428181D01*
X107806544Y-114484953D01*
X107765390Y-114557575D01*
X107730874Y-114648121D01*
X107701833Y-114758666D01*
X107700552Y-114764533D01*
X107690381Y-114826788D01*
X107682739Y-114904594D01*
X107677670Y-114992720D01*
X107675217Y-115085934D01*
X106846100Y-115085934D01*
X106851857Y-114929895D01*
X106873802Y-114734059D01*
X106909786Y-114555332D01*
X106959759Y-114393845D01*
X107023668Y-114249726D01*
X107101462Y-114123106D01*
X107193089Y-114014115D01*
X107298497Y-113922883D01*
X107343662Y-113891932D01*
X107444611Y-113835785D01*
X107547901Y-113796174D01*
X107657989Y-113772014D01*
X107779330Y-113762219D01*
X107871836Y-113763265D01*
X108001490Y-113774231D01*
X108114084Y-113796046D01*
X108212875Y-113829714D01*
X108301121Y-113876236D01*
X108349986Y-113910448D01*
X108379353Y-113932362D01*
X108401043Y-113947333D01*
X108409253Y-113951733D01*
X108410868Y-113940904D01*
X108412159Y-113910251D01*
X108413138Y-113862526D01*
X108413817Y-113800479D01*
X108414210Y-113726862D01*
X108414330Y-113644427D01*
X108414188Y-113555925D01*
X108413797Y-113464107D01*
X108413171Y-113371724D01*
X108412320Y-113281528D01*
X108411260Y-113196271D01*
X108410001Y-113118703D01*
X108408556Y-113051576D01*
X108406938Y-112997641D01*
X108405161Y-112959650D01*
X108404669Y-112952667D01*
X108397092Y-112882251D01*
X108385531Y-112827102D01*
X108367792Y-112779981D01*
X108341682Y-112733647D01*
X108335415Y-112724067D01*
X108310983Y-112687378D01*
X109216311Y-112687378D01*
X109216507Y-114372245D01*
G36*
X109258823Y-117174533D02*
G01*
X109290202Y-117196776D01*
X109317911Y-117224485D01*
X109317911Y-117533920D01*
X109317838Y-117625799D01*
X109317495Y-117697840D01*
X109316692Y-117752780D01*
X109315241Y-117793360D01*
X109312952Y-117822317D01*
X109309636Y-117842391D01*
X109305105Y-117856321D01*
X109299169Y-117866845D01*
X109294514Y-117873100D01*
X109263783Y-117897673D01*
X109228496Y-117900341D01*
X109196245Y-117885271D01*
X109185588Y-117876374D01*
X109178464Y-117864557D01*
X109174167Y-117845526D01*
X109171991Y-117814992D01*
X109171228Y-117768662D01*
X109171155Y-117732871D01*
X109171155Y-117598045D01*
X108674444Y-117598045D01*
X108674444Y-117720700D01*
X108673931Y-117776787D01*
X108671876Y-117815333D01*
X108667508Y-117841361D01*
X108660056Y-117859897D01*
X108651047Y-117873100D01*
X108620144Y-117897604D01*
X108585196Y-117900506D01*
X108551738Y-117883089D01*
X108542604Y-117873959D01*
X108536152Y-117861855D01*
X108531897Y-117843001D01*
X108529352Y-117813620D01*
X108528029Y-117769937D01*
X108527443Y-117708175D01*
X108527375Y-117694000D01*
X108526891Y-117577631D01*
X108526641Y-117481727D01*
X108526723Y-117404177D01*
X108527231Y-117342869D01*
X108528262Y-117295690D01*
X108529913Y-117260530D01*
X108532279Y-117235276D01*
X108535457Y-117217817D01*
X108539544Y-117206041D01*
X108544634Y-117197835D01*
X108550266Y-117191645D01*
X108582128Y-117171844D01*
X108615357Y-117174533D01*
X108646735Y-117196776D01*
X108659433Y-117211126D01*
X108667526Y-117226978D01*
X108672042Y-117249554D01*
X108674006Y-117284078D01*
X108674444Y-117335776D01*
X108674444Y-117451289D01*
X109171155Y-117451289D01*
X109171155Y-117332756D01*
X109171662Y-117278148D01*
X109173698Y-117241275D01*
X109178035Y-117217307D01*
X109185447Y-117201415D01*
X109193733Y-117191645D01*
X109225594Y-117171844D01*
X109258823Y-117174533D01*
G37*
X109258823Y-117174533D02*
X109290202Y-117196776D01*
X109317911Y-117224485D01*
X109317911Y-117533920D01*
X109317838Y-117625799D01*
X109317495Y-117697840D01*
X109316692Y-117752780D01*
X109315241Y-117793360D01*
X109312952Y-117822317D01*
X109309636Y-117842391D01*
X109305105Y-117856321D01*
X109299169Y-117866845D01*
X109294514Y-117873100D01*
X109263783Y-117897673D01*
X109228496Y-117900341D01*
X109196245Y-117885271D01*
X109185588Y-117876374D01*
X109178464Y-117864557D01*
X109174167Y-117845526D01*
X109171991Y-117814992D01*
X109171228Y-117768662D01*
X109171155Y-117732871D01*
X109171155Y-117598045D01*
X108674444Y-117598045D01*
X108674444Y-117720700D01*
X108673931Y-117776787D01*
X108671876Y-117815333D01*
X108667508Y-117841361D01*
X108660056Y-117859897D01*
X108651047Y-117873100D01*
X108620144Y-117897604D01*
X108585196Y-117900506D01*
X108551738Y-117883089D01*
X108542604Y-117873959D01*
X108536152Y-117861855D01*
X108531897Y-117843001D01*
X108529352Y-117813620D01*
X108528029Y-117769937D01*
X108527443Y-117708175D01*
X108527375Y-117694000D01*
X108526891Y-117577631D01*
X108526641Y-117481727D01*
X108526723Y-117404177D01*
X108527231Y-117342869D01*
X108528262Y-117295690D01*
X108529913Y-117260530D01*
X108532279Y-117235276D01*
X108535457Y-117217817D01*
X108539544Y-117206041D01*
X108544634Y-117197835D01*
X108550266Y-117191645D01*
X108582128Y-117171844D01*
X108615357Y-117174533D01*
X108646735Y-117196776D01*
X108659433Y-117211126D01*
X108667526Y-117226978D01*
X108672042Y-117249554D01*
X108674006Y-117284078D01*
X108674444Y-117335776D01*
X108674444Y-117451289D01*
X109171155Y-117451289D01*
X109171155Y-117332756D01*
X109171662Y-117278148D01*
X109173698Y-117241275D01*
X109178035Y-117217307D01*
X109185447Y-117201415D01*
X109193733Y-117191645D01*
X109225594Y-117171844D01*
X109258823Y-117174533D01*
G36*
X104048309Y-117169275D02*
G01*
X104177288Y-117173636D01*
X104286991Y-117186861D01*
X104379226Y-117209741D01*
X104455802Y-117243070D01*
X104518527Y-117287638D01*
X104569212Y-117344236D01*
X104609663Y-117413658D01*
X104610459Y-117415351D01*
X104634601Y-117477483D01*
X104643203Y-117532509D01*
X104636231Y-117587887D01*
X104613654Y-117651073D01*
X104609372Y-117660689D01*
X104580172Y-117716966D01*
X104547356Y-117760451D01*
X104505002Y-117797417D01*
X104447190Y-117834135D01*
X104443831Y-117836052D01*
X104393504Y-117860227D01*
X104336621Y-117878282D01*
X104269527Y-117890839D01*
X104188565Y-117898522D01*
X104090082Y-117901953D01*
X104055286Y-117902251D01*
X103889594Y-117902845D01*
X103866197Y-117873100D01*
X103859257Y-117863319D01*
X103853842Y-117851897D01*
X103849765Y-117836095D01*
X103846837Y-117813175D01*
X103844867Y-117780396D01*
X103844225Y-117756089D01*
X104000844Y-117756089D01*
X104094726Y-117756089D01*
X104149664Y-117754483D01*
X104206060Y-117750255D01*
X104252345Y-117744292D01*
X104255139Y-117743790D01*
X104337348Y-117721736D01*
X104401114Y-117688600D01*
X104448452Y-117642847D01*
X104481382Y-117582939D01*
X104487108Y-117567061D01*
X104492721Y-117542333D01*
X104490291Y-117517902D01*
X104478467Y-117485400D01*
X104471340Y-117469434D01*
X104448000Y-117427006D01*
X104419880Y-117397240D01*
X104388940Y-117376511D01*
X104326966Y-117349537D01*
X104247651Y-117329998D01*
X104155253Y-117318746D01*
X104088333Y-117316270D01*
X104000844Y-117315822D01*
X104000844Y-117756089D01*
X103844225Y-117756089D01*
X103843668Y-117735021D01*
X103843050Y-117674311D01*
X103842825Y-117595526D01*
X103842800Y-117533920D01*
X103842800Y-117224485D01*
X103870509Y-117196776D01*
X103882806Y-117185544D01*
X103896103Y-117177853D01*
X103914672Y-117173040D01*
X103942786Y-117170446D01*
X103984717Y-117169410D01*
X104044737Y-117169270D01*
X104048309Y-117169275D01*
G37*
X104048309Y-117169275D02*
X104177288Y-117173636D01*
X104286991Y-117186861D01*
X104379226Y-117209741D01*
X104455802Y-117243070D01*
X104518527Y-117287638D01*
X104569212Y-117344236D01*
X104609663Y-117413658D01*
X104610459Y-117415351D01*
X104634601Y-117477483D01*
X104643203Y-117532509D01*
X104636231Y-117587887D01*
X104613654Y-117651073D01*
X104609372Y-117660689D01*
X104580172Y-117716966D01*
X104547356Y-117760451D01*
X104505002Y-117797417D01*
X104447190Y-117834135D01*
X104443831Y-117836052D01*
X104393504Y-117860227D01*
X104336621Y-117878282D01*
X104269527Y-117890839D01*
X104188565Y-117898522D01*
X104090082Y-117901953D01*
X104055286Y-117902251D01*
X103889594Y-117902845D01*
X103866197Y-117873100D01*
X103859257Y-117863319D01*
X103853842Y-117851897D01*
X103849765Y-117836095D01*
X103846837Y-117813175D01*
X103844867Y-117780396D01*
X103844225Y-117756089D01*
X104000844Y-117756089D01*
X104094726Y-117756089D01*
X104149664Y-117754483D01*
X104206060Y-117750255D01*
X104252345Y-117744292D01*
X104255139Y-117743790D01*
X104337348Y-117721736D01*
X104401114Y-117688600D01*
X104448452Y-117642847D01*
X104481382Y-117582939D01*
X104487108Y-117567061D01*
X104492721Y-117542333D01*
X104490291Y-117517902D01*
X104478467Y-117485400D01*
X104471340Y-117469434D01*
X104448000Y-117427006D01*
X104419880Y-117397240D01*
X104388940Y-117376511D01*
X104326966Y-117349537D01*
X104247651Y-117329998D01*
X104155253Y-117318746D01*
X104088333Y-117316270D01*
X104000844Y-117315822D01*
X104000844Y-117756089D01*
X103844225Y-117756089D01*
X103843668Y-117735021D01*
X103843050Y-117674311D01*
X103842825Y-117595526D01*
X103842800Y-117533920D01*
X103842800Y-117224485D01*
X103870509Y-117196776D01*
X103882806Y-117185544D01*
X103896103Y-117177853D01*
X103914672Y-117173040D01*
X103942786Y-117170446D01*
X103984717Y-117169410D01*
X104044737Y-117169270D01*
X104048309Y-117169275D01*
G36*
X101079919Y-117174599D02*
G01*
X101148435Y-117186095D01*
X101201057Y-117203967D01*
X101235292Y-117227499D01*
X101244621Y-117240924D01*
X101254107Y-117272148D01*
X101247723Y-117300395D01*
X101227570Y-117327182D01*
X101196255Y-117339713D01*
X101150817Y-117338696D01*
X101115674Y-117331906D01*
X101037581Y-117318971D01*
X100957774Y-117317742D01*
X100868445Y-117328241D01*
X100843771Y-117332690D01*
X100760709Y-117356108D01*
X100695727Y-117390945D01*
X100649539Y-117436604D01*
X100622855Y-117492494D01*
X100617337Y-117521388D01*
X100620949Y-117580012D01*
X100644271Y-117631879D01*
X100685176Y-117675978D01*
X100741541Y-117711299D01*
X100811240Y-117736829D01*
X100892148Y-117751559D01*
X100982140Y-117754478D01*
X101079090Y-117744575D01*
X101084564Y-117743641D01*
X101123125Y-117736459D01*
X101144506Y-117729521D01*
X101153773Y-117719227D01*
X101155994Y-117701976D01*
X101156044Y-117692841D01*
X101156044Y-117654489D01*
X101087569Y-117654489D01*
X101027100Y-117650347D01*
X100985835Y-117637147D01*
X100961825Y-117613730D01*
X100953123Y-117578936D01*
X100953017Y-117574394D01*
X100958108Y-117544654D01*
X100975567Y-117523419D01*
X101008061Y-117509366D01*
X101058257Y-117501173D01*
X101106877Y-117498161D01*
X101177544Y-117496433D01*
X101228802Y-117499070D01*
X101263761Y-117508800D01*
X101285530Y-117528353D01*
X101297220Y-117560456D01*
X101301940Y-117607838D01*
X101302800Y-117670071D01*
X101301391Y-117739535D01*
X101297152Y-117786786D01*
X101290064Y-117812012D01*
X101288689Y-117813988D01*
X101249772Y-117845508D01*
X101192714Y-117870470D01*
X101121131Y-117888340D01*
X101038642Y-117898586D01*
X100948861Y-117900673D01*
X100855408Y-117894068D01*
X100800444Y-117885956D01*
X100714234Y-117861554D01*
X100634108Y-117821662D01*
X100567023Y-117769887D01*
X100556827Y-117759539D01*
X100523698Y-117716035D01*
X100493806Y-117662118D01*
X100470643Y-117605592D01*
X100457702Y-117554259D01*
X100456142Y-117534544D01*
X100462782Y-117493419D01*
X100480432Y-117442252D01*
X100505703Y-117388394D01*
X100535211Y-117339195D01*
X100561281Y-117306334D01*
X100622235Y-117257452D01*
X100701031Y-117218545D01*
X100794843Y-117190494D01*
X100900850Y-117174179D01*
X100998000Y-117170192D01*
X101079919Y-117174599D01*
G37*
X101079919Y-117174599D02*
X101148435Y-117186095D01*
X101201057Y-117203967D01*
X101235292Y-117227499D01*
X101244621Y-117240924D01*
X101254107Y-117272148D01*
X101247723Y-117300395D01*
X101227570Y-117327182D01*
X101196255Y-117339713D01*
X101150817Y-117338696D01*
X101115674Y-117331906D01*
X101037581Y-117318971D01*
X100957774Y-117317742D01*
X100868445Y-117328241D01*
X100843771Y-117332690D01*
X100760709Y-117356108D01*
X100695727Y-117390945D01*
X100649539Y-117436604D01*
X100622855Y-117492494D01*
X100617337Y-117521388D01*
X100620949Y-117580012D01*
X100644271Y-117631879D01*
X100685176Y-117675978D01*
X100741541Y-117711299D01*
X100811240Y-117736829D01*
X100892148Y-117751559D01*
X100982140Y-117754478D01*
X101079090Y-117744575D01*
X101084564Y-117743641D01*
X101123125Y-117736459D01*
X101144506Y-117729521D01*
X101153773Y-117719227D01*
X101155994Y-117701976D01*
X101156044Y-117692841D01*
X101156044Y-117654489D01*
X101087569Y-117654489D01*
X101027100Y-117650347D01*
X100985835Y-117637147D01*
X100961825Y-117613730D01*
X100953123Y-117578936D01*
X100953017Y-117574394D01*
X100958108Y-117544654D01*
X100975567Y-117523419D01*
X101008061Y-117509366D01*
X101058257Y-117501173D01*
X101106877Y-117498161D01*
X101177544Y-117496433D01*
X101228802Y-117499070D01*
X101263761Y-117508800D01*
X101285530Y-117528353D01*
X101297220Y-117560456D01*
X101301940Y-117607838D01*
X101302800Y-117670071D01*
X101301391Y-117739535D01*
X101297152Y-117786786D01*
X101290064Y-117812012D01*
X101288689Y-117813988D01*
X101249772Y-117845508D01*
X101192714Y-117870470D01*
X101121131Y-117888340D01*
X101038642Y-117898586D01*
X100948861Y-117900673D01*
X100855408Y-117894068D01*
X100800444Y-117885956D01*
X100714234Y-117861554D01*
X100634108Y-117821662D01*
X100567023Y-117769887D01*
X100556827Y-117759539D01*
X100523698Y-117716035D01*
X100493806Y-117662118D01*
X100470643Y-117605592D01*
X100457702Y-117554259D01*
X100456142Y-117534544D01*
X100462782Y-117493419D01*
X100480432Y-117442252D01*
X100505703Y-117388394D01*
X100535211Y-117339195D01*
X100561281Y-117306334D01*
X100622235Y-117257452D01*
X100701031Y-117218545D01*
X100794843Y-117190494D01*
X100900850Y-117174179D01*
X100998000Y-117170192D01*
X101079919Y-117174599D01*
G36*
X107993065Y-117169163D02*
G01*
X108071772Y-117169542D01*
X108132863Y-117170333D01*
X108178817Y-117171670D01*
X108212114Y-117173683D01*
X108235236Y-117176506D01*
X108250662Y-117180269D01*
X108260871Y-117185105D01*
X108265813Y-117188822D01*
X108291457Y-117221358D01*
X108294559Y-117255138D01*
X108278711Y-117285826D01*
X108268348Y-117298089D01*
X108257196Y-117306450D01*
X108241035Y-117311657D01*
X108215642Y-117314457D01*
X108176798Y-117315596D01*
X108120280Y-117315821D01*
X108109180Y-117315822D01*
X107963244Y-117315822D01*
X107963244Y-117586756D01*
X107963148Y-117672154D01*
X107962711Y-117737864D01*
X107961712Y-117786774D01*
X107959928Y-117821773D01*
X107957137Y-117845749D01*
X107953117Y-117861593D01*
X107947645Y-117872191D01*
X107940666Y-117880267D01*
X107907734Y-117900112D01*
X107873354Y-117898548D01*
X107842176Y-117875906D01*
X107839886Y-117873100D01*
X107832429Y-117862492D01*
X107826747Y-117850081D01*
X107822601Y-117832850D01*
X107819750Y-117807784D01*
X107817954Y-117771867D01*
X107816972Y-117722083D01*
X107816564Y-117655417D01*
X107816489Y-117579589D01*
X107816489Y-117315822D01*
X107677127Y-117315822D01*
X107617322Y-117315418D01*
X107575918Y-117313840D01*
X107548748Y-117310547D01*
X107531646Y-117304992D01*
X107520443Y-117296631D01*
X107519083Y-117295178D01*
X107502725Y-117261939D01*
X107504172Y-117224362D01*
X107522978Y-117191645D01*
X107530250Y-117185298D01*
X107539627Y-117180266D01*
X107553609Y-117176396D01*
X107574696Y-117173537D01*
X107605389Y-117171535D01*
X107648189Y-117170239D01*
X107705595Y-117169498D01*
X107780110Y-117169158D01*
X107874233Y-117169068D01*
X107894260Y-117169067D01*
X107993065Y-117169163D01*
G37*
X107993065Y-117169163D02*
X108071772Y-117169542D01*
X108132863Y-117170333D01*
X108178817Y-117171670D01*
X108212114Y-117173683D01*
X108235236Y-117176506D01*
X108250662Y-117180269D01*
X108260871Y-117185105D01*
X108265813Y-117188822D01*
X108291457Y-117221358D01*
X108294559Y-117255138D01*
X108278711Y-117285826D01*
X108268348Y-117298089D01*
X108257196Y-117306450D01*
X108241035Y-117311657D01*
X108215642Y-117314457D01*
X108176798Y-117315596D01*
X108120280Y-117315821D01*
X108109180Y-117315822D01*
X107963244Y-117315822D01*
X107963244Y-117586756D01*
X107963148Y-117672154D01*
X107962711Y-117737864D01*
X107961712Y-117786774D01*
X107959928Y-117821773D01*
X107957137Y-117845749D01*
X107953117Y-117861593D01*
X107947645Y-117872191D01*
X107940666Y-117880267D01*
X107907734Y-117900112D01*
X107873354Y-117898548D01*
X107842176Y-117875906D01*
X107839886Y-117873100D01*
X107832429Y-117862492D01*
X107826747Y-117850081D01*
X107822601Y-117832850D01*
X107819750Y-117807784D01*
X107817954Y-117771867D01*
X107816972Y-117722083D01*
X107816564Y-117655417D01*
X107816489Y-117579589D01*
X107816489Y-117315822D01*
X107677127Y-117315822D01*
X107617322Y-117315418D01*
X107575918Y-117313840D01*
X107548748Y-117310547D01*
X107531646Y-117304992D01*
X107520443Y-117296631D01*
X107519083Y-117295178D01*
X107502725Y-117261939D01*
X107504172Y-117224362D01*
X107522978Y-117191645D01*
X107530250Y-117185298D01*
X107539627Y-117180266D01*
X107553609Y-117176396D01*
X107574696Y-117173537D01*
X107605389Y-117171535D01*
X107648189Y-117170239D01*
X107705595Y-117169498D01*
X107780110Y-117169158D01*
X107874233Y-117169068D01*
X107894260Y-117169067D01*
X107993065Y-117169163D01*
G36*
X103358429Y-112849071D02*
G01*
X103518570Y-112870245D01*
X103682510Y-112910385D01*
X103852313Y-112969889D01*
X104030043Y-113049154D01*
X104041310Y-113054699D01*
X104099005Y-113082725D01*
X104150552Y-113106802D01*
X104192191Y-113125249D01*
X104220162Y-113136386D01*
X104229733Y-113138933D01*
X104248950Y-113143941D01*
X104253561Y-113148147D01*
X104248458Y-113158580D01*
X104232418Y-113184868D01*
X104207288Y-113224257D01*
X104174914Y-113273991D01*
X104137143Y-113331315D01*
X104095822Y-113393476D01*
X104052798Y-113457718D01*
X104009917Y-113521285D01*
X103969026Y-113581425D01*
X103931971Y-113635380D01*
X103900600Y-113680397D01*
X103876759Y-113713721D01*
X103862294Y-113732597D01*
X103860309Y-113734787D01*
X103850191Y-113730138D01*
X103827850Y-113712962D01*
X103797280Y-113686440D01*
X103781536Y-113671964D01*
X103685047Y-113596682D01*
X103578336Y-113541241D01*
X103462832Y-113506141D01*
X103339962Y-113491880D01*
X103270561Y-113493051D01*
X103149423Y-113510212D01*
X103040205Y-113546094D01*
X102942582Y-113600959D01*
X102856228Y-113675070D01*
X102780815Y-113768688D01*
X102716018Y-113882076D01*
X102678601Y-113968667D01*
X102634748Y-114104366D01*
X102602428Y-114251850D01*
X102581557Y-114407314D01*
X102572051Y-114566956D01*
X102573827Y-114726973D01*
X102586803Y-114883561D01*
X102610894Y-115032918D01*
X102646018Y-115171240D01*
X102692092Y-115294724D01*
X102708373Y-115328978D01*
X102776620Y-115443064D01*
X102857079Y-115539557D01*
X102948570Y-115617670D01*
X103049911Y-115676617D01*
X103159920Y-115715612D01*
X103277415Y-115733868D01*
X103318883Y-115735211D01*
X103440441Y-115724290D01*
X103560878Y-115691474D01*
X103678666Y-115637439D01*
X103792277Y-115562865D01*
X103883685Y-115484539D01*
X103930215Y-115440008D01*
X104111483Y-115737271D01*
X104156580Y-115811433D01*
X104197819Y-115879646D01*
X104233735Y-115939459D01*
X104262866Y-115988420D01*
X104283750Y-116024079D01*
X104294924Y-116043984D01*
X104296375Y-116047079D01*
X104288146Y-116056718D01*
X104262567Y-116073999D01*
X104222873Y-116097283D01*
X104172297Y-116124934D01*
X104114074Y-116155315D01*
X104051437Y-116186790D01*
X103987621Y-116217722D01*
X103925860Y-116246473D01*
X103869388Y-116271408D01*
X103821438Y-116290889D01*
X103797986Y-116299318D01*
X103664221Y-116337133D01*
X103526327Y-116362136D01*
X103378622Y-116375140D01*
X103251833Y-116377468D01*
X103183878Y-116376373D01*
X103118277Y-116374275D01*
X103060847Y-116371434D01*
X103017403Y-116368106D01*
X103003298Y-116366422D01*
X102864284Y-116337587D01*
X102722757Y-116292468D01*
X102585275Y-116233750D01*
X102458394Y-116164120D01*
X102380889Y-116111441D01*
X102253481Y-116003239D01*
X102135178Y-115876671D01*
X102028172Y-115734866D01*
X101934652Y-115580951D01*
X101856810Y-115418053D01*
X101812956Y-115300756D01*
X101762708Y-115117128D01*
X101729209Y-114922581D01*
X101712449Y-114721325D01*
X101712416Y-114517568D01*
X101729101Y-114315521D01*
X101762493Y-114119392D01*
X101812580Y-113933391D01*
X101816397Y-113921803D01*
X101879281Y-113759750D01*
X101956028Y-113611832D01*
X102049242Y-113473865D01*
X102161527Y-113341661D01*
X102205392Y-113296399D01*
X102341534Y-113172457D01*
X102481491Y-113069915D01*
X102627411Y-112987656D01*
X102781442Y-112924564D01*
X102945732Y-112879523D01*
X103041289Y-112862033D01*
X103200023Y-112846466D01*
X103358429Y-112849071D01*
G37*
X103358429Y-112849071D02*
X103518570Y-112870245D01*
X103682510Y-112910385D01*
X103852313Y-112969889D01*
X104030043Y-113049154D01*
X104041310Y-113054699D01*
X104099005Y-113082725D01*
X104150552Y-113106802D01*
X104192191Y-113125249D01*
X104220162Y-113136386D01*
X104229733Y-113138933D01*
X104248950Y-113143941D01*
X104253561Y-113148147D01*
X104248458Y-113158580D01*
X104232418Y-113184868D01*
X104207288Y-113224257D01*
X104174914Y-113273991D01*
X104137143Y-113331315D01*
X104095822Y-113393476D01*
X104052798Y-113457718D01*
X104009917Y-113521285D01*
X103969026Y-113581425D01*
X103931971Y-113635380D01*
X103900600Y-113680397D01*
X103876759Y-113713721D01*
X103862294Y-113732597D01*
X103860309Y-113734787D01*
X103850191Y-113730138D01*
X103827850Y-113712962D01*
X103797280Y-113686440D01*
X103781536Y-113671964D01*
X103685047Y-113596682D01*
X103578336Y-113541241D01*
X103462832Y-113506141D01*
X103339962Y-113491880D01*
X103270561Y-113493051D01*
X103149423Y-113510212D01*
X103040205Y-113546094D01*
X102942582Y-113600959D01*
X102856228Y-113675070D01*
X102780815Y-113768688D01*
X102716018Y-113882076D01*
X102678601Y-113968667D01*
X102634748Y-114104366D01*
X102602428Y-114251850D01*
X102581557Y-114407314D01*
X102572051Y-114566956D01*
X102573827Y-114726973D01*
X102586803Y-114883561D01*
X102610894Y-115032918D01*
X102646018Y-115171240D01*
X102692092Y-115294724D01*
X102708373Y-115328978D01*
X102776620Y-115443064D01*
X102857079Y-115539557D01*
X102948570Y-115617670D01*
X103049911Y-115676617D01*
X103159920Y-115715612D01*
X103277415Y-115733868D01*
X103318883Y-115735211D01*
X103440441Y-115724290D01*
X103560878Y-115691474D01*
X103678666Y-115637439D01*
X103792277Y-115562865D01*
X103883685Y-115484539D01*
X103930215Y-115440008D01*
X104111483Y-115737271D01*
X104156580Y-115811433D01*
X104197819Y-115879646D01*
X104233735Y-115939459D01*
X104262866Y-115988420D01*
X104283750Y-116024079D01*
X104294924Y-116043984D01*
X104296375Y-116047079D01*
X104288146Y-116056718D01*
X104262567Y-116073999D01*
X104222873Y-116097283D01*
X104172297Y-116124934D01*
X104114074Y-116155315D01*
X104051437Y-116186790D01*
X103987621Y-116217722D01*
X103925860Y-116246473D01*
X103869388Y-116271408D01*
X103821438Y-116290889D01*
X103797986Y-116299318D01*
X103664221Y-116337133D01*
X103526327Y-116362136D01*
X103378622Y-116375140D01*
X103251833Y-116377468D01*
X103183878Y-116376373D01*
X103118277Y-116374275D01*
X103060847Y-116371434D01*
X103017403Y-116368106D01*
X103003298Y-116366422D01*
X102864284Y-116337587D01*
X102722757Y-116292468D01*
X102585275Y-116233750D01*
X102458394Y-116164120D01*
X102380889Y-116111441D01*
X102253481Y-116003239D01*
X102135178Y-115876671D01*
X102028172Y-115734866D01*
X101934652Y-115580951D01*
X101856810Y-115418053D01*
X101812956Y-115300756D01*
X101762708Y-115117128D01*
X101729209Y-114922581D01*
X101712449Y-114721325D01*
X101712416Y-114517568D01*
X101729101Y-114315521D01*
X101762493Y-114119392D01*
X101812580Y-113933391D01*
X101816397Y-113921803D01*
X101879281Y-113759750D01*
X101956028Y-113611832D01*
X102049242Y-113473865D01*
X102161527Y-113341661D01*
X102205392Y-113296399D01*
X102341534Y-113172457D01*
X102481491Y-113069915D01*
X102627411Y-112987656D01*
X102781442Y-112924564D01*
X102945732Y-112879523D01*
X103041289Y-112862033D01*
X103200023Y-112846466D01*
X103358429Y-112849071D01*
D12*
G36*
X223690256Y-218792398D02*
G01*
X223796579Y-218813547D01*
X224097042Y-218938003D01*
X224367451Y-219118685D01*
X224597415Y-219348649D01*
X224778097Y-219619058D01*
X224902553Y-219919521D01*
X224966000Y-220238491D01*
X224966000Y-220563709D01*
X224902553Y-220882679D01*
X224778097Y-221183142D01*
X224597415Y-221453551D01*
X224367451Y-221683515D01*
X224097042Y-221864197D01*
X223796579Y-221988653D01*
X223690256Y-222009802D01*
X223477611Y-222052100D01*
X223152389Y-222052100D01*
X222939744Y-222009802D01*
X222833421Y-221988653D01*
X222532958Y-221864197D01*
X222262549Y-221683515D01*
X222032585Y-221453551D01*
X221851903Y-221183142D01*
X221727447Y-220882679D01*
X221664000Y-220563709D01*
X221664000Y-220238491D01*
X221727447Y-219919521D01*
X221851903Y-219619058D01*
X222032585Y-219348649D01*
X222262549Y-219118685D01*
X222532958Y-218938003D01*
X222833421Y-218813547D01*
X222939744Y-218792398D01*
X223152389Y-218750100D01*
X223477611Y-218750100D01*
X223690256Y-218792398D01*
G37*
G36*
X359868633Y-217620826D02*
G01*
X359974956Y-217641975D01*
X360275419Y-217766431D01*
X360545828Y-217947113D01*
X360775792Y-218177077D01*
X360956474Y-218447486D01*
X361080930Y-218747949D01*
X361144377Y-219066919D01*
X361144377Y-219392137D01*
X361080930Y-219711107D01*
X360956474Y-220011570D01*
X360775792Y-220281979D01*
X360545828Y-220511943D01*
X360275419Y-220692625D01*
X359974956Y-220817081D01*
X359868633Y-220838230D01*
X359655988Y-220880528D01*
X359330766Y-220880528D01*
X359118121Y-220838230D01*
X359011798Y-220817081D01*
X358711335Y-220692625D01*
X358440926Y-220511943D01*
X358210962Y-220281979D01*
X358030280Y-220011570D01*
X357905824Y-219711107D01*
X357842377Y-219392137D01*
X357842377Y-219066919D01*
X357905824Y-218747949D01*
X358030280Y-218447486D01*
X358210962Y-218177077D01*
X358440926Y-217947113D01*
X358711335Y-217766431D01*
X359011798Y-217641975D01*
X359118121Y-217620826D01*
X359330766Y-217578528D01*
X359655988Y-217578528D01*
X359868633Y-217620826D01*
G37*
G36*
X87511879Y-217620826D02*
G01*
X87618202Y-217641975D01*
X87918665Y-217766431D01*
X88189074Y-217947113D01*
X88419038Y-218177077D01*
X88599720Y-218447486D01*
X88724176Y-218747949D01*
X88787623Y-219066919D01*
X88787623Y-219392137D01*
X88724176Y-219711107D01*
X88599720Y-220011570D01*
X88419038Y-220281979D01*
X88189074Y-220511943D01*
X87918665Y-220692625D01*
X87618202Y-220817081D01*
X87511879Y-220838230D01*
X87299234Y-220880528D01*
X86974012Y-220880528D01*
X86761367Y-220838230D01*
X86655044Y-220817081D01*
X86354581Y-220692625D01*
X86084172Y-220511943D01*
X85854208Y-220281979D01*
X85673526Y-220011570D01*
X85549070Y-219711107D01*
X85485623Y-219392137D01*
X85485623Y-219066919D01*
X85549070Y-218747949D01*
X85673526Y-218447486D01*
X85854208Y-218177077D01*
X86084172Y-217947113D01*
X86354581Y-217766431D01*
X86655044Y-217641975D01*
X86761367Y-217620826D01*
X86974012Y-217578528D01*
X87299234Y-217578528D01*
X87511879Y-217620826D01*
G37*
G36*
X359868633Y-110713871D02*
G01*
X359974956Y-110735020D01*
X360275419Y-110859476D01*
X360545828Y-111040158D01*
X360775792Y-111270122D01*
X360956474Y-111540531D01*
X361080930Y-111840994D01*
X361144377Y-112159964D01*
X361144377Y-112485182D01*
X361080930Y-112804152D01*
X360956474Y-113104615D01*
X360775792Y-113375024D01*
X360545828Y-113604988D01*
X360275419Y-113785670D01*
X359974956Y-113910126D01*
X359868633Y-113931275D01*
X359655988Y-113973573D01*
X359330766Y-113973573D01*
X359118121Y-113931275D01*
X359011798Y-113910126D01*
X358711335Y-113785670D01*
X358440926Y-113604988D01*
X358210962Y-113375024D01*
X358030280Y-113104615D01*
X357905824Y-112804152D01*
X357842377Y-112485182D01*
X357842377Y-112159964D01*
X357905824Y-111840994D01*
X358030280Y-111540531D01*
X358210962Y-111270122D01*
X358440926Y-111040158D01*
X358711335Y-110859476D01*
X359011798Y-110735020D01*
X359118121Y-110713871D01*
X359330766Y-110671573D01*
X359655988Y-110671573D01*
X359868633Y-110713871D01*
G37*
G36*
X87511879Y-110713871D02*
G01*
X87618202Y-110735020D01*
X87918665Y-110859476D01*
X88189074Y-111040158D01*
X88419038Y-111270122D01*
X88599720Y-111540531D01*
X88724176Y-111840994D01*
X88787623Y-112159964D01*
X88787623Y-112485182D01*
X88724176Y-112804152D01*
X88599720Y-113104615D01*
X88419038Y-113375024D01*
X88189074Y-113604988D01*
X87918665Y-113785670D01*
X87618202Y-113910126D01*
X87511879Y-113931275D01*
X87299234Y-113973573D01*
X86974012Y-113973573D01*
X86761367Y-113931275D01*
X86655044Y-113910126D01*
X86354581Y-113785670D01*
X86084172Y-113604988D01*
X85854208Y-113375024D01*
X85673526Y-113104615D01*
X85549070Y-112804152D01*
X85485623Y-112485182D01*
X85485623Y-112159964D01*
X85549070Y-111840994D01*
X85673526Y-111540531D01*
X85854208Y-111270122D01*
X86084172Y-111040158D01*
X86354581Y-110859476D01*
X86655044Y-110735020D01*
X86761367Y-110713871D01*
X86974012Y-110671573D01*
X87299234Y-110671573D01*
X87511879Y-110713871D01*
G37*
G36*
X223690256Y-109542298D02*
G01*
X223796579Y-109563447D01*
X224097042Y-109687903D01*
X224367451Y-109868585D01*
X224597415Y-110098549D01*
X224778097Y-110368958D01*
X224902553Y-110669421D01*
X224966000Y-110988391D01*
X224966000Y-111313609D01*
X224902553Y-111632579D01*
X224778097Y-111933042D01*
X224597415Y-112203451D01*
X224367451Y-112433415D01*
X224097042Y-112614097D01*
X223796579Y-112738553D01*
X223690256Y-112759702D01*
X223477611Y-112802000D01*
X223152389Y-112802000D01*
X222939744Y-112759702D01*
X222833421Y-112738553D01*
X222532958Y-112614097D01*
X222262549Y-112433415D01*
X222032585Y-112203451D01*
X221851903Y-111933042D01*
X221727447Y-111632579D01*
X221664000Y-111313609D01*
X221664000Y-110988391D01*
X221727447Y-110669421D01*
X221851903Y-110368958D01*
X222032585Y-110098549D01*
X222262549Y-109868585D01*
X222532958Y-109687903D01*
X222833421Y-109563447D01*
X222939744Y-109542298D01*
X223152389Y-109500000D01*
X223477611Y-109500000D01*
X223690256Y-109542298D01*
G37*
M02*
