G04 #@! TF.GenerationSoftware,KiCad,Pcbnew,(5.1.5)-3*
G04 #@! TF.CreationDate,2020-02-27T09:23:47-08:00*
G04 #@! TF.ProjectId,Mounting_PCB,4d6f756e-7469-46e6-975f-5043422e6b69,rev?*
G04 #@! TF.SameCoordinates,Original*
G04 #@! TF.FileFunction,Profile,NP*
%FSLAX46Y46*%
G04 Gerber Fmt 4.6, Leading zero omitted, Abs format (unit mm)*
G04 Created by KiCad (PCBNEW (5.1.5)-3) date 2020-02-27 09:23:47*
%MOMM*%
%LPD*%
G04 APERTURE LIST*
%ADD10C,0.200000*%
G04 APERTURE END LIST*
D10*
X351328966Y-131745800D02*
X337329966Y-131745800D01*
X337329966Y-145745100D02*
X351328966Y-145745100D01*
X242079966Y-145745100D02*
X256078966Y-145745100D01*
X242079966Y-131745800D02*
X242079966Y-145745100D01*
X256078966Y-145745100D02*
X256078966Y-131745800D01*
X337329966Y-131745800D02*
X337329966Y-145745100D01*
X217978965Y-145745100D02*
X217978965Y-131745800D01*
X223029966Y-145745100D02*
X237028966Y-145745100D01*
X223029966Y-131745800D02*
X223029966Y-145745100D01*
X146829666Y-131745800D02*
X146829666Y-145745100D01*
X203977966Y-131745800D02*
X203977966Y-145745100D01*
X146829666Y-145745100D02*
X160828965Y-145745100D01*
X217978965Y-131745800D02*
X203977966Y-131745800D01*
X261129966Y-145745100D02*
X275128966Y-145745100D01*
X261129966Y-131745800D02*
X261129966Y-145745100D01*
X275128966Y-131745800D02*
X261129966Y-131745800D01*
X351328966Y-145745100D02*
X351328966Y-131745800D01*
X237028966Y-145745100D02*
X237028966Y-131745800D01*
X203977966Y-145745100D02*
X217978965Y-145745100D01*
X237028966Y-131745800D02*
X223029966Y-131745800D01*
X256078966Y-131745800D02*
X242079966Y-131745800D01*
X160828965Y-145745100D02*
X160828965Y-131745800D01*
X160828965Y-131745800D02*
X146829666Y-131745800D01*
X343329965Y-152265800D02*
X343329965Y-155496200D01*
X350078966Y-155496200D02*
X350078966Y-152265800D01*
X237028966Y-164795100D02*
X237028966Y-150795800D01*
X350904966Y-155496200D02*
X350078966Y-155496200D01*
X280179966Y-164795100D02*
X294178966Y-164795100D01*
X350904966Y-158296200D02*
X350904966Y-155496200D01*
X299229966Y-169845800D02*
X299229966Y-183845100D01*
X261129966Y-150795800D02*
X261129966Y-164795100D01*
X275128966Y-150795800D02*
X261129966Y-150795800D01*
X108729666Y-150795800D02*
X108729666Y-164795100D01*
X237028966Y-169845800D02*
X223029966Y-169845800D01*
X165879665Y-150795800D02*
X165879665Y-164795100D01*
X327804966Y-155496200D02*
X326278966Y-155496200D01*
X327804966Y-150795800D02*
X327804966Y-155496200D01*
X313228966Y-183845100D02*
X313228966Y-169845800D01*
X299229966Y-183845100D02*
X313228966Y-183845100D01*
X223029966Y-183845100D02*
X237028966Y-183845100D01*
X341803966Y-150795800D02*
X327804966Y-150795800D01*
X341803966Y-155496200D02*
X341803966Y-150795800D01*
X350078966Y-164565100D02*
X350078966Y-158296200D01*
X165879665Y-164795100D02*
X179878966Y-164795100D01*
X122728966Y-164795100D02*
X122728966Y-150795800D01*
X198928966Y-150795800D02*
X184928266Y-150795800D01*
X261129966Y-164795100D02*
X275128966Y-164795100D01*
X223029966Y-150795800D02*
X223029966Y-164795100D01*
X223029966Y-164795100D02*
X237028966Y-164795100D01*
X179878966Y-164795100D02*
X179878966Y-150795800D01*
X184928266Y-164795100D02*
X198928966Y-164795100D01*
X122728966Y-150795800D02*
X108729666Y-150795800D01*
X184928266Y-150795800D02*
X184928266Y-164795100D01*
X198928966Y-164795100D02*
X198928966Y-150795800D01*
X179878966Y-150795800D02*
X165879665Y-150795800D01*
X280179966Y-150795800D02*
X280179966Y-164795100D01*
X108729666Y-164795100D02*
X122728966Y-164795100D01*
X343329965Y-155496200D02*
X341803966Y-155496200D01*
X350078966Y-152265800D02*
X343329965Y-152265800D01*
X313228966Y-169845800D02*
X299229966Y-169845800D01*
X350078966Y-158296200D02*
X350904966Y-158296200D01*
X348354966Y-164565100D02*
X350078966Y-164565100D01*
X237028966Y-150795800D02*
X223029966Y-150795800D01*
X294178966Y-150795800D02*
X280179966Y-150795800D01*
X294178966Y-164795100D02*
X294178966Y-150795800D01*
X237028966Y-183845100D02*
X237028966Y-169845800D01*
X275128966Y-164795100D02*
X275128966Y-150795800D01*
X326278966Y-152265800D02*
X319529966Y-152265800D01*
X326278966Y-155496200D02*
X326278966Y-152265800D01*
X108729666Y-112695800D02*
X108729666Y-126695100D01*
X122728966Y-112695800D02*
X108729666Y-112695800D01*
X203977966Y-112695800D02*
X203977966Y-126695100D01*
X203977966Y-126695100D02*
X217978965Y-126695100D01*
X217978965Y-112695800D02*
X203977966Y-112695800D01*
X217978965Y-126695100D02*
X217978965Y-112695800D01*
X141778965Y-112695800D02*
X127779666Y-112695800D01*
X198928966Y-126695100D02*
X198928966Y-112695800D01*
X198928966Y-112695800D02*
X184928266Y-112695800D01*
X165879665Y-112695800D02*
X165879665Y-126695100D01*
X275128966Y-126695100D02*
X275128966Y-112695800D01*
X261129966Y-126695100D02*
X275128966Y-126695100D01*
X261129966Y-112695800D02*
X261129966Y-126695100D01*
X179878966Y-126695100D02*
X179878966Y-112695800D01*
X275128966Y-112695800D02*
X261129966Y-112695800D01*
X141778965Y-126695100D02*
X141778965Y-112695800D01*
X108729666Y-126695100D02*
X122728966Y-126695100D01*
X122728966Y-126695100D02*
X122728966Y-112695800D01*
X127779666Y-126695100D02*
X141778965Y-126695100D01*
X184928266Y-112695800D02*
X184928266Y-126695100D01*
X127779666Y-112695800D02*
X127779666Y-126695100D01*
X184928266Y-126695100D02*
X198928966Y-126695100D01*
X179878966Y-112695800D02*
X165879665Y-112695800D01*
X127779666Y-131745800D02*
X127779666Y-145745100D01*
X313228966Y-145745100D02*
X313228966Y-131745800D01*
X361854965Y-205421072D02*
G75*
G02X353854966Y-213421071I-7999999J0D01*
G01*
X361854966Y-104171000D02*
X361854966Y-205421072D01*
X179878966Y-145745100D02*
X179878966Y-131745800D01*
X89679616Y-112695800D02*
X89679616Y-126695100D01*
X87155050Y-96171000D02*
X353854966Y-96171000D01*
X141778965Y-131745800D02*
X127779666Y-131745800D01*
X299229966Y-145745100D02*
X313228966Y-145745100D01*
X313228966Y-131745800D02*
X299229966Y-131745800D01*
X127779666Y-145745100D02*
X141778965Y-145745100D01*
X79155050Y-104171000D02*
G75*
G02X87155050Y-96171000I8000000J0D01*
G01*
X184928266Y-131745800D02*
X184928266Y-145745100D01*
X184928266Y-145745100D02*
X198928966Y-145745100D01*
X87155050Y-213421071D02*
G75*
G02X79155051Y-205421072I0J7999999D01*
G01*
X165879665Y-145745100D02*
X179878966Y-145745100D01*
X294178966Y-145745100D02*
X294178966Y-131745800D01*
X280179966Y-131745800D02*
X280179966Y-145745100D01*
X141778965Y-145745100D02*
X141778965Y-131745800D01*
X79155051Y-205421072D02*
X79155051Y-104171000D01*
X353854966Y-213421071D02*
X87155050Y-213421071D01*
X280179966Y-145745100D02*
X294178966Y-145745100D01*
X353854966Y-96171000D02*
G75*
G02X361854966Y-104171000I0J-8000000D01*
G01*
X103679166Y-126695100D02*
X103679166Y-112695800D01*
X165879665Y-131745800D02*
X165879665Y-145745100D01*
X198928966Y-131745800D02*
X184928266Y-131745800D01*
X103679166Y-112695800D02*
X89679616Y-112695800D01*
X299229966Y-131745800D02*
X299229966Y-145745100D01*
X89679616Y-126695100D02*
X103679166Y-126695100D01*
X179878966Y-131745800D02*
X165879665Y-131745800D01*
X294178966Y-131745800D02*
X280179966Y-131745800D01*
X326278966Y-160096100D02*
X327804966Y-160096100D01*
X319529966Y-152265800D02*
X319529966Y-155496200D01*
X327804966Y-164795100D02*
X341803966Y-164795100D01*
X217978965Y-164795100D02*
X217978965Y-150795800D01*
X332278966Y-131745800D02*
X318279966Y-131745800D01*
X324554966Y-165765200D02*
X324554966Y-164565100D01*
X318703966Y-155496200D02*
X318703966Y-158296200D01*
X198928966Y-145745100D02*
X198928966Y-131745800D01*
X160828965Y-150795800D02*
X146829666Y-150795800D01*
X256078966Y-164795100D02*
X256078966Y-150795800D01*
X341803966Y-164795100D02*
X341803966Y-160096100D01*
X321254966Y-164565100D02*
X321254966Y-165765200D01*
X319529966Y-155496200D02*
X318703966Y-155496200D01*
X313228966Y-164795100D02*
X313228966Y-150795800D01*
X348354966Y-165765200D02*
X348354966Y-164565100D01*
X160828965Y-164795100D02*
X160828965Y-150795800D01*
X217978965Y-150795800D02*
X203977966Y-150795800D01*
X327804966Y-160096100D02*
X327804966Y-164795100D01*
X141778965Y-150795800D02*
X127779666Y-150795800D01*
X313228966Y-150795800D02*
X299229966Y-150795800D01*
X319529966Y-164565100D02*
X321254966Y-164565100D01*
X146829666Y-164795100D02*
X160828965Y-164795100D01*
X146829666Y-150795800D02*
X146829666Y-164795100D01*
X203977966Y-150795800D02*
X203977966Y-164795100D01*
X141778965Y-164795100D02*
X141778965Y-150795800D01*
X127779666Y-164795100D02*
X141778965Y-164795100D01*
X127779666Y-150795800D02*
X127779666Y-164795100D01*
X321254966Y-165765200D02*
X324554966Y-165765200D01*
X318703966Y-158296200D02*
X319529966Y-158296200D01*
X332278966Y-145745100D02*
X332278966Y-131745800D01*
X299229966Y-164795100D02*
X313228966Y-164795100D01*
X299229966Y-150795800D02*
X299229966Y-164795100D01*
X318279966Y-145745100D02*
X332278966Y-145745100D01*
X343329965Y-160096100D02*
X343329965Y-164565100D01*
X203977966Y-164795100D02*
X217978965Y-164795100D01*
X256078966Y-150795800D02*
X242079966Y-150795800D01*
X318279966Y-131745800D02*
X318279966Y-145745100D01*
X345054966Y-165765200D02*
X348354966Y-165765200D01*
X343329965Y-164565100D02*
X345054966Y-164565100D01*
X242079966Y-164795100D02*
X256078966Y-164795100D01*
X242079966Y-150795800D02*
X242079966Y-164795100D01*
X324554966Y-164565100D02*
X326278966Y-164565100D01*
X319529966Y-158296200D02*
X319529966Y-164565100D01*
X345054966Y-164565100D02*
X345054966Y-165765200D01*
X326278966Y-164565100D02*
X326278966Y-160096100D01*
X341803966Y-160096100D02*
X343329965Y-160096100D01*
X89679616Y-145745100D02*
X103679166Y-145745100D01*
X89679616Y-131745800D02*
X89679616Y-145745100D01*
X242079966Y-169845800D02*
X242079966Y-183845100D01*
X332278966Y-183845100D02*
X332278966Y-169845800D01*
X332278966Y-169845800D02*
X318279966Y-169845800D01*
X108729666Y-145745100D02*
X122728966Y-145745100D01*
X351328966Y-183845100D02*
X351328966Y-169845800D01*
X294178966Y-183845100D02*
X294178966Y-169845800D01*
X337329966Y-169845800D02*
X337329966Y-183845100D01*
X108729666Y-131745800D02*
X108729666Y-145745100D01*
X275128966Y-183845100D02*
X275128966Y-169845800D01*
X275128966Y-145745100D02*
X275128966Y-131745800D01*
X103679166Y-131745800D02*
X89679616Y-131745800D01*
X203977966Y-169845800D02*
X203977966Y-183845100D01*
X242079966Y-183845100D02*
X256078966Y-183845100D01*
X217978965Y-183845100D02*
X217978965Y-169845800D01*
X280179966Y-183845100D02*
X294178966Y-183845100D01*
X203977966Y-183845100D02*
X217978965Y-183845100D01*
X351328966Y-169845800D02*
X337329966Y-169845800D01*
X127779666Y-183845100D02*
X141778965Y-183845100D01*
X261129966Y-183845100D02*
X275128966Y-183845100D01*
X198928966Y-169845800D02*
X184928266Y-169845800D01*
X261129966Y-169845800D02*
X261129966Y-183845100D01*
X184928266Y-169845800D02*
X184928266Y-183845100D01*
X294178966Y-169845800D02*
X280179966Y-169845800D01*
X318279966Y-169845800D02*
X318279966Y-183845100D01*
X198928966Y-183845100D02*
X198928966Y-169845800D01*
X184928266Y-183845100D02*
X198928966Y-183845100D01*
X337329966Y-183845100D02*
X351328966Y-183845100D01*
X223029966Y-169845800D02*
X223029966Y-183845100D01*
X89679616Y-150795800D02*
X89679616Y-164795100D01*
X103679166Y-145745100D02*
X103679166Y-131745800D01*
X256078966Y-183845100D02*
X256078966Y-169845800D01*
X122728966Y-145745100D02*
X122728966Y-131745800D01*
X127779666Y-169845800D02*
X127779666Y-183845100D01*
X103679166Y-150795800D02*
X89679616Y-150795800D01*
X103679166Y-164795100D02*
X103679166Y-150795800D01*
X275128966Y-169845800D02*
X261129966Y-169845800D01*
X122728966Y-131745800D02*
X108729666Y-131745800D01*
X89679616Y-164795100D02*
X103679166Y-164795100D01*
X141778965Y-169845800D02*
X127779666Y-169845800D01*
X256078966Y-169845800D02*
X242079966Y-169845800D01*
X141778965Y-183845100D02*
X141778965Y-169845800D01*
X217978965Y-169845800D02*
X203977966Y-169845800D01*
X318279966Y-183845100D02*
X332278966Y-183845100D01*
X280179966Y-169845800D02*
X280179966Y-183845100D01*
X89679616Y-169845800D02*
X89679616Y-183845100D01*
X332278966Y-188895600D02*
X318279966Y-188895600D01*
X332278966Y-202895130D02*
X332278966Y-188895600D01*
X256078966Y-188895600D02*
X242079966Y-188895600D01*
X275128966Y-202895130D02*
X275128966Y-188895600D01*
X256078966Y-202895130D02*
X256078966Y-188895600D01*
X242079966Y-202895130D02*
X256078966Y-202895130D01*
X103679166Y-169845800D02*
X89679616Y-169845800D01*
X242079966Y-188895600D02*
X242079966Y-202895130D01*
X122728966Y-183845100D02*
X122728966Y-169845800D01*
X108729666Y-183845100D02*
X122728966Y-183845100D01*
X103679166Y-183845100D02*
X103679166Y-169845800D01*
X122728966Y-169845800D02*
X108729666Y-169845800D01*
X261129966Y-188895600D02*
X261129966Y-202895130D01*
X275128966Y-188895600D02*
X261129966Y-188895600D01*
X280179966Y-202895130D02*
X294178966Y-202895130D01*
X261129966Y-202895130D02*
X275128966Y-202895130D01*
X108729666Y-169845800D02*
X108729666Y-183845100D01*
X294178966Y-202895130D02*
X294178966Y-188895600D01*
X89679616Y-183845100D02*
X103679166Y-183845100D01*
X294178966Y-188895600D02*
X280179966Y-188895600D01*
X280179966Y-188895600D02*
X280179966Y-202895130D01*
X160828965Y-169845800D02*
X146829666Y-169845800D01*
X299229966Y-202895130D02*
X313228966Y-202895130D01*
X313228966Y-202895130D02*
X313228966Y-188895600D01*
X237028966Y-188895600D02*
X223029966Y-188895600D01*
X237028966Y-202895130D02*
X237028966Y-188895600D01*
X191204966Y-203865261D02*
X191204966Y-202664990D01*
X187904966Y-202664990D02*
X187904966Y-203865261D01*
X313228966Y-188895600D02*
X299229966Y-188895600D01*
X223029966Y-202895130D02*
X237028966Y-202895130D01*
X223029966Y-188895600D02*
X223029966Y-202895130D01*
X179878966Y-188895600D02*
X165879665Y-188895600D01*
X179878966Y-202895130D02*
X179878966Y-188895600D01*
X194454966Y-202895130D02*
X208453966Y-202895130D01*
X194454966Y-198194641D02*
X194454966Y-202895130D01*
X192928966Y-198194641D02*
X194454966Y-198194641D01*
X192928966Y-202664990D02*
X192928966Y-198194641D01*
X165879665Y-188895600D02*
X165879665Y-202895130D01*
X191204966Y-202664990D02*
X192928966Y-202664990D01*
X187904966Y-203865261D02*
X191204966Y-203865261D01*
X299229966Y-188895600D02*
X299229966Y-202895130D01*
X146829666Y-202895130D02*
X160828965Y-202895130D01*
X337329966Y-188895600D02*
X337329966Y-202895130D01*
X160828965Y-188895600D02*
X146829666Y-188895600D01*
X351328966Y-188895600D02*
X337329966Y-188895600D01*
X337329966Y-202895130D02*
X351328966Y-202895130D01*
X318279966Y-188895600D02*
X318279966Y-202895130D01*
X160828965Y-202895130D02*
X160828965Y-188895600D01*
X351328966Y-202895130D02*
X351328966Y-188895600D01*
X146829666Y-188895600D02*
X146829666Y-202895130D01*
X318279966Y-202895130D02*
X332278966Y-202895130D01*
X165879665Y-202895130D02*
X179878966Y-202895130D01*
X185354066Y-196396281D02*
X186178166Y-196396281D01*
X186178166Y-196396281D02*
X186178166Y-202664990D01*
X146829666Y-112695800D02*
X146829666Y-126695100D01*
X160828965Y-112695800D02*
X146829666Y-112695800D01*
X127779666Y-188895600D02*
X127779666Y-202895130D01*
X103679166Y-188895600D02*
X89679616Y-188895600D01*
X186178166Y-202664990D02*
X187904966Y-202664990D01*
X103679166Y-202895130D02*
X103679166Y-188895600D01*
X186178166Y-193596101D02*
X185354066Y-193596101D01*
X185354066Y-193596101D02*
X185354066Y-196396281D01*
X122728966Y-188895600D02*
X108729666Y-188895600D01*
X89679616Y-188895600D02*
X89679616Y-202895130D01*
X108729666Y-202895130D02*
X122728966Y-202895130D01*
X122728966Y-202895130D02*
X122728966Y-188895600D01*
X299229966Y-126695100D02*
X313228966Y-126695100D01*
X299229966Y-112695800D02*
X299229966Y-126695100D01*
X146829666Y-126695100D02*
X160828965Y-126695100D01*
X141778965Y-202895130D02*
X141778965Y-188895600D01*
X141778965Y-188895600D02*
X127779666Y-188895600D01*
X160828965Y-126695100D02*
X160828965Y-112695800D01*
X127779666Y-202895130D02*
X141778965Y-202895130D01*
X89679616Y-202895130D02*
X103679166Y-202895130D01*
X108729666Y-188895600D02*
X108729666Y-202895130D01*
X208453966Y-193596101D02*
X208453966Y-188895600D01*
X209979966Y-193596101D02*
X208453966Y-193596101D01*
X209979966Y-190366001D02*
X209979966Y-193596101D01*
X216728965Y-196396281D02*
X217554966Y-196396281D01*
X215004966Y-203865261D02*
X215004966Y-202664990D01*
X216728965Y-193596101D02*
X216728965Y-190366001D01*
X217554966Y-193596101D02*
X216728965Y-193596101D01*
X216728965Y-202664990D02*
X216728965Y-196396281D01*
X215004966Y-202664990D02*
X216728965Y-202664990D01*
X216728965Y-190366001D02*
X209979966Y-190366001D01*
X211704966Y-203865261D02*
X215004966Y-203865261D01*
X208453966Y-202895130D02*
X208453966Y-198194641D01*
X211704966Y-202664990D02*
X211704966Y-203865261D01*
X209979966Y-198194641D02*
X209979966Y-202664990D01*
X208453966Y-198194641D02*
X209979966Y-198194641D01*
X186178166Y-190366001D02*
X186178166Y-193596101D01*
X192928966Y-190366001D02*
X186178166Y-190366001D01*
X192928966Y-193596101D02*
X192928966Y-190366001D01*
X208453966Y-188895600D02*
X194454966Y-188895600D01*
X209979966Y-202664990D02*
X211704966Y-202664990D01*
X217554966Y-196396281D02*
X217554966Y-193596101D01*
X194454966Y-193596101D02*
X192928966Y-193596101D01*
X194454966Y-188895600D02*
X194454966Y-193596101D01*
X280179966Y-126695100D02*
X294178966Y-126695100D01*
X313228966Y-112695800D02*
X299229966Y-112695800D01*
X237028966Y-126695100D02*
X237028966Y-112695800D01*
X256078966Y-126695100D02*
X256078966Y-112695800D01*
X280179966Y-112695800D02*
X280179966Y-126695100D01*
X337329966Y-126695100D02*
X351328966Y-126695100D01*
X294178966Y-112695800D02*
X280179966Y-112695800D01*
X318279966Y-112695800D02*
X318279966Y-126695100D01*
X332278966Y-126695100D02*
X332278966Y-112695800D01*
X318279966Y-126695100D02*
X332278966Y-126695100D01*
X223029966Y-126695100D02*
X237028966Y-126695100D01*
X237028966Y-112695800D02*
X223029966Y-112695800D01*
X351328966Y-112695800D02*
X337329966Y-112695800D01*
X351328966Y-126695100D02*
X351328966Y-112695800D01*
X313228966Y-126695100D02*
X313228966Y-112695800D01*
X337329966Y-112695800D02*
X337329966Y-126695100D01*
X332278966Y-112695800D02*
X318279966Y-112695800D01*
X165879665Y-126695100D02*
X179878966Y-126695100D01*
X242079966Y-112695800D02*
X242079966Y-126695100D01*
X242079966Y-126695100D02*
X256078966Y-126695100D01*
X223029966Y-112695800D02*
X223029966Y-126695100D01*
X294178966Y-126695100D02*
X294178966Y-112695800D01*
X256078966Y-112695800D02*
X242079966Y-112695800D01*
X146829666Y-183845100D02*
X160828965Y-183845100D01*
X146829666Y-169845800D02*
X146829666Y-183845100D01*
X179878966Y-169845800D02*
X165879665Y-169845800D01*
X165879665Y-169845800D02*
X165879665Y-183845100D01*
X179878966Y-183845100D02*
X179878966Y-169845800D01*
X160828965Y-183845100D02*
X160828965Y-169845800D01*
X165879665Y-183845100D02*
X179878966Y-183845100D01*
M02*
