G04 #@! TF.GenerationSoftware,KiCad,Pcbnew,(5.1.5)-3*
G04 #@! TF.CreationDate,2020-02-27T09:23:47-08:00*
G04 #@! TF.ProjectId,Mounting_PCB,4d6f756e-7469-46e6-975f-5043422e6b69,rev?*
G04 #@! TF.SameCoordinates,Original*
G04 #@! TF.FileFunction,Legend,Top*
G04 #@! TF.FilePolarity,Positive*
%FSLAX46Y46*%
G04 Gerber Fmt 4.6, Leading zero omitted, Abs format (unit mm)*
G04 Created by KiCad (PCBNEW (5.1.5)-3) date 2020-02-27 09:23:47*
%MOMM*%
%LPD*%
G04 APERTURE LIST*
%ADD10C,0.150000*%
G04 APERTURE END LIST*
D10*
X355921472Y-204901908D02*
X355921472Y-203901908D01*
X355921472Y-204378099D02*
X356492900Y-204378099D01*
X356492900Y-204901908D02*
X356492900Y-203901908D01*
X357397662Y-203901908D02*
X357207186Y-203901908D01*
X357111948Y-203949528D01*
X357064329Y-203997147D01*
X356969091Y-204140004D01*
X356921472Y-204330480D01*
X356921472Y-204711432D01*
X356969091Y-204806670D01*
X357016710Y-204854289D01*
X357111948Y-204901908D01*
X357302424Y-204901908D01*
X357397662Y-204854289D01*
X357445281Y-204806670D01*
X357492900Y-204711432D01*
X357492900Y-204473337D01*
X357445281Y-204378099D01*
X357397662Y-204330480D01*
X357302424Y-204282861D01*
X357111948Y-204282861D01*
X357016710Y-204330480D01*
X356969091Y-204378099D01*
X356921472Y-204473337D01*
X83564718Y-204901908D02*
X83564718Y-203901908D01*
X83564718Y-204378099D02*
X84136146Y-204378099D01*
X84136146Y-204901908D02*
X84136146Y-203901908D01*
X85088527Y-203901908D02*
X84612337Y-203901908D01*
X84564718Y-204378099D01*
X84612337Y-204330480D01*
X84707575Y-204282861D01*
X84945670Y-204282861D01*
X85040908Y-204330480D01*
X85088527Y-204378099D01*
X85136146Y-204473337D01*
X85136146Y-204711432D01*
X85088527Y-204806670D01*
X85040908Y-204854289D01*
X84945670Y-204901908D01*
X84707575Y-204901908D01*
X84612337Y-204854289D01*
X84564718Y-204806670D01*
X219743095Y-206073480D02*
X219743095Y-205073480D01*
X219743095Y-205549671D02*
X220314523Y-205549671D01*
X220314523Y-206073480D02*
X220314523Y-205073480D01*
X221219285Y-205406814D02*
X221219285Y-206073480D01*
X220981190Y-205025861D02*
X220743095Y-205740147D01*
X221362142Y-205740147D01*
X355921472Y-97994953D02*
X355921472Y-96994953D01*
X355921472Y-97471144D02*
X356492900Y-97471144D01*
X356492900Y-97994953D02*
X356492900Y-96994953D01*
X356873853Y-96994953D02*
X357492900Y-96994953D01*
X357159567Y-97375906D01*
X357302424Y-97375906D01*
X357397662Y-97423525D01*
X357445281Y-97471144D01*
X357492900Y-97566382D01*
X357492900Y-97804477D01*
X357445281Y-97899715D01*
X357397662Y-97947334D01*
X357302424Y-97994953D01*
X357016710Y-97994953D01*
X356921472Y-97947334D01*
X356873853Y-97899715D01*
X219743095Y-96823380D02*
X219743095Y-95823380D01*
X219743095Y-96299571D02*
X220314523Y-96299571D01*
X220314523Y-96823380D02*
X220314523Y-95823380D01*
X220743095Y-95918619D02*
X220790714Y-95871000D01*
X220885952Y-95823380D01*
X221124047Y-95823380D01*
X221219285Y-95871000D01*
X221266904Y-95918619D01*
X221314523Y-96013857D01*
X221314523Y-96109095D01*
X221266904Y-96251952D01*
X220695476Y-96823380D01*
X221314523Y-96823380D01*
X83564718Y-97994953D02*
X83564718Y-96994953D01*
X83564718Y-97471144D02*
X84136146Y-97471144D01*
X84136146Y-97994953D02*
X84136146Y-96994953D01*
X85136146Y-97994953D02*
X84564718Y-97994953D01*
X84850432Y-97994953D02*
X84850432Y-96994953D01*
X84755194Y-97137811D01*
X84659956Y-97233049D01*
X84564718Y-97280668D01*
M02*
