0
SECTION
2
HEADER
9
$INSUNITS
70
4
9
$ACADVER
1
AC1014
9
$HANDSEED
5
FFFF
0
ENDSEC
0
SECTION
2
TABLES
0
TABLE
2
VPORT
5
8
100
AcDbSymbolTable
0
ENDTAB
0
TABLE
2
LTYPE
5
5
100
AcDbSymbolTable
0
LTYPE
5
14
100
AcDbSymbolTableRecord
100
AcDbLinetypeTableRecord
2
BYBLOCK
70
0
0
LTYPE
5
15
100
AcDbSymbolTableRecord
100
AcDbLinetypeTableRecord
2
BYLAYER
70
0
0
ENDTAB
0
TABLE
2
LAYER
5
2
100
AcDbSymbolTable
70
2
0
LAYER
5
50
100
AcDbSymbolTableRecord
100
AcDbLayerTableRecord
2
0
70
0
6
CONTINUOUS
0
ENDTAB
0
TABLE
2
STYLE
5
3
100
AcDbSymbolTable
70
1
0
STYLE
5
11
100
AcDbSymbolTableRecord
100
AcDbTextStyleTableRecord
2
STANDARD
70
0
0
ENDTAB
0
TABLE
2
VIEW
5
6
100
AcDbSymbolTable
70
0
0
ENDTAB
0
TABLE
2
UCS
5
7
100
AcDbSymbolTable
70
0
0
ENDTAB
0
TABLE
2
APPID
5
9
100
AcDbSymbolTable
70
2
0
APPID
5
12
100
AcDbSymbolTableRecord
100
AcDbRegAppTableRecord
2
ACAD
70
0
0
ENDTAB
0
TABLE
2
DIMSTYLE
5
A
100
AcDbSymbolTable
70
1
0
ENDTAB
0
TABLE
2
BLOCK_RECORD
5
1
100
AcDbSymbolTable
70
1
0
BLOCK_RECORD
5
1F
100
AcDbSymbolTableRecord
100
AcDbBlockTableRecord
2
*MODEL_SPACE
0
BLOCK_RECORD
5
1B
100
AcDbSymbolTableRecord
100
AcDbBlockTableRecord
2
*PAPER_SPACE
0
ENDTAB
0
ENDSEC
0
SECTION
2
BLOCKS
0
BLOCK
5
20
100
AcDbEntity
100
AcDbBlockBegin
2
*MODEL_SPACE
0
ENDBLK
5
21
100
AcDbEntity
100
AcDbBlockEnd
0
BLOCK
5
1C
100
AcDbEntity
100
AcDbBlockBegin
2
*PAPER_SPACE
0
ENDBLK
5
1D
100
AcDbEntity
100
AcDbBlockEnd
0
ENDSEC
0
SECTION
2
ENTITIES
0
LINE
5
100
100
AcDbEntity
8
0
100
AcDbLine
10
5.0950845999999856
20
-107.34240000000001
30
0
11
5.0950846000000007
21
-5.092328600000009
31
0
0
LINE
5
101
100
AcDbEntity
8
0
100
AcDbLine
10
5.0950846000000007
20
-5.092328600000009
30
0
11
271.79500000000007
21
-5.092328600000009
31
0
0
LINE
5
102
100
AcDbEntity
8
0
100
AcDbLine
10
271.79500000000007
20
-5.092328600000009
30
0
11
271.79500000000007
21
-107.34240000000005
31
0
0
LINE
5
103
100
AcDbEntity
8
0
100
AcDbLine
10
142.44503460000004
20
-106.3424
30
0
11
134.44503460000004
21
-106.3424
31
0
0
CIRCLE
5
104
100
AcDbEntity
8
0
100
AcDbCircle
10
138.44503460000001
20
-1.0923000000000194
30
0
40
1.5000000000000036
210
0
220
0
230
1
0
CIRCLE
5
105
100
AcDbEntity
8
0
100
AcDbCircle
10
2.2666574752538136
20
-109.17082712474621
30
0
40
1.5000000000000002
210
0
220
0
230
1
0
CIRCLE
5
106
100
AcDbEntity
8
0
100
AcDbCircle
10
274.62341172474623
20
-109.17082712474621
30
0
40
1.4999999999999858
210
0
220
0
230
1
0
CIRCLE
5
107
100
AcDbEntity
8
0
100
AcDbCircle
10
2.2666574752538131
20
-2.2638728752538384
30
0
40
1.5000000000000002
210
0
220
0
230
1
0
CIRCLE
5
108
100
AcDbEntity
8
0
100
AcDbCircle
10
274.62341172474623
20
-2.2638728752538384
30
0
40
1.4999999999999858
210
0
220
0
230
1
0
CIRCLE
5
109
100
AcDbEntity
8
0
100
AcDbCircle
10
138.44503460000001
20
-110.3424
30
0
40
1.5000000000000036
210
0
220
0
230
1
0
LINE
5
110
100
AcDbEntity
8
0
100
AcDbLine
10
5.095084600000007
20
-114.34240000000001
30
0
11
271.79500000000007
21
-114.34240000000001
31
0
0
ARC
5
111
100
AcDbEntity
8
0
100
AcDbCircle
10
271.79500000000007
20
-107.34240000000005
30
0
40
6.9999999999999574
210
-0
220
0
230
1
100
AcDbArc
50
-90
51
7.1250163489021672
0
LINE
5
112
100
AcDbEntity
8
0
100
AcDbLine
10
279.79500000000007
20
-106.3424
30
0
11
279.79500000000007
21
-5.092328600000009
31
0
0
ARC
5
113
100
AcDbEntity
8
0
100
AcDbCircle
10
271.79500000000007
20
-5.092328600000009
30
0
40
8.0000000000000071
210
0
220
-0
230
1
100
AcDbArc
50
0
51
90
0
LINE
5
114
100
AcDbEntity
8
0
100
AcDbLine
10
271.79500000000007
20
2.9076714000000004
30
0
11
5.0950845999999927
21
2.9076713999999981
31
0
0
ARC
5
115
100
AcDbEntity
8
0
100
AcDbCircle
10
5.0950846000000007
20
-5.092328600000009
30
0
40
8.0000000000000071
210
0
220
0
230
1
100
AcDbArc
50
90.000000000000057
51
180
0
LINE
5
116
100
AcDbEntity
8
0
100
AcDbLine
10
-2.9049154000000001
20
-5.0923285999999983
30
0
11
-2.9049154000000001
21
-106.3424
31
0
0
CIRCLE
5
117
100
AcDbEntity
8
0
100
AcDbCircle
10
138.44503460000001
20
-110.3424
30
0
40
1.5000000000000036
210
0
220
-0
230
1
0
CIRCLE
5
118
100
AcDbEntity
8
0
100
AcDbCircle
10
274.62341172474623
20
-2.2638728752538384
30
0
40
1.4999999999999858
210
0
220
-0
230
1
0
CIRCLE
5
119
100
AcDbEntity
8
0
100
AcDbCircle
10
2.2666574752538131
20
-2.2638728752538384
30
0
40
1.5000000000000002
210
0
220
-0
230
1
0
CIRCLE
5
120
100
AcDbEntity
8
0
100
AcDbCircle
10
274.62341172474623
20
-109.17082712474621
30
0
40
1.4999999999999858
210
0
220
-0
230
1
0
CIRCLE
5
121
100
AcDbEntity
8
0
100
AcDbCircle
10
2.2666574752538136
20
-109.17082712474621
30
0
40
1.5000000000000002
210
0
220
-0
230
1
0
CIRCLE
5
122
100
AcDbEntity
8
0
100
AcDbCircle
10
138.44503460000001
20
-1.0923000000000194
30
0
40
1.5000000000000036
210
0
220
-0
230
1
0
LINE
5
123
100
AcDbEntity
8
0
100
AcDbLine
10
142.44503460000001
20
-106.3424
30
0
11
134.44503460000001
21
-106.3424
31
0
0
LINE
5
124
100
AcDbEntity
8
0
100
AcDbLine
10
271.79500000000007
20
-5.0923286000000001
30
0
11
271.79500000000007
21
-107.34240000000007
31
0
0
LINE
5
125
100
AcDbEntity
8
0
100
AcDbLine
10
5.0950846000000007
20
-5.0923286000000001
30
0
11
271.79500000000007
21
-5.0923286000000001
31
0
0
LINE
5
126
100
AcDbEntity
8
0
100
AcDbLine
10
5.0950846000000007
20
-107.34240000000001
30
0
11
5.0950846000000007
21
-5.0923286000000001
31
0
0
LINE
5
127
100
AcDbEntity
8
0
100
AcDbLine
10
-2.9049154000000001
20
-5.0923285999999983
30
0
11
-2.9049154000000001
21
-106.3424
31
0
0
ARC
5
128
100
AcDbEntity
8
0
100
AcDbCircle
10
5.0950846000000007
20
-5.0923286000000001
30
0
40
8
210
0
220
0
230
1
100
AcDbArc
50
90.000000000000014
51
180
0
LINE
5
129
100
AcDbEntity
8
0
100
AcDbLine
10
271.79500000000007
20
2.9076714000000004
30
0
11
5.0950845999999972
21
2.9076714000000004
31
0
0
ARC
5
130
100
AcDbEntity
8
0
100
AcDbCircle
10
271.79500000000007
20
-5.0923286000000001
30
0
40
8.0000000000000071
210
-0
220
0
230
1
100
AcDbArc
50
0
51
90
0
LINE
5
131
100
AcDbEntity
8
0
100
AcDbLine
10
279.79500000000007
20
-106.3424
30
0
11
279.79500000000007
21
-5.092328600000009
31
0
0
ARC
5
132
100
AcDbEntity
8
0
100
AcDbCircle
10
142.44503460000001
20
-106.3424
30
0
40
129.59712014154175
210
0
220
0
230
1
100
AcDbArc
50
-3.5391052020895253
51
0
0
LINE
5
133
100
AcDbEntity
8
0
100
AcDbLine
10
5.095084600000007
20
-114.34240000000001
30
0
11
271.79500000000007
21
-114.34240000000001
31
0
0
ARC
5
134
100
AcDbEntity
8
0
100
AcDbCircle
10
267.79500000000007
20
-107.34240000000007
30
0
40
3.999999999999968
210
0
220
0
230
1
100
AcDbArc
50
-90
51
0
0
LINE
5
135
100
AcDbEntity
8
0
100
AcDbLine
10
267.79500000000007
20
-111.34240000000004
30
0
11
146.44503460000004
21
-111.34240000000004
31
0
0
ARC
5
136
100
AcDbEntity
8
0
100
AcDbCircle
10
146.44503460000004
20
-107.34240000000001
30
0
40
4.0000000000000213
210
0
220
0
230
1
100
AcDbArc
50
180
51
270
0
LINE
5
137
100
AcDbEntity
8
0
100
AcDbLine
10
142.44503460000001
20
-107.34240000000003
30
0
11
142.44503460000004
21
-106.3424
31
0
0
LINE
5
138
100
AcDbEntity
8
0
100
AcDbLine
10
134.44503460000004
20
-106.3424
30
0
11
134.44503460000004
21
-107.34240000000005
31
0
0
ARC
5
139
100
AcDbEntity
8
0
100
AcDbCircle
10
130.44503459999999
20
-107.34240000000003
30
0
40
4.0000000000000213
210
0
220
0
230
1
100
AcDbArc
50
270.0000000000004
51
360
0
LINE
5
140
100
AcDbEntity
8
0
100
AcDbLine
10
130.44503460000001
20
-111.34240000000005
30
0
11
9.0950846000000141
21
-111.34240000000004
31
0
0
ARC
5
141
100
AcDbEntity
8
0
100
AcDbCircle
10
9.0950846000000034
20
-107.34240000000001
30
0
40
4.0000000000000178
210
0
220
0
230
1
100
AcDbArc
50
180
51
270.00000000000017
0
ARC
5
142
100
AcDbEntity
8
0
100
AcDbCircle
10
9.0950846000000052
20
-107.34240000000001
30
0
40
4.0000000000000044
210
0
220
0
230
1
100
AcDbArc
50
180
51
270.00000000000006
0
LINE
5
143
100
AcDbEntity
8
0
100
AcDbLine
10
130.44503460000001
20
-111.34240000000005
30
0
11
9.0950846000000087
21
-111.34240000000004
31
0
0
ARC
5
144
100
AcDbEntity
8
0
100
AcDbCircle
10
130.44503459999999
20
-107.34240000000003
30
0
40
4.0000000000000213
210
0
220
0
230
1
100
AcDbArc
50
270.0000000000004
51
360
0
LINE
5
145
100
AcDbEntity
8
0
100
AcDbLine
10
134.44503460000001
20
-106.3424
30
0
11
134.44503459999999
21
-107.34240000000005
31
0
0
LINE
5
146
100
AcDbEntity
8
0
100
AcDbLine
10
142.44503460000001
20
-107.34240000000003
30
0
11
142.44503460000001
21
-106.3424
31
0
0
ARC
5
147
100
AcDbEntity
8
0
100
AcDbCircle
10
146.44503460000004
20
-107.34240000000001
30
0
40
4.0000000000000213
210
0
220
0
230
1
100
AcDbArc
50
180
51
270
0
LINE
5
148
100
AcDbEntity
8
0
100
AcDbLine
10
267.79500000000007
20
-111.34240000000004
30
0
11
146.44503460000004
21
-111.34240000000004
31
0
0
ARC
5
149
100
AcDbEntity
8
0
100
AcDbCircle
10
267.79500000000007
20
-107.34240000000007
30
0
40
3.999999999999968
210
0
220
0
230
1
100
AcDbArc
50
-90
51
0
0
CIRCLE
5
150
100
AcDbEntity
8
0
100
AcDbCircle
10
2.2666574752538136
20
-109.17082712474621
30
0
40
1.5000000000000002
210
0
220
-0
230
1
0
CIRCLE
5
151
100
AcDbEntity
8
0
100
AcDbCircle
10
274.62341172474623
20
-109.17082712474621
30
0
40
1.4999999999999858
210
0
220
-0
230
1
0
CIRCLE
5
152
100
AcDbEntity
8
0
100
AcDbCircle
10
2.2666574752538131
20
-2.2638728752538384
30
0
40
1.5000000000000002
210
0
220
-0
230
1
0
CIRCLE
5
153
100
AcDbEntity
8
0
100
AcDbCircle
10
138.44503460000001
20
-110.3424
30
0
40
1.5000000000000036
210
0
220
-0
230
1
0
LINE
5
154
100
AcDbEntity
8
0
100
AcDbLine
10
5.0950846000000007
20
-5.0923285999999912
30
0
11
5.0950845999999856
21
-107.34240000000001
31
0
0
ARC
5
155
100
AcDbEntity
8
0
100
AcDbCircle
10
9.095084600000007
20
-107.34240000000001
30
0
40
4.0000000000000213
210
0
220
0
230
1
100
AcDbArc
50
180
51
270.00000000000006
0
LINE
5
156
100
AcDbEntity
8
0
100
AcDbLine
10
9.0950846000000105
20
-111.34240000000004
30
0
11
130.44503460000001
21
-111.34240000000005
31
0
0
ARC
5
157
100
AcDbEntity
8
0
100
AcDbCircle
10
130.44503460000001
20
-107.34240000000005
30
0
40
4.0000000000000036
210
-0
220
0
230
1
100
AcDbArc
50
-90
51
0
0
LINE
5
158
100
AcDbEntity
8
0
100
AcDbLine
10
134.44503460000001
20
-107.34240000000005
30
0
11
134.44503460000001
21
-106.3424
31
0
0
LINE
5
159
100
AcDbEntity
8
0
100
AcDbLine
10
134.44503460000001
20
-106.3424
30
0
11
142.44503460000001
21
-106.3424
31
0
0
LINE
5
160
100
AcDbEntity
8
0
100
AcDbLine
10
142.44503460000001
20
-106.3424
30
0
11
142.44503460000001
21
-107.34240000000003
31
0
0
ARC
5
161
100
AcDbEntity
8
0
100
AcDbCircle
10
146.44503460000004
20
-107.34240000000003
30
0
40
4.0000000000000036
210
0
220
0
230
1
100
AcDbArc
50
180
51
270
0
LINE
5
162
100
AcDbEntity
8
0
100
AcDbLine
10
146.44503460000004
20
-111.34240000000004
30
0
11
267.79500000000007
21
-111.34240000000004
31
0
0
ARC
5
163
100
AcDbEntity
8
0
100
AcDbCircle
10
267.79500000000007
20
-107.34240000000008
30
0
40
3.9999999999999503
210
0
220
0
230
1
100
AcDbArc
50
-90
51
0
0
LINE
5
164
100
AcDbEntity
8
0
100
AcDbLine
10
271.79500000000007
20
-107.34240000000005
30
0
11
271.79500000000007
21
-5.0923285999999912
31
0
0
LINE
5
165
100
AcDbEntity
8
0
100
AcDbLine
10
271.79500000000007
20
-5.0923285999999912
30
0
11
5.0950846000000007
21
-5.0923285999999912
31
0
0
CIRCLE
5
166
100
AcDbEntity
8
0
100
AcDbCircle
10
274.62341172474623
20
-2.2638728752538384
30
0
40
1.4999999999999858
210
0
220
-0
230
1
0
CIRCLE
5
167
100
AcDbEntity
8
0
100
AcDbCircle
10
138.44503460000001
20
-1.0923000000000194
30
0
40
1.5000000000000036
210
0
220
-0
230
1
0
LWPOLYLINE
5
168
100
AcDbEntity
8
0
100
AcDbPolyline
90
8
70
1
43
0.0
10
5.0950846000000105
20
-114.34240000000001
42
-0.41421356237309614
10
-2.9049154000000001
20
-106.3424
10
-2.9049153999999913
20
-5.092328599999993
42
-0.41421356237309481
10
5.0950845999999927
20
2.9076714000000004
10
271.79500000000007
20
2.9076714000000159
42
-0.4142135623730957
10
279.79500000000007
20
-5.092328600000009
10
279.79500000000007
20
-106.3424
42
-0.41421356237309503
10
271.79500000000007
20
-114.34240000000001
0
ENDSEC
0
SECTION
2
OBJECTS
0
DICTIONARY
5
C
100
AcDbDictionary
3
ACAD_GROUP
350
D
3
ACAD_MLINESTYLE
350
17
0
DICTIONARY
5
D
100
AcDbDictionary
0
DICTIONARY
5
1A
330
C
100
AcDbDictionary
0
DICTIONARY
5
17
100
AcDbDictionary
0
ENDSEC
0
EOF
