0
SECTION
2
HEADER
9
$INSUNITS
70
4
9
$ACADVER
1
AC1014
9
$HANDSEED
5
FFFF
0
ENDSEC
0
SECTION
2
TABLES
0
TABLE
2
VPORT
5
8
100
AcDbSymbolTable
0
ENDTAB
0
TABLE
2
LTYPE
5
5
100
AcDbSymbolTable
0
LTYPE
5
14
100
AcDbSymbolTableRecord
100
AcDbLinetypeTableRecord
2
BYBLOCK
70
0
0
LTYPE
5
15
100
AcDbSymbolTableRecord
100
AcDbLinetypeTableRecord
2
BYLAYER
70
0
0
ENDTAB
0
TABLE
2
LAYER
5
2
100
AcDbSymbolTable
70
2
0
LAYER
5
50
100
AcDbSymbolTableRecord
100
AcDbLayerTableRecord
2
0
70
0
6
CONTINUOUS
0
ENDTAB
0
TABLE
2
STYLE
5
3
100
AcDbSymbolTable
70
1
0
STYLE
5
11
100
AcDbSymbolTableRecord
100
AcDbTextStyleTableRecord
2
STANDARD
70
0
0
ENDTAB
0
TABLE
2
VIEW
5
6
100
AcDbSymbolTable
70
0
0
ENDTAB
0
TABLE
2
UCS
5
7
100
AcDbSymbolTable
70
0
0
ENDTAB
0
TABLE
2
APPID
5
9
100
AcDbSymbolTable
70
2
0
APPID
5
12
100
AcDbSymbolTableRecord
100
AcDbRegAppTableRecord
2
ACAD
70
0
0
ENDTAB
0
TABLE
2
DIMSTYLE
5
A
100
AcDbSymbolTable
70
1
0
ENDTAB
0
TABLE
2
BLOCK_RECORD
5
1
100
AcDbSymbolTable
70
1
0
BLOCK_RECORD
5
1F
100
AcDbSymbolTableRecord
100
AcDbBlockTableRecord
2
*MODEL_SPACE
0
BLOCK_RECORD
5
1B
100
AcDbSymbolTableRecord
100
AcDbBlockTableRecord
2
*PAPER_SPACE
0
ENDTAB
0
ENDSEC
0
SECTION
2
BLOCKS
0
BLOCK
5
20
100
AcDbEntity
100
AcDbBlockBegin
2
*MODEL_SPACE
0
ENDBLK
5
21
100
AcDbEntity
100
AcDbBlockEnd
0
BLOCK
5
1C
100
AcDbEntity
100
AcDbBlockBegin
2
*PAPER_SPACE
0
ENDBLK
5
1D
100
AcDbEntity
100
AcDbBlockEnd
0
ENDSEC
0
SECTION
2
ENTITIES
0
CIRCLE
5
100
100
AcDbEntity
8
0
100
AcDbCircle
10
-138.44503460000001
20
-1.0923000000000194
30
0
40
1.5000000000000036
210
0
220
-0
230
1
0
CIRCLE
5
101
100
AcDbEntity
8
0
100
AcDbCircle
10
-274.62341172474623
20
-2.2638728752538384
30
0
40
1.4999999999999858
210
0
220
-0
230
1
0
CIRCLE
5
102
100
AcDbEntity
8
0
100
AcDbCircle
10
-138.44503460000001
20
-104.34240000000001
30
0
40
1.5000000000000036
210
0
220
-0
230
1
0
CIRCLE
5
103
100
AcDbEntity
8
0
100
AcDbCircle
10
-2.2666574752538131
20
-2.2638728752538384
30
0
40
1.5000000000000002
210
0
220
-0
230
1
0
CIRCLE
5
104
100
AcDbEntity
8
0
100
AcDbCircle
10
-274.62341172474623
20
-103.17082712474618
30
0
40
1.4999999999999858
210
0
220
-0
230
1
0
CIRCLE
5
105
100
AcDbEntity
8
0
100
AcDbCircle
10
-2.2666574752538131
20
-103.17082712474618
30
0
40
1.5000000000000002
210
0
220
-0
230
1
0
LWPOLYLINE
5
106
100
AcDbEntity
8
0
100
AcDbPolyline
90
4
70
1
43
0.0
10
-140.97000000000003
20
-21.617800000000003
10
-140.97000000000003
20
-7.6182700000000008
10
-154.96899999999999
20
-7.6182700000000008
10
-154.96899999999999
20
-21.617800000000003
0
LWPOLYLINE
5
107
100
AcDbEntity
8
0
100
AcDbPolyline
90
4
70
1
43
0.0
10
-83.819699999999983
20
-7.6182700000000008
10
-97.819000000000003
20
-7.6182700000000008
10
-97.819000000000003
20
-21.617800000000003
10
-83.819699999999983
20
-21.617800000000003
0
LWPOLYLINE
5
108
100
AcDbEntity
8
0
100
AcDbPolyline
90
4
70
1
43
0.0
10
-78.768999999999991
20
-7.6182700000000025
10
-78.768999999999991
20
-21.617800000000003
10
-64.7697
20
-21.617800000000003
10
-64.7697
20
-7.6182700000000008
0
LWPOLYLINE
5
109
100
AcDbEntity
8
0
100
AcDbPolyline
90
4
70
1
43
0.0
10
-255.27000000000001
20
-21.617800000000003
10
-255.27000000000001
20
-7.6182700000000008
10
-269.26900000000001
20
-7.6182700000000025
10
-269.26900000000001
20
-21.617800000000003
0
LWPOLYLINE
5
110
100
AcDbEntity
8
0
100
AcDbPolyline
90
4
70
1
43
0.0
10
-250.21900000000002
20
-7.6182700000000025
10
-250.21900000000002
20
-21.617800000000003
10
-236.22
20
-21.617800000000003
10
-236.22
20
-7.6182700000000008
0
LWPOLYLINE
5
111
100
AcDbEntity
8
0
100
AcDbPolyline
90
4
70
1
43
0.0
10
-160.02000000000004
20
-21.617800000000003
10
-160.02000000000004
20
-7.6182700000000008
10
-174.01900000000001
20
-7.6182700000000008
10
-174.01900000000001
20
-21.617800000000003
0
LWPOLYLINE
5
112
100
AcDbEntity
8
0
100
AcDbPolyline
90
4
70
1
43
0.0
10
-40.669000000000004
20
-40.667600000000007
10
-26.66970000000001
20
-40.667600000000007
10
-26.66970000000001
20
-26.668300000000002
10
-40.669000000000004
20
-26.668300000000002
0
LWPOLYLINE
5
113
100
AcDbEntity
8
0
100
AcDbPolyline
90
4
70
1
43
0.0
10
-179.06999999999999
20
-7.6182700000000008
10
-193.06900000000002
20
-7.6182700000000008
10
-193.06900000000002
20
-21.617800000000003
10
-179.06999999999999
20
-21.617800000000003
0
LWPOLYLINE
5
114
100
AcDbEntity
8
0
100
AcDbPolyline
90
4
70
1
43
0.0
10
-198.12
20
-21.617800000000003
10
-198.12
20
-7.6182700000000008
10
-212.11900000000003
20
-7.6182700000000008
10
-212.11900000000003
20
-21.617800000000003
0
LWPOLYLINE
5
115
100
AcDbEntity
8
0
100
AcDbPolyline
90
4
70
1
43
0.0
10
-7.61965
20
-40.667600000000007
10
-7.61965
20
-26.668300000000002
10
-21.619200000000003
20
-26.668300000000002
10
-21.619200000000003
20
-40.667600000000007
0
LWPOLYLINE
5
116
100
AcDbEntity
8
0
100
AcDbPolyline
90
4
70
1
43
0.0
10
-64.7697
20
-40.667600000000007
10
-64.7697
20
-26.668300000000002
10
-78.768999999999991
20
-26.668300000000002
10
-78.768999999999991
20
-40.667600000000007
0
LWPOLYLINE
5
117
100
AcDbEntity
8
0
100
AcDbPolyline
90
4
70
1
43
0.0
10
-83.819699999999983
20
-40.667600000000007
10
-83.819699999999983
20
-26.668300000000002
10
-97.819000000000003
20
-26.668300000000002
10
-97.819000000000003
20
-40.667600000000007
0
LWPOLYLINE
5
118
100
AcDbEntity
8
0
100
AcDbPolyline
90
4
70
1
43
0.0
10
-78.768999999999991
20
-97.817599999999999
10
-64.7697
20
-97.817600000000027
10
-64.7697
20
-83.818300000000008
10
-78.768999999999991
20
-83.818300000000008
0
LWPOLYLINE
5
119
100
AcDbEntity
8
0
100
AcDbPolyline
90
4
70
1
43
0.0
10
-59.718999999999994
20
-7.6182700000000025
10
-59.718999999999994
20
-21.617800000000003
10
-45.719700000000003
20
-21.617800000000003
10
-45.719700000000003
20
-7.6182700000000008
0
LWPOLYLINE
5
120
100
AcDbEntity
8
0
100
AcDbPolyline
90
4
70
1
43
0.0
10
-21.619200000000003
20
-21.617800000000003
10
-7.61965
20
-21.617800000000003
10
-7.61965
20
-7.6182700000000008
10
-21.619200000000003
20
-7.6182700000000008
0
LWPOLYLINE
5
121
100
AcDbEntity
8
0
100
AcDbPolyline
90
4
70
1
43
0.0
10
-40.669000000000004
20
-7.6182700000000025
10
-40.669000000000004
20
-21.617800000000003
10
-26.66970000000001
20
-21.617800000000003
10
-26.66970000000001
20
-7.6182700000000008
0
LWPOLYLINE
5
122
100
AcDbEntity
8
0
100
AcDbPolyline
90
36
70
1
43
0.0
10
-105.845
20
-7.8484100000000003
10
-105.845
20
-6.6481399999999997
10
-109.14500000000001
20
-6.6481399999999997
10
-109.14500000000001
20
-7.8484100000000003
10
-110.869
20
-7.8484100000000003
10
-110.869
20
-12.318760000000001
10
-112.395
20
-12.318760000000001
10
-112.395
20
-7.6182700000000008
10
-126.39400000000001
20
-7.6182700000000008
10
-126.39400000000001
20
-12.318760000000001
10
-127.92000000000002
20
-12.318760000000001
10
-127.92000000000002
20
-7.8484100000000003
10
-129.64500000000001
20
-7.8484100000000003
10
-129.64500000000001
20
-6.6481399999999997
10
-132.94499999999999
20
-6.6481399999999997
10
-132.94499999999999
20
-7.8484100000000003
10
-134.66899999999998
20
-7.8484100000000003
10
-134.66899999999998
20
-14.11712
10
-135.495
20
-14.11712
10
-135.495
20
-16.917300000000001
10
-134.66899999999998
20
-16.917300000000001
10
-134.66899999999998
20
-20.147399999999998
10
-127.92000000000002
20
-20.147399999999998
10
-127.92000000000002
20
-16.917299999999997
10
-126.39400000000001
20
-16.917300000000001
10
-126.39400000000001
20
-21.617800000000003
10
-112.395
20
-21.617800000000003
10
-112.395
20
-16.917300000000001
10
-110.869
20
-16.917300000000001
10
-110.869
20
-20.147399999999998
10
-104.1182
20
-20.147399999999998
10
-104.1182
20
-16.917299999999997
10
-103.29410000000001
20
-16.917300000000001
10
-103.29410000000001
20
-14.11712
10
-104.1182
20
-14.11712
10
-104.1182
20
-7.8484100000000003
0
LWPOLYLINE
5
123
100
AcDbEntity
8
0
100
AcDbPolyline
90
4
70
1
43
0.0
10
-231.16900000000001
20
-21.617800000000003
10
-217.16999999999999
20
-21.617800000000003
10
-217.16999999999999
20
-7.6182700000000008
10
-231.16900000000001
20
-7.6182700000000008
0
LWPOLYLINE
5
124
100
AcDbEntity
8
0
100
AcDbPolyline
90
4
70
1
43
0.0
10
-174.01900000000001
20
-78.767600000000016
10
-160.02000000000004
20
-78.767600000000016
10
-160.02000000000004
20
-64.768300000000011
10
-174.01900000000001
20
-64.768300000000011
0
LWPOLYLINE
5
125
100
AcDbEntity
8
0
100
AcDbPolyline
90
4
70
1
43
0.0
10
-193.06900000000002
20
-97.817599999999999
10
-179.06999999999999
20
-97.817600000000027
10
-179.06999999999999
20
-83.818300000000008
10
-193.06900000000002
20
-83.818300000000008
0
LWPOLYLINE
5
126
100
AcDbEntity
8
0
100
AcDbPolyline
90
4
70
1
43
0.0
10
-40.669000000000004
20
-97.817599999999999
10
-26.66970000000001
20
-97.817599999999999
10
-26.66970000000001
20
-83.818300000000008
10
-40.669000000000004
20
-83.818300000000008
0
LWPOLYLINE
5
127
100
AcDbEntity
8
0
100
AcDbPolyline
90
4
70
1
43
0.0
10
-121.91800000000001
20
-83.818300000000008
10
-135.91899999999998
20
-83.818300000000008
10
-135.91899999999998
20
-97.817599999999999
10
-121.91800000000001
20
-97.817599999999999
0
LWPOLYLINE
5
128
100
AcDbEntity
8
0
100
AcDbPolyline
90
4
70
1
43
0.0
10
-45.719700000000003
20
-97.817600000000027
10
-45.719700000000003
20
-83.818300000000008
10
-59.718999999999994
20
-83.818300000000008
10
-59.718999999999994
20
-97.817599999999999
0
LWPOLYLINE
5
129
100
AcDbEntity
8
0
100
AcDbPolyline
90
4
70
1
43
0.0
10
-102.86830000000002
20
-83.818300000000008
10
-116.86900000000001
20
-83.818300000000008
10
-116.86900000000001
20
-97.817599999999999
10
-102.86830000000002
20
-97.817599999999999
0
LWPOLYLINE
5
130
100
AcDbEntity
8
0
100
AcDbPolyline
90
4
70
1
43
0.0
10
-83.819699999999983
20
-83.818300000000008
10
-97.819000000000003
20
-83.818300000000008
10
-97.819000000000003
20
-97.817599999999999
10
-83.819699999999983
20
-97.817599999999999
0
LWPOLYLINE
5
131
100
AcDbEntity
8
0
100
AcDbPolyline
90
4
70
1
43
0.0
10
-160.02000000000004
20
-83.818300000000008
10
-174.01900000000001
20
-83.818300000000008
10
-174.01900000000001
20
-97.817599999999999
10
-160.02000000000004
20
-97.817599999999999
0
LWPOLYLINE
5
132
100
AcDbEntity
8
0
100
AcDbPolyline
90
4
70
1
43
0.0
10
-198.12
20
-83.818300000000008
10
-212.11900000000003
20
-83.818300000000008
10
-212.11900000000003
20
-97.817599999999999
10
-198.12
20
-97.817599999999999
0
LWPOLYLINE
5
133
100
AcDbEntity
8
0
100
AcDbPolyline
90
4
70
1
43
0.0
10
-236.22
20
-83.818300000000008
10
-250.21900000000002
20
-83.818300000000008
10
-250.21900000000002
20
-97.817599999999999
10
-236.22
20
-97.817599999999999
0
LWPOLYLINE
5
134
100
AcDbEntity
8
0
100
AcDbPolyline
90
4
70
1
43
0.0
10
-269.26900000000001
20
-83.818300000000008
10
-269.26900000000001
20
-97.817599999999999
10
-255.27000000000001
20
-97.817600000000027
10
-255.27000000000001
20
-83.818300000000008
0
LWPOLYLINE
5
135
100
AcDbEntity
8
0
100
AcDbPolyline
90
4
70
1
43
0.0
10
-154.96899999999999
20
-83.818300000000008
10
-154.96899999999999
20
-97.817599999999999
10
-140.97000000000003
20
-97.817599999999999
10
-140.97000000000003
20
-83.818300000000008
0
LWPOLYLINE
5
136
100
AcDbEntity
8
0
100
AcDbPolyline
90
4
70
1
43
0.0
10
-217.16999999999999
20
-97.817600000000027
10
-217.16999999999999
20
-83.818300000000008
10
-231.16900000000001
20
-83.818300000000008
10
-231.16900000000001
20
-97.817599999999999
0
LWPOLYLINE
5
137
100
AcDbEntity
8
0
100
AcDbPolyline
90
4
70
1
43
0.0
10
-64.7697
20
-78.767600000000016
10
-64.7697
20
-64.768300000000011
10
-78.768999999999991
20
-64.768300000000011
10
-78.768999999999991
20
-78.767600000000016
0
LWPOLYLINE
5
138
100
AcDbEntity
8
0
100
AcDbPolyline
90
4
70
1
43
0.0
10
-135.91899999999998
20
-64.768300000000011
10
-135.91899999999998
20
-78.767600000000016
10
-121.91800000000001
20
-78.767600000000016
10
-121.91800000000001
20
-64.768300000000011
0
LWPOLYLINE
5
139
100
AcDbEntity
8
0
100
AcDbPolyline
90
4
70
1
43
0.0
10
-154.96899999999999
20
-78.767600000000016
10
-140.97000000000003
20
-78.767600000000016
10
-140.97000000000003
20
-64.768300000000011
10
-154.96899999999999
20
-64.768300000000011
0
LWPOLYLINE
5
140
100
AcDbEntity
8
0
100
AcDbPolyline
90
4
70
1
43
0.0
10
-255.27000000000001
20
-64.768300000000011
10
-269.26900000000001
20
-64.768300000000011
10
-269.26900000000001
20
-78.767600000000016
10
-255.27000000000001
20
-78.767600000000016
0
LWPOLYLINE
5
141
100
AcDbEntity
8
0
100
AcDbPolyline
90
4
70
1
43
0.0
10
-193.06900000000002
20
-78.767600000000016
10
-179.06999999999999
20
-78.767600000000016
10
-179.06999999999999
20
-64.768300000000011
10
-193.06900000000002
20
-64.768300000000011
0
LWPOLYLINE
5
142
100
AcDbEntity
8
0
100
AcDbPolyline
90
4
70
1
43
0.0
10
-40.669000000000004
20
-64.768300000000011
10
-40.669000000000004
20
-78.767600000000016
10
-26.66970000000001
20
-78.767600000000016
10
-26.66970000000001
20
-64.768300000000011
0
LWPOLYLINE
5
143
100
AcDbEntity
8
0
100
AcDbPolyline
90
4
70
1
43
0.0
10
-45.719700000000003
20
-26.668300000000002
10
-59.718999999999994
20
-26.668300000000002
10
-59.718999999999994
20
-40.667600000000007
10
-45.719700000000003
20
-40.667600000000007
0
LWPOLYLINE
5
144
100
AcDbEntity
8
0
100
AcDbPolyline
90
4
70
1
43
0.0
10
-116.86900000000001
20
-40.667600000000007
10
-102.86830000000002
20
-40.667600000000007
10
-102.86830000000002
20
-26.668300000000002
10
-116.86900000000001
20
-26.668300000000002
0
LWPOLYLINE
5
145
100
AcDbEntity
8
0
100
AcDbPolyline
90
4
70
1
43
0.0
10
-193.06900000000002
20
-40.667600000000007
10
-179.06999999999999
20
-40.667600000000007
10
-179.06999999999999
20
-26.668300000000002
10
-193.06900000000002
20
-26.668300000000002
0
LWPOLYLINE
5
146
100
AcDbEntity
8
0
100
AcDbPolyline
90
4
70
1
43
0.0
10
-269.26900000000001
20
-26.668300000000002
10
-269.26900000000001
20
-40.667600000000007
10
-255.27000000000001
20
-40.667600000000007
10
-255.27000000000001
20
-26.668300000000002
0
LWPOLYLINE
5
147
100
AcDbEntity
8
0
100
AcDbPolyline
90
4
70
1
43
0.0
10
-250.21900000000002
20
-40.667600000000007
10
-236.22
20
-40.667600000000007
10
-236.22
20
-26.668300000000002
10
-250.21900000000002
20
-26.668300000000002
0
LWPOLYLINE
5
148
100
AcDbEntity
8
0
100
AcDbPolyline
90
4
70
1
43
0.0
10
-212.11900000000003
20
-26.668300000000002
10
-212.11900000000003
20
-40.667600000000007
10
-198.12
20
-40.667600000000007
10
-198.12
20
-26.668300000000002
0
LWPOLYLINE
5
149
100
AcDbEntity
8
0
100
AcDbPolyline
90
4
70
1
43
0.0
10
-135.91899999999998
20
-40.667600000000007
10
-121.91800000000001
20
-40.667600000000007
10
-121.91800000000001
20
-26.668300000000002
10
-135.91899999999998
20
-26.668300000000002
0
LWPOLYLINE
5
150
100
AcDbEntity
8
0
100
AcDbPolyline
90
4
70
1
43
0.0
10
-174.01900000000001
20
-40.667600000000007
10
-160.02000000000004
20
-40.667600000000007
10
-160.02000000000004
20
-26.668300000000002
10
-174.01900000000001
20
-26.668300000000002
0
LWPOLYLINE
5
151
100
AcDbEntity
8
0
100
AcDbPolyline
90
4
70
1
43
0.0
10
-21.619200000000003
20
-64.768300000000011
10
-21.619200000000003
20
-78.767600000000016
10
-7.61965
20
-78.767600000000016
10
-7.61965
20
-64.768300000000011
0
LWPOLYLINE
5
152
100
AcDbEntity
8
0
100
AcDbPolyline
90
4
70
1
43
0.0
10
-7.61965
20
-45.718299999999999
10
-21.619200000000003
20
-45.718299999999999
10
-21.619200000000003
20
-59.717599999999997
10
-7.61965
20
-59.717599999999997
0
LWPOLYLINE
5
153
100
AcDbEntity
8
0
100
AcDbPolyline
90
4
70
1
43
0.0
10
-140.97000000000003
20
-40.667600000000007
10
-140.97000000000003
20
-26.668300000000002
10
-154.96899999999999
20
-26.668300000000002
10
-154.96899999999999
20
-40.667600000000007
0
LWPOLYLINE
5
154
100
AcDbEntity
8
0
100
AcDbPolyline
90
4
70
1
43
0.0
10
-217.16999999999999
20
-26.668300000000002
10
-231.16900000000001
20
-26.668300000000002
10
-231.16900000000001
20
-40.667600000000007
10
-217.16999999999999
20
-40.667600000000007
0
LWPOLYLINE
5
155
100
AcDbEntity
8
0
100
AcDbPolyline
90
4
70
1
43
0.0
10
-40.669000000000004
20
-59.717599999999997
10
-26.66970000000001
20
-59.717599999999997
10
-26.66970000000001
20
-45.718299999999999
10
-40.669000000000004
20
-45.718299999999999
0
LWPOLYLINE
5
156
100
AcDbEntity
8
0
100
AcDbPolyline
90
4
70
1
43
0.0
10
-212.11900000000003
20
-59.717599999999997
10
-198.12
20
-59.717599999999997
10
-198.12
20
-45.718299999999999
10
-212.11900000000003
20
-45.718299999999999
0
LWPOLYLINE
5
157
100
AcDbEntity
8
0
100
AcDbPolyline
90
4
70
1
43
0.0
10
-116.86900000000001
20
-59.717599999999997
10
-102.86830000000002
20
-59.717599999999997
10
-102.86830000000002
20
-45.718299999999999
10
-116.86900000000001
20
-45.718299999999999
0
LWPOLYLINE
5
158
100
AcDbEntity
8
0
100
AcDbPolyline
90
4
70
1
43
0.0
10
-83.819699999999983
20
-59.717599999999997
10
-83.819699999999983
20
-45.718299999999999
10
-97.819000000000003
20
-45.718299999999999
10
-97.819000000000003
20
-59.717599999999997
0
LWPOLYLINE
5
159
100
AcDbEntity
8
0
100
AcDbPolyline
90
4
70
1
43
0.0
10
-140.97000000000003
20
-45.718299999999999
10
-154.96899999999999
20
-45.718299999999999
10
-154.96899999999999
20
-59.717599999999997
10
-140.97000000000003
20
-59.717599999999997
0
LWPOLYLINE
5
160
100
AcDbEntity
8
0
100
AcDbPolyline
90
4
70
1
43
0.0
10
-179.06999999999999
20
-45.718299999999999
10
-193.06900000000002
20
-45.718299999999999
10
-193.06900000000002
20
-59.717599999999997
10
-179.06999999999999
20
-59.717599999999997
0
LWPOLYLINE
5
161
100
AcDbEntity
8
0
100
AcDbPolyline
90
36
70
1
43
0.0
10
-266.29500000000002
20
-45.948300000000003
10
-268.01900000000001
20
-45.94830000000001
10
-268.01900000000001
20
-52.217200000000005
10
-268.84500000000003
20
-52.217200000000005
10
-268.84500000000003
20
-55.017200000000003
10
-268.01900000000001
20
-55.017200000000003
10
-268.01900000000001
20
-58.247600000000006
10
-261.26999999999998
20
-58.247600000000006
10
-261.26999999999998
20
-55.017200000000003
10
-259.74400000000003
20
-55.017200000000003
10
-259.74400000000003
20
-59.717599999999997
10
-245.745
20
-59.717599999999997
10
-245.745
20
-55.017200000000003
10
-244.21900000000005
20
-55.017200000000003
10
-244.21900000000005
20
-58.247600000000006
10
-237.47
20
-58.247600000000006
10
-237.47
20
-55.017200000000003
10
-236.64400000000001
20
-55.017200000000003
10
-236.64400000000001
20
-52.217200000000005
10
-237.47
20
-52.217200000000005
10
-237.47
20
-45.94830000000001
10
-239.19499999999999
20
-45.94830000000001
10
-239.19499999999999
20
-44.748199999999997
10
-242.495
20
-44.748199999999997
10
-242.495
20
-45.948300000000003
10
-244.21900000000005
20
-45.94830000000001
10
-244.21900000000005
20
-50.417300000000004
10
-245.745
20
-50.417300000000004
10
-245.745
20
-45.718299999999999
10
-259.74400000000003
20
-45.718299999999999
10
-259.74400000000003
20
-50.417300000000004
10
-261.26999999999998
20
-50.417300000000004
10
-261.26999999999998
20
-45.94830000000001
10
-262.995
20
-45.94830000000001
10
-262.995
20
-44.748199999999997
10
-266.29500000000002
20
-44.748199999999997
0
LWPOLYLINE
5
162
100
AcDbEntity
8
0
100
AcDbPolyline
90
4
70
1
43
0.0
10
-236.22
20
-78.767600000000016
10
-236.22
20
-64.768300000000011
10
-250.21900000000002
20
-64.768300000000011
10
-250.21900000000002
20
-78.767600000000016
0
LWPOLYLINE
5
163
100
AcDbEntity
8
0
100
AcDbPolyline
90
4
70
1
43
0.0
10
-160.02000000000004
20
-59.717599999999997
10
-160.02000000000004
20
-45.718299999999999
10
-174.01900000000001
20
-45.718299999999999
10
-174.01900000000001
20
-59.717599999999997
0
LWPOLYLINE
5
164
100
AcDbEntity
8
0
100
AcDbPolyline
90
4
70
1
43
0.0
10
-121.91800000000001
20
-59.717599999999997
10
-121.91800000000001
20
-45.718299999999999
10
-135.91899999999998
20
-45.718299999999999
10
-135.91899999999998
20
-59.717599999999997
0
LWPOLYLINE
5
165
100
AcDbEntity
8
0
100
AcDbPolyline
90
4
70
1
43
0.0
10
-217.16999999999999
20
-59.717599999999997
10
-217.16999999999999
20
-45.718299999999999
10
-231.16900000000001
20
-45.718299999999999
10
-231.16900000000001
20
-59.717599999999997
0
LWPOLYLINE
5
166
100
AcDbEntity
8
0
100
AcDbPolyline
90
4
70
1
43
0.0
10
-45.719700000000003
20
-59.717599999999997
10
-45.719700000000003
20
-45.718299999999999
10
-59.718999999999994
20
-45.718299999999999
10
-59.718999999999994
20
-59.717599999999997
0
LWPOLYLINE
5
167
100
AcDbEntity
8
0
100
AcDbPolyline
90
4
70
1
43
0.0
10
-78.768999999999991
20
-45.718299999999999
10
-78.768999999999991
20
-59.717599999999997
10
-64.7697
20
-59.717599999999997
10
-64.7697
20
-45.718299999999999
0
LWPOLYLINE
5
168
100
AcDbEntity
8
0
100
AcDbPolyline
90
4
70
1
43
0.0
10
-116.86900000000001
20
-64.768300000000011
10
-116.86900000000001
20
-78.767600000000016
10
-102.86830000000002
20
-78.767600000000016
10
-102.86830000000002
20
-64.768300000000011
0
LWPOLYLINE
5
169
100
AcDbEntity
8
0
100
AcDbPolyline
90
4
70
1
43
0.0
10
-83.819699999999983
20
-78.767600000000016
10
-83.819699999999983
20
-64.768300000000011
10
-97.819000000000003
20
-64.768300000000011
10
-97.819000000000003
20
-78.767600000000016
0
LWPOLYLINE
5
170
100
AcDbEntity
8
0
100
AcDbPolyline
90
4
70
1
43
0.0
10
-59.718999999999994
20
-64.768300000000011
10
-59.718999999999994
20
-78.767600000000016
10
-45.719700000000003
20
-78.767600000000016
10
-45.719700000000003
20
-64.768300000000011
0
LWPOLYLINE
5
171
100
AcDbEntity
8
0
100
AcDbPolyline
90
4
70
1
43
0.0
10
-21.619200000000003
20
-97.817599999999999
10
-7.61965
20
-97.817600000000027
10
-7.61965
20
-83.818300000000008
10
-21.619200000000003
20
-83.818300000000008
0
LWPOLYLINE
5
172
100
AcDbEntity
8
0
100
AcDbPolyline
90
4
70
1
43
0.0
10
-212.11900000000003
20
-64.768300000000011
10
-212.11900000000003
20
-78.767600000000016
10
-198.12
20
-78.767600000000016
10
-198.12
20
-64.768300000000011
0
LWPOLYLINE
5
173
100
AcDbEntity
8
0
100
AcDbPolyline
90
4
70
1
43
0.0
10
-217.16999999999999
20
-78.767600000000016
10
-217.16999999999999
20
-64.768300000000011
10
-231.16900000000001
20
-64.768300000000011
10
-231.16900000000001
20
-78.767600000000016
0
LWPOLYLINE
5
174
100
AcDbEntity
8
0
100
AcDbPolyline
90
8
70
1
43
0.0
10
-5.0950846000000034
20
2.9076714000000004
42
-0.41421356237309509
10
2.9049154000000001
20
-5.0923285999999912
10
2.9049154000000064
20
-100.3424
42
-0.41421356237309476
10
-5.0950845999999927
20
-108.34240000000001
10
-271.79500000000007
20
-108.34240000000001
42
-0.41421356237309503
10
-279.79500000000007
20
-100.3424
10
-279.79500000000007
20
-5.0923286000000001
42
-0.41421356237309503
10
-271.79500000000007
20
2.9076714000000004
0
LINE
5
175
100
AcDbEntity
8
0
100
AcDbLine
10
-14.619425000000001
20
-97.817600000000027
30
0
11
-14.619425000000001
21
-7.6182700000000008
31
0
0
LINE
5
176
100
AcDbEntity
8
0
100
AcDbLine
10
-7.61965
20
-90.81795000000001
30
0
11
-269.26900000000001
21
-90.817949999999996
31
0
0
LINE
5
177
100
AcDbEntity
8
0
100
AcDbLine
10
-7.61965
20
-71.767949999999999
30
0
11
-269.26900000000001
21
-71.767949999999999
31
0
0
LINE
5
178
100
AcDbEntity
8
0
100
AcDbLine
10
-7.61965
20
-52.717950000000002
30
0
11
-231.16900000000001
21
-52.717950000000002
31
0
0
LINE
5
179
100
AcDbEntity
8
0
100
AcDbLine
10
-7.61965
20
-33.667950000000005
30
0
11
-269.26900000000001
21
-33.667950000000005
31
0
0
LINE
5
180
100
AcDbEntity
8
0
100
AcDbLine
10
-269.26900000000001
20
-14.618035000000003
30
0
11
-7.61965
21
-14.618035000000003
31
0
0
LINE
5
181
100
AcDbEntity
8
0
100
AcDbLine
10
-33.669350000000009
20
-97.817599999999999
30
0
11
-33.669350000000009
21
-7.6182700000000017
31
0
0
LINE
5
182
100
AcDbEntity
8
0
100
AcDbLine
10
-52.719349999999999
20
-7.6182700000000017
30
0
11
-52.719349999999999
21
-97.817600000000027
31
0
0
LINE
5
183
100
AcDbEntity
8
0
100
AcDbLine
10
-71.769350000000003
20
-97.817600000000027
30
0
11
-71.769350000000003
21
-7.6182700000000017
31
0
0
LINE
5
184
100
AcDbEntity
8
0
100
AcDbLine
10
-90.81935
20
-7.6182700000000008
30
0
11
-90.81935
21
-97.817599999999999
31
0
0
LINE
5
185
100
AcDbEntity
8
0
100
AcDbLine
10
-109.86865000000002
20
-97.817599999999999
30
0
11
-109.86865000000002
21
-26.668300000000002
31
0
0
LINE
5
186
100
AcDbEntity
8
0
100
AcDbLine
10
-119.39450000000001
20
-21.617800000000003
30
0
11
-119.39450000000001
21
-7.6182700000000008
31
0
0
LINE
5
187
100
AcDbEntity
8
0
100
AcDbLine
10
-128.91849999999999
20
-26.668300000000002
30
0
11
-128.91849999999999
21
-97.817599999999999
31
0
0
LINE
5
188
100
AcDbEntity
8
0
100
AcDbLine
10
-147.96950000000001
20
-97.817599999999999
30
0
11
-147.96950000000001
21
-7.6182700000000008
31
0
0
LINE
5
189
100
AcDbEntity
8
0
100
AcDbLine
10
-167.01950000000005
20
-97.817599999999999
30
0
11
-167.01950000000005
21
-7.6182700000000008
31
0
0
LINE
5
190
100
AcDbEntity
8
0
100
AcDbLine
10
-186.06950000000001
20
-7.6182700000000008
30
0
11
-186.06950000000001
21
-97.817600000000027
31
0
0
LINE
5
191
100
AcDbEntity
8
0
100
AcDbLine
10
-205.11950000000002
20
-97.817599999999999
30
0
11
-205.11950000000002
21
-7.6182700000000008
31
0
0
LINE
5
192
100
AcDbEntity
8
0
100
AcDbLine
10
-224.1695
20
-7.6182700000000008
30
0
11
-224.1695
21
-97.817600000000027
31
0
0
LINE
5
193
100
AcDbEntity
8
0
100
AcDbLine
10
-243.21950000000001
20
-97.817599999999999
30
0
11
-243.21950000000001
21
-7.6182700000000017
31
0
0
LINE
5
194
100
AcDbEntity
8
0
100
AcDbLine
10
-252.74450000000002
20
-59.717599999999997
30
0
11
-252.74450000000002
21
-45.718299999999999
31
0
0
LINE
5
195
100
AcDbEntity
8
0
100
AcDbLine
10
-243.21950000000001
20
-52.717935000000004
30
0
11
-262.26949999999999
21
-52.717935000000004
31
0
0
LINE
5
196
100
AcDbEntity
8
0
100
AcDbLine
10
-262.26949999999999
20
-7.6182700000000017
30
0
11
-262.26949999999999
21
-97.817600000000027
31
0
0
LINE
5
197
100
AcDbEntity
8
0
100
AcDbLine
10
-22.119425
20
-83.31795000000001
30
0
11
-7.1194250000000014
21
-83.31795000000001
31
0
0
LINE
5
198
100
AcDbEntity
8
0
100
AcDbLine
10
-7.1194250000000014
20
-83.31795000000001
30
0
11
-7.1194250000000014
21
-98.31795000000001
31
0
0
LINE
5
199
100
AcDbEntity
8
0
100
AcDbLine
10
-7.1194250000000014
20
-98.31795000000001
30
0
11
-22.119425
21
-98.31795000000001
31
0
0
LINE
5
200
100
AcDbEntity
8
0
100
AcDbLine
10
-22.119425
20
-98.31795000000001
30
0
11
-22.119425
21
-83.31795000000001
31
0
0
LINE
5
201
100
AcDbEntity
8
0
100
AcDbLine
10
-22.119425
20
-83.31795000000001
30
0
11
-7.1194250000000014
21
-98.31795000000001
31
0
0
LINE
5
202
100
AcDbEntity
8
0
100
AcDbLine
10
-7.1194250000000014
20
-83.31795000000001
30
0
11
-22.119425
21
-98.31795000000001
31
0
0
LINE
5
203
100
AcDbEntity
8
0
100
AcDbLine
10
-7.1194250000000014
20
-83.31795000000001
30
0
11
-22.119425
21
-98.31795000000001
31
0
0
LINE
5
204
100
AcDbEntity
8
0
100
AcDbLine
10
-22.119425
20
-83.31795000000001
30
0
11
-7.1194250000000014
21
-83.31795000000001
31
0
0
LINE
5
205
100
AcDbEntity
8
0
100
AcDbLine
10
-22.119425
20
-83.31795000000001
30
0
11
-7.1194250000000014
21
-98.31795000000001
31
0
0
LINE
5
206
100
AcDbEntity
8
0
100
AcDbLine
10
-7.1194250000000014
20
-98.31795000000001
30
0
11
-22.119425
21
-98.31795000000001
31
0
0
LINE
5
207
100
AcDbEntity
8
0
100
AcDbLine
10
-7.1194250000000014
20
-83.31795000000001
30
0
11
-7.1194250000000014
21
-98.31795000000001
31
0
0
LINE
5
208
100
AcDbEntity
8
0
100
AcDbLine
10
-22.119425
20
-98.31795000000001
30
0
11
-22.119425
21
-83.31795000000001
31
0
0
LINE
5
209
100
AcDbEntity
8
0
100
AcDbLine
10
-7.1194250000000014
20
-98.31795000000001
30
0
11
-22.119425
21
-98.31795000000001
31
0
0
LINE
5
210
100
AcDbEntity
8
0
100
AcDbLine
10
-22.119425
20
-98.31795000000001
30
0
11
-22.119425
21
-83.31795000000001
31
0
0
LINE
5
211
100
AcDbEntity
8
0
100
AcDbLine
10
-7.1194250000000014
20
-83.31795000000001
30
0
11
-7.1194250000000014
21
-98.31795000000001
31
0
0
LINE
5
212
100
AcDbEntity
8
0
100
AcDbLine
10
-22.119425
20
-83.31795000000001
30
0
11
-7.1194250000000014
21
-83.31795000000001
31
0
0
LINE
5
213
100
AcDbEntity
8
0
100
AcDbLine
10
-7.1194250000000014
20
-98.31795000000001
30
0
11
-22.119425
21
-98.31795000000001
31
0
0
LINE
5
214
100
AcDbEntity
8
0
100
AcDbLine
10
-7.1194250000000014
20
-83.31795000000001
30
0
11
-7.1194250000000014
21
-98.31795000000001
31
0
0
LINE
5
215
100
AcDbEntity
8
0
100
AcDbLine
10
-22.119425
20
-83.31795000000001
30
0
11
-7.1194250000000014
21
-83.31795000000001
31
0
0
LINE
5
216
100
AcDbEntity
8
0
100
AcDbLine
10
-22.119425
20
-98.31795000000001
30
0
11
-22.119425
21
-83.31795000000001
31
0
0
LINE
5
217
100
AcDbEntity
8
0
100
AcDbLine
10
-7.1194250000000014
20
-79.267949999999999
30
0
11
-22.119425
21
-79.267949999999999
31
0
0
LINE
5
218
100
AcDbEntity
8
0
100
AcDbLine
10
-7.1194250000000014
20
-64.267949999999999
30
0
11
-7.1194250000000014
21
-79.267949999999999
31
0
0
LINE
5
219
100
AcDbEntity
8
0
100
AcDbLine
10
-22.119425
20
-64.267949999999999
30
0
11
-7.1194250000000014
21
-64.267949999999999
31
0
0
LINE
5
220
100
AcDbEntity
8
0
100
AcDbLine
10
-22.119425
20
-79.267949999999999
30
0
11
-22.119425
21
-64.267949999999999
31
0
0
LINE
5
221
100
AcDbEntity
8
0
100
AcDbLine
10
-7.1194250000000014
20
-60.217935000000011
30
0
11
-22.119425
21
-60.217935000000011
31
0
0
LINE
5
222
100
AcDbEntity
8
0
100
AcDbLine
10
-7.1194250000000014
20
-45.217935000000011
30
0
11
-7.1194250000000014
21
-60.217935000000011
31
0
0
LINE
5
223
100
AcDbEntity
8
0
100
AcDbLine
10
-22.119425
20
-45.217935000000011
30
0
11
-7.1194250000000014
21
-45.217935000000011
31
0
0
LINE
5
224
100
AcDbEntity
8
0
100
AcDbLine
10
-22.119425
20
-60.217935000000011
30
0
11
-22.119425
21
-45.217935000000011
31
0
0
LINE
5
225
100
AcDbEntity
8
0
100
AcDbLine
10
-7.1194250000000014
20
-41.167949999999998
30
0
11
-22.119425
21
-41.167949999999998
31
0
0
LINE
5
226
100
AcDbEntity
8
0
100
AcDbLine
10
-7.1194250000000014
20
-26.167949999999998
30
0
11
-7.1194250000000014
21
-41.167949999999998
31
0
0
LINE
5
227
100
AcDbEntity
8
0
100
AcDbLine
10
-22.119425
20
-26.167949999999998
30
0
11
-7.1194250000000014
21
-26.167949999999998
31
0
0
LINE
5
228
100
AcDbEntity
8
0
100
AcDbLine
10
-22.119425
20
-41.167949999999998
30
0
11
-22.119425
21
-26.167949999999998
31
0
0
LINE
5
229
100
AcDbEntity
8
0
100
AcDbLine
10
-7.1194249999999926
20
-22.118035000000003
30
0
11
-22.119424999999993
21
-22.118035000000003
31
0
0
LINE
5
230
100
AcDbEntity
8
0
100
AcDbLine
10
-7.1194249999999926
20
-7.1180350000000026
30
0
11
-7.1194249999999926
21
-22.118035000000003
31
0
0
LINE
5
231
100
AcDbEntity
8
0
100
AcDbLine
10
-22.119424999999993
20
-7.1180350000000026
30
0
11
-7.1194249999999926
21
-7.1180350000000026
31
0
0
LINE
5
232
100
AcDbEntity
8
0
100
AcDbLine
10
-22.119424999999993
20
-22.118035000000003
30
0
11
-22.119424999999993
21
-7.1180350000000026
31
0
0
LINE
5
233
100
AcDbEntity
8
0
100
AcDbLine
10
-26.169350000000009
20
-98.31795000000001
30
0
11
-41.169350000000009
21
-98.31795000000001
31
0
0
LINE
5
234
100
AcDbEntity
8
0
100
AcDbLine
10
-26.169350000000001
20
-83.31795000000001
30
0
11
-26.169350000000001
21
-98.31795000000001
31
0
0
LINE
5
235
100
AcDbEntity
8
0
100
AcDbLine
10
-41.169350000000009
20
-98.31795000000001
30
0
11
-41.169350000000009
21
-83.31795000000001
31
0
0
LINE
5
236
100
AcDbEntity
8
0
100
AcDbLine
10
-41.169350000000009
20
-83.31795000000001
30
0
11
-26.169350000000001
21
-83.31795000000001
31
0
0
LINE
5
237
100
AcDbEntity
8
0
100
AcDbLine
10
-26.169350000000009
20
-79.267949999999999
30
0
11
-41.169350000000009
21
-79.267949999999999
31
0
0
LINE
5
238
100
AcDbEntity
8
0
100
AcDbLine
10
-26.169350000000009
20
-64.267949999999999
30
0
11
-26.169350000000009
21
-79.267949999999999
31
0
0
LINE
5
239
100
AcDbEntity
8
0
100
AcDbLine
10
-41.169350000000009
20
-64.267949999999999
30
0
11
-26.169350000000009
21
-64.267949999999999
31
0
0
LINE
5
240
100
AcDbEntity
8
0
100
AcDbLine
10
-41.169350000000009
20
-79.267949999999999
30
0
11
-41.169350000000009
21
-64.267949999999999
31
0
0
LINE
5
241
100
AcDbEntity
8
0
100
AcDbLine
10
-26.169350000000009
20
-60.217935000000011
30
0
11
-41.169350000000009
21
-60.217935000000011
31
0
0
LINE
5
242
100
AcDbEntity
8
0
100
AcDbLine
10
-26.169350000000009
20
-45.217935000000011
30
0
11
-26.169350000000009
21
-60.217935000000011
31
0
0
LINE
5
243
100
AcDbEntity
8
0
100
AcDbLine
10
-41.169350000000009
20
-60.217935000000011
30
0
11
-41.169350000000009
21
-45.217935000000011
31
0
0
LINE
5
244
100
AcDbEntity
8
0
100
AcDbLine
10
-41.169350000000009
20
-45.217935000000011
30
0
11
-26.169350000000009
21
-45.217935000000011
31
0
0
LINE
5
245
100
AcDbEntity
8
0
100
AcDbLine
10
-26.169350000000009
20
-41.167949999999998
30
0
11
-41.169350000000009
21
-41.167949999999998
31
0
0
LINE
5
246
100
AcDbEntity
8
0
100
AcDbLine
10
-26.169350000000009
20
-26.167949999999998
30
0
11
-26.169350000000009
21
-41.167949999999998
31
0
0
LINE
5
247
100
AcDbEntity
8
0
100
AcDbLine
10
-41.169350000000009
20
-41.167949999999998
30
0
11
-41.169350000000009
21
-26.167949999999998
31
0
0
LINE
5
248
100
AcDbEntity
8
0
100
AcDbLine
10
-41.169350000000009
20
-26.167949999999998
30
0
11
-26.169350000000009
21
-26.167949999999998
31
0
0
LINE
5
249
100
AcDbEntity
8
0
100
AcDbLine
10
-26.169349999999998
20
-22.118035000000003
30
0
11
-41.169349999999994
21
-22.118035000000003
31
0
0
LINE
5
250
100
AcDbEntity
8
0
100
AcDbLine
10
-26.169349999999998
20
-7.1180350000000026
30
0
11
-26.169349999999998
21
-22.118035000000003
31
0
0
LINE
5
251
100
AcDbEntity
8
0
100
AcDbLine
10
-41.169349999999994
20
-22.118035000000003
30
0
11
-41.169349999999994
21
-7.1180350000000026
31
0
0
LINE
5
252
100
AcDbEntity
8
0
100
AcDbLine
10
-41.169349999999994
20
-7.1180350000000026
30
0
11
-26.169349999999998
21
-7.1180350000000026
31
0
0
LINE
5
253
100
AcDbEntity
8
0
100
AcDbLine
10
-45.219349999999999
20
-98.31795000000001
30
0
11
-60.219349999999999
21
-98.31795000000001
31
0
0
LINE
5
254
100
AcDbEntity
8
0
100
AcDbLine
10
-45.219349999999991
20
-83.31795000000001
30
0
11
-45.219349999999991
21
-98.31795000000001
31
0
0
LINE
5
255
100
AcDbEntity
8
0
100
AcDbLine
10
-60.219349999999999
20
-98.31795000000001
30
0
11
-60.219349999999999
21
-83.31795000000001
31
0
0
LINE
5
256
100
AcDbEntity
8
0
100
AcDbLine
10
-60.219349999999999
20
-83.31795000000001
30
0
11
-45.219349999999991
21
-83.31795000000001
31
0
0
LINE
5
257
100
AcDbEntity
8
0
100
AcDbLine
10
-45.219349999999999
20
-79.267949999999999
30
0
11
-60.219349999999999
21
-79.267949999999999
31
0
0
LINE
5
258
100
AcDbEntity
8
0
100
AcDbLine
10
-45.219349999999999
20
-64.267949999999999
30
0
11
-45.219349999999999
21
-79.267949999999999
31
0
0
LINE
5
259
100
AcDbEntity
8
0
100
AcDbLine
10
-60.219349999999999
20
-64.267949999999999
30
0
11
-45.219349999999999
21
-64.267949999999999
31
0
0
LINE
5
260
100
AcDbEntity
8
0
100
AcDbLine
10
-60.219349999999999
20
-79.267949999999999
30
0
11
-60.219349999999999
21
-64.267949999999999
31
0
0
LINE
5
261
100
AcDbEntity
8
0
100
AcDbLine
10
-45.219349999999999
20
-60.217935000000011
30
0
11
-60.219349999999999
21
-60.217935000000011
31
0
0
LINE
5
262
100
AcDbEntity
8
0
100
AcDbLine
10
-45.219349999999999
20
-45.217935000000011
30
0
11
-45.219349999999999
21
-60.217935000000011
31
0
0
LINE
5
263
100
AcDbEntity
8
0
100
AcDbLine
10
-60.219349999999999
20
-60.217935000000011
30
0
11
-60.219349999999999
21
-45.217935000000011
31
0
0
LINE
5
264
100
AcDbEntity
8
0
100
AcDbLine
10
-60.219349999999999
20
-45.217935000000011
30
0
11
-45.219349999999999
21
-45.217935000000011
31
0
0
LINE
5
265
100
AcDbEntity
8
0
100
AcDbLine
10
-45.219349999999999
20
-41.167949999999998
30
0
11
-60.219349999999999
21
-41.167949999999998
31
0
0
LINE
5
266
100
AcDbEntity
8
0
100
AcDbLine
10
-45.219349999999999
20
-26.167949999999998
30
0
11
-45.219349999999999
21
-41.167949999999998
31
0
0
LINE
5
267
100
AcDbEntity
8
0
100
AcDbLine
10
-60.219349999999999
20
-41.167949999999998
30
0
11
-60.219349999999999
21
-26.167949999999998
31
0
0
LINE
5
268
100
AcDbEntity
8
0
100
AcDbLine
10
-60.219349999999999
20
-26.167949999999998
30
0
11
-45.219349999999999
21
-26.167949999999998
31
0
0
LINE
5
269
100
AcDbEntity
8
0
100
AcDbLine
10
-45.219349999999991
20
-22.118035000000003
30
0
11
-60.219349999999991
21
-22.118035000000003
31
0
0
LINE
5
270
100
AcDbEntity
8
0
100
AcDbLine
10
-45.219349999999991
20
-7.1180350000000026
30
0
11
-45.219349999999991
21
-22.118035000000003
31
0
0
LINE
5
271
100
AcDbEntity
8
0
100
AcDbLine
10
-60.219349999999991
20
-22.118035000000003
30
0
11
-60.219349999999991
21
-7.1180350000000026
31
0
0
LINE
5
272
100
AcDbEntity
8
0
100
AcDbLine
10
-60.219349999999991
20
-7.1180350000000026
30
0
11
-45.219349999999991
21
-7.1180350000000026
31
0
0
LINE
5
273
100
AcDbEntity
8
0
100
AcDbLine
10
-64.269350000000003
20
-98.31795000000001
30
0
11
-79.269350000000003
21
-98.31795000000001
31
0
0
LINE
5
274
100
AcDbEntity
8
0
100
AcDbLine
10
-64.269349999999989
20
-83.31795000000001
30
0
11
-64.269349999999989
21
-98.31795000000001
31
0
0
LINE
5
275
100
AcDbEntity
8
0
100
AcDbLine
10
-79.269350000000003
20
-98.31795000000001
30
0
11
-79.269350000000003
21
-83.31795000000001
31
0
0
LINE
5
276
100
AcDbEntity
8
0
100
AcDbLine
10
-79.269350000000003
20
-83.31795000000001
30
0
11
-64.269349999999989
21
-83.31795000000001
31
0
0
LINE
5
277
100
AcDbEntity
8
0
100
AcDbLine
10
-64.269350000000003
20
-79.267949999999999
30
0
11
-79.269350000000003
21
-79.267949999999999
31
0
0
LINE
5
278
100
AcDbEntity
8
0
100
AcDbLine
10
-64.269350000000003
20
-64.267949999999999
30
0
11
-64.269350000000003
21
-79.267949999999999
31
0
0
LINE
5
279
100
AcDbEntity
8
0
100
AcDbLine
10
-79.269350000000003
20
-64.267949999999999
30
0
11
-64.269350000000003
21
-64.267949999999999
31
0
0
LINE
5
280
100
AcDbEntity
8
0
100
AcDbLine
10
-79.269350000000003
20
-79.267949999999999
30
0
11
-79.269350000000003
21
-64.267949999999999
31
0
0
LINE
5
281
100
AcDbEntity
8
0
100
AcDbLine
10
-64.269350000000003
20
-60.217935000000011
30
0
11
-79.269350000000003
21
-60.217935000000011
31
0
0
LINE
5
282
100
AcDbEntity
8
0
100
AcDbLine
10
-64.269350000000003
20
-45.217935000000011
30
0
11
-64.269350000000003
21
-60.217935000000011
31
0
0
LINE
5
283
100
AcDbEntity
8
0
100
AcDbLine
10
-79.269350000000003
20
-60.217935000000011
30
0
11
-79.269350000000003
21
-45.217935000000011
31
0
0
LINE
5
284
100
AcDbEntity
8
0
100
AcDbLine
10
-79.269350000000003
20
-45.217935000000011
30
0
11
-64.269350000000003
21
-45.217935000000011
31
0
0
LINE
5
285
100
AcDbEntity
8
0
100
AcDbLine
10
-64.269350000000003
20
-41.167949999999998
30
0
11
-79.269350000000003
21
-41.167949999999998
31
0
0
LINE
5
286
100
AcDbEntity
8
0
100
AcDbLine
10
-64.269350000000003
20
-26.167949999999998
30
0
11
-64.269350000000003
21
-41.167949999999998
31
0
0
LINE
5
287
100
AcDbEntity
8
0
100
AcDbLine
10
-79.269350000000003
20
-41.167949999999998
30
0
11
-79.269350000000003
21
-26.167949999999998
31
0
0
LINE
5
288
100
AcDbEntity
8
0
100
AcDbLine
10
-79.269350000000003
20
-26.167949999999998
30
0
11
-64.269350000000003
21
-26.167949999999998
31
0
0
LINE
5
289
100
AcDbEntity
8
0
100
AcDbLine
10
-64.269349999999989
20
-22.118035000000003
30
0
11
-79.269349999999989
21
-22.118035000000003
31
0
0
LINE
5
290
100
AcDbEntity
8
0
100
AcDbLine
10
-64.269349999999989
20
-7.1180350000000026
30
0
11
-64.269349999999989
21
-22.118035000000003
31
0
0
LINE
5
291
100
AcDbEntity
8
0
100
AcDbLine
10
-79.269349999999989
20
-22.118035000000003
30
0
11
-79.269349999999989
21
-7.1180350000000026
31
0
0
LINE
5
292
100
AcDbEntity
8
0
100
AcDbLine
10
-79.269349999999989
20
-7.1180350000000026
30
0
11
-64.269349999999989
21
-7.1180350000000026
31
0
0
LINE
5
293
100
AcDbEntity
8
0
100
AcDbLine
10
-83.31935
20
-98.31795000000001
30
0
11
-98.31935
21
-98.31795000000001
31
0
0
LINE
5
294
100
AcDbEntity
8
0
100
AcDbLine
10
-83.31935
20
-83.31795000000001
30
0
11
-83.31935
21
-98.31795000000001
31
0
0
LINE
5
295
100
AcDbEntity
8
0
100
AcDbLine
10
-98.31935
20
-98.31795000000001
30
0
11
-98.31935
21
-83.31795000000001
31
0
0
LINE
5
296
100
AcDbEntity
8
0
100
AcDbLine
10
-98.31935
20
-83.31795000000001
30
0
11
-83.31935
21
-83.31795000000001
31
0
0
LINE
5
297
100
AcDbEntity
8
0
100
AcDbLine
10
-83.31935
20
-79.267949999999999
30
0
11
-98.31935
21
-79.267949999999999
31
0
0
LINE
5
298
100
AcDbEntity
8
0
100
AcDbLine
10
-83.31935
20
-64.267949999999999
30
0
11
-83.31935
21
-79.267949999999999
31
0
0
LINE
5
299
100
AcDbEntity
8
0
100
AcDbLine
10
-98.31935
20
-64.267949999999999
30
0
11
-83.31935
21
-64.267949999999999
31
0
0
LINE
5
300
100
AcDbEntity
8
0
100
AcDbLine
10
-98.31935
20
-79.267949999999999
30
0
11
-98.31935
21
-64.267949999999999
31
0
0
LINE
5
301
100
AcDbEntity
8
0
100
AcDbLine
10
-83.31935
20
-60.217935000000011
30
0
11
-98.31935
21
-60.217935000000011
31
0
0
LINE
5
302
100
AcDbEntity
8
0
100
AcDbLine
10
-83.31935
20
-45.217935000000011
30
0
11
-83.31935
21
-60.217935000000011
31
0
0
LINE
5
303
100
AcDbEntity
8
0
100
AcDbLine
10
-98.31935
20
-60.217935000000011
30
0
11
-98.31935
21
-45.217935000000011
31
0
0
LINE
5
304
100
AcDbEntity
8
0
100
AcDbLine
10
-98.31935
20
-45.217935000000011
30
0
11
-83.31935
21
-45.217935000000011
31
0
0
LINE
5
305
100
AcDbEntity
8
0
100
AcDbLine
10
-83.31935
20
-41.167949999999998
30
0
11
-98.31935
21
-41.167949999999998
31
0
0
LINE
5
306
100
AcDbEntity
8
0
100
AcDbLine
10
-83.31935
20
-26.167949999999998
30
0
11
-83.31935
21
-41.167949999999998
31
0
0
LINE
5
307
100
AcDbEntity
8
0
100
AcDbLine
10
-98.31935
20
-41.167949999999998
30
0
11
-98.31935
21
-26.167949999999998
31
0
0
LINE
5
308
100
AcDbEntity
8
0
100
AcDbLine
10
-98.31935
20
-26.167949999999998
30
0
11
-83.31935
21
-26.167949999999998
31
0
0
LINE
5
309
100
AcDbEntity
8
0
100
AcDbLine
10
-83.319349999999986
20
-22.118035000000003
30
0
11
-98.319349999999986
21
-22.118035000000003
31
0
0
LINE
5
310
100
AcDbEntity
8
0
100
AcDbLine
10
-83.319349999999986
20
-7.1180350000000026
30
0
11
-83.319349999999986
21
-22.118035000000003
31
0
0
LINE
5
311
100
AcDbEntity
8
0
100
AcDbLine
10
-98.319349999999986
20
-22.118035000000003
30
0
11
-98.319349999999986
21
-7.1180350000000026
31
0
0
LINE
5
312
100
AcDbEntity
8
0
100
AcDbLine
10
-98.319349999999986
20
-7.1180350000000026
30
0
11
-83.319349999999986
21
-7.1180350000000026
31
0
0
LINE
5
313
100
AcDbEntity
8
0
100
AcDbLine
10
-140.46949999999998
20
-98.317949999999996
30
0
11
-155.46949999999998
21
-98.317949999999996
31
0
0
LINE
5
314
100
AcDbEntity
8
0
100
AcDbLine
10
-140.46949999999998
20
-83.317949999999996
30
0
11
-140.46949999999998
21
-98.317949999999996
31
0
0
LINE
5
315
100
AcDbEntity
8
0
100
AcDbLine
10
-155.46949999999998
20
-98.317949999999996
30
0
11
-155.46949999999998
21
-83.317949999999996
31
0
0
LINE
5
316
100
AcDbEntity
8
0
100
AcDbLine
10
-155.46949999999998
20
-83.317949999999996
30
0
11
-140.46949999999998
21
-83.317949999999996
31
0
0
LINE
5
317
100
AcDbEntity
8
0
100
AcDbLine
10
-140.46949999999998
20
-79.267949999999985
30
0
11
-155.46949999999998
21
-79.267949999999985
31
0
0
LINE
5
318
100
AcDbEntity
8
0
100
AcDbLine
10
-140.46949999999998
20
-64.267949999999985
30
0
11
-140.46949999999998
21
-79.267949999999985
31
0
0
LINE
5
319
100
AcDbEntity
8
0
100
AcDbLine
10
-155.46949999999998
20
-64.267949999999985
30
0
11
-140.46949999999998
21
-64.267949999999985
31
0
0
LINE
5
320
100
AcDbEntity
8
0
100
AcDbLine
10
-155.46949999999998
20
-79.267949999999985
30
0
11
-155.46949999999998
21
-64.267949999999985
31
0
0
LINE
5
321
100
AcDbEntity
8
0
100
AcDbLine
10
-140.46949999999998
20
-60.217934999999997
30
0
11
-155.46949999999998
21
-60.217934999999997
31
0
0
LINE
5
322
100
AcDbEntity
8
0
100
AcDbLine
10
-140.46949999999998
20
-45.217934999999997
30
0
11
-140.46949999999998
21
-60.217934999999997
31
0
0
LINE
5
323
100
AcDbEntity
8
0
100
AcDbLine
10
-155.46949999999998
20
-60.217934999999997
30
0
11
-155.46949999999998
21
-45.217934999999997
31
0
0
LINE
5
324
100
AcDbEntity
8
0
100
AcDbLine
10
-155.46949999999998
20
-45.217934999999997
30
0
11
-140.46949999999998
21
-45.217934999999997
31
0
0
LINE
5
325
100
AcDbEntity
8
0
100
AcDbLine
10
-140.46949999999998
20
-41.167949999999976
30
0
11
-155.46949999999998
21
-41.167949999999976
31
0
0
LINE
5
326
100
AcDbEntity
8
0
100
AcDbLine
10
-140.46949999999998
20
-26.16794999999998
30
0
11
-140.46949999999998
21
-41.167949999999976
31
0
0
LINE
5
327
100
AcDbEntity
8
0
100
AcDbLine
10
-155.46949999999998
20
-41.167949999999976
30
0
11
-155.46949999999998
21
-26.16794999999998
31
0
0
LINE
5
328
100
AcDbEntity
8
0
100
AcDbLine
10
-155.46949999999998
20
-26.16794999999998
30
0
11
-140.46949999999998
21
-26.16794999999998
31
0
0
LINE
5
329
100
AcDbEntity
8
0
100
AcDbLine
10
-140.46949999999998
20
-22.118034999999985
30
0
11
-155.46949999999998
21
-22.118034999999985
31
0
0
LINE
5
330
100
AcDbEntity
8
0
100
AcDbLine
10
-140.46949999999998
20
-7.1180349999999848
30
0
11
-140.46949999999998
21
-22.118034999999985
31
0
0
LINE
5
331
100
AcDbEntity
8
0
100
AcDbLine
10
-155.46949999999998
20
-22.118034999999985
30
0
11
-155.46949999999998
21
-7.1180349999999848
31
0
0
LINE
5
332
100
AcDbEntity
8
0
100
AcDbLine
10
-155.46949999999998
20
-7.1180349999999848
30
0
11
-140.46949999999998
21
-7.1180349999999848
31
0
0
LINE
5
333
100
AcDbEntity
8
0
100
AcDbLine
10
-159.51950000000005
20
-98.317949999999996
30
0
11
-174.51950000000005
21
-98.317949999999996
31
0
0
LINE
5
334
100
AcDbEntity
8
0
100
AcDbLine
10
-159.51950000000005
20
-83.317949999999996
30
0
11
-159.51950000000005
21
-98.317949999999996
31
0
0
LINE
5
335
100
AcDbEntity
8
0
100
AcDbLine
10
-174.51950000000005
20
-98.317949999999996
30
0
11
-174.51950000000005
21
-83.317949999999996
31
0
0
LINE
5
336
100
AcDbEntity
8
0
100
AcDbLine
10
-174.51950000000005
20
-83.317949999999996
30
0
11
-159.51950000000005
21
-83.317949999999996
31
0
0
LINE
5
337
100
AcDbEntity
8
0
100
AcDbLine
10
-159.51950000000005
20
-79.267949999999985
30
0
11
-174.51950000000005
21
-79.267949999999985
31
0
0
LINE
5
338
100
AcDbEntity
8
0
100
AcDbLine
10
-159.51950000000005
20
-64.267949999999985
30
0
11
-159.51950000000005
21
-79.267949999999985
31
0
0
LINE
5
339
100
AcDbEntity
8
0
100
AcDbLine
10
-174.51950000000005
20
-64.267949999999985
30
0
11
-159.51950000000005
21
-64.267949999999985
31
0
0
LINE
5
340
100
AcDbEntity
8
0
100
AcDbLine
10
-174.51950000000005
20
-79.267949999999985
30
0
11
-174.51950000000005
21
-64.267949999999985
31
0
0
LINE
5
341
100
AcDbEntity
8
0
100
AcDbLine
10
-159.51950000000005
20
-60.217934999999997
30
0
11
-174.51950000000005
21
-60.217934999999997
31
0
0
LINE
5
342
100
AcDbEntity
8
0
100
AcDbLine
10
-159.51950000000005
20
-45.217934999999997
30
0
11
-159.51950000000005
21
-60.217934999999997
31
0
0
LINE
5
343
100
AcDbEntity
8
0
100
AcDbLine
10
-174.51950000000005
20
-60.217934999999997
30
0
11
-174.51950000000005
21
-45.217934999999997
31
0
0
LINE
5
344
100
AcDbEntity
8
0
100
AcDbLine
10
-174.51950000000005
20
-45.217934999999997
30
0
11
-159.51950000000005
21
-45.217934999999997
31
0
0
LINE
5
345
100
AcDbEntity
8
0
100
AcDbLine
10
-159.51950000000005
20
-41.167949999999976
30
0
11
-174.51950000000005
21
-41.167949999999976
31
0
0
LINE
5
346
100
AcDbEntity
8
0
100
AcDbLine
10
-159.51950000000005
20
-26.16794999999998
30
0
11
-159.51950000000005
21
-41.167949999999976
31
0
0
LINE
5
347
100
AcDbEntity
8
0
100
AcDbLine
10
-174.51950000000005
20
-41.167949999999976
30
0
11
-174.51950000000005
21
-26.16794999999998
31
0
0
LINE
5
348
100
AcDbEntity
8
0
100
AcDbLine
10
-174.51950000000005
20
-26.16794999999998
30
0
11
-159.51950000000005
21
-26.16794999999998
31
0
0
LINE
5
349
100
AcDbEntity
8
0
100
AcDbLine
10
-159.51950000000005
20
-22.118034999999985
30
0
11
-174.51950000000005
21
-22.118034999999985
31
0
0
LINE
5
350
100
AcDbEntity
8
0
100
AcDbLine
10
-159.51950000000005
20
-7.1180349999999848
30
0
11
-159.51950000000005
21
-22.118034999999985
31
0
0
LINE
5
351
100
AcDbEntity
8
0
100
AcDbLine
10
-174.51950000000005
20
-22.118034999999985
30
0
11
-174.51950000000005
21
-7.1180349999999848
31
0
0
LINE
5
352
100
AcDbEntity
8
0
100
AcDbLine
10
-174.51950000000005
20
-7.1180349999999848
30
0
11
-159.51950000000005
21
-7.1180349999999848
31
0
0
LINE
5
353
100
AcDbEntity
8
0
100
AcDbLine
10
-178.56950000000001
20
-98.317949999999996
30
0
11
-193.56950000000001
21
-98.317949999999996
31
0
0
LINE
5
354
100
AcDbEntity
8
0
100
AcDbLine
10
-178.56950000000001
20
-83.317949999999996
30
0
11
-178.56950000000001
21
-98.317949999999996
31
0
0
LINE
5
355
100
AcDbEntity
8
0
100
AcDbLine
10
-193.56950000000001
20
-98.317949999999996
30
0
11
-193.56950000000001
21
-83.317949999999996
31
0
0
LINE
5
356
100
AcDbEntity
8
0
100
AcDbLine
10
-193.56950000000001
20
-83.317949999999996
30
0
11
-178.56950000000001
21
-83.317949999999996
31
0
0
LINE
5
357
100
AcDbEntity
8
0
100
AcDbLine
10
-178.56950000000001
20
-79.267949999999985
30
0
11
-193.56950000000001
21
-79.267949999999985
31
0
0
LINE
5
358
100
AcDbEntity
8
0
100
AcDbLine
10
-178.56950000000001
20
-64.267949999999985
30
0
11
-178.56950000000001
21
-79.267949999999985
31
0
0
LINE
5
359
100
AcDbEntity
8
0
100
AcDbLine
10
-193.56950000000001
20
-64.267949999999985
30
0
11
-178.56950000000001
21
-64.267949999999985
31
0
0
LINE
5
360
100
AcDbEntity
8
0
100
AcDbLine
10
-193.56950000000001
20
-79.267949999999985
30
0
11
-193.56950000000001
21
-64.267949999999985
31
0
0
LINE
5
361
100
AcDbEntity
8
0
100
AcDbLine
10
-178.56950000000001
20
-60.217934999999997
30
0
11
-193.56950000000001
21
-60.217934999999997
31
0
0
LINE
5
362
100
AcDbEntity
8
0
100
AcDbLine
10
-178.56950000000001
20
-45.217934999999997
30
0
11
-178.56950000000001
21
-60.217934999999997
31
0
0
LINE
5
363
100
AcDbEntity
8
0
100
AcDbLine
10
-193.56950000000001
20
-60.217934999999997
30
0
11
-193.56950000000001
21
-45.217934999999997
31
0
0
LINE
5
364
100
AcDbEntity
8
0
100
AcDbLine
10
-193.56950000000001
20
-45.217934999999997
30
0
11
-178.56950000000001
21
-45.217934999999997
31
0
0
LINE
5
365
100
AcDbEntity
8
0
100
AcDbLine
10
-178.56950000000001
20
-41.167949999999976
30
0
11
-193.56950000000001
21
-41.167949999999976
31
0
0
LINE
5
366
100
AcDbEntity
8
0
100
AcDbLine
10
-178.56950000000001
20
-26.16794999999998
30
0
11
-178.56950000000001
21
-41.167949999999976
31
0
0
LINE
5
367
100
AcDbEntity
8
0
100
AcDbLine
10
-193.56950000000001
20
-41.167949999999976
30
0
11
-193.56950000000001
21
-26.16794999999998
31
0
0
LINE
5
368
100
AcDbEntity
8
0
100
AcDbLine
10
-193.56950000000001
20
-26.16794999999998
30
0
11
-178.56950000000001
21
-26.16794999999998
31
0
0
LINE
5
369
100
AcDbEntity
8
0
100
AcDbLine
10
-178.56950000000001
20
-22.118034999999985
30
0
11
-193.56950000000001
21
-22.118034999999985
31
0
0
LINE
5
370
100
AcDbEntity
8
0
100
AcDbLine
10
-178.56950000000001
20
-7.1180349999999848
30
0
11
-178.56950000000001
21
-22.118034999999985
31
0
0
LINE
5
371
100
AcDbEntity
8
0
100
AcDbLine
10
-193.56950000000001
20
-22.118034999999985
30
0
11
-193.56950000000001
21
-7.1180349999999848
31
0
0
LINE
5
372
100
AcDbEntity
8
0
100
AcDbLine
10
-193.56950000000001
20
-7.1180349999999848
30
0
11
-178.56950000000001
21
-7.1180349999999848
31
0
0
LINE
5
373
100
AcDbEntity
8
0
100
AcDbLine
10
-197.61950000000002
20
-98.317949999999996
30
0
11
-212.61950000000002
21
-98.317949999999996
31
0
0
LINE
5
374
100
AcDbEntity
8
0
100
AcDbLine
10
-197.61950000000002
20
-83.317949999999996
30
0
11
-197.61950000000002
21
-98.317949999999996
31
0
0
LINE
5
375
100
AcDbEntity
8
0
100
AcDbLine
10
-212.61950000000002
20
-98.317949999999996
30
0
11
-212.61950000000002
21
-83.317949999999996
31
0
0
LINE
5
376
100
AcDbEntity
8
0
100
AcDbLine
10
-212.61950000000002
20
-83.317949999999996
30
0
11
-197.61950000000002
21
-83.317949999999996
31
0
0
LINE
5
377
100
AcDbEntity
8
0
100
AcDbLine
10
-197.61950000000002
20
-79.267949999999985
30
0
11
-212.61950000000002
21
-79.267949999999985
31
0
0
LINE
5
378
100
AcDbEntity
8
0
100
AcDbLine
10
-197.61950000000002
20
-64.267949999999985
30
0
11
-197.61950000000002
21
-79.267949999999985
31
0
0
LINE
5
379
100
AcDbEntity
8
0
100
AcDbLine
10
-212.61950000000002
20
-64.267949999999985
30
0
11
-197.61950000000002
21
-64.267949999999985
31
0
0
LINE
5
380
100
AcDbEntity
8
0
100
AcDbLine
10
-212.61950000000002
20
-79.267949999999985
30
0
11
-212.61950000000002
21
-64.267949999999985
31
0
0
LINE
5
381
100
AcDbEntity
8
0
100
AcDbLine
10
-197.61950000000002
20
-60.217934999999997
30
0
11
-212.61950000000002
21
-60.217934999999997
31
0
0
LINE
5
382
100
AcDbEntity
8
0
100
AcDbLine
10
-197.61950000000002
20
-45.217934999999997
30
0
11
-197.61950000000002
21
-60.217934999999997
31
0
0
LINE
5
383
100
AcDbEntity
8
0
100
AcDbLine
10
-212.61950000000002
20
-60.217934999999997
30
0
11
-212.61950000000002
21
-45.217934999999997
31
0
0
LINE
5
384
100
AcDbEntity
8
0
100
AcDbLine
10
-212.61950000000002
20
-45.217934999999997
30
0
11
-197.61950000000002
21
-45.217934999999997
31
0
0
LINE
5
385
100
AcDbEntity
8
0
100
AcDbLine
10
-197.61950000000002
20
-41.167949999999976
30
0
11
-212.61950000000002
21
-41.167949999999976
31
0
0
LINE
5
386
100
AcDbEntity
8
0
100
AcDbLine
10
-197.61950000000002
20
-26.16794999999998
30
0
11
-197.61950000000002
21
-41.167949999999976
31
0
0
LINE
5
387
100
AcDbEntity
8
0
100
AcDbLine
10
-212.61950000000002
20
-41.167949999999976
30
0
11
-212.61950000000002
21
-26.16794999999998
31
0
0
LINE
5
388
100
AcDbEntity
8
0
100
AcDbLine
10
-212.61950000000002
20
-26.16794999999998
30
0
11
-197.61950000000002
21
-26.16794999999998
31
0
0
LINE
5
389
100
AcDbEntity
8
0
100
AcDbLine
10
-197.61950000000002
20
-22.118034999999985
30
0
11
-212.61950000000002
21
-22.118034999999985
31
0
0
LINE
5
390
100
AcDbEntity
8
0
100
AcDbLine
10
-197.61950000000002
20
-7.1180349999999848
30
0
11
-197.61950000000002
21
-22.118034999999985
31
0
0
LINE
5
391
100
AcDbEntity
8
0
100
AcDbLine
10
-212.61950000000002
20
-22.118034999999985
30
0
11
-212.61950000000002
21
-7.1180349999999848
31
0
0
LINE
5
392
100
AcDbEntity
8
0
100
AcDbLine
10
-212.61950000000002
20
-7.1180349999999848
30
0
11
-197.61950000000002
21
-7.1180349999999848
31
0
0
LINE
5
393
100
AcDbEntity
8
0
100
AcDbLine
10
-216.6695
20
-98.317949999999996
30
0
11
-231.6695
21
-98.317949999999996
31
0
0
LINE
5
394
100
AcDbEntity
8
0
100
AcDbLine
10
-216.6695
20
-83.317949999999996
30
0
11
-216.6695
21
-98.317949999999996
31
0
0
LINE
5
395
100
AcDbEntity
8
0
100
AcDbLine
10
-231.6695
20
-98.317949999999996
30
0
11
-231.6695
21
-83.317949999999996
31
0
0
LINE
5
396
100
AcDbEntity
8
0
100
AcDbLine
10
-231.6695
20
-83.317949999999996
30
0
11
-216.6695
21
-83.317949999999996
31
0
0
LINE
5
397
100
AcDbEntity
8
0
100
AcDbLine
10
-216.6695
20
-79.267949999999985
30
0
11
-231.6695
21
-79.267949999999985
31
0
0
LINE
5
398
100
AcDbEntity
8
0
100
AcDbLine
10
-216.6695
20
-64.267949999999985
30
0
11
-216.6695
21
-79.267949999999985
31
0
0
LINE
5
399
100
AcDbEntity
8
0
100
AcDbLine
10
-231.6695
20
-64.267949999999985
30
0
11
-216.6695
21
-64.267949999999985
31
0
0
LINE
5
400
100
AcDbEntity
8
0
100
AcDbLine
10
-231.6695
20
-79.267949999999985
30
0
11
-231.6695
21
-64.267949999999985
31
0
0
LINE
5
401
100
AcDbEntity
8
0
100
AcDbLine
10
-216.6695
20
-60.217934999999997
30
0
11
-231.6695
21
-60.217934999999997
31
0
0
LINE
5
402
100
AcDbEntity
8
0
100
AcDbLine
10
-216.6695
20
-45.217934999999997
30
0
11
-216.6695
21
-60.217934999999997
31
0
0
LINE
5
403
100
AcDbEntity
8
0
100
AcDbLine
10
-231.6695
20
-60.217934999999997
30
0
11
-231.6695
21
-45.217934999999997
31
0
0
LINE
5
404
100
AcDbEntity
8
0
100
AcDbLine
10
-231.6695
20
-45.217934999999997
30
0
11
-216.6695
21
-45.217934999999997
31
0
0
LINE
5
405
100
AcDbEntity
8
0
100
AcDbLine
10
-216.6695
20
-41.167949999999976
30
0
11
-231.6695
21
-41.167949999999976
31
0
0
LINE
5
406
100
AcDbEntity
8
0
100
AcDbLine
10
-216.6695
20
-26.16794999999998
30
0
11
-216.6695
21
-41.167949999999976
31
0
0
LINE
5
407
100
AcDbEntity
8
0
100
AcDbLine
10
-231.6695
20
-41.167949999999976
30
0
11
-231.6695
21
-26.16794999999998
31
0
0
LINE
5
408
100
AcDbEntity
8
0
100
AcDbLine
10
-231.6695
20
-26.16794999999998
30
0
11
-216.6695
21
-26.16794999999998
31
0
0
LINE
5
409
100
AcDbEntity
8
0
100
AcDbLine
10
-216.6695
20
-22.118034999999985
30
0
11
-231.6695
21
-22.118034999999985
31
0
0
LINE
5
410
100
AcDbEntity
8
0
100
AcDbLine
10
-216.6695
20
-7.1180349999999848
30
0
11
-216.6695
21
-22.118034999999985
31
0
0
LINE
5
411
100
AcDbEntity
8
0
100
AcDbLine
10
-231.6695
20
-22.118034999999985
30
0
11
-231.6695
21
-7.1180349999999848
31
0
0
LINE
5
412
100
AcDbEntity
8
0
100
AcDbLine
10
-231.6695
20
-7.1180349999999848
30
0
11
-216.6695
21
-7.1180349999999848
31
0
0
LINE
5
413
100
AcDbEntity
8
0
100
AcDbLine
10
-235.71950000000001
20
-98.317949999999996
30
0
11
-250.71950000000001
21
-98.317949999999996
31
0
0
LINE
5
414
100
AcDbEntity
8
0
100
AcDbLine
10
-235.71950000000001
20
-83.317949999999996
30
0
11
-235.71950000000001
21
-98.317949999999996
31
0
0
LINE
5
415
100
AcDbEntity
8
0
100
AcDbLine
10
-250.71950000000001
20
-98.317949999999996
30
0
11
-250.71950000000001
21
-83.317949999999996
31
0
0
LINE
5
416
100
AcDbEntity
8
0
100
AcDbLine
10
-250.71950000000001
20
-83.317949999999996
30
0
11
-235.71950000000001
21
-83.317949999999996
31
0
0
LINE
5
417
100
AcDbEntity
8
0
100
AcDbLine
10
-235.71950000000001
20
-79.267949999999985
30
0
11
-250.71950000000001
21
-79.267949999999985
31
0
0
LINE
5
418
100
AcDbEntity
8
0
100
AcDbLine
10
-235.71950000000001
20
-64.267949999999985
30
0
11
-235.71950000000001
21
-79.267949999999985
31
0
0
LINE
5
419
100
AcDbEntity
8
0
100
AcDbLine
10
-250.71950000000001
20
-64.267949999999985
30
0
11
-235.71950000000001
21
-64.267949999999985
31
0
0
LINE
5
420
100
AcDbEntity
8
0
100
AcDbLine
10
-250.71950000000001
20
-79.267949999999985
30
0
11
-250.71950000000001
21
-64.267949999999985
31
0
0
LINE
5
421
100
AcDbEntity
8
0
100
AcDbLine
10
-235.71950000000001
20
-41.167949999999976
30
0
11
-250.71950000000001
21
-41.167949999999976
31
0
0
LINE
5
422
100
AcDbEntity
8
0
100
AcDbLine
10
-235.71950000000001
20
-26.16794999999998
30
0
11
-235.71950000000001
21
-41.167949999999976
31
0
0
LINE
5
423
100
AcDbEntity
8
0
100
AcDbLine
10
-250.71950000000001
20
-41.167949999999976
30
0
11
-250.71950000000001
21
-26.16794999999998
31
0
0
LINE
5
424
100
AcDbEntity
8
0
100
AcDbLine
10
-250.71950000000001
20
-26.16794999999998
30
0
11
-235.71950000000001
21
-26.16794999999998
31
0
0
LINE
5
425
100
AcDbEntity
8
0
100
AcDbLine
10
-235.71950000000001
20
-22.118034999999985
30
0
11
-250.71950000000001
21
-22.118034999999985
31
0
0
LINE
5
426
100
AcDbEntity
8
0
100
AcDbLine
10
-235.71950000000001
20
-7.1180349999999848
30
0
11
-235.71950000000001
21
-22.118034999999985
31
0
0
LINE
5
427
100
AcDbEntity
8
0
100
AcDbLine
10
-250.71950000000001
20
-22.118034999999985
30
0
11
-250.71950000000001
21
-7.1180349999999848
31
0
0
LINE
5
428
100
AcDbEntity
8
0
100
AcDbLine
10
-250.71950000000001
20
-7.1180349999999848
30
0
11
-235.71950000000001
21
-7.1180349999999848
31
0
0
LINE
5
429
100
AcDbEntity
8
0
100
AcDbLine
10
-254.76950000000002
20
-98.317949999999996
30
0
11
-269.76949999999999
21
-98.317949999999996
31
0
0
LINE
5
430
100
AcDbEntity
8
0
100
AcDbLine
10
-254.76950000000002
20
-83.317949999999996
30
0
11
-254.76950000000002
21
-98.317949999999996
31
0
0
LINE
5
431
100
AcDbEntity
8
0
100
AcDbLine
10
-269.76949999999999
20
-98.317949999999996
30
0
11
-269.76949999999999
21
-83.317949999999996
31
0
0
LINE
5
432
100
AcDbEntity
8
0
100
AcDbLine
10
-269.76949999999999
20
-83.317949999999996
30
0
11
-254.76950000000002
21
-83.317949999999996
31
0
0
LINE
5
433
100
AcDbEntity
8
0
100
AcDbLine
10
-254.76950000000002
20
-79.267949999999985
30
0
11
-269.76949999999999
21
-79.267949999999985
31
0
0
LINE
5
434
100
AcDbEntity
8
0
100
AcDbLine
10
-254.76950000000002
20
-64.267949999999985
30
0
11
-254.76950000000002
21
-79.267949999999985
31
0
0
LINE
5
435
100
AcDbEntity
8
0
100
AcDbLine
10
-269.76949999999999
20
-64.267949999999985
30
0
11
-254.76950000000002
21
-64.267949999999985
31
0
0
LINE
5
436
100
AcDbEntity
8
0
100
AcDbLine
10
-269.76949999999999
20
-79.267949999999985
30
0
11
-269.76949999999999
21
-64.267949999999985
31
0
0
LINE
5
437
100
AcDbEntity
8
0
100
AcDbLine
10
-245.24450000000002
20
-60.217935000000004
30
0
11
-260.24450000000002
21
-60.217935000000004
31
0
0
LINE
5
438
100
AcDbEntity
8
0
100
AcDbLine
10
-245.24450000000002
20
-45.217935000000004
30
0
11
-245.24450000000002
21
-60.217935000000004
31
0
0
LINE
5
439
100
AcDbEntity
8
0
100
AcDbLine
10
-260.24450000000002
20
-60.217935000000004
30
0
11
-260.24450000000002
21
-45.217935000000004
31
0
0
LINE
5
440
100
AcDbEntity
8
0
100
AcDbLine
10
-260.24450000000002
20
-45.217935000000004
30
0
11
-245.24450000000002
21
-45.217935000000004
31
0
0
LINE
5
441
100
AcDbEntity
8
0
100
AcDbLine
10
-254.76950000000002
20
-41.167949999999976
30
0
11
-269.76949999999999
21
-41.167949999999976
31
0
0
LINE
5
442
100
AcDbEntity
8
0
100
AcDbLine
10
-254.76950000000002
20
-26.16794999999998
30
0
11
-254.76950000000002
21
-41.167949999999976
31
0
0
LINE
5
443
100
AcDbEntity
8
0
100
AcDbLine
10
-269.76949999999999
20
-41.167949999999976
30
0
11
-269.76949999999999
21
-26.16794999999998
31
0
0
LINE
5
444
100
AcDbEntity
8
0
100
AcDbLine
10
-269.76949999999999
20
-26.16794999999998
30
0
11
-254.76950000000002
21
-26.16794999999998
31
0
0
LINE
5
445
100
AcDbEntity
8
0
100
AcDbLine
10
-254.76950000000002
20
-22.118034999999985
30
0
11
-269.76949999999999
21
-22.118034999999985
31
0
0
LINE
5
446
100
AcDbEntity
8
0
100
AcDbLine
10
-254.76950000000002
20
-7.1180349999999848
30
0
11
-254.76950000000002
21
-22.118034999999985
31
0
0
LINE
5
447
100
AcDbEntity
8
0
100
AcDbLine
10
-269.76949999999999
20
-22.118034999999985
30
0
11
-269.76949999999999
21
-7.1180349999999848
31
0
0
LINE
5
448
100
AcDbEntity
8
0
100
AcDbLine
10
-269.76949999999999
20
-7.1180349999999848
30
0
11
-254.76950000000002
21
-7.1180349999999848
31
0
0
LINE
5
449
100
AcDbEntity
8
0
100
AcDbLine
10
-245.24450000000002
20
-60.217935000000004
30
0
11
-260.24450000000002
21
-60.217935000000004
31
0
0
LINE
5
450
100
AcDbEntity
8
0
100
AcDbLine
10
-245.24450000000002
20
-45.217935000000004
30
0
11
-245.24450000000002
21
-60.217935000000004
31
0
0
LINE
5
451
100
AcDbEntity
8
0
100
AcDbLine
10
-111.89450000000001
20
-22.118035000000003
30
0
11
-126.89450000000001
21
-22.118035000000003
31
0
0
LINE
5
452
100
AcDbEntity
8
0
100
AcDbLine
10
-111.89450000000001
20
-7.1180350000000026
30
0
11
-111.89450000000001
21
-22.118035000000003
31
0
0
LINE
5
453
100
AcDbEntity
8
0
100
AcDbLine
10
-126.89450000000001
20
-7.1180350000000026
30
0
11
-111.89450000000001
21
-7.1180350000000026
31
0
0
LINE
5
454
100
AcDbEntity
8
0
100
AcDbLine
10
-126.89450000000001
20
-22.118035000000003
30
0
11
-126.89450000000001
21
-7.1180350000000026
31
0
0
LINE
5
455
100
AcDbEntity
8
0
100
AcDbLine
10
-102.36865000000002
20
-98.31795000000001
30
0
11
-117.36865000000002
21
-98.31795000000001
31
0
0
LINE
5
456
100
AcDbEntity
8
0
100
AcDbLine
10
-117.36865000000002
20
-98.31795000000001
30
0
11
-117.36865000000002
21
-83.31795000000001
31
0
0
LINE
5
457
100
AcDbEntity
8
0
100
AcDbLine
10
-102.36865000000002
20
-83.31795000000001
30
0
11
-102.36865000000002
21
-98.31795000000001
31
0
0
LINE
5
458
100
AcDbEntity
8
0
100
AcDbLine
10
-117.36865000000002
20
-83.31795000000001
30
0
11
-102.36865000000002
21
-83.31795000000001
31
0
0
LINE
5
459
100
AcDbEntity
8
0
100
AcDbLine
10
-102.36865000000002
20
-79.267949999999999
30
0
11
-117.36865000000002
21
-79.267949999999999
31
0
0
LINE
5
460
100
AcDbEntity
8
0
100
AcDbLine
10
-117.36865000000002
20
-79.267949999999999
30
0
11
-117.36865000000002
21
-64.267949999999999
31
0
0
LINE
5
461
100
AcDbEntity
8
0
100
AcDbLine
10
-117.36865000000002
20
-64.267949999999999
30
0
11
-102.36865000000002
21
-64.267949999999999
31
0
0
LINE
5
462
100
AcDbEntity
8
0
100
AcDbLine
10
-102.36865000000002
20
-64.267949999999999
30
0
11
-102.36865000000002
21
-79.267949999999999
31
0
0
LINE
5
463
100
AcDbEntity
8
0
100
AcDbLine
10
-102.36865000000002
20
-60.217935000000011
30
0
11
-117.36865000000002
21
-60.217935000000011
31
0
0
LINE
5
464
100
AcDbEntity
8
0
100
AcDbLine
10
-117.36865000000002
20
-60.217935000000011
30
0
11
-117.36865000000002
21
-45.217935000000011
31
0
0
LINE
5
465
100
AcDbEntity
8
0
100
AcDbLine
10
-117.36865000000002
20
-45.217935000000011
30
0
11
-102.36865000000002
21
-45.217935000000011
31
0
0
LINE
5
466
100
AcDbEntity
8
0
100
AcDbLine
10
-102.36865000000002
20
-45.217935000000011
30
0
11
-102.36865000000002
21
-60.217935000000011
31
0
0
LINE
5
467
100
AcDbEntity
8
0
100
AcDbLine
10
-102.36865000000002
20
-41.167949999999998
30
0
11
-117.36865000000002
21
-41.167949999999998
31
0
0
LINE
5
468
100
AcDbEntity
8
0
100
AcDbLine
10
-102.36865000000002
20
-26.167949999999998
30
0
11
-102.36865000000002
21
-41.167949999999998
31
0
0
LINE
5
469
100
AcDbEntity
8
0
100
AcDbLine
10
-117.36865000000002
20
-41.167949999999998
30
0
11
-117.36865000000002
21
-26.167949999999998
31
0
0
LINE
5
470
100
AcDbEntity
8
0
100
AcDbLine
10
-117.36865000000002
20
-26.167949999999998
30
0
11
-102.36865000000002
21
-26.167949999999998
31
0
0
LINE
5
471
100
AcDbEntity
8
0
100
AcDbLine
10
-121.41849999999999
20
-98.31795000000001
30
0
11
-136.41849999999999
21
-98.31795000000001
31
0
0
LINE
5
472
100
AcDbEntity
8
0
100
AcDbLine
10
-136.41849999999999
20
-98.31795000000001
30
0
11
-136.41849999999999
21
-83.31795000000001
31
0
0
LINE
5
473
100
AcDbEntity
8
0
100
AcDbLine
10
-121.41849999999999
20
-83.31795000000001
30
0
11
-121.41849999999999
21
-98.31795000000001
31
0
0
LINE
5
474
100
AcDbEntity
8
0
100
AcDbLine
10
-136.41849999999999
20
-83.31795000000001
30
0
11
-121.41849999999999
21
-83.31795000000001
31
0
0
LINE
5
475
100
AcDbEntity
8
0
100
AcDbLine
10
-121.41849999999999
20
-79.267949999999999
30
0
11
-136.41849999999999
21
-79.267949999999999
31
0
0
LINE
5
476
100
AcDbEntity
8
0
100
AcDbLine
10
-136.41849999999999
20
-79.267949999999999
30
0
11
-136.41849999999999
21
-64.267949999999999
31
0
0
LINE
5
477
100
AcDbEntity
8
0
100
AcDbLine
10
-136.41849999999999
20
-64.267949999999999
30
0
11
-121.41849999999999
21
-64.267949999999999
31
0
0
LINE
5
478
100
AcDbEntity
8
0
100
AcDbLine
10
-121.41849999999999
20
-64.267949999999999
30
0
11
-121.41849999999999
21
-79.267949999999999
31
0
0
LINE
5
479
100
AcDbEntity
8
0
100
AcDbLine
10
-121.41849999999999
20
-60.217935000000011
30
0
11
-136.41849999999999
21
-60.217935000000011
31
0
0
LINE
5
480
100
AcDbEntity
8
0
100
AcDbLine
10
-136.41849999999999
20
-60.217935000000011
30
0
11
-136.41849999999999
21
-45.217935000000011
31
0
0
LINE
5
481
100
AcDbEntity
8
0
100
AcDbLine
10
-136.41849999999999
20
-45.217935000000011
30
0
11
-121.41849999999999
21
-45.217935000000011
31
0
0
LINE
5
482
100
AcDbEntity
8
0
100
AcDbLine
10
-121.41849999999999
20
-45.217935000000011
30
0
11
-121.41849999999999
21
-60.217935000000011
31
0
0
LINE
5
483
100
AcDbEntity
8
0
100
AcDbLine
10
-121.41849999999999
20
-41.167949999999998
30
0
11
-136.41849999999999
21
-41.167949999999998
31
0
0
LINE
5
484
100
AcDbEntity
8
0
100
AcDbLine
10
-121.41849999999999
20
-26.167949999999998
30
0
11
-121.41849999999999
21
-41.167949999999998
31
0
0
LINE
5
485
100
AcDbEntity
8
0
100
AcDbLine
10
-136.41849999999999
20
-41.167949999999998
30
0
11
-136.41849999999999
21
-26.167949999999998
31
0
0
LINE
5
486
100
AcDbEntity
8
0
100
AcDbLine
10
-136.41849999999999
20
-26.167949999999998
30
0
11
-121.41849999999999
21
-26.167949999999998
31
0
0
LWPOLYLINE
5
487
100
AcDbEntity
8
0
100
AcDbPolyline
90
4
70
1
43
0.0
10
-271.79500000000007
20
-100.3424
10
-5.0950846000000007
20
-100.3424
10
-5.0950845999999927
20
-5.092328600000009
10
-271.79500000000007
20
-5.092328600000009
0
ENDSEC
0
SECTION
2
OBJECTS
0
DICTIONARY
5
C
100
AcDbDictionary
3
ACAD_GROUP
350
D
3
ACAD_MLINESTYLE
350
17
0
DICTIONARY
5
D
100
AcDbDictionary
0
DICTIONARY
5
1A
330
C
100
AcDbDictionary
0
DICTIONARY
5
17
100
AcDbDictionary
0
ENDSEC
0
EOF
