G04 #@! TF.GenerationSoftware,KiCad,Pcbnew,(5.1.5)-3*
G04 #@! TF.CreationDate,2020-01-29T02:04:40-08:00*
G04 #@! TF.ProjectId,keyboard,6b657962-6f61-4726-942e-6b696361645f,rev?*
G04 #@! TF.SameCoordinates,Original*
G04 #@! TF.FileFunction,Legend,Bot*
G04 #@! TF.FilePolarity,Positive*
%FSLAX46Y46*%
G04 Gerber Fmt 4.6, Leading zero omitted, Abs format (unit mm)*
G04 Created by KiCad (PCBNEW (5.1.5)-3) date 2020-01-29 02:04:40*
%MOMM*%
%LPD*%
G04 APERTURE LIST*
%ADD10C,0.120000*%
%ADD11C,4.089800*%
%ADD12C,3.102000*%
%ADD13C,3.402000*%
%ADD14O,1.302000X2.002000*%
%ADD15C,1.552000*%
G04 APERTURE END LIST*
D10*
X222316035Y-90789728D02*
X230316035Y-90789728D01*
X359666001Y-90789728D02*
G75*
G03X355666001Y-86789728I-4000000J0D01*
G01*
X355666001Y-86789728D02*
X234316035Y-86789728D01*
X359666001Y-193039800D02*
X359666001Y-90789728D01*
X234316035Y-86789728D02*
G75*
G03X230316035Y-90789728I0J-4000000D01*
G01*
X222316035Y-90789728D02*
G75*
G03X218316035Y-86789728I-4000000J0D01*
G01*
X96966085Y-86789728D02*
G75*
G03X92966085Y-90789728I0J-4000000D01*
G01*
X218316035Y-86789728D02*
X96966085Y-86789728D01*
X92966085Y-90789728D02*
X92966085Y-193039800D01*
X359666001Y-193039800D02*
X92966085Y-193039800D01*
X119015199Y-152415365D02*
X119015199Y-151415365D01*
X118015199Y-138415365D02*
X119015199Y-138415365D01*
X119015199Y-152415365D02*
X118015199Y-152415365D01*
X119015199Y-139415365D02*
X119015199Y-138415365D01*
X105015199Y-138415365D02*
X105015199Y-139415365D01*
X106015199Y-152415365D02*
X105015199Y-152415365D01*
X105015199Y-138415365D02*
X106015199Y-138415365D01*
X105015199Y-151415365D02*
X105015199Y-152415365D01*
X128540199Y-190515266D02*
X128540199Y-189515266D01*
X127540199Y-176515266D02*
X128540199Y-176515266D01*
X128540199Y-190515266D02*
X127540199Y-190515266D01*
X128540199Y-177515266D02*
X128540199Y-176515266D01*
X114540199Y-176515266D02*
X114540199Y-177515266D01*
X115540199Y-190515266D02*
X114540199Y-190515266D01*
X114540199Y-176515266D02*
X115540199Y-176515266D01*
X114540199Y-189515266D02*
X114540199Y-190515266D01*
X357140274Y-114315350D02*
X357140274Y-113315350D01*
X356140274Y-100315350D02*
X357140274Y-100315350D01*
X357140274Y-114315350D02*
X356140274Y-114315350D01*
X357140274Y-101315350D02*
X357140274Y-100315350D01*
X343140274Y-100315350D02*
X343140274Y-101315350D01*
X344140274Y-114315350D02*
X343140274Y-114315350D01*
X343140274Y-100315350D02*
X344140274Y-100315350D01*
X343140274Y-113315350D02*
X343140274Y-114315350D01*
X109490199Y-114315350D02*
X109490199Y-113315350D01*
X108490199Y-100315350D02*
X109490199Y-100315350D01*
X109490199Y-114315350D02*
X108490199Y-114315350D01*
X109490199Y-101315350D02*
X109490199Y-100315350D01*
X95490199Y-100315350D02*
X95490199Y-101315350D01*
X96490199Y-114315350D02*
X95490199Y-114315350D01*
X95490199Y-100315350D02*
X96490199Y-100315350D01*
X95490199Y-113315350D02*
X95490199Y-114315350D01*
X128540199Y-114315350D02*
X128540199Y-113315350D01*
X127540199Y-100315350D02*
X128540199Y-100315350D01*
X128540199Y-114315350D02*
X127540199Y-114315350D01*
X128540199Y-101315350D02*
X128540199Y-100315350D01*
X114540199Y-100315350D02*
X114540199Y-101315350D01*
X115540199Y-114315350D02*
X114540199Y-114315350D01*
X114540199Y-100315350D02*
X115540199Y-100315350D01*
X114540199Y-113315350D02*
X114540199Y-114315350D01*
X147590199Y-114315350D02*
X147590199Y-113315350D01*
X146590199Y-100315350D02*
X147590199Y-100315350D01*
X147590199Y-114315350D02*
X146590199Y-114315350D01*
X147590199Y-101315350D02*
X147590199Y-100315350D01*
X133590199Y-100315350D02*
X133590199Y-101315350D01*
X134590199Y-114315350D02*
X133590199Y-114315350D01*
X133590199Y-100315350D02*
X134590199Y-100315350D01*
X133590199Y-113315350D02*
X133590199Y-114315350D01*
X357140274Y-133365350D02*
X357140274Y-132365350D01*
X356140274Y-119365350D02*
X357140274Y-119365350D01*
X357140274Y-133365350D02*
X356140274Y-133365350D01*
X357140274Y-120365350D02*
X357140274Y-119365350D01*
X343140274Y-119365350D02*
X343140274Y-120365350D01*
X344140274Y-133365350D02*
X343140274Y-133365350D01*
X343140274Y-119365350D02*
X344140274Y-119365350D01*
X343140274Y-132365350D02*
X343140274Y-133365350D01*
X357140274Y-152415365D02*
X357140274Y-151415365D01*
X356140274Y-138415365D02*
X357140274Y-138415365D01*
X357140274Y-152415365D02*
X356140274Y-152415365D01*
X357140274Y-139415365D02*
X357140274Y-138415365D01*
X343140274Y-138415365D02*
X343140274Y-139415365D01*
X344140274Y-152415365D02*
X343140274Y-152415365D01*
X343140274Y-138415365D02*
X344140274Y-138415365D01*
X343140274Y-151415365D02*
X343140274Y-152415365D01*
X357140274Y-171465351D02*
X357140274Y-170465351D01*
X356140274Y-157465351D02*
X357140274Y-157465351D01*
X357140274Y-171465351D02*
X356140274Y-171465351D01*
X357140274Y-158465351D02*
X357140274Y-157465351D01*
X343140274Y-157465351D02*
X343140274Y-158465351D01*
X344140274Y-171465351D02*
X343140274Y-171465351D01*
X343140274Y-157465351D02*
X344140274Y-157465351D01*
X343140274Y-170465351D02*
X343140274Y-171465351D01*
X357140275Y-190515265D02*
X357140275Y-189515265D01*
X356140275Y-176515265D02*
X357140275Y-176515265D01*
X357140275Y-190515265D02*
X356140275Y-190515265D01*
X357140275Y-177515265D02*
X357140275Y-176515265D01*
X343140275Y-176515265D02*
X343140275Y-177515265D01*
X344140275Y-190515265D02*
X343140275Y-190515265D01*
X343140275Y-176515265D02*
X344140275Y-176515265D01*
X343140275Y-189515265D02*
X343140275Y-190515265D01*
X338090349Y-114315350D02*
X338090349Y-113315350D01*
X337090349Y-100315350D02*
X338090349Y-100315350D01*
X338090349Y-114315350D02*
X337090349Y-114315350D01*
X338090349Y-101315350D02*
X338090349Y-100315350D01*
X324090349Y-100315350D02*
X324090349Y-101315350D01*
X325090349Y-114315350D02*
X324090349Y-114315350D01*
X324090349Y-100315350D02*
X325090349Y-100315350D01*
X324090349Y-113315350D02*
X324090349Y-114315350D01*
X338090349Y-133365350D02*
X338090349Y-132365350D01*
X337090349Y-119365350D02*
X338090349Y-119365350D01*
X338090349Y-133365350D02*
X337090349Y-133365350D01*
X338090349Y-120365350D02*
X338090349Y-119365350D01*
X324090349Y-119365350D02*
X324090349Y-120365350D01*
X325090349Y-133365350D02*
X324090349Y-133365350D01*
X324090349Y-119365350D02*
X325090349Y-119365350D01*
X324090349Y-132365350D02*
X324090349Y-133365350D01*
X338090349Y-152415365D02*
X338090349Y-151415365D01*
X337090349Y-138415365D02*
X338090349Y-138415365D01*
X338090349Y-152415365D02*
X337090349Y-152415365D01*
X338090349Y-139415365D02*
X338090349Y-138415365D01*
X324090349Y-138415365D02*
X324090349Y-139415365D01*
X325090349Y-152415365D02*
X324090349Y-152415365D01*
X324090349Y-138415365D02*
X325090349Y-138415365D01*
X324090349Y-151415365D02*
X324090349Y-152415365D01*
X338090349Y-171465351D02*
X338090349Y-170465351D01*
X337090349Y-157465351D02*
X338090349Y-157465351D01*
X338090349Y-171465351D02*
X337090349Y-171465351D01*
X338090349Y-158465351D02*
X338090349Y-157465351D01*
X324090349Y-157465351D02*
X324090349Y-158465351D01*
X325090349Y-171465351D02*
X324090349Y-171465351D01*
X324090349Y-157465351D02*
X325090349Y-157465351D01*
X324090349Y-170465351D02*
X324090349Y-171465351D01*
X338090350Y-190515265D02*
X338090350Y-189515265D01*
X337090350Y-176515265D02*
X338090350Y-176515265D01*
X338090350Y-190515265D02*
X337090350Y-190515265D01*
X338090350Y-177515265D02*
X338090350Y-176515265D01*
X324090350Y-176515265D02*
X324090350Y-177515265D01*
X325090350Y-190515265D02*
X324090350Y-190515265D01*
X324090350Y-176515265D02*
X325090350Y-176515265D01*
X324090350Y-189515265D02*
X324090350Y-190515265D01*
X319040349Y-114315350D02*
X319040349Y-113315350D01*
X318040349Y-100315350D02*
X319040349Y-100315350D01*
X319040349Y-114315350D02*
X318040349Y-114315350D01*
X319040349Y-101315350D02*
X319040349Y-100315350D01*
X305040349Y-100315350D02*
X305040349Y-101315350D01*
X306040349Y-114315350D02*
X305040349Y-114315350D01*
X305040349Y-100315350D02*
X306040349Y-100315350D01*
X305040349Y-113315350D02*
X305040349Y-114315350D01*
X319040349Y-133365350D02*
X319040349Y-132365350D01*
X318040349Y-119365350D02*
X319040349Y-119365350D01*
X319040349Y-133365350D02*
X318040349Y-133365350D01*
X319040349Y-120365350D02*
X319040349Y-119365350D01*
X305040349Y-119365350D02*
X305040349Y-120365350D01*
X306040349Y-133365350D02*
X305040349Y-133365350D01*
X305040349Y-119365350D02*
X306040349Y-119365350D01*
X305040349Y-132365350D02*
X305040349Y-133365350D01*
X319040349Y-152415365D02*
X319040349Y-151415365D01*
X318040349Y-138415365D02*
X319040349Y-138415365D01*
X319040349Y-152415365D02*
X318040349Y-152415365D01*
X319040349Y-139415365D02*
X319040349Y-138415365D01*
X305040349Y-138415365D02*
X305040349Y-139415365D01*
X306040349Y-152415365D02*
X305040349Y-152415365D01*
X305040349Y-138415365D02*
X306040349Y-138415365D01*
X305040349Y-151415365D02*
X305040349Y-152415365D01*
X319040349Y-171465351D02*
X319040349Y-170465351D01*
X318040349Y-157465351D02*
X319040349Y-157465351D01*
X319040349Y-171465351D02*
X318040349Y-171465351D01*
X319040349Y-158465351D02*
X319040349Y-157465351D01*
X305040349Y-157465351D02*
X305040349Y-158465351D01*
X306040349Y-171465351D02*
X305040349Y-171465351D01*
X305040349Y-157465351D02*
X306040349Y-157465351D01*
X305040349Y-170465351D02*
X305040349Y-171465351D01*
X319040350Y-190515265D02*
X319040350Y-189515265D01*
X318040350Y-176515265D02*
X319040350Y-176515265D01*
X319040350Y-190515265D02*
X318040350Y-190515265D01*
X319040350Y-177515265D02*
X319040350Y-176515265D01*
X305040350Y-176515265D02*
X305040350Y-177515265D01*
X306040350Y-190515265D02*
X305040350Y-190515265D01*
X305040350Y-176515265D02*
X306040350Y-176515265D01*
X305040350Y-189515265D02*
X305040350Y-190515265D01*
X299990349Y-114315350D02*
X299990349Y-113315350D01*
X298990349Y-100315350D02*
X299990349Y-100315350D01*
X299990349Y-114315350D02*
X298990349Y-114315350D01*
X299990349Y-101315350D02*
X299990349Y-100315350D01*
X285990349Y-100315350D02*
X285990349Y-101315350D01*
X286990349Y-114315350D02*
X285990349Y-114315350D01*
X285990349Y-100315350D02*
X286990349Y-100315350D01*
X285990349Y-113315350D02*
X285990349Y-114315350D01*
X299990349Y-133365350D02*
X299990349Y-132365350D01*
X298990349Y-119365350D02*
X299990349Y-119365350D01*
X299990349Y-133365350D02*
X298990349Y-133365350D01*
X299990349Y-120365350D02*
X299990349Y-119365350D01*
X285990349Y-119365350D02*
X285990349Y-120365350D01*
X286990349Y-133365350D02*
X285990349Y-133365350D01*
X285990349Y-119365350D02*
X286990349Y-119365350D01*
X285990349Y-132365350D02*
X285990349Y-133365350D01*
X299990349Y-152415365D02*
X299990349Y-151415365D01*
X298990349Y-138415365D02*
X299990349Y-138415365D01*
X299990349Y-152415365D02*
X298990349Y-152415365D01*
X299990349Y-139415365D02*
X299990349Y-138415365D01*
X285990349Y-138415365D02*
X285990349Y-139415365D01*
X286990349Y-152415365D02*
X285990349Y-152415365D01*
X285990349Y-138415365D02*
X286990349Y-138415365D01*
X285990349Y-151415365D02*
X285990349Y-152415365D01*
X299990349Y-171465351D02*
X299990349Y-170465351D01*
X298990349Y-157465351D02*
X299990349Y-157465351D01*
X299990349Y-171465351D02*
X298990349Y-171465351D01*
X299990349Y-158465351D02*
X299990349Y-157465351D01*
X285990349Y-157465351D02*
X285990349Y-158465351D01*
X286990349Y-171465351D02*
X285990349Y-171465351D01*
X285990349Y-157465351D02*
X286990349Y-157465351D01*
X285990349Y-170465351D02*
X285990349Y-171465351D01*
X299990350Y-190515265D02*
X299990350Y-189515265D01*
X298990350Y-176515265D02*
X299990350Y-176515265D01*
X299990350Y-190515265D02*
X298990350Y-190515265D01*
X299990350Y-177515265D02*
X299990350Y-176515265D01*
X285990350Y-176515265D02*
X285990350Y-177515265D01*
X286990350Y-190515265D02*
X285990350Y-190515265D01*
X285990350Y-176515265D02*
X286990350Y-176515265D01*
X285990350Y-189515265D02*
X285990350Y-190515265D01*
X280940349Y-114315350D02*
X280940349Y-113315350D01*
X279940349Y-100315350D02*
X280940349Y-100315350D01*
X280940349Y-114315350D02*
X279940349Y-114315350D01*
X280940349Y-101315350D02*
X280940349Y-100315350D01*
X266940349Y-100315350D02*
X266940349Y-101315350D01*
X267940349Y-114315350D02*
X266940349Y-114315350D01*
X266940349Y-100315350D02*
X267940349Y-100315350D01*
X266940349Y-113315350D02*
X266940349Y-114315350D01*
X280940349Y-133365350D02*
X280940349Y-132365350D01*
X279940349Y-119365350D02*
X280940349Y-119365350D01*
X280940349Y-133365350D02*
X279940349Y-133365350D01*
X280940349Y-120365350D02*
X280940349Y-119365350D01*
X266940349Y-119365350D02*
X266940349Y-120365350D01*
X267940349Y-133365350D02*
X266940349Y-133365350D01*
X266940349Y-119365350D02*
X267940349Y-119365350D01*
X266940349Y-132365350D02*
X266940349Y-133365350D01*
X280940349Y-152415365D02*
X280940349Y-151415365D01*
X279940349Y-138415365D02*
X280940349Y-138415365D01*
X280940349Y-152415365D02*
X279940349Y-152415365D01*
X280940349Y-139415365D02*
X280940349Y-138415365D01*
X266940349Y-138415365D02*
X266940349Y-139415365D01*
X267940349Y-152415365D02*
X266940349Y-152415365D01*
X266940349Y-138415365D02*
X267940349Y-138415365D01*
X266940349Y-151415365D02*
X266940349Y-152415365D01*
X280940349Y-171465351D02*
X280940349Y-170465351D01*
X279940349Y-157465351D02*
X280940349Y-157465351D01*
X280940349Y-171465351D02*
X279940349Y-171465351D01*
X280940349Y-158465351D02*
X280940349Y-157465351D01*
X266940349Y-157465351D02*
X266940349Y-158465351D01*
X267940349Y-171465351D02*
X266940349Y-171465351D01*
X266940349Y-157465351D02*
X267940349Y-157465351D01*
X266940349Y-170465351D02*
X266940349Y-171465351D01*
X280940350Y-190515265D02*
X280940350Y-189515265D01*
X279940350Y-176515265D02*
X280940350Y-176515265D01*
X280940350Y-190515265D02*
X279940350Y-190515265D01*
X280940350Y-177515265D02*
X280940350Y-176515265D01*
X266940350Y-176515265D02*
X266940350Y-177515265D01*
X267940350Y-190515265D02*
X266940350Y-190515265D01*
X266940350Y-176515265D02*
X267940350Y-176515265D01*
X266940350Y-189515265D02*
X266940350Y-190515265D01*
X261891049Y-114315350D02*
X261891049Y-113315350D01*
X260891049Y-100315350D02*
X261891049Y-100315350D01*
X261891049Y-114315350D02*
X260891049Y-114315350D01*
X261891049Y-101315350D02*
X261891049Y-100315350D01*
X247891049Y-100315350D02*
X247891049Y-101315350D01*
X248891049Y-114315350D02*
X247891049Y-114315350D01*
X247891049Y-100315350D02*
X248891049Y-100315350D01*
X247891049Y-113315350D02*
X247891049Y-114315350D01*
X261891049Y-133365350D02*
X261891049Y-132365350D01*
X260891049Y-119365350D02*
X261891049Y-119365350D01*
X261891049Y-133365350D02*
X260891049Y-133365350D01*
X261891049Y-120365350D02*
X261891049Y-119365350D01*
X247891049Y-119365350D02*
X247891049Y-120365350D01*
X248891049Y-133365350D02*
X247891049Y-133365350D01*
X247891049Y-119365350D02*
X248891049Y-119365350D01*
X247891049Y-132365350D02*
X247891049Y-133365350D01*
X261891049Y-152415365D02*
X261891049Y-151415365D01*
X260891049Y-138415365D02*
X261891049Y-138415365D01*
X261891049Y-152415365D02*
X260891049Y-152415365D01*
X261891049Y-139415365D02*
X261891049Y-138415365D01*
X247891049Y-138415365D02*
X247891049Y-139415365D01*
X248891049Y-152415365D02*
X247891049Y-152415365D01*
X247891049Y-138415365D02*
X248891049Y-138415365D01*
X247891049Y-151415365D02*
X247891049Y-152415365D01*
X261891049Y-171465351D02*
X261891049Y-170465351D01*
X260891049Y-157465351D02*
X261891049Y-157465351D01*
X261891049Y-171465351D02*
X260891049Y-171465351D01*
X261891049Y-158465351D02*
X261891049Y-157465351D01*
X247891049Y-157465351D02*
X247891049Y-158465351D01*
X248891049Y-171465351D02*
X247891049Y-171465351D01*
X247891049Y-157465351D02*
X248891049Y-157465351D01*
X247891049Y-170465351D02*
X247891049Y-171465351D01*
X252365199Y-190515265D02*
X252365199Y-189515265D01*
X251365199Y-176515265D02*
X252365199Y-176515265D01*
X252365199Y-190515265D02*
X251365199Y-190515265D01*
X252365199Y-177515265D02*
X252365199Y-176515265D01*
X238365199Y-176515265D02*
X238365199Y-177515265D01*
X239365199Y-190515265D02*
X238365199Y-190515265D01*
X238365199Y-176515265D02*
X239365199Y-176515265D01*
X238365199Y-189515265D02*
X238365199Y-190515265D01*
X242841199Y-114315350D02*
X242841199Y-113315350D01*
X241841199Y-100315350D02*
X242841199Y-100315350D01*
X242841199Y-114315350D02*
X241841199Y-114315350D01*
X242841199Y-101315350D02*
X242841199Y-100315350D01*
X228841199Y-100315350D02*
X228841199Y-101315350D01*
X229841199Y-114315350D02*
X228841199Y-114315350D01*
X228841199Y-100315350D02*
X229841199Y-100315350D01*
X228841199Y-113315350D02*
X228841199Y-114315350D01*
X242841199Y-133365350D02*
X242841199Y-132365350D01*
X241841199Y-119365350D02*
X242841199Y-119365350D01*
X242841199Y-133365350D02*
X241841199Y-133365350D01*
X242841199Y-120365350D02*
X242841199Y-119365350D01*
X228841199Y-119365350D02*
X228841199Y-120365350D01*
X229841199Y-133365350D02*
X228841199Y-133365350D01*
X228841199Y-119365350D02*
X229841199Y-119365350D01*
X228841199Y-132365350D02*
X228841199Y-133365350D01*
X242841199Y-152415365D02*
X242841199Y-151415365D01*
X241841199Y-138415365D02*
X242841199Y-138415365D01*
X242841199Y-152415365D02*
X241841199Y-152415365D01*
X242841199Y-139415365D02*
X242841199Y-138415365D01*
X228841199Y-138415365D02*
X228841199Y-139415365D01*
X229841199Y-152415365D02*
X228841199Y-152415365D01*
X228841199Y-138415365D02*
X229841199Y-138415365D01*
X228841199Y-151415365D02*
X228841199Y-152415365D01*
X242841199Y-171465351D02*
X242841199Y-170465351D01*
X241841199Y-157465351D02*
X242841199Y-157465351D01*
X242841199Y-171465351D02*
X241841199Y-171465351D01*
X242841199Y-158465351D02*
X242841199Y-157465351D01*
X228841199Y-157465351D02*
X228841199Y-158465351D01*
X229841199Y-171465351D02*
X228841199Y-171465351D01*
X228841199Y-157465351D02*
X229841199Y-157465351D01*
X228841199Y-170465351D02*
X228841199Y-171465351D01*
X223790200Y-114315350D02*
X223790200Y-113315350D01*
X222790200Y-100315350D02*
X223790200Y-100315350D01*
X223790200Y-114315350D02*
X222790200Y-114315350D01*
X223790200Y-101315350D02*
X223790200Y-100315350D01*
X209790200Y-100315350D02*
X209790200Y-101315350D01*
X210790200Y-114315350D02*
X209790200Y-114315350D01*
X209790200Y-100315350D02*
X210790200Y-100315350D01*
X209790200Y-113315350D02*
X209790200Y-114315350D01*
X223790200Y-133365351D02*
X223790200Y-132365351D01*
X222790200Y-119365351D02*
X223790200Y-119365351D01*
X223790200Y-133365351D02*
X222790200Y-133365351D01*
X223790200Y-120365351D02*
X223790200Y-119365351D01*
X209790200Y-119365351D02*
X209790200Y-120365351D01*
X210790200Y-133365351D02*
X209790200Y-133365351D01*
X209790200Y-119365351D02*
X210790200Y-119365351D01*
X209790200Y-132365351D02*
X209790200Y-133365351D01*
X223790200Y-152415365D02*
X223790200Y-151415365D01*
X222790200Y-138415365D02*
X223790200Y-138415365D01*
X223790200Y-152415365D02*
X222790200Y-152415365D01*
X223790200Y-139415365D02*
X223790200Y-138415365D01*
X209790200Y-138415365D02*
X209790200Y-139415365D01*
X210790200Y-152415365D02*
X209790200Y-152415365D01*
X209790200Y-138415365D02*
X210790200Y-138415365D01*
X209790200Y-151415365D02*
X209790200Y-152415365D01*
X223790200Y-171465351D02*
X223790200Y-170465351D01*
X222790200Y-157465351D02*
X223790200Y-157465351D01*
X223790200Y-171465351D02*
X222790200Y-171465351D01*
X223790200Y-158465351D02*
X223790200Y-157465351D01*
X209790200Y-157465351D02*
X209790200Y-158465351D01*
X210790200Y-171465351D02*
X209790200Y-171465351D01*
X209790200Y-157465351D02*
X210790200Y-157465351D01*
X209790200Y-170465351D02*
X209790200Y-171465351D01*
X223790200Y-190515266D02*
X223790200Y-189515266D01*
X222790200Y-176515266D02*
X223790200Y-176515266D01*
X223790200Y-190515266D02*
X222790200Y-190515266D01*
X223790200Y-177515266D02*
X223790200Y-176515266D01*
X209790200Y-176515266D02*
X209790200Y-177515266D01*
X210790200Y-190515266D02*
X209790200Y-190515266D01*
X209790200Y-176515266D02*
X210790200Y-176515266D01*
X209790200Y-189515266D02*
X209790200Y-190515266D01*
X204740199Y-114315350D02*
X204740199Y-113315350D01*
X203740199Y-100315350D02*
X204740199Y-100315350D01*
X204740199Y-114315350D02*
X203740199Y-114315350D01*
X204740199Y-101315350D02*
X204740199Y-100315350D01*
X190740199Y-100315350D02*
X190740199Y-101315350D01*
X191740199Y-114315350D02*
X190740199Y-114315350D01*
X190740199Y-100315350D02*
X191740199Y-100315350D01*
X190740199Y-113315350D02*
X190740199Y-114315350D01*
X204740199Y-133365351D02*
X204740199Y-132365351D01*
X203740199Y-119365351D02*
X204740199Y-119365351D01*
X204740199Y-133365351D02*
X203740199Y-133365351D01*
X204740199Y-120365351D02*
X204740199Y-119365351D01*
X190740199Y-119365351D02*
X190740199Y-120365351D01*
X191740199Y-133365351D02*
X190740199Y-133365351D01*
X190740199Y-119365351D02*
X191740199Y-119365351D01*
X190740199Y-132365351D02*
X190740199Y-133365351D01*
X204740199Y-152415365D02*
X204740199Y-151415365D01*
X203740199Y-138415365D02*
X204740199Y-138415365D01*
X204740199Y-152415365D02*
X203740199Y-152415365D01*
X204740199Y-139415365D02*
X204740199Y-138415365D01*
X190740199Y-138415365D02*
X190740199Y-139415365D01*
X191740199Y-152415365D02*
X190740199Y-152415365D01*
X190740199Y-138415365D02*
X191740199Y-138415365D01*
X190740199Y-151415365D02*
X190740199Y-152415365D01*
X204740199Y-171465351D02*
X204740199Y-170465351D01*
X203740199Y-157465351D02*
X204740199Y-157465351D01*
X204740199Y-171465351D02*
X203740199Y-171465351D01*
X204740199Y-158465351D02*
X204740199Y-157465351D01*
X190740199Y-157465351D02*
X190740199Y-158465351D01*
X191740199Y-171465351D02*
X190740199Y-171465351D01*
X190740199Y-157465351D02*
X191740199Y-157465351D01*
X190740199Y-170465351D02*
X190740199Y-171465351D01*
X204740199Y-190515266D02*
X204740199Y-189515266D01*
X203740199Y-176515266D02*
X204740199Y-176515266D01*
X204740199Y-190515266D02*
X203740199Y-190515266D01*
X204740199Y-177515266D02*
X204740199Y-176515266D01*
X190740199Y-176515266D02*
X190740199Y-177515266D01*
X191740199Y-190515266D02*
X190740199Y-190515266D01*
X190740199Y-176515266D02*
X191740199Y-176515266D01*
X190740199Y-189515266D02*
X190740199Y-190515266D01*
X185690199Y-114315350D02*
X185690199Y-113315350D01*
X184690199Y-100315350D02*
X185690199Y-100315350D01*
X185690199Y-114315350D02*
X184690199Y-114315350D01*
X185690199Y-101315350D02*
X185690199Y-100315350D01*
X171690199Y-100315350D02*
X171690199Y-101315350D01*
X172690199Y-114315350D02*
X171690199Y-114315350D01*
X171690199Y-100315350D02*
X172690199Y-100315350D01*
X171690199Y-113315350D02*
X171690199Y-114315350D01*
X185690199Y-133365351D02*
X185690199Y-132365351D01*
X184690199Y-119365351D02*
X185690199Y-119365351D01*
X185690199Y-133365351D02*
X184690199Y-133365351D01*
X185690199Y-120365351D02*
X185690199Y-119365351D01*
X171690199Y-119365351D02*
X171690199Y-120365351D01*
X172690199Y-133365351D02*
X171690199Y-133365351D01*
X171690199Y-119365351D02*
X172690199Y-119365351D01*
X171690199Y-132365351D02*
X171690199Y-133365351D01*
X185690199Y-152415365D02*
X185690199Y-151415365D01*
X184690199Y-138415365D02*
X185690199Y-138415365D01*
X185690199Y-152415365D02*
X184690199Y-152415365D01*
X185690199Y-139415365D02*
X185690199Y-138415365D01*
X171690199Y-138415365D02*
X171690199Y-139415365D01*
X172690199Y-152415365D02*
X171690199Y-152415365D01*
X171690199Y-138415365D02*
X172690199Y-138415365D01*
X171690199Y-151415365D02*
X171690199Y-152415365D01*
X185690199Y-171465351D02*
X185690199Y-170465351D01*
X184690199Y-157465351D02*
X185690199Y-157465351D01*
X185690199Y-171465351D02*
X184690199Y-171465351D01*
X185690199Y-158465351D02*
X185690199Y-157465351D01*
X171690199Y-157465351D02*
X171690199Y-158465351D01*
X172690199Y-171465351D02*
X171690199Y-171465351D01*
X171690199Y-157465351D02*
X172690199Y-157465351D01*
X171690199Y-170465351D02*
X171690199Y-171465351D01*
X185690199Y-190515266D02*
X185690199Y-189515266D01*
X184690199Y-176515266D02*
X185690199Y-176515266D01*
X185690199Y-190515266D02*
X184690199Y-190515266D01*
X185690199Y-177515266D02*
X185690199Y-176515266D01*
X171690199Y-176515266D02*
X171690199Y-177515266D01*
X172690199Y-190515266D02*
X171690199Y-190515266D01*
X171690199Y-176515266D02*
X172690199Y-176515266D01*
X171690199Y-189515266D02*
X171690199Y-190515266D01*
X166640199Y-114315350D02*
X166640199Y-113315350D01*
X165640199Y-100315350D02*
X166640199Y-100315350D01*
X166640199Y-114315350D02*
X165640199Y-114315350D01*
X166640199Y-101315350D02*
X166640199Y-100315350D01*
X152640199Y-100315350D02*
X152640199Y-101315350D01*
X153640199Y-114315350D02*
X152640199Y-114315350D01*
X152640199Y-100315350D02*
X153640199Y-100315350D01*
X152640199Y-113315350D02*
X152640199Y-114315350D01*
X166640199Y-133365351D02*
X166640199Y-132365351D01*
X165640199Y-119365351D02*
X166640199Y-119365351D01*
X166640199Y-133365351D02*
X165640199Y-133365351D01*
X166640199Y-120365351D02*
X166640199Y-119365351D01*
X152640199Y-119365351D02*
X152640199Y-120365351D01*
X153640199Y-133365351D02*
X152640199Y-133365351D01*
X152640199Y-119365351D02*
X153640199Y-119365351D01*
X152640199Y-132365351D02*
X152640199Y-133365351D01*
X166640199Y-152415365D02*
X166640199Y-151415365D01*
X165640199Y-138415365D02*
X166640199Y-138415365D01*
X166640199Y-152415365D02*
X165640199Y-152415365D01*
X166640199Y-139415365D02*
X166640199Y-138415365D01*
X152640199Y-138415365D02*
X152640199Y-139415365D01*
X153640199Y-152415365D02*
X152640199Y-152415365D01*
X152640199Y-138415365D02*
X153640199Y-138415365D01*
X152640199Y-151415365D02*
X152640199Y-152415365D01*
X166640199Y-171465351D02*
X166640199Y-170465351D01*
X165640199Y-157465351D02*
X166640199Y-157465351D01*
X166640199Y-171465351D02*
X165640199Y-171465351D01*
X166640199Y-158465351D02*
X166640199Y-157465351D01*
X152640199Y-157465351D02*
X152640199Y-158465351D01*
X153640199Y-171465351D02*
X152640199Y-171465351D01*
X152640199Y-157465351D02*
X153640199Y-157465351D01*
X152640199Y-170465351D02*
X152640199Y-171465351D01*
X166640199Y-190515266D02*
X166640199Y-189515266D01*
X165640199Y-176515266D02*
X166640199Y-176515266D01*
X166640199Y-190515266D02*
X165640199Y-190515266D01*
X166640199Y-177515266D02*
X166640199Y-176515266D01*
X152640199Y-176515266D02*
X152640199Y-177515266D01*
X153640199Y-190515266D02*
X152640199Y-190515266D01*
X152640199Y-176515266D02*
X153640199Y-176515266D01*
X152640199Y-189515266D02*
X152640199Y-190515266D01*
X147590199Y-133365351D02*
X147590199Y-132365351D01*
X146590199Y-119365351D02*
X147590199Y-119365351D01*
X147590199Y-133365351D02*
X146590199Y-133365351D01*
X147590199Y-120365351D02*
X147590199Y-119365351D01*
X133590199Y-119365351D02*
X133590199Y-120365351D01*
X134590199Y-133365351D02*
X133590199Y-133365351D01*
X133590199Y-119365351D02*
X134590199Y-119365351D01*
X133590199Y-132365351D02*
X133590199Y-133365351D01*
X147590199Y-152415365D02*
X147590199Y-151415365D01*
X146590199Y-138415365D02*
X147590199Y-138415365D01*
X147590199Y-152415365D02*
X146590199Y-152415365D01*
X147590199Y-139415365D02*
X147590199Y-138415365D01*
X133590199Y-138415365D02*
X133590199Y-139415365D01*
X134590199Y-152415365D02*
X133590199Y-152415365D01*
X133590199Y-138415365D02*
X134590199Y-138415365D01*
X133590199Y-151415365D02*
X133590199Y-152415365D01*
X147590199Y-171465351D02*
X147590199Y-170465351D01*
X146590199Y-157465351D02*
X147590199Y-157465351D01*
X147590199Y-171465351D02*
X146590199Y-171465351D01*
X147590199Y-158465351D02*
X147590199Y-157465351D01*
X133590199Y-157465351D02*
X133590199Y-158465351D01*
X134590199Y-171465351D02*
X133590199Y-171465351D01*
X133590199Y-157465351D02*
X134590199Y-157465351D01*
X133590199Y-170465351D02*
X133590199Y-171465351D01*
X147590199Y-190515266D02*
X147590199Y-189515266D01*
X146590199Y-176515266D02*
X147590199Y-176515266D01*
X147590199Y-190515266D02*
X146590199Y-190515266D01*
X147590199Y-177515266D02*
X147590199Y-176515266D01*
X133590199Y-176515266D02*
X133590199Y-177515266D01*
X134590199Y-190515266D02*
X133590199Y-190515266D01*
X133590199Y-176515266D02*
X134590199Y-176515266D01*
X133590199Y-189515266D02*
X133590199Y-190515266D01*
X128540199Y-133365351D02*
X128540199Y-132365351D01*
X127540199Y-119365351D02*
X128540199Y-119365351D01*
X128540199Y-133365351D02*
X127540199Y-133365351D01*
X128540199Y-120365351D02*
X128540199Y-119365351D01*
X114540199Y-119365351D02*
X114540199Y-120365351D01*
X115540199Y-133365351D02*
X114540199Y-133365351D01*
X114540199Y-119365351D02*
X115540199Y-119365351D01*
X114540199Y-132365351D02*
X114540199Y-133365351D01*
X128540199Y-171465351D02*
X128540199Y-170465351D01*
X127540199Y-157465351D02*
X128540199Y-157465351D01*
X128540199Y-171465351D02*
X127540199Y-171465351D01*
X128540199Y-158465351D02*
X128540199Y-157465351D01*
X114540199Y-157465351D02*
X114540199Y-158465351D01*
X115540199Y-171465351D02*
X114540199Y-171465351D01*
X114540199Y-157465351D02*
X115540199Y-157465351D01*
X114540199Y-170465351D02*
X114540199Y-171465351D01*
X109490199Y-133365351D02*
X109490199Y-132365351D01*
X108490199Y-119365351D02*
X109490199Y-119365351D01*
X109490199Y-133365351D02*
X108490199Y-133365351D01*
X109490199Y-120365351D02*
X109490199Y-119365351D01*
X95490199Y-119365351D02*
X95490199Y-120365351D01*
X96490199Y-133365351D02*
X95490199Y-133365351D01*
X95490199Y-119365351D02*
X96490199Y-119365351D01*
X95490199Y-132365351D02*
X95490199Y-133365351D01*
X109490199Y-171465351D02*
X109490199Y-170465351D01*
X108490199Y-157465351D02*
X109490199Y-157465351D01*
X109490199Y-171465351D02*
X108490199Y-171465351D01*
X109490199Y-158465351D02*
X109490199Y-157465351D01*
X95490199Y-157465351D02*
X95490199Y-158465351D01*
X96490199Y-171465351D02*
X95490199Y-171465351D01*
X95490199Y-157465351D02*
X96490199Y-157465351D01*
X95490199Y-170465351D02*
X95490199Y-171465351D01*
X109490199Y-190515266D02*
X109490199Y-189515266D01*
X108490199Y-176515266D02*
X109490199Y-176515266D01*
X109490199Y-190515266D02*
X108490199Y-190515266D01*
X109490199Y-177515266D02*
X109490199Y-176515266D01*
X95490199Y-176515266D02*
X95490199Y-177515266D01*
X96490199Y-190515266D02*
X95490199Y-190515266D01*
X95490199Y-176515266D02*
X96490199Y-176515266D01*
X95490199Y-189515266D02*
X95490199Y-190515266D01*
%LPC*%
D11*
X112015199Y-145415365D03*
D12*
X108205199Y-147955365D03*
X114555199Y-150495365D03*
D11*
X121540199Y-183515266D03*
D12*
X117730199Y-186055266D03*
X124080199Y-188595266D03*
D11*
X350140274Y-107315350D03*
D12*
X346330274Y-109855350D03*
X352680274Y-112395350D03*
D11*
X102490199Y-107315350D03*
D12*
X98680199Y-109855350D03*
X105030199Y-112395350D03*
D11*
X121540199Y-107315350D03*
D12*
X117730199Y-109855350D03*
X124080199Y-112395350D03*
D11*
X140590199Y-107315350D03*
D12*
X136780199Y-109855350D03*
X143130199Y-112395350D03*
D13*
X140590199Y-102815350D03*
D11*
X350140274Y-126365350D03*
D12*
X346330274Y-128905350D03*
X352680274Y-131445350D03*
D11*
X350140274Y-145415365D03*
D12*
X346330274Y-147955365D03*
X352680274Y-150495365D03*
D11*
X350140274Y-164465351D03*
D12*
X346330274Y-167005351D03*
X352680274Y-169545351D03*
D11*
X350140275Y-183515265D03*
D12*
X346330275Y-186055265D03*
X352680275Y-188595265D03*
D11*
X331090349Y-107315350D03*
D12*
X327280349Y-109855350D03*
X333630349Y-112395350D03*
D11*
X331090349Y-126365350D03*
D12*
X327280349Y-128905350D03*
X333630349Y-131445350D03*
D11*
X331090349Y-145415365D03*
D12*
X327280349Y-147955365D03*
X333630349Y-150495365D03*
D11*
X331090349Y-164465351D03*
D12*
X327280349Y-167005351D03*
X333630349Y-169545351D03*
D11*
X331090350Y-183515265D03*
D12*
X327280350Y-186055265D03*
X333630350Y-188595265D03*
D11*
X312040349Y-107315350D03*
D12*
X308230349Y-109855350D03*
X314580349Y-112395350D03*
D11*
X312040349Y-126365350D03*
D12*
X308230349Y-128905350D03*
X314580349Y-131445350D03*
D11*
X312040349Y-145415365D03*
D12*
X308230349Y-147955365D03*
X314580349Y-150495365D03*
D11*
X312040349Y-164465351D03*
D12*
X308230349Y-167005351D03*
X314580349Y-169545351D03*
D11*
X312040350Y-183515265D03*
D12*
X308230350Y-186055265D03*
X314580350Y-188595265D03*
D11*
X292990349Y-107315350D03*
D12*
X289180349Y-109855350D03*
X295530349Y-112395350D03*
D11*
X292990349Y-126365350D03*
D12*
X289180349Y-128905350D03*
X295530349Y-131445350D03*
D11*
X292990349Y-145415365D03*
D12*
X289180349Y-147955365D03*
X295530349Y-150495365D03*
D11*
X292990349Y-164465351D03*
D12*
X289180349Y-167005351D03*
X295530349Y-169545351D03*
D11*
X292990350Y-183515265D03*
D12*
X289180350Y-186055265D03*
X295530350Y-188595265D03*
D11*
X273940349Y-107315350D03*
D12*
X270130349Y-109855350D03*
X276480349Y-112395350D03*
D11*
X273940349Y-126365350D03*
D12*
X270130349Y-128905350D03*
X276480349Y-131445350D03*
D11*
X273940349Y-145415365D03*
D12*
X270130349Y-147955365D03*
X276480349Y-150495365D03*
D11*
X273940349Y-164465351D03*
D12*
X270130349Y-167005351D03*
X276480349Y-169545351D03*
D11*
X273940350Y-183515265D03*
D12*
X270130350Y-186055265D03*
X276480350Y-188595265D03*
D11*
X254891049Y-107315350D03*
D12*
X251081049Y-109855350D03*
X257431049Y-112395350D03*
D11*
X254891049Y-126365350D03*
D12*
X251081049Y-128905350D03*
X257431049Y-131445350D03*
D11*
X254891049Y-145415365D03*
D12*
X251081049Y-147955365D03*
X257431049Y-150495365D03*
D11*
X254891049Y-164465351D03*
D12*
X251081049Y-167005351D03*
X257431049Y-169545351D03*
D11*
X245365199Y-183515265D03*
D12*
X241555199Y-186055265D03*
X247905199Y-188595265D03*
D11*
X235841199Y-107315350D03*
D12*
X232031199Y-109855350D03*
X238381199Y-112395350D03*
D11*
X235841199Y-126365350D03*
D12*
X232031199Y-128905350D03*
X238381199Y-131445350D03*
D11*
X235841199Y-145415365D03*
D12*
X232031199Y-147955365D03*
X238381199Y-150495365D03*
D11*
X235841199Y-164465351D03*
D12*
X232031199Y-167005351D03*
X238381199Y-169545351D03*
D11*
X216790200Y-107315350D03*
D12*
X212980200Y-109855350D03*
X219330200Y-112395350D03*
D11*
X216790200Y-126365351D03*
D12*
X212980200Y-128905351D03*
X219330200Y-131445351D03*
D11*
X216790200Y-145415365D03*
D12*
X212980200Y-147955365D03*
X219330200Y-150495365D03*
D11*
X216790200Y-164465351D03*
D12*
X212980200Y-167005351D03*
X219330200Y-169545351D03*
D11*
X216790200Y-183515266D03*
D12*
X212980200Y-186055266D03*
X219330200Y-188595266D03*
D11*
X197740199Y-107315350D03*
D12*
X193930199Y-109855350D03*
X200280199Y-112395350D03*
D11*
X197740199Y-126365351D03*
D12*
X193930199Y-128905351D03*
X200280199Y-131445351D03*
D11*
X197740199Y-145415365D03*
D12*
X193930199Y-147955365D03*
X200280199Y-150495365D03*
D11*
X197740199Y-164465351D03*
D12*
X193930199Y-167005351D03*
X200280199Y-169545351D03*
D11*
X197740199Y-183515266D03*
D12*
X193930199Y-186055266D03*
X200280199Y-188595266D03*
D11*
X178690199Y-107315350D03*
D12*
X174880199Y-109855350D03*
X181230199Y-112395350D03*
D11*
X178690199Y-126365351D03*
D12*
X174880199Y-128905351D03*
X181230199Y-131445351D03*
D11*
X178690199Y-145415365D03*
D12*
X174880199Y-147955365D03*
X181230199Y-150495365D03*
D11*
X178690199Y-164465351D03*
D12*
X174880199Y-167005351D03*
X181230199Y-169545351D03*
D11*
X178690199Y-183515266D03*
D12*
X174880199Y-186055266D03*
X181230199Y-188595266D03*
D11*
X159640199Y-107315350D03*
D12*
X155830199Y-109855350D03*
X162180199Y-112395350D03*
D11*
X159640199Y-126365351D03*
D12*
X155830199Y-128905351D03*
X162180199Y-131445351D03*
D11*
X159640199Y-145415365D03*
D12*
X155830199Y-147955365D03*
X162180199Y-150495365D03*
D11*
X159640199Y-164465351D03*
D12*
X155830199Y-167005351D03*
X162180199Y-169545351D03*
D11*
X159640199Y-183515266D03*
D12*
X155830199Y-186055266D03*
X162180199Y-188595266D03*
D11*
X140590199Y-126365351D03*
D12*
X136780199Y-128905351D03*
X143130199Y-131445351D03*
D11*
X140590199Y-145415365D03*
D12*
X136780199Y-147955365D03*
X143130199Y-150495365D03*
D11*
X140590199Y-164465351D03*
D12*
X136780199Y-167005351D03*
X143130199Y-169545351D03*
D11*
X140590199Y-183515266D03*
D12*
X136780199Y-186055266D03*
X143130199Y-188595266D03*
D11*
X121540199Y-126365351D03*
D12*
X117730199Y-128905351D03*
X124080199Y-131445351D03*
D11*
X121540199Y-164465351D03*
D12*
X117730199Y-167005351D03*
X124080199Y-169545351D03*
D11*
X102490199Y-126365351D03*
D12*
X98680199Y-128905351D03*
X105030199Y-131445351D03*
D11*
X102490199Y-164465351D03*
D12*
X98680199Y-167005351D03*
X105030199Y-169545351D03*
D11*
X102490199Y-183515266D03*
D12*
X98680199Y-186055266D03*
X105030199Y-188595266D03*
D13*
X350140274Y-159965351D03*
X350140275Y-179015265D03*
X331090349Y-159965351D03*
X331090350Y-179015265D03*
X312040349Y-159965351D03*
X312040350Y-179015265D03*
X292990349Y-159965351D03*
X292990350Y-179015265D03*
X273940349Y-159965351D03*
X273940350Y-179015265D03*
X254891049Y-159965351D03*
X245365199Y-179015265D03*
X235841199Y-159965351D03*
X216790200Y-159965351D03*
X216790200Y-179015266D03*
X197740199Y-159965351D03*
X197740199Y-179015266D03*
X178690199Y-159965351D03*
X178690199Y-179015266D03*
X159640199Y-159965351D03*
X159640199Y-179015266D03*
X140590199Y-159965351D03*
X140590199Y-179015266D03*
X121540199Y-159965351D03*
X121540199Y-179015266D03*
X102490199Y-159965351D03*
X102490199Y-179015266D03*
X350140274Y-102815350D03*
X350140274Y-121865350D03*
X350140274Y-140915365D03*
X331090349Y-102815350D03*
X331090349Y-121865350D03*
X331090349Y-140915365D03*
X312040349Y-102815350D03*
X312040349Y-121865350D03*
X312040349Y-140915365D03*
X292990349Y-102815350D03*
X292990349Y-121865350D03*
X292990349Y-140915365D03*
X273940349Y-102815350D03*
X273940349Y-121865350D03*
X273940349Y-140915365D03*
X254891049Y-102815350D03*
X254891049Y-121865350D03*
X254891049Y-140915365D03*
X235841199Y-102815350D03*
X235841199Y-121865350D03*
X235841199Y-140915365D03*
X216790200Y-102815350D03*
X216790200Y-121865351D03*
X216790200Y-140915365D03*
X197740199Y-102815350D03*
X197740199Y-121865351D03*
X197740199Y-140915365D03*
X178690199Y-102815350D03*
X178690199Y-121865351D03*
X178690199Y-140915365D03*
X159640199Y-102815350D03*
X159640199Y-121865351D03*
X159640199Y-140915365D03*
X140590199Y-121865351D03*
X140590199Y-140915365D03*
X121540199Y-102815350D03*
X121540199Y-121865351D03*
X112015199Y-140915365D03*
X102490199Y-102815350D03*
X102490199Y-121865351D03*
D14*
X111479000Y-85264500D03*
X118479000Y-85264500D03*
D15*
X112479000Y-87964500D03*
X117479000Y-87964500D03*
M02*
