G04 #@! TF.GenerationSoftware,KiCad,Pcbnew,(5.1.5)-3*
G04 #@! TF.CreationDate,2020-01-18T00:00:31-08:00*
G04 #@! TF.ProjectId,testing,74657374-696e-4672-9e6b-696361645f70,rev?*
G04 #@! TF.SameCoordinates,Original*
G04 #@! TF.FileFunction,Soldermask,Bot*
G04 #@! TF.FilePolarity,Negative*
%FSLAX46Y46*%
G04 Gerber Fmt 4.6, Leading zero omitted, Abs format (unit mm)*
G04 Created by KiCad (PCBNEW (5.1.5)-3) date 2020-01-18 00:00:31*
%MOMM*%
%LPD*%
G04 APERTURE LIST*
G04 #@! TA.AperFunction,Profile*
%ADD10C,0.050000*%
G04 #@! TD*
%ADD11C,0.150000*%
G04 APERTURE END LIST*
D10*
X161050000Y-112850000D02*
X93050000Y-112850000D01*
X93050000Y-48350000D02*
X93050000Y-112850000D01*
X161050000Y-48350000D02*
X93050000Y-48350000D01*
X161050000Y-112850000D02*
X161050000Y-48350000D01*
D11*
G36*
X119569059Y-108327860D02*
G01*
X119705732Y-108384472D01*
X119828735Y-108466660D01*
X119933340Y-108571265D01*
X120015528Y-108694268D01*
X120072140Y-108830941D01*
X120101000Y-108976033D01*
X120101000Y-109123967D01*
X120072140Y-109269059D01*
X120015528Y-109405732D01*
X119933340Y-109528735D01*
X119828735Y-109633340D01*
X119705732Y-109715528D01*
X119705731Y-109715529D01*
X119705730Y-109715529D01*
X119569059Y-109772140D01*
X119423968Y-109801000D01*
X119276032Y-109801000D01*
X119130941Y-109772140D01*
X118994270Y-109715529D01*
X118994269Y-109715529D01*
X118994268Y-109715528D01*
X118871265Y-109633340D01*
X118766660Y-109528735D01*
X118684472Y-109405732D01*
X118627860Y-109269059D01*
X118599000Y-109123967D01*
X118599000Y-108976033D01*
X118627860Y-108830941D01*
X118684472Y-108694268D01*
X118766660Y-108571265D01*
X118871265Y-108466660D01*
X118994268Y-108384472D01*
X119130941Y-108327860D01*
X119276032Y-108299000D01*
X119423968Y-108299000D01*
X119569059Y-108327860D01*
G37*
G36*
X112169059Y-108327860D02*
G01*
X112305732Y-108384472D01*
X112428735Y-108466660D01*
X112533340Y-108571265D01*
X112615528Y-108694268D01*
X112672140Y-108830941D01*
X112701000Y-108976033D01*
X112701000Y-109123967D01*
X112672140Y-109269059D01*
X112615528Y-109405732D01*
X112533340Y-109528735D01*
X112428735Y-109633340D01*
X112305732Y-109715528D01*
X112305731Y-109715529D01*
X112305730Y-109715529D01*
X112169059Y-109772140D01*
X112023968Y-109801000D01*
X111876032Y-109801000D01*
X111730941Y-109772140D01*
X111594270Y-109715529D01*
X111594269Y-109715529D01*
X111594268Y-109715528D01*
X111471265Y-109633340D01*
X111366660Y-109528735D01*
X111284472Y-109405732D01*
X111227860Y-109269059D01*
X111199000Y-109123967D01*
X111199000Y-108976033D01*
X111227860Y-108830941D01*
X111284472Y-108694268D01*
X111366660Y-108571265D01*
X111471265Y-108466660D01*
X111594268Y-108384472D01*
X111730941Y-108327860D01*
X111876032Y-108299000D01*
X112023968Y-108299000D01*
X112169059Y-108327860D01*
G37*
G36*
X115869059Y-108327860D02*
G01*
X116005732Y-108384472D01*
X116128735Y-108466660D01*
X116233340Y-108571265D01*
X116315528Y-108694268D01*
X116372140Y-108830941D01*
X116401000Y-108976033D01*
X116401000Y-109123967D01*
X116372140Y-109269059D01*
X116315528Y-109405732D01*
X116233340Y-109528735D01*
X116128735Y-109633340D01*
X116005732Y-109715528D01*
X116005731Y-109715529D01*
X116005730Y-109715529D01*
X115869059Y-109772140D01*
X115723968Y-109801000D01*
X115576032Y-109801000D01*
X115430941Y-109772140D01*
X115294270Y-109715529D01*
X115294269Y-109715529D01*
X115294268Y-109715528D01*
X115171265Y-109633340D01*
X115066660Y-109528735D01*
X114984472Y-109405732D01*
X114927860Y-109269059D01*
X114899000Y-109123967D01*
X114899000Y-108976033D01*
X114927860Y-108830941D01*
X114984472Y-108694268D01*
X115066660Y-108571265D01*
X115171265Y-108466660D01*
X115294268Y-108384472D01*
X115430941Y-108327860D01*
X115576032Y-108299000D01*
X115723968Y-108299000D01*
X115869059Y-108327860D01*
G37*
G36*
X156569059Y-108327860D02*
G01*
X156705732Y-108384472D01*
X156828735Y-108466660D01*
X156933340Y-108571265D01*
X157015528Y-108694268D01*
X157072140Y-108830941D01*
X157101000Y-108976033D01*
X157101000Y-109123967D01*
X157072140Y-109269059D01*
X157015528Y-109405732D01*
X156933340Y-109528735D01*
X156828735Y-109633340D01*
X156705732Y-109715528D01*
X156705731Y-109715529D01*
X156705730Y-109715529D01*
X156569059Y-109772140D01*
X156423968Y-109801000D01*
X156276032Y-109801000D01*
X156130941Y-109772140D01*
X155994270Y-109715529D01*
X155994269Y-109715529D01*
X155994268Y-109715528D01*
X155871265Y-109633340D01*
X155766660Y-109528735D01*
X155684472Y-109405732D01*
X155627860Y-109269059D01*
X155599000Y-109123967D01*
X155599000Y-108976033D01*
X155627860Y-108830941D01*
X155684472Y-108694268D01*
X155766660Y-108571265D01*
X155871265Y-108466660D01*
X155994268Y-108384472D01*
X156130941Y-108327860D01*
X156276032Y-108299000D01*
X156423968Y-108299000D01*
X156569059Y-108327860D01*
G37*
G36*
X108469059Y-108327860D02*
G01*
X108605732Y-108384472D01*
X108728735Y-108466660D01*
X108833340Y-108571265D01*
X108915528Y-108694268D01*
X108972140Y-108830941D01*
X109001000Y-108976033D01*
X109001000Y-109123967D01*
X108972140Y-109269059D01*
X108915528Y-109405732D01*
X108833340Y-109528735D01*
X108728735Y-109633340D01*
X108605732Y-109715528D01*
X108605731Y-109715529D01*
X108605730Y-109715529D01*
X108469059Y-109772140D01*
X108323968Y-109801000D01*
X108176032Y-109801000D01*
X108030941Y-109772140D01*
X107894270Y-109715529D01*
X107894269Y-109715529D01*
X107894268Y-109715528D01*
X107771265Y-109633340D01*
X107666660Y-109528735D01*
X107584472Y-109405732D01*
X107527860Y-109269059D01*
X107499000Y-109123967D01*
X107499000Y-108976033D01*
X107527860Y-108830941D01*
X107584472Y-108694268D01*
X107666660Y-108571265D01*
X107771265Y-108466660D01*
X107894268Y-108384472D01*
X108030941Y-108327860D01*
X108176032Y-108299000D01*
X108323968Y-108299000D01*
X108469059Y-108327860D01*
G37*
G36*
X152869059Y-108327860D02*
G01*
X153005732Y-108384472D01*
X153128735Y-108466660D01*
X153233340Y-108571265D01*
X153315528Y-108694268D01*
X153372140Y-108830941D01*
X153401000Y-108976033D01*
X153401000Y-109123967D01*
X153372140Y-109269059D01*
X153315528Y-109405732D01*
X153233340Y-109528735D01*
X153128735Y-109633340D01*
X153005732Y-109715528D01*
X153005731Y-109715529D01*
X153005730Y-109715529D01*
X152869059Y-109772140D01*
X152723968Y-109801000D01*
X152576032Y-109801000D01*
X152430941Y-109772140D01*
X152294270Y-109715529D01*
X152294269Y-109715529D01*
X152294268Y-109715528D01*
X152171265Y-109633340D01*
X152066660Y-109528735D01*
X151984472Y-109405732D01*
X151927860Y-109269059D01*
X151899000Y-109123967D01*
X151899000Y-108976033D01*
X151927860Y-108830941D01*
X151984472Y-108694268D01*
X152066660Y-108571265D01*
X152171265Y-108466660D01*
X152294268Y-108384472D01*
X152430941Y-108327860D01*
X152576032Y-108299000D01*
X152723968Y-108299000D01*
X152869059Y-108327860D01*
G37*
G36*
X149169059Y-108327860D02*
G01*
X149305732Y-108384472D01*
X149428735Y-108466660D01*
X149533340Y-108571265D01*
X149615528Y-108694268D01*
X149672140Y-108830941D01*
X149701000Y-108976033D01*
X149701000Y-109123967D01*
X149672140Y-109269059D01*
X149615528Y-109405732D01*
X149533340Y-109528735D01*
X149428735Y-109633340D01*
X149305732Y-109715528D01*
X149305731Y-109715529D01*
X149305730Y-109715529D01*
X149169059Y-109772140D01*
X149023968Y-109801000D01*
X148876032Y-109801000D01*
X148730941Y-109772140D01*
X148594270Y-109715529D01*
X148594269Y-109715529D01*
X148594268Y-109715528D01*
X148471265Y-109633340D01*
X148366660Y-109528735D01*
X148284472Y-109405732D01*
X148227860Y-109269059D01*
X148199000Y-109123967D01*
X148199000Y-108976033D01*
X148227860Y-108830941D01*
X148284472Y-108694268D01*
X148366660Y-108571265D01*
X148471265Y-108466660D01*
X148594268Y-108384472D01*
X148730941Y-108327860D01*
X148876032Y-108299000D01*
X149023968Y-108299000D01*
X149169059Y-108327860D01*
G37*
G36*
X141769059Y-108327860D02*
G01*
X141905732Y-108384472D01*
X142028735Y-108466660D01*
X142133340Y-108571265D01*
X142215528Y-108694268D01*
X142272140Y-108830941D01*
X142301000Y-108976033D01*
X142301000Y-109123967D01*
X142272140Y-109269059D01*
X142215528Y-109405732D01*
X142133340Y-109528735D01*
X142028735Y-109633340D01*
X141905732Y-109715528D01*
X141905731Y-109715529D01*
X141905730Y-109715529D01*
X141769059Y-109772140D01*
X141623968Y-109801000D01*
X141476032Y-109801000D01*
X141330941Y-109772140D01*
X141194270Y-109715529D01*
X141194269Y-109715529D01*
X141194268Y-109715528D01*
X141071265Y-109633340D01*
X140966660Y-109528735D01*
X140884472Y-109405732D01*
X140827860Y-109269059D01*
X140799000Y-109123967D01*
X140799000Y-108976033D01*
X140827860Y-108830941D01*
X140884472Y-108694268D01*
X140966660Y-108571265D01*
X141071265Y-108466660D01*
X141194268Y-108384472D01*
X141330941Y-108327860D01*
X141476032Y-108299000D01*
X141623968Y-108299000D01*
X141769059Y-108327860D01*
G37*
G36*
X138069059Y-108327860D02*
G01*
X138205732Y-108384472D01*
X138328735Y-108466660D01*
X138433340Y-108571265D01*
X138515528Y-108694268D01*
X138572140Y-108830941D01*
X138601000Y-108976033D01*
X138601000Y-109123967D01*
X138572140Y-109269059D01*
X138515528Y-109405732D01*
X138433340Y-109528735D01*
X138328735Y-109633340D01*
X138205732Y-109715528D01*
X138205731Y-109715529D01*
X138205730Y-109715529D01*
X138069059Y-109772140D01*
X137923968Y-109801000D01*
X137776032Y-109801000D01*
X137630941Y-109772140D01*
X137494270Y-109715529D01*
X137494269Y-109715529D01*
X137494268Y-109715528D01*
X137371265Y-109633340D01*
X137266660Y-109528735D01*
X137184472Y-109405732D01*
X137127860Y-109269059D01*
X137099000Y-109123967D01*
X137099000Y-108976033D01*
X137127860Y-108830941D01*
X137184472Y-108694268D01*
X137266660Y-108571265D01*
X137371265Y-108466660D01*
X137494268Y-108384472D01*
X137630941Y-108327860D01*
X137776032Y-108299000D01*
X137923968Y-108299000D01*
X138069059Y-108327860D01*
G37*
G36*
X134369059Y-108327860D02*
G01*
X134505732Y-108384472D01*
X134628735Y-108466660D01*
X134733340Y-108571265D01*
X134815528Y-108694268D01*
X134872140Y-108830941D01*
X134901000Y-108976033D01*
X134901000Y-109123967D01*
X134872140Y-109269059D01*
X134815528Y-109405732D01*
X134733340Y-109528735D01*
X134628735Y-109633340D01*
X134505732Y-109715528D01*
X134505731Y-109715529D01*
X134505730Y-109715529D01*
X134369059Y-109772140D01*
X134223968Y-109801000D01*
X134076032Y-109801000D01*
X133930941Y-109772140D01*
X133794270Y-109715529D01*
X133794269Y-109715529D01*
X133794268Y-109715528D01*
X133671265Y-109633340D01*
X133566660Y-109528735D01*
X133484472Y-109405732D01*
X133427860Y-109269059D01*
X133399000Y-109123967D01*
X133399000Y-108976033D01*
X133427860Y-108830941D01*
X133484472Y-108694268D01*
X133566660Y-108571265D01*
X133671265Y-108466660D01*
X133794268Y-108384472D01*
X133930941Y-108327860D01*
X134076032Y-108299000D01*
X134223968Y-108299000D01*
X134369059Y-108327860D01*
G37*
G36*
X126969059Y-108327860D02*
G01*
X127105732Y-108384472D01*
X127228735Y-108466660D01*
X127333340Y-108571265D01*
X127415528Y-108694268D01*
X127472140Y-108830941D01*
X127501000Y-108976033D01*
X127501000Y-109123967D01*
X127472140Y-109269059D01*
X127415528Y-109405732D01*
X127333340Y-109528735D01*
X127228735Y-109633340D01*
X127105732Y-109715528D01*
X127105731Y-109715529D01*
X127105730Y-109715529D01*
X126969059Y-109772140D01*
X126823968Y-109801000D01*
X126676032Y-109801000D01*
X126530941Y-109772140D01*
X126394270Y-109715529D01*
X126394269Y-109715529D01*
X126394268Y-109715528D01*
X126271265Y-109633340D01*
X126166660Y-109528735D01*
X126084472Y-109405732D01*
X126027860Y-109269059D01*
X125999000Y-109123967D01*
X125999000Y-108976033D01*
X126027860Y-108830941D01*
X126084472Y-108694268D01*
X126166660Y-108571265D01*
X126271265Y-108466660D01*
X126394268Y-108384472D01*
X126530941Y-108327860D01*
X126676032Y-108299000D01*
X126823968Y-108299000D01*
X126969059Y-108327860D01*
G37*
G36*
X123269059Y-108327860D02*
G01*
X123405732Y-108384472D01*
X123528735Y-108466660D01*
X123633340Y-108571265D01*
X123715528Y-108694268D01*
X123772140Y-108830941D01*
X123801000Y-108976033D01*
X123801000Y-109123967D01*
X123772140Y-109269059D01*
X123715528Y-109405732D01*
X123633340Y-109528735D01*
X123528735Y-109633340D01*
X123405732Y-109715528D01*
X123405731Y-109715529D01*
X123405730Y-109715529D01*
X123269059Y-109772140D01*
X123123968Y-109801000D01*
X122976032Y-109801000D01*
X122830941Y-109772140D01*
X122694270Y-109715529D01*
X122694269Y-109715529D01*
X122694268Y-109715528D01*
X122571265Y-109633340D01*
X122466660Y-109528735D01*
X122384472Y-109405732D01*
X122327860Y-109269059D01*
X122299000Y-109123967D01*
X122299000Y-108976033D01*
X122327860Y-108830941D01*
X122384472Y-108694268D01*
X122466660Y-108571265D01*
X122571265Y-108466660D01*
X122694268Y-108384472D01*
X122830941Y-108327860D01*
X122976032Y-108299000D01*
X123123968Y-108299000D01*
X123269059Y-108327860D01*
G37*
G36*
X145469059Y-108327860D02*
G01*
X145605732Y-108384472D01*
X145728735Y-108466660D01*
X145833340Y-108571265D01*
X145915528Y-108694268D01*
X145972140Y-108830941D01*
X146001000Y-108976033D01*
X146001000Y-109123967D01*
X145972140Y-109269059D01*
X145915528Y-109405732D01*
X145833340Y-109528735D01*
X145728735Y-109633340D01*
X145605732Y-109715528D01*
X145605731Y-109715529D01*
X145605730Y-109715529D01*
X145469059Y-109772140D01*
X145323968Y-109801000D01*
X145176032Y-109801000D01*
X145030941Y-109772140D01*
X144894270Y-109715529D01*
X144894269Y-109715529D01*
X144894268Y-109715528D01*
X144771265Y-109633340D01*
X144666660Y-109528735D01*
X144584472Y-109405732D01*
X144527860Y-109269059D01*
X144499000Y-109123967D01*
X144499000Y-108976033D01*
X144527860Y-108830941D01*
X144584472Y-108694268D01*
X144666660Y-108571265D01*
X144771265Y-108466660D01*
X144894268Y-108384472D01*
X145030941Y-108327860D01*
X145176032Y-108299000D01*
X145323968Y-108299000D01*
X145469059Y-108327860D01*
G37*
G36*
X152869059Y-105787860D02*
G01*
X153005732Y-105844472D01*
X153128735Y-105926660D01*
X153233340Y-106031265D01*
X153315528Y-106154268D01*
X153372140Y-106290941D01*
X153401000Y-106436033D01*
X153401000Y-106583967D01*
X153372140Y-106729059D01*
X153315528Y-106865732D01*
X153233340Y-106988735D01*
X153128735Y-107093340D01*
X153005732Y-107175528D01*
X153005731Y-107175529D01*
X153005730Y-107175529D01*
X152869059Y-107232140D01*
X152723968Y-107261000D01*
X152576032Y-107261000D01*
X152430941Y-107232140D01*
X152294270Y-107175529D01*
X152294269Y-107175529D01*
X152294268Y-107175528D01*
X152171265Y-107093340D01*
X152066660Y-106988735D01*
X151984472Y-106865732D01*
X151927860Y-106729059D01*
X151899000Y-106583967D01*
X151899000Y-106436033D01*
X151927860Y-106290941D01*
X151984472Y-106154268D01*
X152066660Y-106031265D01*
X152171265Y-105926660D01*
X152294268Y-105844472D01*
X152430941Y-105787860D01*
X152576032Y-105759000D01*
X152723968Y-105759000D01*
X152869059Y-105787860D01*
G37*
G36*
X115869059Y-105787860D02*
G01*
X116005732Y-105844472D01*
X116128735Y-105926660D01*
X116233340Y-106031265D01*
X116315528Y-106154268D01*
X116372140Y-106290941D01*
X116401000Y-106436033D01*
X116401000Y-106583967D01*
X116372140Y-106729059D01*
X116315528Y-106865732D01*
X116233340Y-106988735D01*
X116128735Y-107093340D01*
X116005732Y-107175528D01*
X116005731Y-107175529D01*
X116005730Y-107175529D01*
X115869059Y-107232140D01*
X115723968Y-107261000D01*
X115576032Y-107261000D01*
X115430941Y-107232140D01*
X115294270Y-107175529D01*
X115294269Y-107175529D01*
X115294268Y-107175528D01*
X115171265Y-107093340D01*
X115066660Y-106988735D01*
X114984472Y-106865732D01*
X114927860Y-106729059D01*
X114899000Y-106583967D01*
X114899000Y-106436033D01*
X114927860Y-106290941D01*
X114984472Y-106154268D01*
X115066660Y-106031265D01*
X115171265Y-105926660D01*
X115294268Y-105844472D01*
X115430941Y-105787860D01*
X115576032Y-105759000D01*
X115723968Y-105759000D01*
X115869059Y-105787860D01*
G37*
G36*
X156569059Y-105787860D02*
G01*
X156705732Y-105844472D01*
X156828735Y-105926660D01*
X156933340Y-106031265D01*
X157015528Y-106154268D01*
X157072140Y-106290941D01*
X157101000Y-106436033D01*
X157101000Y-106583967D01*
X157072140Y-106729059D01*
X157015528Y-106865732D01*
X156933340Y-106988735D01*
X156828735Y-107093340D01*
X156705732Y-107175528D01*
X156705731Y-107175529D01*
X156705730Y-107175529D01*
X156569059Y-107232140D01*
X156423968Y-107261000D01*
X156276032Y-107261000D01*
X156130941Y-107232140D01*
X155994270Y-107175529D01*
X155994269Y-107175529D01*
X155994268Y-107175528D01*
X155871265Y-107093340D01*
X155766660Y-106988735D01*
X155684472Y-106865732D01*
X155627860Y-106729059D01*
X155599000Y-106583967D01*
X155599000Y-106436033D01*
X155627860Y-106290941D01*
X155684472Y-106154268D01*
X155766660Y-106031265D01*
X155871265Y-105926660D01*
X155994268Y-105844472D01*
X156130941Y-105787860D01*
X156276032Y-105759000D01*
X156423968Y-105759000D01*
X156569059Y-105787860D01*
G37*
G36*
X112169059Y-105787860D02*
G01*
X112305732Y-105844472D01*
X112428735Y-105926660D01*
X112533340Y-106031265D01*
X112615528Y-106154268D01*
X112672140Y-106290941D01*
X112701000Y-106436033D01*
X112701000Y-106583967D01*
X112672140Y-106729059D01*
X112615528Y-106865732D01*
X112533340Y-106988735D01*
X112428735Y-107093340D01*
X112305732Y-107175528D01*
X112305731Y-107175529D01*
X112305730Y-107175529D01*
X112169059Y-107232140D01*
X112023968Y-107261000D01*
X111876032Y-107261000D01*
X111730941Y-107232140D01*
X111594270Y-107175529D01*
X111594269Y-107175529D01*
X111594268Y-107175528D01*
X111471265Y-107093340D01*
X111366660Y-106988735D01*
X111284472Y-106865732D01*
X111227860Y-106729059D01*
X111199000Y-106583967D01*
X111199000Y-106436033D01*
X111227860Y-106290941D01*
X111284472Y-106154268D01*
X111366660Y-106031265D01*
X111471265Y-105926660D01*
X111594268Y-105844472D01*
X111730941Y-105787860D01*
X111876032Y-105759000D01*
X112023968Y-105759000D01*
X112169059Y-105787860D01*
G37*
G36*
X119569059Y-105787860D02*
G01*
X119705732Y-105844472D01*
X119828735Y-105926660D01*
X119933340Y-106031265D01*
X120015528Y-106154268D01*
X120072140Y-106290941D01*
X120101000Y-106436033D01*
X120101000Y-106583967D01*
X120072140Y-106729059D01*
X120015528Y-106865732D01*
X119933340Y-106988735D01*
X119828735Y-107093340D01*
X119705732Y-107175528D01*
X119705731Y-107175529D01*
X119705730Y-107175529D01*
X119569059Y-107232140D01*
X119423968Y-107261000D01*
X119276032Y-107261000D01*
X119130941Y-107232140D01*
X118994270Y-107175529D01*
X118994269Y-107175529D01*
X118994268Y-107175528D01*
X118871265Y-107093340D01*
X118766660Y-106988735D01*
X118684472Y-106865732D01*
X118627860Y-106729059D01*
X118599000Y-106583967D01*
X118599000Y-106436033D01*
X118627860Y-106290941D01*
X118684472Y-106154268D01*
X118766660Y-106031265D01*
X118871265Y-105926660D01*
X118994268Y-105844472D01*
X119130941Y-105787860D01*
X119276032Y-105759000D01*
X119423968Y-105759000D01*
X119569059Y-105787860D01*
G37*
G36*
X108469059Y-105787860D02*
G01*
X108605732Y-105844472D01*
X108728735Y-105926660D01*
X108833340Y-106031265D01*
X108915528Y-106154268D01*
X108972140Y-106290941D01*
X109001000Y-106436033D01*
X109001000Y-106583967D01*
X108972140Y-106729059D01*
X108915528Y-106865732D01*
X108833340Y-106988735D01*
X108728735Y-107093340D01*
X108605732Y-107175528D01*
X108605731Y-107175529D01*
X108605730Y-107175529D01*
X108469059Y-107232140D01*
X108323968Y-107261000D01*
X108176032Y-107261000D01*
X108030941Y-107232140D01*
X107894270Y-107175529D01*
X107894269Y-107175529D01*
X107894268Y-107175528D01*
X107771265Y-107093340D01*
X107666660Y-106988735D01*
X107584472Y-106865732D01*
X107527860Y-106729059D01*
X107499000Y-106583967D01*
X107499000Y-106436033D01*
X107527860Y-106290941D01*
X107584472Y-106154268D01*
X107666660Y-106031265D01*
X107771265Y-105926660D01*
X107894268Y-105844472D01*
X108030941Y-105787860D01*
X108176032Y-105759000D01*
X108323968Y-105759000D01*
X108469059Y-105787860D01*
G37*
G36*
X149169059Y-105787860D02*
G01*
X149305732Y-105844472D01*
X149428735Y-105926660D01*
X149533340Y-106031265D01*
X149615528Y-106154268D01*
X149672140Y-106290941D01*
X149701000Y-106436033D01*
X149701000Y-106583967D01*
X149672140Y-106729059D01*
X149615528Y-106865732D01*
X149533340Y-106988735D01*
X149428735Y-107093340D01*
X149305732Y-107175528D01*
X149305731Y-107175529D01*
X149305730Y-107175529D01*
X149169059Y-107232140D01*
X149023968Y-107261000D01*
X148876032Y-107261000D01*
X148730941Y-107232140D01*
X148594270Y-107175529D01*
X148594269Y-107175529D01*
X148594268Y-107175528D01*
X148471265Y-107093340D01*
X148366660Y-106988735D01*
X148284472Y-106865732D01*
X148227860Y-106729059D01*
X148199000Y-106583967D01*
X148199000Y-106436033D01*
X148227860Y-106290941D01*
X148284472Y-106154268D01*
X148366660Y-106031265D01*
X148471265Y-105926660D01*
X148594268Y-105844472D01*
X148730941Y-105787860D01*
X148876032Y-105759000D01*
X149023968Y-105759000D01*
X149169059Y-105787860D01*
G37*
G36*
X141769059Y-105787860D02*
G01*
X141905732Y-105844472D01*
X142028735Y-105926660D01*
X142133340Y-106031265D01*
X142215528Y-106154268D01*
X142272140Y-106290941D01*
X142301000Y-106436033D01*
X142301000Y-106583967D01*
X142272140Y-106729059D01*
X142215528Y-106865732D01*
X142133340Y-106988735D01*
X142028735Y-107093340D01*
X141905732Y-107175528D01*
X141905731Y-107175529D01*
X141905730Y-107175529D01*
X141769059Y-107232140D01*
X141623968Y-107261000D01*
X141476032Y-107261000D01*
X141330941Y-107232140D01*
X141194270Y-107175529D01*
X141194269Y-107175529D01*
X141194268Y-107175528D01*
X141071265Y-107093340D01*
X140966660Y-106988735D01*
X140884472Y-106865732D01*
X140827860Y-106729059D01*
X140799000Y-106583967D01*
X140799000Y-106436033D01*
X140827860Y-106290941D01*
X140884472Y-106154268D01*
X140966660Y-106031265D01*
X141071265Y-105926660D01*
X141194268Y-105844472D01*
X141330941Y-105787860D01*
X141476032Y-105759000D01*
X141623968Y-105759000D01*
X141769059Y-105787860D01*
G37*
G36*
X138069059Y-105787860D02*
G01*
X138205732Y-105844472D01*
X138328735Y-105926660D01*
X138433340Y-106031265D01*
X138515528Y-106154268D01*
X138572140Y-106290941D01*
X138601000Y-106436033D01*
X138601000Y-106583967D01*
X138572140Y-106729059D01*
X138515528Y-106865732D01*
X138433340Y-106988735D01*
X138328735Y-107093340D01*
X138205732Y-107175528D01*
X138205731Y-107175529D01*
X138205730Y-107175529D01*
X138069059Y-107232140D01*
X137923968Y-107261000D01*
X137776032Y-107261000D01*
X137630941Y-107232140D01*
X137494270Y-107175529D01*
X137494269Y-107175529D01*
X137494268Y-107175528D01*
X137371265Y-107093340D01*
X137266660Y-106988735D01*
X137184472Y-106865732D01*
X137127860Y-106729059D01*
X137099000Y-106583967D01*
X137099000Y-106436033D01*
X137127860Y-106290941D01*
X137184472Y-106154268D01*
X137266660Y-106031265D01*
X137371265Y-105926660D01*
X137494268Y-105844472D01*
X137630941Y-105787860D01*
X137776032Y-105759000D01*
X137923968Y-105759000D01*
X138069059Y-105787860D01*
G37*
G36*
X123269059Y-105787860D02*
G01*
X123405732Y-105844472D01*
X123528735Y-105926660D01*
X123633340Y-106031265D01*
X123715528Y-106154268D01*
X123772140Y-106290941D01*
X123801000Y-106436033D01*
X123801000Y-106583967D01*
X123772140Y-106729059D01*
X123715528Y-106865732D01*
X123633340Y-106988735D01*
X123528735Y-107093340D01*
X123405732Y-107175528D01*
X123405731Y-107175529D01*
X123405730Y-107175529D01*
X123269059Y-107232140D01*
X123123968Y-107261000D01*
X122976032Y-107261000D01*
X122830941Y-107232140D01*
X122694270Y-107175529D01*
X122694269Y-107175529D01*
X122694268Y-107175528D01*
X122571265Y-107093340D01*
X122466660Y-106988735D01*
X122384472Y-106865732D01*
X122327860Y-106729059D01*
X122299000Y-106583967D01*
X122299000Y-106436033D01*
X122327860Y-106290941D01*
X122384472Y-106154268D01*
X122466660Y-106031265D01*
X122571265Y-105926660D01*
X122694268Y-105844472D01*
X122830941Y-105787860D01*
X122976032Y-105759000D01*
X123123968Y-105759000D01*
X123269059Y-105787860D01*
G37*
G36*
X134369059Y-105787860D02*
G01*
X134505732Y-105844472D01*
X134628735Y-105926660D01*
X134733340Y-106031265D01*
X134815528Y-106154268D01*
X134872140Y-106290941D01*
X134901000Y-106436033D01*
X134901000Y-106583967D01*
X134872140Y-106729059D01*
X134815528Y-106865732D01*
X134733340Y-106988735D01*
X134628735Y-107093340D01*
X134505732Y-107175528D01*
X134505731Y-107175529D01*
X134505730Y-107175529D01*
X134369059Y-107232140D01*
X134223968Y-107261000D01*
X134076032Y-107261000D01*
X133930941Y-107232140D01*
X133794270Y-107175529D01*
X133794269Y-107175529D01*
X133794268Y-107175528D01*
X133671265Y-107093340D01*
X133566660Y-106988735D01*
X133484472Y-106865732D01*
X133427860Y-106729059D01*
X133399000Y-106583967D01*
X133399000Y-106436033D01*
X133427860Y-106290941D01*
X133484472Y-106154268D01*
X133566660Y-106031265D01*
X133671265Y-105926660D01*
X133794268Y-105844472D01*
X133930941Y-105787860D01*
X134076032Y-105759000D01*
X134223968Y-105759000D01*
X134369059Y-105787860D01*
G37*
G36*
X126969059Y-105787860D02*
G01*
X127105732Y-105844472D01*
X127228735Y-105926660D01*
X127333340Y-106031265D01*
X127415528Y-106154268D01*
X127472140Y-106290941D01*
X127501000Y-106436033D01*
X127501000Y-106583967D01*
X127472140Y-106729059D01*
X127415528Y-106865732D01*
X127333340Y-106988735D01*
X127228735Y-107093340D01*
X127105732Y-107175528D01*
X127105731Y-107175529D01*
X127105730Y-107175529D01*
X126969059Y-107232140D01*
X126823968Y-107261000D01*
X126676032Y-107261000D01*
X126530941Y-107232140D01*
X126394270Y-107175529D01*
X126394269Y-107175529D01*
X126394268Y-107175528D01*
X126271265Y-107093340D01*
X126166660Y-106988735D01*
X126084472Y-106865732D01*
X126027860Y-106729059D01*
X125999000Y-106583967D01*
X125999000Y-106436033D01*
X126027860Y-106290941D01*
X126084472Y-106154268D01*
X126166660Y-106031265D01*
X126271265Y-105926660D01*
X126394268Y-105844472D01*
X126530941Y-105787860D01*
X126676032Y-105759000D01*
X126823968Y-105759000D01*
X126969059Y-105787860D01*
G37*
G36*
X145469059Y-105787860D02*
G01*
X145605732Y-105844472D01*
X145728735Y-105926660D01*
X145833340Y-106031265D01*
X145915528Y-106154268D01*
X145972140Y-106290941D01*
X146001000Y-106436033D01*
X146001000Y-106583967D01*
X145972140Y-106729059D01*
X145915528Y-106865732D01*
X145833340Y-106988735D01*
X145728735Y-107093340D01*
X145605732Y-107175528D01*
X145605731Y-107175529D01*
X145605730Y-107175529D01*
X145469059Y-107232140D01*
X145323968Y-107261000D01*
X145176032Y-107261000D01*
X145030941Y-107232140D01*
X144894270Y-107175529D01*
X144894269Y-107175529D01*
X144894268Y-107175528D01*
X144771265Y-107093340D01*
X144666660Y-106988735D01*
X144584472Y-106865732D01*
X144527860Y-106729059D01*
X144499000Y-106583967D01*
X144499000Y-106436033D01*
X144527860Y-106290941D01*
X144584472Y-106154268D01*
X144666660Y-106031265D01*
X144771265Y-105926660D01*
X144894268Y-105844472D01*
X145030941Y-105787860D01*
X145176032Y-105759000D01*
X145323968Y-105759000D01*
X145469059Y-105787860D01*
G37*
G36*
X119569059Y-100627860D02*
G01*
X119705732Y-100684472D01*
X119828735Y-100766660D01*
X119933340Y-100871265D01*
X120015528Y-100994268D01*
X120072140Y-101130941D01*
X120101000Y-101276033D01*
X120101000Y-101423967D01*
X120072140Y-101569059D01*
X120015528Y-101705732D01*
X119933340Y-101828735D01*
X119828735Y-101933340D01*
X119705732Y-102015528D01*
X119705731Y-102015529D01*
X119705730Y-102015529D01*
X119569059Y-102072140D01*
X119423968Y-102101000D01*
X119276032Y-102101000D01*
X119130941Y-102072140D01*
X118994270Y-102015529D01*
X118994269Y-102015529D01*
X118994268Y-102015528D01*
X118871265Y-101933340D01*
X118766660Y-101828735D01*
X118684472Y-101705732D01*
X118627860Y-101569059D01*
X118599000Y-101423967D01*
X118599000Y-101276033D01*
X118627860Y-101130941D01*
X118684472Y-100994268D01*
X118766660Y-100871265D01*
X118871265Y-100766660D01*
X118994268Y-100684472D01*
X119130941Y-100627860D01*
X119276032Y-100599000D01*
X119423968Y-100599000D01*
X119569059Y-100627860D01*
G37*
G36*
X149169059Y-100627860D02*
G01*
X149305732Y-100684472D01*
X149428735Y-100766660D01*
X149533340Y-100871265D01*
X149615528Y-100994268D01*
X149672140Y-101130941D01*
X149701000Y-101276033D01*
X149701000Y-101423967D01*
X149672140Y-101569059D01*
X149615528Y-101705732D01*
X149533340Y-101828735D01*
X149428735Y-101933340D01*
X149305732Y-102015528D01*
X149305731Y-102015529D01*
X149305730Y-102015529D01*
X149169059Y-102072140D01*
X149023968Y-102101000D01*
X148876032Y-102101000D01*
X148730941Y-102072140D01*
X148594270Y-102015529D01*
X148594269Y-102015529D01*
X148594268Y-102015528D01*
X148471265Y-101933340D01*
X148366660Y-101828735D01*
X148284472Y-101705732D01*
X148227860Y-101569059D01*
X148199000Y-101423967D01*
X148199000Y-101276033D01*
X148227860Y-101130941D01*
X148284472Y-100994268D01*
X148366660Y-100871265D01*
X148471265Y-100766660D01*
X148594268Y-100684472D01*
X148730941Y-100627860D01*
X148876032Y-100599000D01*
X149023968Y-100599000D01*
X149169059Y-100627860D01*
G37*
G36*
X145469059Y-100627860D02*
G01*
X145605732Y-100684472D01*
X145728735Y-100766660D01*
X145833340Y-100871265D01*
X145915528Y-100994268D01*
X145972140Y-101130941D01*
X146001000Y-101276033D01*
X146001000Y-101423967D01*
X145972140Y-101569059D01*
X145915528Y-101705732D01*
X145833340Y-101828735D01*
X145728735Y-101933340D01*
X145605732Y-102015528D01*
X145605731Y-102015529D01*
X145605730Y-102015529D01*
X145469059Y-102072140D01*
X145323968Y-102101000D01*
X145176032Y-102101000D01*
X145030941Y-102072140D01*
X144894270Y-102015529D01*
X144894269Y-102015529D01*
X144894268Y-102015528D01*
X144771265Y-101933340D01*
X144666660Y-101828735D01*
X144584472Y-101705732D01*
X144527860Y-101569059D01*
X144499000Y-101423967D01*
X144499000Y-101276033D01*
X144527860Y-101130941D01*
X144584472Y-100994268D01*
X144666660Y-100871265D01*
X144771265Y-100766660D01*
X144894268Y-100684472D01*
X145030941Y-100627860D01*
X145176032Y-100599000D01*
X145323968Y-100599000D01*
X145469059Y-100627860D01*
G37*
G36*
X156569059Y-100627860D02*
G01*
X156705732Y-100684472D01*
X156828735Y-100766660D01*
X156933340Y-100871265D01*
X157015528Y-100994268D01*
X157072140Y-101130941D01*
X157101000Y-101276033D01*
X157101000Y-101423967D01*
X157072140Y-101569059D01*
X157015528Y-101705732D01*
X156933340Y-101828735D01*
X156828735Y-101933340D01*
X156705732Y-102015528D01*
X156705731Y-102015529D01*
X156705730Y-102015529D01*
X156569059Y-102072140D01*
X156423968Y-102101000D01*
X156276032Y-102101000D01*
X156130941Y-102072140D01*
X155994270Y-102015529D01*
X155994269Y-102015529D01*
X155994268Y-102015528D01*
X155871265Y-101933340D01*
X155766660Y-101828735D01*
X155684472Y-101705732D01*
X155627860Y-101569059D01*
X155599000Y-101423967D01*
X155599000Y-101276033D01*
X155627860Y-101130941D01*
X155684472Y-100994268D01*
X155766660Y-100871265D01*
X155871265Y-100766660D01*
X155994268Y-100684472D01*
X156130941Y-100627860D01*
X156276032Y-100599000D01*
X156423968Y-100599000D01*
X156569059Y-100627860D01*
G37*
G36*
X115869059Y-100627860D02*
G01*
X116005732Y-100684472D01*
X116128735Y-100766660D01*
X116233340Y-100871265D01*
X116315528Y-100994268D01*
X116372140Y-101130941D01*
X116401000Y-101276033D01*
X116401000Y-101423967D01*
X116372140Y-101569059D01*
X116315528Y-101705732D01*
X116233340Y-101828735D01*
X116128735Y-101933340D01*
X116005732Y-102015528D01*
X116005731Y-102015529D01*
X116005730Y-102015529D01*
X115869059Y-102072140D01*
X115723968Y-102101000D01*
X115576032Y-102101000D01*
X115430941Y-102072140D01*
X115294270Y-102015529D01*
X115294269Y-102015529D01*
X115294268Y-102015528D01*
X115171265Y-101933340D01*
X115066660Y-101828735D01*
X114984472Y-101705732D01*
X114927860Y-101569059D01*
X114899000Y-101423967D01*
X114899000Y-101276033D01*
X114927860Y-101130941D01*
X114984472Y-100994268D01*
X115066660Y-100871265D01*
X115171265Y-100766660D01*
X115294268Y-100684472D01*
X115430941Y-100627860D01*
X115576032Y-100599000D01*
X115723968Y-100599000D01*
X115869059Y-100627860D01*
G37*
G36*
X112169059Y-100627860D02*
G01*
X112305732Y-100684472D01*
X112428735Y-100766660D01*
X112533340Y-100871265D01*
X112615528Y-100994268D01*
X112672140Y-101130941D01*
X112701000Y-101276033D01*
X112701000Y-101423967D01*
X112672140Y-101569059D01*
X112615528Y-101705732D01*
X112533340Y-101828735D01*
X112428735Y-101933340D01*
X112305732Y-102015528D01*
X112305731Y-102015529D01*
X112305730Y-102015529D01*
X112169059Y-102072140D01*
X112023968Y-102101000D01*
X111876032Y-102101000D01*
X111730941Y-102072140D01*
X111594270Y-102015529D01*
X111594269Y-102015529D01*
X111594268Y-102015528D01*
X111471265Y-101933340D01*
X111366660Y-101828735D01*
X111284472Y-101705732D01*
X111227860Y-101569059D01*
X111199000Y-101423967D01*
X111199000Y-101276033D01*
X111227860Y-101130941D01*
X111284472Y-100994268D01*
X111366660Y-100871265D01*
X111471265Y-100766660D01*
X111594268Y-100684472D01*
X111730941Y-100627860D01*
X111876032Y-100599000D01*
X112023968Y-100599000D01*
X112169059Y-100627860D01*
G37*
G36*
X152869059Y-100627860D02*
G01*
X153005732Y-100684472D01*
X153128735Y-100766660D01*
X153233340Y-100871265D01*
X153315528Y-100994268D01*
X153372140Y-101130941D01*
X153401000Y-101276033D01*
X153401000Y-101423967D01*
X153372140Y-101569059D01*
X153315528Y-101705732D01*
X153233340Y-101828735D01*
X153128735Y-101933340D01*
X153005732Y-102015528D01*
X153005731Y-102015529D01*
X153005730Y-102015529D01*
X152869059Y-102072140D01*
X152723968Y-102101000D01*
X152576032Y-102101000D01*
X152430941Y-102072140D01*
X152294270Y-102015529D01*
X152294269Y-102015529D01*
X152294268Y-102015528D01*
X152171265Y-101933340D01*
X152066660Y-101828735D01*
X151984472Y-101705732D01*
X151927860Y-101569059D01*
X151899000Y-101423967D01*
X151899000Y-101276033D01*
X151927860Y-101130941D01*
X151984472Y-100994268D01*
X152066660Y-100871265D01*
X152171265Y-100766660D01*
X152294268Y-100684472D01*
X152430941Y-100627860D01*
X152576032Y-100599000D01*
X152723968Y-100599000D01*
X152869059Y-100627860D01*
G37*
G36*
X123269059Y-100627860D02*
G01*
X123405732Y-100684472D01*
X123528735Y-100766660D01*
X123633340Y-100871265D01*
X123715528Y-100994268D01*
X123772140Y-101130941D01*
X123801000Y-101276033D01*
X123801000Y-101423967D01*
X123772140Y-101569059D01*
X123715528Y-101705732D01*
X123633340Y-101828735D01*
X123528735Y-101933340D01*
X123405732Y-102015528D01*
X123405731Y-102015529D01*
X123405730Y-102015529D01*
X123269059Y-102072140D01*
X123123968Y-102101000D01*
X122976032Y-102101000D01*
X122830941Y-102072140D01*
X122694270Y-102015529D01*
X122694269Y-102015529D01*
X122694268Y-102015528D01*
X122571265Y-101933340D01*
X122466660Y-101828735D01*
X122384472Y-101705732D01*
X122327860Y-101569059D01*
X122299000Y-101423967D01*
X122299000Y-101276033D01*
X122327860Y-101130941D01*
X122384472Y-100994268D01*
X122466660Y-100871265D01*
X122571265Y-100766660D01*
X122694268Y-100684472D01*
X122830941Y-100627860D01*
X122976032Y-100599000D01*
X123123968Y-100599000D01*
X123269059Y-100627860D01*
G37*
G36*
X126969059Y-100627860D02*
G01*
X127105732Y-100684472D01*
X127228735Y-100766660D01*
X127333340Y-100871265D01*
X127415528Y-100994268D01*
X127472140Y-101130941D01*
X127501000Y-101276033D01*
X127501000Y-101423967D01*
X127472140Y-101569059D01*
X127415528Y-101705732D01*
X127333340Y-101828735D01*
X127228735Y-101933340D01*
X127105732Y-102015528D01*
X127105731Y-102015529D01*
X127105730Y-102015529D01*
X126969059Y-102072140D01*
X126823968Y-102101000D01*
X126676032Y-102101000D01*
X126530941Y-102072140D01*
X126394270Y-102015529D01*
X126394269Y-102015529D01*
X126394268Y-102015528D01*
X126271265Y-101933340D01*
X126166660Y-101828735D01*
X126084472Y-101705732D01*
X126027860Y-101569059D01*
X125999000Y-101423967D01*
X125999000Y-101276033D01*
X126027860Y-101130941D01*
X126084472Y-100994268D01*
X126166660Y-100871265D01*
X126271265Y-100766660D01*
X126394268Y-100684472D01*
X126530941Y-100627860D01*
X126676032Y-100599000D01*
X126823968Y-100599000D01*
X126969059Y-100627860D01*
G37*
G36*
X108469059Y-100627860D02*
G01*
X108605732Y-100684472D01*
X108728735Y-100766660D01*
X108833340Y-100871265D01*
X108915528Y-100994268D01*
X108972140Y-101130941D01*
X109001000Y-101276033D01*
X109001000Y-101423967D01*
X108972140Y-101569059D01*
X108915528Y-101705732D01*
X108833340Y-101828735D01*
X108728735Y-101933340D01*
X108605732Y-102015528D01*
X108605731Y-102015529D01*
X108605730Y-102015529D01*
X108469059Y-102072140D01*
X108323968Y-102101000D01*
X108176032Y-102101000D01*
X108030941Y-102072140D01*
X107894270Y-102015529D01*
X107894269Y-102015529D01*
X107894268Y-102015528D01*
X107771265Y-101933340D01*
X107666660Y-101828735D01*
X107584472Y-101705732D01*
X107527860Y-101569059D01*
X107499000Y-101423967D01*
X107499000Y-101276033D01*
X107527860Y-101130941D01*
X107584472Y-100994268D01*
X107666660Y-100871265D01*
X107771265Y-100766660D01*
X107894268Y-100684472D01*
X108030941Y-100627860D01*
X108176032Y-100599000D01*
X108323968Y-100599000D01*
X108469059Y-100627860D01*
G37*
G36*
X141769059Y-100627860D02*
G01*
X141905732Y-100684472D01*
X142028735Y-100766660D01*
X142133340Y-100871265D01*
X142215528Y-100994268D01*
X142272140Y-101130941D01*
X142301000Y-101276033D01*
X142301000Y-101423967D01*
X142272140Y-101569059D01*
X142215528Y-101705732D01*
X142133340Y-101828735D01*
X142028735Y-101933340D01*
X141905732Y-102015528D01*
X141905731Y-102015529D01*
X141905730Y-102015529D01*
X141769059Y-102072140D01*
X141623968Y-102101000D01*
X141476032Y-102101000D01*
X141330941Y-102072140D01*
X141194270Y-102015529D01*
X141194269Y-102015529D01*
X141194268Y-102015528D01*
X141071265Y-101933340D01*
X140966660Y-101828735D01*
X140884472Y-101705732D01*
X140827860Y-101569059D01*
X140799000Y-101423967D01*
X140799000Y-101276033D01*
X140827860Y-101130941D01*
X140884472Y-100994268D01*
X140966660Y-100871265D01*
X141071265Y-100766660D01*
X141194268Y-100684472D01*
X141330941Y-100627860D01*
X141476032Y-100599000D01*
X141623968Y-100599000D01*
X141769059Y-100627860D01*
G37*
G36*
X130669059Y-100627860D02*
G01*
X130805732Y-100684472D01*
X130928735Y-100766660D01*
X131033340Y-100871265D01*
X131115528Y-100994268D01*
X131172140Y-101130941D01*
X131201000Y-101276033D01*
X131201000Y-101423967D01*
X131172140Y-101569059D01*
X131115528Y-101705732D01*
X131033340Y-101828735D01*
X130928735Y-101933340D01*
X130805732Y-102015528D01*
X130805731Y-102015529D01*
X130805730Y-102015529D01*
X130669059Y-102072140D01*
X130523968Y-102101000D01*
X130376032Y-102101000D01*
X130230941Y-102072140D01*
X130094270Y-102015529D01*
X130094269Y-102015529D01*
X130094268Y-102015528D01*
X129971265Y-101933340D01*
X129866660Y-101828735D01*
X129784472Y-101705732D01*
X129727860Y-101569059D01*
X129699000Y-101423967D01*
X129699000Y-101276033D01*
X129727860Y-101130941D01*
X129784472Y-100994268D01*
X129866660Y-100871265D01*
X129971265Y-100766660D01*
X130094268Y-100684472D01*
X130230941Y-100627860D01*
X130376032Y-100599000D01*
X130523968Y-100599000D01*
X130669059Y-100627860D01*
G37*
G36*
X134369059Y-100627860D02*
G01*
X134505732Y-100684472D01*
X134628735Y-100766660D01*
X134733340Y-100871265D01*
X134815528Y-100994268D01*
X134872140Y-101130941D01*
X134901000Y-101276033D01*
X134901000Y-101423967D01*
X134872140Y-101569059D01*
X134815528Y-101705732D01*
X134733340Y-101828735D01*
X134628735Y-101933340D01*
X134505732Y-102015528D01*
X134505731Y-102015529D01*
X134505730Y-102015529D01*
X134369059Y-102072140D01*
X134223968Y-102101000D01*
X134076032Y-102101000D01*
X133930941Y-102072140D01*
X133794270Y-102015529D01*
X133794269Y-102015529D01*
X133794268Y-102015528D01*
X133671265Y-101933340D01*
X133566660Y-101828735D01*
X133484472Y-101705732D01*
X133427860Y-101569059D01*
X133399000Y-101423967D01*
X133399000Y-101276033D01*
X133427860Y-101130941D01*
X133484472Y-100994268D01*
X133566660Y-100871265D01*
X133671265Y-100766660D01*
X133794268Y-100684472D01*
X133930941Y-100627860D01*
X134076032Y-100599000D01*
X134223968Y-100599000D01*
X134369059Y-100627860D01*
G37*
G36*
X138069059Y-100627860D02*
G01*
X138205732Y-100684472D01*
X138328735Y-100766660D01*
X138433340Y-100871265D01*
X138515528Y-100994268D01*
X138572140Y-101130941D01*
X138601000Y-101276033D01*
X138601000Y-101423967D01*
X138572140Y-101569059D01*
X138515528Y-101705732D01*
X138433340Y-101828735D01*
X138328735Y-101933340D01*
X138205732Y-102015528D01*
X138205731Y-102015529D01*
X138205730Y-102015529D01*
X138069059Y-102072140D01*
X137923968Y-102101000D01*
X137776032Y-102101000D01*
X137630941Y-102072140D01*
X137494270Y-102015529D01*
X137494269Y-102015529D01*
X137494268Y-102015528D01*
X137371265Y-101933340D01*
X137266660Y-101828735D01*
X137184472Y-101705732D01*
X137127860Y-101569059D01*
X137099000Y-101423967D01*
X137099000Y-101276033D01*
X137127860Y-101130941D01*
X137184472Y-100994268D01*
X137266660Y-100871265D01*
X137371265Y-100766660D01*
X137494268Y-100684472D01*
X137630941Y-100627860D01*
X137776032Y-100599000D01*
X137923968Y-100599000D01*
X138069059Y-100627860D01*
G37*
G36*
X152869059Y-98087860D02*
G01*
X153005732Y-98144472D01*
X153128735Y-98226660D01*
X153233340Y-98331265D01*
X153315528Y-98454268D01*
X153372140Y-98590941D01*
X153401000Y-98736033D01*
X153401000Y-98883967D01*
X153372140Y-99029059D01*
X153315528Y-99165732D01*
X153233340Y-99288735D01*
X153128735Y-99393340D01*
X153005732Y-99475528D01*
X153005731Y-99475529D01*
X153005730Y-99475529D01*
X152869059Y-99532140D01*
X152723968Y-99561000D01*
X152576032Y-99561000D01*
X152430941Y-99532140D01*
X152294270Y-99475529D01*
X152294269Y-99475529D01*
X152294268Y-99475528D01*
X152171265Y-99393340D01*
X152066660Y-99288735D01*
X151984472Y-99165732D01*
X151927860Y-99029059D01*
X151899000Y-98883967D01*
X151899000Y-98736033D01*
X151927860Y-98590941D01*
X151984472Y-98454268D01*
X152066660Y-98331265D01*
X152171265Y-98226660D01*
X152294268Y-98144472D01*
X152430941Y-98087860D01*
X152576032Y-98059000D01*
X152723968Y-98059000D01*
X152869059Y-98087860D01*
G37*
G36*
X119569059Y-98087860D02*
G01*
X119705732Y-98144472D01*
X119828735Y-98226660D01*
X119933340Y-98331265D01*
X120015528Y-98454268D01*
X120072140Y-98590941D01*
X120101000Y-98736033D01*
X120101000Y-98883967D01*
X120072140Y-99029059D01*
X120015528Y-99165732D01*
X119933340Y-99288735D01*
X119828735Y-99393340D01*
X119705732Y-99475528D01*
X119705731Y-99475529D01*
X119705730Y-99475529D01*
X119569059Y-99532140D01*
X119423968Y-99561000D01*
X119276032Y-99561000D01*
X119130941Y-99532140D01*
X118994270Y-99475529D01*
X118994269Y-99475529D01*
X118994268Y-99475528D01*
X118871265Y-99393340D01*
X118766660Y-99288735D01*
X118684472Y-99165732D01*
X118627860Y-99029059D01*
X118599000Y-98883967D01*
X118599000Y-98736033D01*
X118627860Y-98590941D01*
X118684472Y-98454268D01*
X118766660Y-98331265D01*
X118871265Y-98226660D01*
X118994268Y-98144472D01*
X119130941Y-98087860D01*
X119276032Y-98059000D01*
X119423968Y-98059000D01*
X119569059Y-98087860D01*
G37*
G36*
X141769059Y-98087860D02*
G01*
X141905732Y-98144472D01*
X142028735Y-98226660D01*
X142133340Y-98331265D01*
X142215528Y-98454268D01*
X142272140Y-98590941D01*
X142301000Y-98736033D01*
X142301000Y-98883967D01*
X142272140Y-99029059D01*
X142215528Y-99165732D01*
X142133340Y-99288735D01*
X142028735Y-99393340D01*
X141905732Y-99475528D01*
X141905731Y-99475529D01*
X141905730Y-99475529D01*
X141769059Y-99532140D01*
X141623968Y-99561000D01*
X141476032Y-99561000D01*
X141330941Y-99532140D01*
X141194270Y-99475529D01*
X141194269Y-99475529D01*
X141194268Y-99475528D01*
X141071265Y-99393340D01*
X140966660Y-99288735D01*
X140884472Y-99165732D01*
X140827860Y-99029059D01*
X140799000Y-98883967D01*
X140799000Y-98736033D01*
X140827860Y-98590941D01*
X140884472Y-98454268D01*
X140966660Y-98331265D01*
X141071265Y-98226660D01*
X141194268Y-98144472D01*
X141330941Y-98087860D01*
X141476032Y-98059000D01*
X141623968Y-98059000D01*
X141769059Y-98087860D01*
G37*
G36*
X123269059Y-98087860D02*
G01*
X123405732Y-98144472D01*
X123528735Y-98226660D01*
X123633340Y-98331265D01*
X123715528Y-98454268D01*
X123772140Y-98590941D01*
X123801000Y-98736033D01*
X123801000Y-98883967D01*
X123772140Y-99029059D01*
X123715528Y-99165732D01*
X123633340Y-99288735D01*
X123528735Y-99393340D01*
X123405732Y-99475528D01*
X123405731Y-99475529D01*
X123405730Y-99475529D01*
X123269059Y-99532140D01*
X123123968Y-99561000D01*
X122976032Y-99561000D01*
X122830941Y-99532140D01*
X122694270Y-99475529D01*
X122694269Y-99475529D01*
X122694268Y-99475528D01*
X122571265Y-99393340D01*
X122466660Y-99288735D01*
X122384472Y-99165732D01*
X122327860Y-99029059D01*
X122299000Y-98883967D01*
X122299000Y-98736033D01*
X122327860Y-98590941D01*
X122384472Y-98454268D01*
X122466660Y-98331265D01*
X122571265Y-98226660D01*
X122694268Y-98144472D01*
X122830941Y-98087860D01*
X122976032Y-98059000D01*
X123123968Y-98059000D01*
X123269059Y-98087860D01*
G37*
G36*
X115869059Y-98087860D02*
G01*
X116005732Y-98144472D01*
X116128735Y-98226660D01*
X116233340Y-98331265D01*
X116315528Y-98454268D01*
X116372140Y-98590941D01*
X116401000Y-98736033D01*
X116401000Y-98883967D01*
X116372140Y-99029059D01*
X116315528Y-99165732D01*
X116233340Y-99288735D01*
X116128735Y-99393340D01*
X116005732Y-99475528D01*
X116005731Y-99475529D01*
X116005730Y-99475529D01*
X115869059Y-99532140D01*
X115723968Y-99561000D01*
X115576032Y-99561000D01*
X115430941Y-99532140D01*
X115294270Y-99475529D01*
X115294269Y-99475529D01*
X115294268Y-99475528D01*
X115171265Y-99393340D01*
X115066660Y-99288735D01*
X114984472Y-99165732D01*
X114927860Y-99029059D01*
X114899000Y-98883967D01*
X114899000Y-98736033D01*
X114927860Y-98590941D01*
X114984472Y-98454268D01*
X115066660Y-98331265D01*
X115171265Y-98226660D01*
X115294268Y-98144472D01*
X115430941Y-98087860D01*
X115576032Y-98059000D01*
X115723968Y-98059000D01*
X115869059Y-98087860D01*
G37*
G36*
X156569059Y-98087860D02*
G01*
X156705732Y-98144472D01*
X156828735Y-98226660D01*
X156933340Y-98331265D01*
X157015528Y-98454268D01*
X157072140Y-98590941D01*
X157101000Y-98736033D01*
X157101000Y-98883967D01*
X157072140Y-99029059D01*
X157015528Y-99165732D01*
X156933340Y-99288735D01*
X156828735Y-99393340D01*
X156705732Y-99475528D01*
X156705731Y-99475529D01*
X156705730Y-99475529D01*
X156569059Y-99532140D01*
X156423968Y-99561000D01*
X156276032Y-99561000D01*
X156130941Y-99532140D01*
X155994270Y-99475529D01*
X155994269Y-99475529D01*
X155994268Y-99475528D01*
X155871265Y-99393340D01*
X155766660Y-99288735D01*
X155684472Y-99165732D01*
X155627860Y-99029059D01*
X155599000Y-98883967D01*
X155599000Y-98736033D01*
X155627860Y-98590941D01*
X155684472Y-98454268D01*
X155766660Y-98331265D01*
X155871265Y-98226660D01*
X155994268Y-98144472D01*
X156130941Y-98087860D01*
X156276032Y-98059000D01*
X156423968Y-98059000D01*
X156569059Y-98087860D01*
G37*
G36*
X108469059Y-98087860D02*
G01*
X108605732Y-98144472D01*
X108728735Y-98226660D01*
X108833340Y-98331265D01*
X108915528Y-98454268D01*
X108972140Y-98590941D01*
X109001000Y-98736033D01*
X109001000Y-98883967D01*
X108972140Y-99029059D01*
X108915528Y-99165732D01*
X108833340Y-99288735D01*
X108728735Y-99393340D01*
X108605732Y-99475528D01*
X108605731Y-99475529D01*
X108605730Y-99475529D01*
X108469059Y-99532140D01*
X108323968Y-99561000D01*
X108176032Y-99561000D01*
X108030941Y-99532140D01*
X107894270Y-99475529D01*
X107894269Y-99475529D01*
X107894268Y-99475528D01*
X107771265Y-99393340D01*
X107666660Y-99288735D01*
X107584472Y-99165732D01*
X107527860Y-99029059D01*
X107499000Y-98883967D01*
X107499000Y-98736033D01*
X107527860Y-98590941D01*
X107584472Y-98454268D01*
X107666660Y-98331265D01*
X107771265Y-98226660D01*
X107894268Y-98144472D01*
X108030941Y-98087860D01*
X108176032Y-98059000D01*
X108323968Y-98059000D01*
X108469059Y-98087860D01*
G37*
G36*
X112169059Y-98087860D02*
G01*
X112305732Y-98144472D01*
X112428735Y-98226660D01*
X112533340Y-98331265D01*
X112615528Y-98454268D01*
X112672140Y-98590941D01*
X112701000Y-98736033D01*
X112701000Y-98883967D01*
X112672140Y-99029059D01*
X112615528Y-99165732D01*
X112533340Y-99288735D01*
X112428735Y-99393340D01*
X112305732Y-99475528D01*
X112305731Y-99475529D01*
X112305730Y-99475529D01*
X112169059Y-99532140D01*
X112023968Y-99561000D01*
X111876032Y-99561000D01*
X111730941Y-99532140D01*
X111594270Y-99475529D01*
X111594269Y-99475529D01*
X111594268Y-99475528D01*
X111471265Y-99393340D01*
X111366660Y-99288735D01*
X111284472Y-99165732D01*
X111227860Y-99029059D01*
X111199000Y-98883967D01*
X111199000Y-98736033D01*
X111227860Y-98590941D01*
X111284472Y-98454268D01*
X111366660Y-98331265D01*
X111471265Y-98226660D01*
X111594268Y-98144472D01*
X111730941Y-98087860D01*
X111876032Y-98059000D01*
X112023968Y-98059000D01*
X112169059Y-98087860D01*
G37*
G36*
X145469059Y-98087860D02*
G01*
X145605732Y-98144472D01*
X145728735Y-98226660D01*
X145833340Y-98331265D01*
X145915528Y-98454268D01*
X145972140Y-98590941D01*
X146001000Y-98736033D01*
X146001000Y-98883967D01*
X145972140Y-99029059D01*
X145915528Y-99165732D01*
X145833340Y-99288735D01*
X145728735Y-99393340D01*
X145605732Y-99475528D01*
X145605731Y-99475529D01*
X145605730Y-99475529D01*
X145469059Y-99532140D01*
X145323968Y-99561000D01*
X145176032Y-99561000D01*
X145030941Y-99532140D01*
X144894270Y-99475529D01*
X144894269Y-99475529D01*
X144894268Y-99475528D01*
X144771265Y-99393340D01*
X144666660Y-99288735D01*
X144584472Y-99165732D01*
X144527860Y-99029059D01*
X144499000Y-98883967D01*
X144499000Y-98736033D01*
X144527860Y-98590941D01*
X144584472Y-98454268D01*
X144666660Y-98331265D01*
X144771265Y-98226660D01*
X144894268Y-98144472D01*
X145030941Y-98087860D01*
X145176032Y-98059000D01*
X145323968Y-98059000D01*
X145469059Y-98087860D01*
G37*
G36*
X138069059Y-98087860D02*
G01*
X138205732Y-98144472D01*
X138328735Y-98226660D01*
X138433340Y-98331265D01*
X138515528Y-98454268D01*
X138572140Y-98590941D01*
X138601000Y-98736033D01*
X138601000Y-98883967D01*
X138572140Y-99029059D01*
X138515528Y-99165732D01*
X138433340Y-99288735D01*
X138328735Y-99393340D01*
X138205732Y-99475528D01*
X138205731Y-99475529D01*
X138205730Y-99475529D01*
X138069059Y-99532140D01*
X137923968Y-99561000D01*
X137776032Y-99561000D01*
X137630941Y-99532140D01*
X137494270Y-99475529D01*
X137494269Y-99475529D01*
X137494268Y-99475528D01*
X137371265Y-99393340D01*
X137266660Y-99288735D01*
X137184472Y-99165732D01*
X137127860Y-99029059D01*
X137099000Y-98883967D01*
X137099000Y-98736033D01*
X137127860Y-98590941D01*
X137184472Y-98454268D01*
X137266660Y-98331265D01*
X137371265Y-98226660D01*
X137494268Y-98144472D01*
X137630941Y-98087860D01*
X137776032Y-98059000D01*
X137923968Y-98059000D01*
X138069059Y-98087860D01*
G37*
G36*
X149169059Y-98087860D02*
G01*
X149305732Y-98144472D01*
X149428735Y-98226660D01*
X149533340Y-98331265D01*
X149615528Y-98454268D01*
X149672140Y-98590941D01*
X149701000Y-98736033D01*
X149701000Y-98883967D01*
X149672140Y-99029059D01*
X149615528Y-99165732D01*
X149533340Y-99288735D01*
X149428735Y-99393340D01*
X149305732Y-99475528D01*
X149305731Y-99475529D01*
X149305730Y-99475529D01*
X149169059Y-99532140D01*
X149023968Y-99561000D01*
X148876032Y-99561000D01*
X148730941Y-99532140D01*
X148594270Y-99475529D01*
X148594269Y-99475529D01*
X148594268Y-99475528D01*
X148471265Y-99393340D01*
X148366660Y-99288735D01*
X148284472Y-99165732D01*
X148227860Y-99029059D01*
X148199000Y-98883967D01*
X148199000Y-98736033D01*
X148227860Y-98590941D01*
X148284472Y-98454268D01*
X148366660Y-98331265D01*
X148471265Y-98226660D01*
X148594268Y-98144472D01*
X148730941Y-98087860D01*
X148876032Y-98059000D01*
X149023968Y-98059000D01*
X149169059Y-98087860D01*
G37*
G36*
X134369059Y-98087860D02*
G01*
X134505732Y-98144472D01*
X134628735Y-98226660D01*
X134733340Y-98331265D01*
X134815528Y-98454268D01*
X134872140Y-98590941D01*
X134901000Y-98736033D01*
X134901000Y-98883967D01*
X134872140Y-99029059D01*
X134815528Y-99165732D01*
X134733340Y-99288735D01*
X134628735Y-99393340D01*
X134505732Y-99475528D01*
X134505731Y-99475529D01*
X134505730Y-99475529D01*
X134369059Y-99532140D01*
X134223968Y-99561000D01*
X134076032Y-99561000D01*
X133930941Y-99532140D01*
X133794270Y-99475529D01*
X133794269Y-99475529D01*
X133794268Y-99475528D01*
X133671265Y-99393340D01*
X133566660Y-99288735D01*
X133484472Y-99165732D01*
X133427860Y-99029059D01*
X133399000Y-98883967D01*
X133399000Y-98736033D01*
X133427860Y-98590941D01*
X133484472Y-98454268D01*
X133566660Y-98331265D01*
X133671265Y-98226660D01*
X133794268Y-98144472D01*
X133930941Y-98087860D01*
X134076032Y-98059000D01*
X134223968Y-98059000D01*
X134369059Y-98087860D01*
G37*
G36*
X130669059Y-98087860D02*
G01*
X130805732Y-98144472D01*
X130928735Y-98226660D01*
X131033340Y-98331265D01*
X131115528Y-98454268D01*
X131172140Y-98590941D01*
X131201000Y-98736033D01*
X131201000Y-98883967D01*
X131172140Y-99029059D01*
X131115528Y-99165732D01*
X131033340Y-99288735D01*
X130928735Y-99393340D01*
X130805732Y-99475528D01*
X130805731Y-99475529D01*
X130805730Y-99475529D01*
X130669059Y-99532140D01*
X130523968Y-99561000D01*
X130376032Y-99561000D01*
X130230941Y-99532140D01*
X130094270Y-99475529D01*
X130094269Y-99475529D01*
X130094268Y-99475528D01*
X129971265Y-99393340D01*
X129866660Y-99288735D01*
X129784472Y-99165732D01*
X129727860Y-99029059D01*
X129699000Y-98883967D01*
X129699000Y-98736033D01*
X129727860Y-98590941D01*
X129784472Y-98454268D01*
X129866660Y-98331265D01*
X129971265Y-98226660D01*
X130094268Y-98144472D01*
X130230941Y-98087860D01*
X130376032Y-98059000D01*
X130523968Y-98059000D01*
X130669059Y-98087860D01*
G37*
G36*
X126969059Y-98087860D02*
G01*
X127105732Y-98144472D01*
X127228735Y-98226660D01*
X127333340Y-98331265D01*
X127415528Y-98454268D01*
X127472140Y-98590941D01*
X127501000Y-98736033D01*
X127501000Y-98883967D01*
X127472140Y-99029059D01*
X127415528Y-99165732D01*
X127333340Y-99288735D01*
X127228735Y-99393340D01*
X127105732Y-99475528D01*
X127105731Y-99475529D01*
X127105730Y-99475529D01*
X126969059Y-99532140D01*
X126823968Y-99561000D01*
X126676032Y-99561000D01*
X126530941Y-99532140D01*
X126394270Y-99475529D01*
X126394269Y-99475529D01*
X126394268Y-99475528D01*
X126271265Y-99393340D01*
X126166660Y-99288735D01*
X126084472Y-99165732D01*
X126027860Y-99029059D01*
X125999000Y-98883967D01*
X125999000Y-98736033D01*
X126027860Y-98590941D01*
X126084472Y-98454268D01*
X126166660Y-98331265D01*
X126271265Y-98226660D01*
X126394268Y-98144472D01*
X126530941Y-98087860D01*
X126676032Y-98059000D01*
X126823968Y-98059000D01*
X126969059Y-98087860D01*
G37*
G36*
X138069059Y-92927860D02*
G01*
X138205732Y-92984472D01*
X138328735Y-93066660D01*
X138433340Y-93171265D01*
X138515528Y-93294268D01*
X138572140Y-93430941D01*
X138601000Y-93576033D01*
X138601000Y-93723967D01*
X138572140Y-93869059D01*
X138515528Y-94005732D01*
X138433340Y-94128735D01*
X138328735Y-94233340D01*
X138205732Y-94315528D01*
X138205731Y-94315529D01*
X138205730Y-94315529D01*
X138069059Y-94372140D01*
X137923968Y-94401000D01*
X137776032Y-94401000D01*
X137630941Y-94372140D01*
X137494270Y-94315529D01*
X137494269Y-94315529D01*
X137494268Y-94315528D01*
X137371265Y-94233340D01*
X137266660Y-94128735D01*
X137184472Y-94005732D01*
X137127860Y-93869059D01*
X137099000Y-93723967D01*
X137099000Y-93576033D01*
X137127860Y-93430941D01*
X137184472Y-93294268D01*
X137266660Y-93171265D01*
X137371265Y-93066660D01*
X137494268Y-92984472D01*
X137630941Y-92927860D01*
X137776032Y-92899000D01*
X137923968Y-92899000D01*
X138069059Y-92927860D01*
G37*
G36*
X108469059Y-92927860D02*
G01*
X108605732Y-92984472D01*
X108728735Y-93066660D01*
X108833340Y-93171265D01*
X108915528Y-93294268D01*
X108972140Y-93430941D01*
X109001000Y-93576033D01*
X109001000Y-93723967D01*
X108972140Y-93869059D01*
X108915528Y-94005732D01*
X108833340Y-94128735D01*
X108728735Y-94233340D01*
X108605732Y-94315528D01*
X108605731Y-94315529D01*
X108605730Y-94315529D01*
X108469059Y-94372140D01*
X108323968Y-94401000D01*
X108176032Y-94401000D01*
X108030941Y-94372140D01*
X107894270Y-94315529D01*
X107894269Y-94315529D01*
X107894268Y-94315528D01*
X107771265Y-94233340D01*
X107666660Y-94128735D01*
X107584472Y-94005732D01*
X107527860Y-93869059D01*
X107499000Y-93723967D01*
X107499000Y-93576033D01*
X107527860Y-93430941D01*
X107584472Y-93294268D01*
X107666660Y-93171265D01*
X107771265Y-93066660D01*
X107894268Y-92984472D01*
X108030941Y-92927860D01*
X108176032Y-92899000D01*
X108323968Y-92899000D01*
X108469059Y-92927860D01*
G37*
G36*
X141769059Y-92927860D02*
G01*
X141905732Y-92984472D01*
X142028735Y-93066660D01*
X142133340Y-93171265D01*
X142215528Y-93294268D01*
X142272140Y-93430941D01*
X142301000Y-93576033D01*
X142301000Y-93723967D01*
X142272140Y-93869059D01*
X142215528Y-94005732D01*
X142133340Y-94128735D01*
X142028735Y-94233340D01*
X141905732Y-94315528D01*
X141905731Y-94315529D01*
X141905730Y-94315529D01*
X141769059Y-94372140D01*
X141623968Y-94401000D01*
X141476032Y-94401000D01*
X141330941Y-94372140D01*
X141194270Y-94315529D01*
X141194269Y-94315529D01*
X141194268Y-94315528D01*
X141071265Y-94233340D01*
X140966660Y-94128735D01*
X140884472Y-94005732D01*
X140827860Y-93869059D01*
X140799000Y-93723967D01*
X140799000Y-93576033D01*
X140827860Y-93430941D01*
X140884472Y-93294268D01*
X140966660Y-93171265D01*
X141071265Y-93066660D01*
X141194268Y-92984472D01*
X141330941Y-92927860D01*
X141476032Y-92899000D01*
X141623968Y-92899000D01*
X141769059Y-92927860D01*
G37*
G36*
X134369059Y-92927860D02*
G01*
X134505732Y-92984472D01*
X134628735Y-93066660D01*
X134733340Y-93171265D01*
X134815528Y-93294268D01*
X134872140Y-93430941D01*
X134901000Y-93576033D01*
X134901000Y-93723967D01*
X134872140Y-93869059D01*
X134815528Y-94005732D01*
X134733340Y-94128735D01*
X134628735Y-94233340D01*
X134505732Y-94315528D01*
X134505731Y-94315529D01*
X134505730Y-94315529D01*
X134369059Y-94372140D01*
X134223968Y-94401000D01*
X134076032Y-94401000D01*
X133930941Y-94372140D01*
X133794270Y-94315529D01*
X133794269Y-94315529D01*
X133794268Y-94315528D01*
X133671265Y-94233340D01*
X133566660Y-94128735D01*
X133484472Y-94005732D01*
X133427860Y-93869059D01*
X133399000Y-93723967D01*
X133399000Y-93576033D01*
X133427860Y-93430941D01*
X133484472Y-93294268D01*
X133566660Y-93171265D01*
X133671265Y-93066660D01*
X133794268Y-92984472D01*
X133930941Y-92927860D01*
X134076032Y-92899000D01*
X134223968Y-92899000D01*
X134369059Y-92927860D01*
G37*
G36*
X130669059Y-92927860D02*
G01*
X130805732Y-92984472D01*
X130928735Y-93066660D01*
X131033340Y-93171265D01*
X131115528Y-93294268D01*
X131172140Y-93430941D01*
X131201000Y-93576033D01*
X131201000Y-93723967D01*
X131172140Y-93869059D01*
X131115528Y-94005732D01*
X131033340Y-94128735D01*
X130928735Y-94233340D01*
X130805732Y-94315528D01*
X130805731Y-94315529D01*
X130805730Y-94315529D01*
X130669059Y-94372140D01*
X130523968Y-94401000D01*
X130376032Y-94401000D01*
X130230941Y-94372140D01*
X130094270Y-94315529D01*
X130094269Y-94315529D01*
X130094268Y-94315528D01*
X129971265Y-94233340D01*
X129866660Y-94128735D01*
X129784472Y-94005732D01*
X129727860Y-93869059D01*
X129699000Y-93723967D01*
X129699000Y-93576033D01*
X129727860Y-93430941D01*
X129784472Y-93294268D01*
X129866660Y-93171265D01*
X129971265Y-93066660D01*
X130094268Y-92984472D01*
X130230941Y-92927860D01*
X130376032Y-92899000D01*
X130523968Y-92899000D01*
X130669059Y-92927860D01*
G37*
G36*
X152869059Y-92927860D02*
G01*
X153005732Y-92984472D01*
X153128735Y-93066660D01*
X153233340Y-93171265D01*
X153315528Y-93294268D01*
X153372140Y-93430941D01*
X153401000Y-93576033D01*
X153401000Y-93723967D01*
X153372140Y-93869059D01*
X153315528Y-94005732D01*
X153233340Y-94128735D01*
X153128735Y-94233340D01*
X153005732Y-94315528D01*
X153005731Y-94315529D01*
X153005730Y-94315529D01*
X152869059Y-94372140D01*
X152723968Y-94401000D01*
X152576032Y-94401000D01*
X152430941Y-94372140D01*
X152294270Y-94315529D01*
X152294269Y-94315529D01*
X152294268Y-94315528D01*
X152171265Y-94233340D01*
X152066660Y-94128735D01*
X151984472Y-94005732D01*
X151927860Y-93869059D01*
X151899000Y-93723967D01*
X151899000Y-93576033D01*
X151927860Y-93430941D01*
X151984472Y-93294268D01*
X152066660Y-93171265D01*
X152171265Y-93066660D01*
X152294268Y-92984472D01*
X152430941Y-92927860D01*
X152576032Y-92899000D01*
X152723968Y-92899000D01*
X152869059Y-92927860D01*
G37*
G36*
X123269059Y-92927860D02*
G01*
X123405732Y-92984472D01*
X123528735Y-93066660D01*
X123633340Y-93171265D01*
X123715528Y-93294268D01*
X123772140Y-93430941D01*
X123801000Y-93576033D01*
X123801000Y-93723967D01*
X123772140Y-93869059D01*
X123715528Y-94005732D01*
X123633340Y-94128735D01*
X123528735Y-94233340D01*
X123405732Y-94315528D01*
X123405731Y-94315529D01*
X123405730Y-94315529D01*
X123269059Y-94372140D01*
X123123968Y-94401000D01*
X122976032Y-94401000D01*
X122830941Y-94372140D01*
X122694270Y-94315529D01*
X122694269Y-94315529D01*
X122694268Y-94315528D01*
X122571265Y-94233340D01*
X122466660Y-94128735D01*
X122384472Y-94005732D01*
X122327860Y-93869059D01*
X122299000Y-93723967D01*
X122299000Y-93576033D01*
X122327860Y-93430941D01*
X122384472Y-93294268D01*
X122466660Y-93171265D01*
X122571265Y-93066660D01*
X122694268Y-92984472D01*
X122830941Y-92927860D01*
X122976032Y-92899000D01*
X123123968Y-92899000D01*
X123269059Y-92927860D01*
G37*
G36*
X119569059Y-92927860D02*
G01*
X119705732Y-92984472D01*
X119828735Y-93066660D01*
X119933340Y-93171265D01*
X120015528Y-93294268D01*
X120072140Y-93430941D01*
X120101000Y-93576033D01*
X120101000Y-93723967D01*
X120072140Y-93869059D01*
X120015528Y-94005732D01*
X119933340Y-94128735D01*
X119828735Y-94233340D01*
X119705732Y-94315528D01*
X119705731Y-94315529D01*
X119705730Y-94315529D01*
X119569059Y-94372140D01*
X119423968Y-94401000D01*
X119276032Y-94401000D01*
X119130941Y-94372140D01*
X118994270Y-94315529D01*
X118994269Y-94315529D01*
X118994268Y-94315528D01*
X118871265Y-94233340D01*
X118766660Y-94128735D01*
X118684472Y-94005732D01*
X118627860Y-93869059D01*
X118599000Y-93723967D01*
X118599000Y-93576033D01*
X118627860Y-93430941D01*
X118684472Y-93294268D01*
X118766660Y-93171265D01*
X118871265Y-93066660D01*
X118994268Y-92984472D01*
X119130941Y-92927860D01*
X119276032Y-92899000D01*
X119423968Y-92899000D01*
X119569059Y-92927860D01*
G37*
G36*
X115869059Y-92927860D02*
G01*
X116005732Y-92984472D01*
X116128735Y-93066660D01*
X116233340Y-93171265D01*
X116315528Y-93294268D01*
X116372140Y-93430941D01*
X116401000Y-93576033D01*
X116401000Y-93723967D01*
X116372140Y-93869059D01*
X116315528Y-94005732D01*
X116233340Y-94128735D01*
X116128735Y-94233340D01*
X116005732Y-94315528D01*
X116005731Y-94315529D01*
X116005730Y-94315529D01*
X115869059Y-94372140D01*
X115723968Y-94401000D01*
X115576032Y-94401000D01*
X115430941Y-94372140D01*
X115294270Y-94315529D01*
X115294269Y-94315529D01*
X115294268Y-94315528D01*
X115171265Y-94233340D01*
X115066660Y-94128735D01*
X114984472Y-94005732D01*
X114927860Y-93869059D01*
X114899000Y-93723967D01*
X114899000Y-93576033D01*
X114927860Y-93430941D01*
X114984472Y-93294268D01*
X115066660Y-93171265D01*
X115171265Y-93066660D01*
X115294268Y-92984472D01*
X115430941Y-92927860D01*
X115576032Y-92899000D01*
X115723968Y-92899000D01*
X115869059Y-92927860D01*
G37*
G36*
X149169059Y-92927860D02*
G01*
X149305732Y-92984472D01*
X149428735Y-93066660D01*
X149533340Y-93171265D01*
X149615528Y-93294268D01*
X149672140Y-93430941D01*
X149701000Y-93576033D01*
X149701000Y-93723967D01*
X149672140Y-93869059D01*
X149615528Y-94005732D01*
X149533340Y-94128735D01*
X149428735Y-94233340D01*
X149305732Y-94315528D01*
X149305731Y-94315529D01*
X149305730Y-94315529D01*
X149169059Y-94372140D01*
X149023968Y-94401000D01*
X148876032Y-94401000D01*
X148730941Y-94372140D01*
X148594270Y-94315529D01*
X148594269Y-94315529D01*
X148594268Y-94315528D01*
X148471265Y-94233340D01*
X148366660Y-94128735D01*
X148284472Y-94005732D01*
X148227860Y-93869059D01*
X148199000Y-93723967D01*
X148199000Y-93576033D01*
X148227860Y-93430941D01*
X148284472Y-93294268D01*
X148366660Y-93171265D01*
X148471265Y-93066660D01*
X148594268Y-92984472D01*
X148730941Y-92927860D01*
X148876032Y-92899000D01*
X149023968Y-92899000D01*
X149169059Y-92927860D01*
G37*
G36*
X112169059Y-92927860D02*
G01*
X112305732Y-92984472D01*
X112428735Y-93066660D01*
X112533340Y-93171265D01*
X112615528Y-93294268D01*
X112672140Y-93430941D01*
X112701000Y-93576033D01*
X112701000Y-93723967D01*
X112672140Y-93869059D01*
X112615528Y-94005732D01*
X112533340Y-94128735D01*
X112428735Y-94233340D01*
X112305732Y-94315528D01*
X112305731Y-94315529D01*
X112305730Y-94315529D01*
X112169059Y-94372140D01*
X112023968Y-94401000D01*
X111876032Y-94401000D01*
X111730941Y-94372140D01*
X111594270Y-94315529D01*
X111594269Y-94315529D01*
X111594268Y-94315528D01*
X111471265Y-94233340D01*
X111366660Y-94128735D01*
X111284472Y-94005732D01*
X111227860Y-93869059D01*
X111199000Y-93723967D01*
X111199000Y-93576033D01*
X111227860Y-93430941D01*
X111284472Y-93294268D01*
X111366660Y-93171265D01*
X111471265Y-93066660D01*
X111594268Y-92984472D01*
X111730941Y-92927860D01*
X111876032Y-92899000D01*
X112023968Y-92899000D01*
X112169059Y-92927860D01*
G37*
G36*
X145469059Y-92927860D02*
G01*
X145605732Y-92984472D01*
X145728735Y-93066660D01*
X145833340Y-93171265D01*
X145915528Y-93294268D01*
X145972140Y-93430941D01*
X146001000Y-93576033D01*
X146001000Y-93723967D01*
X145972140Y-93869059D01*
X145915528Y-94005732D01*
X145833340Y-94128735D01*
X145728735Y-94233340D01*
X145605732Y-94315528D01*
X145605731Y-94315529D01*
X145605730Y-94315529D01*
X145469059Y-94372140D01*
X145323968Y-94401000D01*
X145176032Y-94401000D01*
X145030941Y-94372140D01*
X144894270Y-94315529D01*
X144894269Y-94315529D01*
X144894268Y-94315528D01*
X144771265Y-94233340D01*
X144666660Y-94128735D01*
X144584472Y-94005732D01*
X144527860Y-93869059D01*
X144499000Y-93723967D01*
X144499000Y-93576033D01*
X144527860Y-93430941D01*
X144584472Y-93294268D01*
X144666660Y-93171265D01*
X144771265Y-93066660D01*
X144894268Y-92984472D01*
X145030941Y-92927860D01*
X145176032Y-92899000D01*
X145323968Y-92899000D01*
X145469059Y-92927860D01*
G37*
G36*
X126969059Y-92927860D02*
G01*
X127105732Y-92984472D01*
X127228735Y-93066660D01*
X127333340Y-93171265D01*
X127415528Y-93294268D01*
X127472140Y-93430941D01*
X127501000Y-93576033D01*
X127501000Y-93723967D01*
X127472140Y-93869059D01*
X127415528Y-94005732D01*
X127333340Y-94128735D01*
X127228735Y-94233340D01*
X127105732Y-94315528D01*
X127105731Y-94315529D01*
X127105730Y-94315529D01*
X126969059Y-94372140D01*
X126823968Y-94401000D01*
X126676032Y-94401000D01*
X126530941Y-94372140D01*
X126394270Y-94315529D01*
X126394269Y-94315529D01*
X126394268Y-94315528D01*
X126271265Y-94233340D01*
X126166660Y-94128735D01*
X126084472Y-94005732D01*
X126027860Y-93869059D01*
X125999000Y-93723967D01*
X125999000Y-93576033D01*
X126027860Y-93430941D01*
X126084472Y-93294268D01*
X126166660Y-93171265D01*
X126271265Y-93066660D01*
X126394268Y-92984472D01*
X126530941Y-92927860D01*
X126676032Y-92899000D01*
X126823968Y-92899000D01*
X126969059Y-92927860D01*
G37*
G36*
X108469059Y-90387860D02*
G01*
X108605732Y-90444472D01*
X108728735Y-90526660D01*
X108833340Y-90631265D01*
X108915528Y-90754268D01*
X108972140Y-90890941D01*
X109001000Y-91036033D01*
X109001000Y-91183967D01*
X108972140Y-91329059D01*
X108915528Y-91465732D01*
X108833340Y-91588735D01*
X108728735Y-91693340D01*
X108605732Y-91775528D01*
X108605731Y-91775529D01*
X108605730Y-91775529D01*
X108469059Y-91832140D01*
X108323968Y-91861000D01*
X108176032Y-91861000D01*
X108030941Y-91832140D01*
X107894270Y-91775529D01*
X107894269Y-91775529D01*
X107894268Y-91775528D01*
X107771265Y-91693340D01*
X107666660Y-91588735D01*
X107584472Y-91465732D01*
X107527860Y-91329059D01*
X107499000Y-91183967D01*
X107499000Y-91036033D01*
X107527860Y-90890941D01*
X107584472Y-90754268D01*
X107666660Y-90631265D01*
X107771265Y-90526660D01*
X107894268Y-90444472D01*
X108030941Y-90387860D01*
X108176032Y-90359000D01*
X108323968Y-90359000D01*
X108469059Y-90387860D01*
G37*
G36*
X123269059Y-90387860D02*
G01*
X123405732Y-90444472D01*
X123528735Y-90526660D01*
X123633340Y-90631265D01*
X123715528Y-90754268D01*
X123772140Y-90890941D01*
X123801000Y-91036033D01*
X123801000Y-91183967D01*
X123772140Y-91329059D01*
X123715528Y-91465732D01*
X123633340Y-91588735D01*
X123528735Y-91693340D01*
X123405732Y-91775528D01*
X123405731Y-91775529D01*
X123405730Y-91775529D01*
X123269059Y-91832140D01*
X123123968Y-91861000D01*
X122976032Y-91861000D01*
X122830941Y-91832140D01*
X122694270Y-91775529D01*
X122694269Y-91775529D01*
X122694268Y-91775528D01*
X122571265Y-91693340D01*
X122466660Y-91588735D01*
X122384472Y-91465732D01*
X122327860Y-91329059D01*
X122299000Y-91183967D01*
X122299000Y-91036033D01*
X122327860Y-90890941D01*
X122384472Y-90754268D01*
X122466660Y-90631265D01*
X122571265Y-90526660D01*
X122694268Y-90444472D01*
X122830941Y-90387860D01*
X122976032Y-90359000D01*
X123123968Y-90359000D01*
X123269059Y-90387860D01*
G37*
G36*
X152869059Y-90387860D02*
G01*
X153005732Y-90444472D01*
X153128735Y-90526660D01*
X153233340Y-90631265D01*
X153315528Y-90754268D01*
X153372140Y-90890941D01*
X153401000Y-91036033D01*
X153401000Y-91183967D01*
X153372140Y-91329059D01*
X153315528Y-91465732D01*
X153233340Y-91588735D01*
X153128735Y-91693340D01*
X153005732Y-91775528D01*
X153005731Y-91775529D01*
X153005730Y-91775529D01*
X152869059Y-91832140D01*
X152723968Y-91861000D01*
X152576032Y-91861000D01*
X152430941Y-91832140D01*
X152294270Y-91775529D01*
X152294269Y-91775529D01*
X152294268Y-91775528D01*
X152171265Y-91693340D01*
X152066660Y-91588735D01*
X151984472Y-91465732D01*
X151927860Y-91329059D01*
X151899000Y-91183967D01*
X151899000Y-91036033D01*
X151927860Y-90890941D01*
X151984472Y-90754268D01*
X152066660Y-90631265D01*
X152171265Y-90526660D01*
X152294268Y-90444472D01*
X152430941Y-90387860D01*
X152576032Y-90359000D01*
X152723968Y-90359000D01*
X152869059Y-90387860D01*
G37*
G36*
X149169059Y-90387860D02*
G01*
X149305732Y-90444472D01*
X149428735Y-90526660D01*
X149533340Y-90631265D01*
X149615528Y-90754268D01*
X149672140Y-90890941D01*
X149701000Y-91036033D01*
X149701000Y-91183967D01*
X149672140Y-91329059D01*
X149615528Y-91465732D01*
X149533340Y-91588735D01*
X149428735Y-91693340D01*
X149305732Y-91775528D01*
X149305731Y-91775529D01*
X149305730Y-91775529D01*
X149169059Y-91832140D01*
X149023968Y-91861000D01*
X148876032Y-91861000D01*
X148730941Y-91832140D01*
X148594270Y-91775529D01*
X148594269Y-91775529D01*
X148594268Y-91775528D01*
X148471265Y-91693340D01*
X148366660Y-91588735D01*
X148284472Y-91465732D01*
X148227860Y-91329059D01*
X148199000Y-91183967D01*
X148199000Y-91036033D01*
X148227860Y-90890941D01*
X148284472Y-90754268D01*
X148366660Y-90631265D01*
X148471265Y-90526660D01*
X148594268Y-90444472D01*
X148730941Y-90387860D01*
X148876032Y-90359000D01*
X149023968Y-90359000D01*
X149169059Y-90387860D01*
G37*
G36*
X145469059Y-90387860D02*
G01*
X145605732Y-90444472D01*
X145728735Y-90526660D01*
X145833340Y-90631265D01*
X145915528Y-90754268D01*
X145972140Y-90890941D01*
X146001000Y-91036033D01*
X146001000Y-91183967D01*
X145972140Y-91329059D01*
X145915528Y-91465732D01*
X145833340Y-91588735D01*
X145728735Y-91693340D01*
X145605732Y-91775528D01*
X145605731Y-91775529D01*
X145605730Y-91775529D01*
X145469059Y-91832140D01*
X145323968Y-91861000D01*
X145176032Y-91861000D01*
X145030941Y-91832140D01*
X144894270Y-91775529D01*
X144894269Y-91775529D01*
X144894268Y-91775528D01*
X144771265Y-91693340D01*
X144666660Y-91588735D01*
X144584472Y-91465732D01*
X144527860Y-91329059D01*
X144499000Y-91183967D01*
X144499000Y-91036033D01*
X144527860Y-90890941D01*
X144584472Y-90754268D01*
X144666660Y-90631265D01*
X144771265Y-90526660D01*
X144894268Y-90444472D01*
X145030941Y-90387860D01*
X145176032Y-90359000D01*
X145323968Y-90359000D01*
X145469059Y-90387860D01*
G37*
G36*
X126969059Y-90387860D02*
G01*
X127105732Y-90444472D01*
X127228735Y-90526660D01*
X127333340Y-90631265D01*
X127415528Y-90754268D01*
X127472140Y-90890941D01*
X127501000Y-91036033D01*
X127501000Y-91183967D01*
X127472140Y-91329059D01*
X127415528Y-91465732D01*
X127333340Y-91588735D01*
X127228735Y-91693340D01*
X127105732Y-91775528D01*
X127105731Y-91775529D01*
X127105730Y-91775529D01*
X126969059Y-91832140D01*
X126823968Y-91861000D01*
X126676032Y-91861000D01*
X126530941Y-91832140D01*
X126394270Y-91775529D01*
X126394269Y-91775529D01*
X126394268Y-91775528D01*
X126271265Y-91693340D01*
X126166660Y-91588735D01*
X126084472Y-91465732D01*
X126027860Y-91329059D01*
X125999000Y-91183967D01*
X125999000Y-91036033D01*
X126027860Y-90890941D01*
X126084472Y-90754268D01*
X126166660Y-90631265D01*
X126271265Y-90526660D01*
X126394268Y-90444472D01*
X126530941Y-90387860D01*
X126676032Y-90359000D01*
X126823968Y-90359000D01*
X126969059Y-90387860D01*
G37*
G36*
X119569059Y-90387860D02*
G01*
X119705732Y-90444472D01*
X119828735Y-90526660D01*
X119933340Y-90631265D01*
X120015528Y-90754268D01*
X120072140Y-90890941D01*
X120101000Y-91036033D01*
X120101000Y-91183967D01*
X120072140Y-91329059D01*
X120015528Y-91465732D01*
X119933340Y-91588735D01*
X119828735Y-91693340D01*
X119705732Y-91775528D01*
X119705731Y-91775529D01*
X119705730Y-91775529D01*
X119569059Y-91832140D01*
X119423968Y-91861000D01*
X119276032Y-91861000D01*
X119130941Y-91832140D01*
X118994270Y-91775529D01*
X118994269Y-91775529D01*
X118994268Y-91775528D01*
X118871265Y-91693340D01*
X118766660Y-91588735D01*
X118684472Y-91465732D01*
X118627860Y-91329059D01*
X118599000Y-91183967D01*
X118599000Y-91036033D01*
X118627860Y-90890941D01*
X118684472Y-90754268D01*
X118766660Y-90631265D01*
X118871265Y-90526660D01*
X118994268Y-90444472D01*
X119130941Y-90387860D01*
X119276032Y-90359000D01*
X119423968Y-90359000D01*
X119569059Y-90387860D01*
G37*
G36*
X130669059Y-90387860D02*
G01*
X130805732Y-90444472D01*
X130928735Y-90526660D01*
X131033340Y-90631265D01*
X131115528Y-90754268D01*
X131172140Y-90890941D01*
X131201000Y-91036033D01*
X131201000Y-91183967D01*
X131172140Y-91329059D01*
X131115528Y-91465732D01*
X131033340Y-91588735D01*
X130928735Y-91693340D01*
X130805732Y-91775528D01*
X130805731Y-91775529D01*
X130805730Y-91775529D01*
X130669059Y-91832140D01*
X130523968Y-91861000D01*
X130376032Y-91861000D01*
X130230941Y-91832140D01*
X130094270Y-91775529D01*
X130094269Y-91775529D01*
X130094268Y-91775528D01*
X129971265Y-91693340D01*
X129866660Y-91588735D01*
X129784472Y-91465732D01*
X129727860Y-91329059D01*
X129699000Y-91183967D01*
X129699000Y-91036033D01*
X129727860Y-90890941D01*
X129784472Y-90754268D01*
X129866660Y-90631265D01*
X129971265Y-90526660D01*
X130094268Y-90444472D01*
X130230941Y-90387860D01*
X130376032Y-90359000D01*
X130523968Y-90359000D01*
X130669059Y-90387860D01*
G37*
G36*
X134369059Y-90387860D02*
G01*
X134505732Y-90444472D01*
X134628735Y-90526660D01*
X134733340Y-90631265D01*
X134815528Y-90754268D01*
X134872140Y-90890941D01*
X134901000Y-91036033D01*
X134901000Y-91183967D01*
X134872140Y-91329059D01*
X134815528Y-91465732D01*
X134733340Y-91588735D01*
X134628735Y-91693340D01*
X134505732Y-91775528D01*
X134505731Y-91775529D01*
X134505730Y-91775529D01*
X134369059Y-91832140D01*
X134223968Y-91861000D01*
X134076032Y-91861000D01*
X133930941Y-91832140D01*
X133794270Y-91775529D01*
X133794269Y-91775529D01*
X133794268Y-91775528D01*
X133671265Y-91693340D01*
X133566660Y-91588735D01*
X133484472Y-91465732D01*
X133427860Y-91329059D01*
X133399000Y-91183967D01*
X133399000Y-91036033D01*
X133427860Y-90890941D01*
X133484472Y-90754268D01*
X133566660Y-90631265D01*
X133671265Y-90526660D01*
X133794268Y-90444472D01*
X133930941Y-90387860D01*
X134076032Y-90359000D01*
X134223968Y-90359000D01*
X134369059Y-90387860D01*
G37*
G36*
X141769059Y-90387860D02*
G01*
X141905732Y-90444472D01*
X142028735Y-90526660D01*
X142133340Y-90631265D01*
X142215528Y-90754268D01*
X142272140Y-90890941D01*
X142301000Y-91036033D01*
X142301000Y-91183967D01*
X142272140Y-91329059D01*
X142215528Y-91465732D01*
X142133340Y-91588735D01*
X142028735Y-91693340D01*
X141905732Y-91775528D01*
X141905731Y-91775529D01*
X141905730Y-91775529D01*
X141769059Y-91832140D01*
X141623968Y-91861000D01*
X141476032Y-91861000D01*
X141330941Y-91832140D01*
X141194270Y-91775529D01*
X141194269Y-91775529D01*
X141194268Y-91775528D01*
X141071265Y-91693340D01*
X140966660Y-91588735D01*
X140884472Y-91465732D01*
X140827860Y-91329059D01*
X140799000Y-91183967D01*
X140799000Y-91036033D01*
X140827860Y-90890941D01*
X140884472Y-90754268D01*
X140966660Y-90631265D01*
X141071265Y-90526660D01*
X141194268Y-90444472D01*
X141330941Y-90387860D01*
X141476032Y-90359000D01*
X141623968Y-90359000D01*
X141769059Y-90387860D01*
G37*
G36*
X115869059Y-90387860D02*
G01*
X116005732Y-90444472D01*
X116128735Y-90526660D01*
X116233340Y-90631265D01*
X116315528Y-90754268D01*
X116372140Y-90890941D01*
X116401000Y-91036033D01*
X116401000Y-91183967D01*
X116372140Y-91329059D01*
X116315528Y-91465732D01*
X116233340Y-91588735D01*
X116128735Y-91693340D01*
X116005732Y-91775528D01*
X116005731Y-91775529D01*
X116005730Y-91775529D01*
X115869059Y-91832140D01*
X115723968Y-91861000D01*
X115576032Y-91861000D01*
X115430941Y-91832140D01*
X115294270Y-91775529D01*
X115294269Y-91775529D01*
X115294268Y-91775528D01*
X115171265Y-91693340D01*
X115066660Y-91588735D01*
X114984472Y-91465732D01*
X114927860Y-91329059D01*
X114899000Y-91183967D01*
X114899000Y-91036033D01*
X114927860Y-90890941D01*
X114984472Y-90754268D01*
X115066660Y-90631265D01*
X115171265Y-90526660D01*
X115294268Y-90444472D01*
X115430941Y-90387860D01*
X115576032Y-90359000D01*
X115723968Y-90359000D01*
X115869059Y-90387860D01*
G37*
G36*
X112169059Y-90387860D02*
G01*
X112305732Y-90444472D01*
X112428735Y-90526660D01*
X112533340Y-90631265D01*
X112615528Y-90754268D01*
X112672140Y-90890941D01*
X112701000Y-91036033D01*
X112701000Y-91183967D01*
X112672140Y-91329059D01*
X112615528Y-91465732D01*
X112533340Y-91588735D01*
X112428735Y-91693340D01*
X112305732Y-91775528D01*
X112305731Y-91775529D01*
X112305730Y-91775529D01*
X112169059Y-91832140D01*
X112023968Y-91861000D01*
X111876032Y-91861000D01*
X111730941Y-91832140D01*
X111594270Y-91775529D01*
X111594269Y-91775529D01*
X111594268Y-91775528D01*
X111471265Y-91693340D01*
X111366660Y-91588735D01*
X111284472Y-91465732D01*
X111227860Y-91329059D01*
X111199000Y-91183967D01*
X111199000Y-91036033D01*
X111227860Y-90890941D01*
X111284472Y-90754268D01*
X111366660Y-90631265D01*
X111471265Y-90526660D01*
X111594268Y-90444472D01*
X111730941Y-90387860D01*
X111876032Y-90359000D01*
X112023968Y-90359000D01*
X112169059Y-90387860D01*
G37*
G36*
X138069059Y-90387860D02*
G01*
X138205732Y-90444472D01*
X138328735Y-90526660D01*
X138433340Y-90631265D01*
X138515528Y-90754268D01*
X138572140Y-90890941D01*
X138601000Y-91036033D01*
X138601000Y-91183967D01*
X138572140Y-91329059D01*
X138515528Y-91465732D01*
X138433340Y-91588735D01*
X138328735Y-91693340D01*
X138205732Y-91775528D01*
X138205731Y-91775529D01*
X138205730Y-91775529D01*
X138069059Y-91832140D01*
X137923968Y-91861000D01*
X137776032Y-91861000D01*
X137630941Y-91832140D01*
X137494270Y-91775529D01*
X137494269Y-91775529D01*
X137494268Y-91775528D01*
X137371265Y-91693340D01*
X137266660Y-91588735D01*
X137184472Y-91465732D01*
X137127860Y-91329059D01*
X137099000Y-91183967D01*
X137099000Y-91036033D01*
X137127860Y-90890941D01*
X137184472Y-90754268D01*
X137266660Y-90631265D01*
X137371265Y-90526660D01*
X137494268Y-90444472D01*
X137630941Y-90387860D01*
X137776032Y-90359000D01*
X137923968Y-90359000D01*
X138069059Y-90387860D01*
G37*
G36*
X97519794Y-87095155D02*
G01*
X97626150Y-87116311D01*
X97705809Y-87149307D01*
X97826520Y-87199307D01*
X98006844Y-87319795D01*
X98160205Y-87473156D01*
X98280693Y-87653480D01*
X98280693Y-87653481D01*
X98342979Y-87803851D01*
X98363689Y-87853851D01*
X98406000Y-88066560D01*
X98406000Y-88283440D01*
X98363689Y-88496149D01*
X98280693Y-88696520D01*
X98160205Y-88876844D01*
X98006844Y-89030205D01*
X97826520Y-89150693D01*
X97746860Y-89183689D01*
X97626150Y-89233689D01*
X97519794Y-89254845D01*
X97413440Y-89276000D01*
X97196560Y-89276000D01*
X97090205Y-89254844D01*
X96983850Y-89233689D01*
X96863140Y-89183689D01*
X96783480Y-89150693D01*
X96603156Y-89030205D01*
X96449795Y-88876844D01*
X96329307Y-88696520D01*
X96246311Y-88496149D01*
X96204000Y-88283440D01*
X96204000Y-88066560D01*
X96246311Y-87853851D01*
X96267022Y-87803851D01*
X96329307Y-87653481D01*
X96329307Y-87653480D01*
X96449795Y-87473156D01*
X96603156Y-87319795D01*
X96783480Y-87199307D01*
X96904191Y-87149307D01*
X96983850Y-87116311D01*
X97090206Y-87095155D01*
X97196560Y-87074000D01*
X97413440Y-87074000D01*
X97519794Y-87095155D01*
G37*
G36*
X101314794Y-87045155D02*
G01*
X101421150Y-87066311D01*
X101621520Y-87149307D01*
X101801844Y-87269795D01*
X101955205Y-87423156D01*
X102075693Y-87603480D01*
X102096404Y-87653481D01*
X102158689Y-87803850D01*
X102201000Y-88016561D01*
X102201000Y-88233439D01*
X102158689Y-88446150D01*
X102137978Y-88496150D01*
X102075693Y-88646520D01*
X101955205Y-88826844D01*
X101801844Y-88980205D01*
X101621520Y-89100693D01*
X101521334Y-89142191D01*
X101421150Y-89183689D01*
X101314794Y-89204845D01*
X101208440Y-89226000D01*
X100991560Y-89226000D01*
X100885205Y-89204844D01*
X100778850Y-89183689D01*
X100678666Y-89142191D01*
X100578480Y-89100693D01*
X100398156Y-88980205D01*
X100244795Y-88826844D01*
X100124307Y-88646520D01*
X100062022Y-88496150D01*
X100041311Y-88446150D01*
X99999000Y-88233439D01*
X99999000Y-88016561D01*
X100041311Y-87803850D01*
X100103596Y-87653481D01*
X100124307Y-87603480D01*
X100244795Y-87423156D01*
X100398156Y-87269795D01*
X100578480Y-87149307D01*
X100778850Y-87066311D01*
X100885206Y-87045155D01*
X100991560Y-87024000D01*
X101208440Y-87024000D01*
X101314794Y-87045155D01*
G37*
G36*
X141769059Y-85227860D02*
G01*
X141905732Y-85284472D01*
X142028735Y-85366660D01*
X142133340Y-85471265D01*
X142215528Y-85594268D01*
X142272140Y-85730941D01*
X142301000Y-85876033D01*
X142301000Y-86023967D01*
X142272140Y-86169059D01*
X142215528Y-86305732D01*
X142133340Y-86428735D01*
X142028735Y-86533340D01*
X141905732Y-86615528D01*
X141905731Y-86615529D01*
X141905730Y-86615529D01*
X141769059Y-86672140D01*
X141623968Y-86701000D01*
X141476032Y-86701000D01*
X141330941Y-86672140D01*
X141194270Y-86615529D01*
X141194269Y-86615529D01*
X141194268Y-86615528D01*
X141071265Y-86533340D01*
X140966660Y-86428735D01*
X140884472Y-86305732D01*
X140827860Y-86169059D01*
X140799000Y-86023967D01*
X140799000Y-85876033D01*
X140827860Y-85730941D01*
X140884472Y-85594268D01*
X140966660Y-85471265D01*
X141071265Y-85366660D01*
X141194268Y-85284472D01*
X141330941Y-85227860D01*
X141476032Y-85199000D01*
X141623968Y-85199000D01*
X141769059Y-85227860D01*
G37*
G36*
X156569059Y-85227860D02*
G01*
X156705732Y-85284472D01*
X156828735Y-85366660D01*
X156933340Y-85471265D01*
X157015528Y-85594268D01*
X157072140Y-85730941D01*
X157101000Y-85876033D01*
X157101000Y-86023967D01*
X157072140Y-86169059D01*
X157015528Y-86305732D01*
X156933340Y-86428735D01*
X156828735Y-86533340D01*
X156705732Y-86615528D01*
X156705731Y-86615529D01*
X156705730Y-86615529D01*
X156569059Y-86672140D01*
X156423968Y-86701000D01*
X156276032Y-86701000D01*
X156130941Y-86672140D01*
X155994270Y-86615529D01*
X155994269Y-86615529D01*
X155994268Y-86615528D01*
X155871265Y-86533340D01*
X155766660Y-86428735D01*
X155684472Y-86305732D01*
X155627860Y-86169059D01*
X155599000Y-86023967D01*
X155599000Y-85876033D01*
X155627860Y-85730941D01*
X155684472Y-85594268D01*
X155766660Y-85471265D01*
X155871265Y-85366660D01*
X155994268Y-85284472D01*
X156130941Y-85227860D01*
X156276032Y-85199000D01*
X156423968Y-85199000D01*
X156569059Y-85227860D01*
G37*
G36*
X112169059Y-85227860D02*
G01*
X112305732Y-85284472D01*
X112428735Y-85366660D01*
X112533340Y-85471265D01*
X112615528Y-85594268D01*
X112672140Y-85730941D01*
X112701000Y-85876033D01*
X112701000Y-86023967D01*
X112672140Y-86169059D01*
X112615528Y-86305732D01*
X112533340Y-86428735D01*
X112428735Y-86533340D01*
X112305732Y-86615528D01*
X112305731Y-86615529D01*
X112305730Y-86615529D01*
X112169059Y-86672140D01*
X112023968Y-86701000D01*
X111876032Y-86701000D01*
X111730941Y-86672140D01*
X111594270Y-86615529D01*
X111594269Y-86615529D01*
X111594268Y-86615528D01*
X111471265Y-86533340D01*
X111366660Y-86428735D01*
X111284472Y-86305732D01*
X111227860Y-86169059D01*
X111199000Y-86023967D01*
X111199000Y-85876033D01*
X111227860Y-85730941D01*
X111284472Y-85594268D01*
X111366660Y-85471265D01*
X111471265Y-85366660D01*
X111594268Y-85284472D01*
X111730941Y-85227860D01*
X111876032Y-85199000D01*
X112023968Y-85199000D01*
X112169059Y-85227860D01*
G37*
G36*
X115869059Y-85227860D02*
G01*
X116005732Y-85284472D01*
X116128735Y-85366660D01*
X116233340Y-85471265D01*
X116315528Y-85594268D01*
X116372140Y-85730941D01*
X116401000Y-85876033D01*
X116401000Y-86023967D01*
X116372140Y-86169059D01*
X116315528Y-86305732D01*
X116233340Y-86428735D01*
X116128735Y-86533340D01*
X116005732Y-86615528D01*
X116005731Y-86615529D01*
X116005730Y-86615529D01*
X115869059Y-86672140D01*
X115723968Y-86701000D01*
X115576032Y-86701000D01*
X115430941Y-86672140D01*
X115294270Y-86615529D01*
X115294269Y-86615529D01*
X115294268Y-86615528D01*
X115171265Y-86533340D01*
X115066660Y-86428735D01*
X114984472Y-86305732D01*
X114927860Y-86169059D01*
X114899000Y-86023967D01*
X114899000Y-85876033D01*
X114927860Y-85730941D01*
X114984472Y-85594268D01*
X115066660Y-85471265D01*
X115171265Y-85366660D01*
X115294268Y-85284472D01*
X115430941Y-85227860D01*
X115576032Y-85199000D01*
X115723968Y-85199000D01*
X115869059Y-85227860D01*
G37*
G36*
X134369059Y-85227860D02*
G01*
X134505732Y-85284472D01*
X134628735Y-85366660D01*
X134733340Y-85471265D01*
X134815528Y-85594268D01*
X134872140Y-85730941D01*
X134901000Y-85876033D01*
X134901000Y-86023967D01*
X134872140Y-86169059D01*
X134815528Y-86305732D01*
X134733340Y-86428735D01*
X134628735Y-86533340D01*
X134505732Y-86615528D01*
X134505731Y-86615529D01*
X134505730Y-86615529D01*
X134369059Y-86672140D01*
X134223968Y-86701000D01*
X134076032Y-86701000D01*
X133930941Y-86672140D01*
X133794270Y-86615529D01*
X133794269Y-86615529D01*
X133794268Y-86615528D01*
X133671265Y-86533340D01*
X133566660Y-86428735D01*
X133484472Y-86305732D01*
X133427860Y-86169059D01*
X133399000Y-86023967D01*
X133399000Y-85876033D01*
X133427860Y-85730941D01*
X133484472Y-85594268D01*
X133566660Y-85471265D01*
X133671265Y-85366660D01*
X133794268Y-85284472D01*
X133930941Y-85227860D01*
X134076032Y-85199000D01*
X134223968Y-85199000D01*
X134369059Y-85227860D01*
G37*
G36*
X145469059Y-85227860D02*
G01*
X145605732Y-85284472D01*
X145728735Y-85366660D01*
X145833340Y-85471265D01*
X145915528Y-85594268D01*
X145972140Y-85730941D01*
X146001000Y-85876033D01*
X146001000Y-86023967D01*
X145972140Y-86169059D01*
X145915528Y-86305732D01*
X145833340Y-86428735D01*
X145728735Y-86533340D01*
X145605732Y-86615528D01*
X145605731Y-86615529D01*
X145605730Y-86615529D01*
X145469059Y-86672140D01*
X145323968Y-86701000D01*
X145176032Y-86701000D01*
X145030941Y-86672140D01*
X144894270Y-86615529D01*
X144894269Y-86615529D01*
X144894268Y-86615528D01*
X144771265Y-86533340D01*
X144666660Y-86428735D01*
X144584472Y-86305732D01*
X144527860Y-86169059D01*
X144499000Y-86023967D01*
X144499000Y-85876033D01*
X144527860Y-85730941D01*
X144584472Y-85594268D01*
X144666660Y-85471265D01*
X144771265Y-85366660D01*
X144894268Y-85284472D01*
X145030941Y-85227860D01*
X145176032Y-85199000D01*
X145323968Y-85199000D01*
X145469059Y-85227860D01*
G37*
G36*
X123269059Y-85227860D02*
G01*
X123405732Y-85284472D01*
X123528735Y-85366660D01*
X123633340Y-85471265D01*
X123715528Y-85594268D01*
X123772140Y-85730941D01*
X123801000Y-85876033D01*
X123801000Y-86023967D01*
X123772140Y-86169059D01*
X123715528Y-86305732D01*
X123633340Y-86428735D01*
X123528735Y-86533340D01*
X123405732Y-86615528D01*
X123405731Y-86615529D01*
X123405730Y-86615529D01*
X123269059Y-86672140D01*
X123123968Y-86701000D01*
X122976032Y-86701000D01*
X122830941Y-86672140D01*
X122694270Y-86615529D01*
X122694269Y-86615529D01*
X122694268Y-86615528D01*
X122571265Y-86533340D01*
X122466660Y-86428735D01*
X122384472Y-86305732D01*
X122327860Y-86169059D01*
X122299000Y-86023967D01*
X122299000Y-85876033D01*
X122327860Y-85730941D01*
X122384472Y-85594268D01*
X122466660Y-85471265D01*
X122571265Y-85366660D01*
X122694268Y-85284472D01*
X122830941Y-85227860D01*
X122976032Y-85199000D01*
X123123968Y-85199000D01*
X123269059Y-85227860D01*
G37*
G36*
X126969059Y-85227860D02*
G01*
X127105732Y-85284472D01*
X127228735Y-85366660D01*
X127333340Y-85471265D01*
X127415528Y-85594268D01*
X127472140Y-85730941D01*
X127501000Y-85876033D01*
X127501000Y-86023967D01*
X127472140Y-86169059D01*
X127415528Y-86305732D01*
X127333340Y-86428735D01*
X127228735Y-86533340D01*
X127105732Y-86615528D01*
X127105731Y-86615529D01*
X127105730Y-86615529D01*
X126969059Y-86672140D01*
X126823968Y-86701000D01*
X126676032Y-86701000D01*
X126530941Y-86672140D01*
X126394270Y-86615529D01*
X126394269Y-86615529D01*
X126394268Y-86615528D01*
X126271265Y-86533340D01*
X126166660Y-86428735D01*
X126084472Y-86305732D01*
X126027860Y-86169059D01*
X125999000Y-86023967D01*
X125999000Y-85876033D01*
X126027860Y-85730941D01*
X126084472Y-85594268D01*
X126166660Y-85471265D01*
X126271265Y-85366660D01*
X126394268Y-85284472D01*
X126530941Y-85227860D01*
X126676032Y-85199000D01*
X126823968Y-85199000D01*
X126969059Y-85227860D01*
G37*
G36*
X138069059Y-85227860D02*
G01*
X138205732Y-85284472D01*
X138328735Y-85366660D01*
X138433340Y-85471265D01*
X138515528Y-85594268D01*
X138572140Y-85730941D01*
X138601000Y-85876033D01*
X138601000Y-86023967D01*
X138572140Y-86169059D01*
X138515528Y-86305732D01*
X138433340Y-86428735D01*
X138328735Y-86533340D01*
X138205732Y-86615528D01*
X138205731Y-86615529D01*
X138205730Y-86615529D01*
X138069059Y-86672140D01*
X137923968Y-86701000D01*
X137776032Y-86701000D01*
X137630941Y-86672140D01*
X137494270Y-86615529D01*
X137494269Y-86615529D01*
X137494268Y-86615528D01*
X137371265Y-86533340D01*
X137266660Y-86428735D01*
X137184472Y-86305732D01*
X137127860Y-86169059D01*
X137099000Y-86023967D01*
X137099000Y-85876033D01*
X137127860Y-85730941D01*
X137184472Y-85594268D01*
X137266660Y-85471265D01*
X137371265Y-85366660D01*
X137494268Y-85284472D01*
X137630941Y-85227860D01*
X137776032Y-85199000D01*
X137923968Y-85199000D01*
X138069059Y-85227860D01*
G37*
G36*
X108469059Y-85227860D02*
G01*
X108605732Y-85284472D01*
X108728735Y-85366660D01*
X108833340Y-85471265D01*
X108915528Y-85594268D01*
X108972140Y-85730941D01*
X109001000Y-85876033D01*
X109001000Y-86023967D01*
X108972140Y-86169059D01*
X108915528Y-86305732D01*
X108833340Y-86428735D01*
X108728735Y-86533340D01*
X108605732Y-86615528D01*
X108605731Y-86615529D01*
X108605730Y-86615529D01*
X108469059Y-86672140D01*
X108323968Y-86701000D01*
X108176032Y-86701000D01*
X108030941Y-86672140D01*
X107894270Y-86615529D01*
X107894269Y-86615529D01*
X107894268Y-86615528D01*
X107771265Y-86533340D01*
X107666660Y-86428735D01*
X107584472Y-86305732D01*
X107527860Y-86169059D01*
X107499000Y-86023967D01*
X107499000Y-85876033D01*
X107527860Y-85730941D01*
X107584472Y-85594268D01*
X107666660Y-85471265D01*
X107771265Y-85366660D01*
X107894268Y-85284472D01*
X108030941Y-85227860D01*
X108176032Y-85199000D01*
X108323968Y-85199000D01*
X108469059Y-85227860D01*
G37*
G36*
X152869059Y-85227860D02*
G01*
X153005732Y-85284472D01*
X153128735Y-85366660D01*
X153233340Y-85471265D01*
X153315528Y-85594268D01*
X153372140Y-85730941D01*
X153401000Y-85876033D01*
X153401000Y-86023967D01*
X153372140Y-86169059D01*
X153315528Y-86305732D01*
X153233340Y-86428735D01*
X153128735Y-86533340D01*
X153005732Y-86615528D01*
X153005731Y-86615529D01*
X153005730Y-86615529D01*
X152869059Y-86672140D01*
X152723968Y-86701000D01*
X152576032Y-86701000D01*
X152430941Y-86672140D01*
X152294270Y-86615529D01*
X152294269Y-86615529D01*
X152294268Y-86615528D01*
X152171265Y-86533340D01*
X152066660Y-86428735D01*
X151984472Y-86305732D01*
X151927860Y-86169059D01*
X151899000Y-86023967D01*
X151899000Y-85876033D01*
X151927860Y-85730941D01*
X151984472Y-85594268D01*
X152066660Y-85471265D01*
X152171265Y-85366660D01*
X152294268Y-85284472D01*
X152430941Y-85227860D01*
X152576032Y-85199000D01*
X152723968Y-85199000D01*
X152869059Y-85227860D01*
G37*
G36*
X149169059Y-85227860D02*
G01*
X149305732Y-85284472D01*
X149428735Y-85366660D01*
X149533340Y-85471265D01*
X149615528Y-85594268D01*
X149672140Y-85730941D01*
X149701000Y-85876033D01*
X149701000Y-86023967D01*
X149672140Y-86169059D01*
X149615528Y-86305732D01*
X149533340Y-86428735D01*
X149428735Y-86533340D01*
X149305732Y-86615528D01*
X149305731Y-86615529D01*
X149305730Y-86615529D01*
X149169059Y-86672140D01*
X149023968Y-86701000D01*
X148876032Y-86701000D01*
X148730941Y-86672140D01*
X148594270Y-86615529D01*
X148594269Y-86615529D01*
X148594268Y-86615528D01*
X148471265Y-86533340D01*
X148366660Y-86428735D01*
X148284472Y-86305732D01*
X148227860Y-86169059D01*
X148199000Y-86023967D01*
X148199000Y-85876033D01*
X148227860Y-85730941D01*
X148284472Y-85594268D01*
X148366660Y-85471265D01*
X148471265Y-85366660D01*
X148594268Y-85284472D01*
X148730941Y-85227860D01*
X148876032Y-85199000D01*
X149023968Y-85199000D01*
X149169059Y-85227860D01*
G37*
G36*
X130669059Y-85227860D02*
G01*
X130805732Y-85284472D01*
X130928735Y-85366660D01*
X131033340Y-85471265D01*
X131115528Y-85594268D01*
X131172140Y-85730941D01*
X131201000Y-85876033D01*
X131201000Y-86023967D01*
X131172140Y-86169059D01*
X131115528Y-86305732D01*
X131033340Y-86428735D01*
X130928735Y-86533340D01*
X130805732Y-86615528D01*
X130805731Y-86615529D01*
X130805730Y-86615529D01*
X130669059Y-86672140D01*
X130523968Y-86701000D01*
X130376032Y-86701000D01*
X130230941Y-86672140D01*
X130094270Y-86615529D01*
X130094269Y-86615529D01*
X130094268Y-86615528D01*
X129971265Y-86533340D01*
X129866660Y-86428735D01*
X129784472Y-86305732D01*
X129727860Y-86169059D01*
X129699000Y-86023967D01*
X129699000Y-85876033D01*
X129727860Y-85730941D01*
X129784472Y-85594268D01*
X129866660Y-85471265D01*
X129971265Y-85366660D01*
X130094268Y-85284472D01*
X130230941Y-85227860D01*
X130376032Y-85199000D01*
X130523968Y-85199000D01*
X130669059Y-85227860D01*
G37*
G36*
X119569059Y-85227860D02*
G01*
X119705732Y-85284472D01*
X119828735Y-85366660D01*
X119933340Y-85471265D01*
X120015528Y-85594268D01*
X120072140Y-85730941D01*
X120101000Y-85876033D01*
X120101000Y-86023967D01*
X120072140Y-86169059D01*
X120015528Y-86305732D01*
X119933340Y-86428735D01*
X119828735Y-86533340D01*
X119705732Y-86615528D01*
X119705731Y-86615529D01*
X119705730Y-86615529D01*
X119569059Y-86672140D01*
X119423968Y-86701000D01*
X119276032Y-86701000D01*
X119130941Y-86672140D01*
X118994270Y-86615529D01*
X118994269Y-86615529D01*
X118994268Y-86615528D01*
X118871265Y-86533340D01*
X118766660Y-86428735D01*
X118684472Y-86305732D01*
X118627860Y-86169059D01*
X118599000Y-86023967D01*
X118599000Y-85876033D01*
X118627860Y-85730941D01*
X118684472Y-85594268D01*
X118766660Y-85471265D01*
X118871265Y-85366660D01*
X118994268Y-85284472D01*
X119130941Y-85227860D01*
X119276032Y-85199000D01*
X119423968Y-85199000D01*
X119569059Y-85227860D01*
G37*
G36*
X130669059Y-82687860D02*
G01*
X130805732Y-82744472D01*
X130928735Y-82826660D01*
X131033340Y-82931265D01*
X131115528Y-83054268D01*
X131115529Y-83054270D01*
X131172140Y-83190941D01*
X131201000Y-83336032D01*
X131201000Y-83483968D01*
X131172140Y-83629059D01*
X131119889Y-83755205D01*
X131115528Y-83765732D01*
X131033340Y-83888735D01*
X130928735Y-83993340D01*
X130805732Y-84075528D01*
X130805731Y-84075529D01*
X130805730Y-84075529D01*
X130669059Y-84132140D01*
X130523968Y-84161000D01*
X130376032Y-84161000D01*
X130230941Y-84132140D01*
X130094270Y-84075529D01*
X130094269Y-84075529D01*
X130094268Y-84075528D01*
X129971265Y-83993340D01*
X129866660Y-83888735D01*
X129784472Y-83765732D01*
X129780112Y-83755205D01*
X129727860Y-83629059D01*
X129699000Y-83483968D01*
X129699000Y-83336032D01*
X129727860Y-83190941D01*
X129784471Y-83054270D01*
X129784472Y-83054268D01*
X129866660Y-82931265D01*
X129971265Y-82826660D01*
X130094268Y-82744472D01*
X130230941Y-82687860D01*
X130376032Y-82659000D01*
X130523968Y-82659000D01*
X130669059Y-82687860D01*
G37*
G36*
X149169059Y-82687860D02*
G01*
X149305732Y-82744472D01*
X149428735Y-82826660D01*
X149533340Y-82931265D01*
X149615528Y-83054268D01*
X149615529Y-83054270D01*
X149672140Y-83190941D01*
X149701000Y-83336032D01*
X149701000Y-83483968D01*
X149672140Y-83629059D01*
X149619889Y-83755205D01*
X149615528Y-83765732D01*
X149533340Y-83888735D01*
X149428735Y-83993340D01*
X149305732Y-84075528D01*
X149305731Y-84075529D01*
X149305730Y-84075529D01*
X149169059Y-84132140D01*
X149023968Y-84161000D01*
X148876032Y-84161000D01*
X148730941Y-84132140D01*
X148594270Y-84075529D01*
X148594269Y-84075529D01*
X148594268Y-84075528D01*
X148471265Y-83993340D01*
X148366660Y-83888735D01*
X148284472Y-83765732D01*
X148280112Y-83755205D01*
X148227860Y-83629059D01*
X148199000Y-83483968D01*
X148199000Y-83336032D01*
X148227860Y-83190941D01*
X148284471Y-83054270D01*
X148284472Y-83054268D01*
X148366660Y-82931265D01*
X148471265Y-82826660D01*
X148594268Y-82744472D01*
X148730941Y-82687860D01*
X148876032Y-82659000D01*
X149023968Y-82659000D01*
X149169059Y-82687860D01*
G37*
G36*
X156569059Y-82687860D02*
G01*
X156705732Y-82744472D01*
X156828735Y-82826660D01*
X156933340Y-82931265D01*
X157015528Y-83054268D01*
X157015529Y-83054270D01*
X157072140Y-83190941D01*
X157101000Y-83336032D01*
X157101000Y-83483968D01*
X157072140Y-83629059D01*
X157019889Y-83755205D01*
X157015528Y-83765732D01*
X156933340Y-83888735D01*
X156828735Y-83993340D01*
X156705732Y-84075528D01*
X156705731Y-84075529D01*
X156705730Y-84075529D01*
X156569059Y-84132140D01*
X156423968Y-84161000D01*
X156276032Y-84161000D01*
X156130941Y-84132140D01*
X155994270Y-84075529D01*
X155994269Y-84075529D01*
X155994268Y-84075528D01*
X155871265Y-83993340D01*
X155766660Y-83888735D01*
X155684472Y-83765732D01*
X155680112Y-83755205D01*
X155627860Y-83629059D01*
X155599000Y-83483968D01*
X155599000Y-83336032D01*
X155627860Y-83190941D01*
X155684471Y-83054270D01*
X155684472Y-83054268D01*
X155766660Y-82931265D01*
X155871265Y-82826660D01*
X155994268Y-82744472D01*
X156130941Y-82687860D01*
X156276032Y-82659000D01*
X156423968Y-82659000D01*
X156569059Y-82687860D01*
G37*
G36*
X152869059Y-82687860D02*
G01*
X153005732Y-82744472D01*
X153128735Y-82826660D01*
X153233340Y-82931265D01*
X153315528Y-83054268D01*
X153315529Y-83054270D01*
X153372140Y-83190941D01*
X153401000Y-83336032D01*
X153401000Y-83483968D01*
X153372140Y-83629059D01*
X153319889Y-83755205D01*
X153315528Y-83765732D01*
X153233340Y-83888735D01*
X153128735Y-83993340D01*
X153005732Y-84075528D01*
X153005731Y-84075529D01*
X153005730Y-84075529D01*
X152869059Y-84132140D01*
X152723968Y-84161000D01*
X152576032Y-84161000D01*
X152430941Y-84132140D01*
X152294270Y-84075529D01*
X152294269Y-84075529D01*
X152294268Y-84075528D01*
X152171265Y-83993340D01*
X152066660Y-83888735D01*
X151984472Y-83765732D01*
X151980112Y-83755205D01*
X151927860Y-83629059D01*
X151899000Y-83483968D01*
X151899000Y-83336032D01*
X151927860Y-83190941D01*
X151984471Y-83054270D01*
X151984472Y-83054268D01*
X152066660Y-82931265D01*
X152171265Y-82826660D01*
X152294268Y-82744472D01*
X152430941Y-82687860D01*
X152576032Y-82659000D01*
X152723968Y-82659000D01*
X152869059Y-82687860D01*
G37*
G36*
X108469059Y-82687860D02*
G01*
X108605732Y-82744472D01*
X108728735Y-82826660D01*
X108833340Y-82931265D01*
X108915528Y-83054268D01*
X108915529Y-83054270D01*
X108972140Y-83190941D01*
X109001000Y-83336032D01*
X109001000Y-83483968D01*
X108972140Y-83629059D01*
X108919889Y-83755205D01*
X108915528Y-83765732D01*
X108833340Y-83888735D01*
X108728735Y-83993340D01*
X108605732Y-84075528D01*
X108605731Y-84075529D01*
X108605730Y-84075529D01*
X108469059Y-84132140D01*
X108323968Y-84161000D01*
X108176032Y-84161000D01*
X108030941Y-84132140D01*
X107894270Y-84075529D01*
X107894269Y-84075529D01*
X107894268Y-84075528D01*
X107771265Y-83993340D01*
X107666660Y-83888735D01*
X107584472Y-83765732D01*
X107580112Y-83755205D01*
X107527860Y-83629059D01*
X107499000Y-83483968D01*
X107499000Y-83336032D01*
X107527860Y-83190941D01*
X107584471Y-83054270D01*
X107584472Y-83054268D01*
X107666660Y-82931265D01*
X107771265Y-82826660D01*
X107894268Y-82744472D01*
X108030941Y-82687860D01*
X108176032Y-82659000D01*
X108323968Y-82659000D01*
X108469059Y-82687860D01*
G37*
G36*
X112169059Y-82687860D02*
G01*
X112305732Y-82744472D01*
X112428735Y-82826660D01*
X112533340Y-82931265D01*
X112615528Y-83054268D01*
X112615529Y-83054270D01*
X112672140Y-83190941D01*
X112701000Y-83336032D01*
X112701000Y-83483968D01*
X112672140Y-83629059D01*
X112619889Y-83755205D01*
X112615528Y-83765732D01*
X112533340Y-83888735D01*
X112428735Y-83993340D01*
X112305732Y-84075528D01*
X112305731Y-84075529D01*
X112305730Y-84075529D01*
X112169059Y-84132140D01*
X112023968Y-84161000D01*
X111876032Y-84161000D01*
X111730941Y-84132140D01*
X111594270Y-84075529D01*
X111594269Y-84075529D01*
X111594268Y-84075528D01*
X111471265Y-83993340D01*
X111366660Y-83888735D01*
X111284472Y-83765732D01*
X111280112Y-83755205D01*
X111227860Y-83629059D01*
X111199000Y-83483968D01*
X111199000Y-83336032D01*
X111227860Y-83190941D01*
X111284471Y-83054270D01*
X111284472Y-83054268D01*
X111366660Y-82931265D01*
X111471265Y-82826660D01*
X111594268Y-82744472D01*
X111730941Y-82687860D01*
X111876032Y-82659000D01*
X112023968Y-82659000D01*
X112169059Y-82687860D01*
G37*
G36*
X115869059Y-82687860D02*
G01*
X116005732Y-82744472D01*
X116128735Y-82826660D01*
X116233340Y-82931265D01*
X116315528Y-83054268D01*
X116315529Y-83054270D01*
X116372140Y-83190941D01*
X116401000Y-83336032D01*
X116401000Y-83483968D01*
X116372140Y-83629059D01*
X116319889Y-83755205D01*
X116315528Y-83765732D01*
X116233340Y-83888735D01*
X116128735Y-83993340D01*
X116005732Y-84075528D01*
X116005731Y-84075529D01*
X116005730Y-84075529D01*
X115869059Y-84132140D01*
X115723968Y-84161000D01*
X115576032Y-84161000D01*
X115430941Y-84132140D01*
X115294270Y-84075529D01*
X115294269Y-84075529D01*
X115294268Y-84075528D01*
X115171265Y-83993340D01*
X115066660Y-83888735D01*
X114984472Y-83765732D01*
X114980112Y-83755205D01*
X114927860Y-83629059D01*
X114899000Y-83483968D01*
X114899000Y-83336032D01*
X114927860Y-83190941D01*
X114984471Y-83054270D01*
X114984472Y-83054268D01*
X115066660Y-82931265D01*
X115171265Y-82826660D01*
X115294268Y-82744472D01*
X115430941Y-82687860D01*
X115576032Y-82659000D01*
X115723968Y-82659000D01*
X115869059Y-82687860D01*
G37*
G36*
X119569059Y-82687860D02*
G01*
X119705732Y-82744472D01*
X119828735Y-82826660D01*
X119933340Y-82931265D01*
X120015528Y-83054268D01*
X120015529Y-83054270D01*
X120072140Y-83190941D01*
X120101000Y-83336032D01*
X120101000Y-83483968D01*
X120072140Y-83629059D01*
X120019889Y-83755205D01*
X120015528Y-83765732D01*
X119933340Y-83888735D01*
X119828735Y-83993340D01*
X119705732Y-84075528D01*
X119705731Y-84075529D01*
X119705730Y-84075529D01*
X119569059Y-84132140D01*
X119423968Y-84161000D01*
X119276032Y-84161000D01*
X119130941Y-84132140D01*
X118994270Y-84075529D01*
X118994269Y-84075529D01*
X118994268Y-84075528D01*
X118871265Y-83993340D01*
X118766660Y-83888735D01*
X118684472Y-83765732D01*
X118680112Y-83755205D01*
X118627860Y-83629059D01*
X118599000Y-83483968D01*
X118599000Y-83336032D01*
X118627860Y-83190941D01*
X118684471Y-83054270D01*
X118684472Y-83054268D01*
X118766660Y-82931265D01*
X118871265Y-82826660D01*
X118994268Y-82744472D01*
X119130941Y-82687860D01*
X119276032Y-82659000D01*
X119423968Y-82659000D01*
X119569059Y-82687860D01*
G37*
G36*
X123269059Y-82687860D02*
G01*
X123405732Y-82744472D01*
X123528735Y-82826660D01*
X123633340Y-82931265D01*
X123715528Y-83054268D01*
X123715529Y-83054270D01*
X123772140Y-83190941D01*
X123801000Y-83336032D01*
X123801000Y-83483968D01*
X123772140Y-83629059D01*
X123719889Y-83755205D01*
X123715528Y-83765732D01*
X123633340Y-83888735D01*
X123528735Y-83993340D01*
X123405732Y-84075528D01*
X123405731Y-84075529D01*
X123405730Y-84075529D01*
X123269059Y-84132140D01*
X123123968Y-84161000D01*
X122976032Y-84161000D01*
X122830941Y-84132140D01*
X122694270Y-84075529D01*
X122694269Y-84075529D01*
X122694268Y-84075528D01*
X122571265Y-83993340D01*
X122466660Y-83888735D01*
X122384472Y-83765732D01*
X122380112Y-83755205D01*
X122327860Y-83629059D01*
X122299000Y-83483968D01*
X122299000Y-83336032D01*
X122327860Y-83190941D01*
X122384471Y-83054270D01*
X122384472Y-83054268D01*
X122466660Y-82931265D01*
X122571265Y-82826660D01*
X122694268Y-82744472D01*
X122830941Y-82687860D01*
X122976032Y-82659000D01*
X123123968Y-82659000D01*
X123269059Y-82687860D01*
G37*
G36*
X126969059Y-82687860D02*
G01*
X127105732Y-82744472D01*
X127228735Y-82826660D01*
X127333340Y-82931265D01*
X127415528Y-83054268D01*
X127415529Y-83054270D01*
X127472140Y-83190941D01*
X127501000Y-83336032D01*
X127501000Y-83483968D01*
X127472140Y-83629059D01*
X127419889Y-83755205D01*
X127415528Y-83765732D01*
X127333340Y-83888735D01*
X127228735Y-83993340D01*
X127105732Y-84075528D01*
X127105731Y-84075529D01*
X127105730Y-84075529D01*
X126969059Y-84132140D01*
X126823968Y-84161000D01*
X126676032Y-84161000D01*
X126530941Y-84132140D01*
X126394270Y-84075529D01*
X126394269Y-84075529D01*
X126394268Y-84075528D01*
X126271265Y-83993340D01*
X126166660Y-83888735D01*
X126084472Y-83765732D01*
X126080112Y-83755205D01*
X126027860Y-83629059D01*
X125999000Y-83483968D01*
X125999000Y-83336032D01*
X126027860Y-83190941D01*
X126084471Y-83054270D01*
X126084472Y-83054268D01*
X126166660Y-82931265D01*
X126271265Y-82826660D01*
X126394268Y-82744472D01*
X126530941Y-82687860D01*
X126676032Y-82659000D01*
X126823968Y-82659000D01*
X126969059Y-82687860D01*
G37*
G36*
X141769059Y-82687860D02*
G01*
X141905732Y-82744472D01*
X142028735Y-82826660D01*
X142133340Y-82931265D01*
X142215528Y-83054268D01*
X142215529Y-83054270D01*
X142272140Y-83190941D01*
X142301000Y-83336032D01*
X142301000Y-83483968D01*
X142272140Y-83629059D01*
X142219889Y-83755205D01*
X142215528Y-83765732D01*
X142133340Y-83888735D01*
X142028735Y-83993340D01*
X141905732Y-84075528D01*
X141905731Y-84075529D01*
X141905730Y-84075529D01*
X141769059Y-84132140D01*
X141623968Y-84161000D01*
X141476032Y-84161000D01*
X141330941Y-84132140D01*
X141194270Y-84075529D01*
X141194269Y-84075529D01*
X141194268Y-84075528D01*
X141071265Y-83993340D01*
X140966660Y-83888735D01*
X140884472Y-83765732D01*
X140880112Y-83755205D01*
X140827860Y-83629059D01*
X140799000Y-83483968D01*
X140799000Y-83336032D01*
X140827860Y-83190941D01*
X140884471Y-83054270D01*
X140884472Y-83054268D01*
X140966660Y-82931265D01*
X141071265Y-82826660D01*
X141194268Y-82744472D01*
X141330941Y-82687860D01*
X141476032Y-82659000D01*
X141623968Y-82659000D01*
X141769059Y-82687860D01*
G37*
G36*
X138069059Y-82687860D02*
G01*
X138205732Y-82744472D01*
X138328735Y-82826660D01*
X138433340Y-82931265D01*
X138515528Y-83054268D01*
X138515529Y-83054270D01*
X138572140Y-83190941D01*
X138601000Y-83336032D01*
X138601000Y-83483968D01*
X138572140Y-83629059D01*
X138519889Y-83755205D01*
X138515528Y-83765732D01*
X138433340Y-83888735D01*
X138328735Y-83993340D01*
X138205732Y-84075528D01*
X138205731Y-84075529D01*
X138205730Y-84075529D01*
X138069059Y-84132140D01*
X137923968Y-84161000D01*
X137776032Y-84161000D01*
X137630941Y-84132140D01*
X137494270Y-84075529D01*
X137494269Y-84075529D01*
X137494268Y-84075528D01*
X137371265Y-83993340D01*
X137266660Y-83888735D01*
X137184472Y-83765732D01*
X137180112Y-83755205D01*
X137127860Y-83629059D01*
X137099000Y-83483968D01*
X137099000Y-83336032D01*
X137127860Y-83190941D01*
X137184471Y-83054270D01*
X137184472Y-83054268D01*
X137266660Y-82931265D01*
X137371265Y-82826660D01*
X137494268Y-82744472D01*
X137630941Y-82687860D01*
X137776032Y-82659000D01*
X137923968Y-82659000D01*
X138069059Y-82687860D01*
G37*
G36*
X134369059Y-82687860D02*
G01*
X134505732Y-82744472D01*
X134628735Y-82826660D01*
X134733340Y-82931265D01*
X134815528Y-83054268D01*
X134815529Y-83054270D01*
X134872140Y-83190941D01*
X134901000Y-83336032D01*
X134901000Y-83483968D01*
X134872140Y-83629059D01*
X134819889Y-83755205D01*
X134815528Y-83765732D01*
X134733340Y-83888735D01*
X134628735Y-83993340D01*
X134505732Y-84075528D01*
X134505731Y-84075529D01*
X134505730Y-84075529D01*
X134369059Y-84132140D01*
X134223968Y-84161000D01*
X134076032Y-84161000D01*
X133930941Y-84132140D01*
X133794270Y-84075529D01*
X133794269Y-84075529D01*
X133794268Y-84075528D01*
X133671265Y-83993340D01*
X133566660Y-83888735D01*
X133484472Y-83765732D01*
X133480112Y-83755205D01*
X133427860Y-83629059D01*
X133399000Y-83483968D01*
X133399000Y-83336032D01*
X133427860Y-83190941D01*
X133484471Y-83054270D01*
X133484472Y-83054268D01*
X133566660Y-82931265D01*
X133671265Y-82826660D01*
X133794268Y-82744472D01*
X133930941Y-82687860D01*
X134076032Y-82659000D01*
X134223968Y-82659000D01*
X134369059Y-82687860D01*
G37*
G36*
X145469059Y-82687860D02*
G01*
X145605732Y-82744472D01*
X145728735Y-82826660D01*
X145833340Y-82931265D01*
X145915528Y-83054268D01*
X145915529Y-83054270D01*
X145972140Y-83190941D01*
X146001000Y-83336032D01*
X146001000Y-83483968D01*
X145972140Y-83629059D01*
X145919889Y-83755205D01*
X145915528Y-83765732D01*
X145833340Y-83888735D01*
X145728735Y-83993340D01*
X145605732Y-84075528D01*
X145605731Y-84075529D01*
X145605730Y-84075529D01*
X145469059Y-84132140D01*
X145323968Y-84161000D01*
X145176032Y-84161000D01*
X145030941Y-84132140D01*
X144894270Y-84075529D01*
X144894269Y-84075529D01*
X144894268Y-84075528D01*
X144771265Y-83993340D01*
X144666660Y-83888735D01*
X144584472Y-83765732D01*
X144580112Y-83755205D01*
X144527860Y-83629059D01*
X144499000Y-83483968D01*
X144499000Y-83336032D01*
X144527860Y-83190941D01*
X144584471Y-83054270D01*
X144584472Y-83054268D01*
X144666660Y-82931265D01*
X144771265Y-82826660D01*
X144894268Y-82744472D01*
X145030941Y-82687860D01*
X145176032Y-82659000D01*
X145323968Y-82659000D01*
X145469059Y-82687860D01*
G37*
G36*
X97564794Y-81820155D02*
G01*
X97671150Y-81841311D01*
X97771334Y-81882809D01*
X97871520Y-81924307D01*
X98051844Y-82044795D01*
X98205205Y-82198156D01*
X98325693Y-82378480D01*
X98408689Y-82578851D01*
X98451000Y-82791560D01*
X98451000Y-83008440D01*
X98408689Y-83221149D01*
X98325693Y-83421520D01*
X98205205Y-83601844D01*
X98051844Y-83755205D01*
X97871520Y-83875693D01*
X97771334Y-83917191D01*
X97671150Y-83958689D01*
X97564795Y-83979844D01*
X97458440Y-84001000D01*
X97241560Y-84001000D01*
X97135205Y-83979844D01*
X97028850Y-83958689D01*
X96828480Y-83875693D01*
X96648156Y-83755205D01*
X96494795Y-83601844D01*
X96374307Y-83421520D01*
X96291311Y-83221149D01*
X96249000Y-83008440D01*
X96249000Y-82791560D01*
X96291311Y-82578851D01*
X96374307Y-82378480D01*
X96494795Y-82198156D01*
X96648156Y-82044795D01*
X96828480Y-81924307D01*
X97028850Y-81841311D01*
X97135206Y-81820155D01*
X97241560Y-81799000D01*
X97458440Y-81799000D01*
X97564794Y-81820155D01*
G37*
G36*
X100954794Y-81820155D02*
G01*
X101061150Y-81841311D01*
X101161334Y-81882809D01*
X101261520Y-81924307D01*
X101441844Y-82044795D01*
X101595205Y-82198156D01*
X101715693Y-82378480D01*
X101798689Y-82578851D01*
X101841000Y-82791560D01*
X101841000Y-83008440D01*
X101798689Y-83221149D01*
X101715693Y-83421520D01*
X101595205Y-83601844D01*
X101441844Y-83755205D01*
X101261520Y-83875693D01*
X101161334Y-83917191D01*
X101061150Y-83958689D01*
X100954795Y-83979844D01*
X100848440Y-84001000D01*
X100631560Y-84001000D01*
X100525205Y-83979844D01*
X100418850Y-83958689D01*
X100218480Y-83875693D01*
X100038156Y-83755205D01*
X99884795Y-83601844D01*
X99764307Y-83421520D01*
X99681311Y-83221149D01*
X99639000Y-83008440D01*
X99639000Y-82791560D01*
X99681311Y-82578851D01*
X99764307Y-82378480D01*
X99884795Y-82198156D01*
X100038156Y-82044795D01*
X100218480Y-81924307D01*
X100418850Y-81841311D01*
X100525206Y-81820155D01*
X100631560Y-81799000D01*
X100848440Y-81799000D01*
X100954794Y-81820155D01*
G37*
G36*
X108469059Y-77527860D02*
G01*
X108605732Y-77584472D01*
X108728735Y-77666660D01*
X108833340Y-77771265D01*
X108915528Y-77894268D01*
X108972140Y-78030941D01*
X109001000Y-78176033D01*
X109001000Y-78323967D01*
X108972140Y-78469059D01*
X108915528Y-78605732D01*
X108833340Y-78728735D01*
X108728735Y-78833340D01*
X108605732Y-78915528D01*
X108605731Y-78915529D01*
X108605730Y-78915529D01*
X108469059Y-78972140D01*
X108323968Y-79001000D01*
X108176032Y-79001000D01*
X108030941Y-78972140D01*
X107894270Y-78915529D01*
X107894269Y-78915529D01*
X107894268Y-78915528D01*
X107771265Y-78833340D01*
X107666660Y-78728735D01*
X107584472Y-78605732D01*
X107527860Y-78469059D01*
X107499000Y-78323967D01*
X107499000Y-78176033D01*
X107527860Y-78030941D01*
X107584472Y-77894268D01*
X107666660Y-77771265D01*
X107771265Y-77666660D01*
X107894268Y-77584472D01*
X108030941Y-77527860D01*
X108176032Y-77499000D01*
X108323968Y-77499000D01*
X108469059Y-77527860D01*
G37*
G36*
X115869059Y-77527860D02*
G01*
X116005732Y-77584472D01*
X116128735Y-77666660D01*
X116233340Y-77771265D01*
X116315528Y-77894268D01*
X116372140Y-78030941D01*
X116401000Y-78176033D01*
X116401000Y-78323967D01*
X116372140Y-78469059D01*
X116315528Y-78605732D01*
X116233340Y-78728735D01*
X116128735Y-78833340D01*
X116005732Y-78915528D01*
X116005731Y-78915529D01*
X116005730Y-78915529D01*
X115869059Y-78972140D01*
X115723968Y-79001000D01*
X115576032Y-79001000D01*
X115430941Y-78972140D01*
X115294270Y-78915529D01*
X115294269Y-78915529D01*
X115294268Y-78915528D01*
X115171265Y-78833340D01*
X115066660Y-78728735D01*
X114984472Y-78605732D01*
X114927860Y-78469059D01*
X114899000Y-78323967D01*
X114899000Y-78176033D01*
X114927860Y-78030941D01*
X114984472Y-77894268D01*
X115066660Y-77771265D01*
X115171265Y-77666660D01*
X115294268Y-77584472D01*
X115430941Y-77527860D01*
X115576032Y-77499000D01*
X115723968Y-77499000D01*
X115869059Y-77527860D01*
G37*
G36*
X112169059Y-77527860D02*
G01*
X112305732Y-77584472D01*
X112428735Y-77666660D01*
X112533340Y-77771265D01*
X112615528Y-77894268D01*
X112672140Y-78030941D01*
X112701000Y-78176033D01*
X112701000Y-78323967D01*
X112672140Y-78469059D01*
X112615528Y-78605732D01*
X112533340Y-78728735D01*
X112428735Y-78833340D01*
X112305732Y-78915528D01*
X112305731Y-78915529D01*
X112305730Y-78915529D01*
X112169059Y-78972140D01*
X112023968Y-79001000D01*
X111876032Y-79001000D01*
X111730941Y-78972140D01*
X111594270Y-78915529D01*
X111594269Y-78915529D01*
X111594268Y-78915528D01*
X111471265Y-78833340D01*
X111366660Y-78728735D01*
X111284472Y-78605732D01*
X111227860Y-78469059D01*
X111199000Y-78323967D01*
X111199000Y-78176033D01*
X111227860Y-78030941D01*
X111284472Y-77894268D01*
X111366660Y-77771265D01*
X111471265Y-77666660D01*
X111594268Y-77584472D01*
X111730941Y-77527860D01*
X111876032Y-77499000D01*
X112023968Y-77499000D01*
X112169059Y-77527860D01*
G37*
G36*
X141769059Y-77527860D02*
G01*
X141905732Y-77584472D01*
X142028735Y-77666660D01*
X142133340Y-77771265D01*
X142215528Y-77894268D01*
X142272140Y-78030941D01*
X142301000Y-78176033D01*
X142301000Y-78323967D01*
X142272140Y-78469059D01*
X142215528Y-78605732D01*
X142133340Y-78728735D01*
X142028735Y-78833340D01*
X141905732Y-78915528D01*
X141905731Y-78915529D01*
X141905730Y-78915529D01*
X141769059Y-78972140D01*
X141623968Y-79001000D01*
X141476032Y-79001000D01*
X141330941Y-78972140D01*
X141194270Y-78915529D01*
X141194269Y-78915529D01*
X141194268Y-78915528D01*
X141071265Y-78833340D01*
X140966660Y-78728735D01*
X140884472Y-78605732D01*
X140827860Y-78469059D01*
X140799000Y-78323967D01*
X140799000Y-78176033D01*
X140827860Y-78030941D01*
X140884472Y-77894268D01*
X140966660Y-77771265D01*
X141071265Y-77666660D01*
X141194268Y-77584472D01*
X141330941Y-77527860D01*
X141476032Y-77499000D01*
X141623968Y-77499000D01*
X141769059Y-77527860D01*
G37*
G36*
X126969059Y-77527860D02*
G01*
X127105732Y-77584472D01*
X127228735Y-77666660D01*
X127333340Y-77771265D01*
X127415528Y-77894268D01*
X127472140Y-78030941D01*
X127501000Y-78176033D01*
X127501000Y-78323967D01*
X127472140Y-78469059D01*
X127415528Y-78605732D01*
X127333340Y-78728735D01*
X127228735Y-78833340D01*
X127105732Y-78915528D01*
X127105731Y-78915529D01*
X127105730Y-78915529D01*
X126969059Y-78972140D01*
X126823968Y-79001000D01*
X126676032Y-79001000D01*
X126530941Y-78972140D01*
X126394270Y-78915529D01*
X126394269Y-78915529D01*
X126394268Y-78915528D01*
X126271265Y-78833340D01*
X126166660Y-78728735D01*
X126084472Y-78605732D01*
X126027860Y-78469059D01*
X125999000Y-78323967D01*
X125999000Y-78176033D01*
X126027860Y-78030941D01*
X126084472Y-77894268D01*
X126166660Y-77771265D01*
X126271265Y-77666660D01*
X126394268Y-77584472D01*
X126530941Y-77527860D01*
X126676032Y-77499000D01*
X126823968Y-77499000D01*
X126969059Y-77527860D01*
G37*
G36*
X130669059Y-77527860D02*
G01*
X130805732Y-77584472D01*
X130928735Y-77666660D01*
X131033340Y-77771265D01*
X131115528Y-77894268D01*
X131172140Y-78030941D01*
X131201000Y-78176033D01*
X131201000Y-78323967D01*
X131172140Y-78469059D01*
X131115528Y-78605732D01*
X131033340Y-78728735D01*
X130928735Y-78833340D01*
X130805732Y-78915528D01*
X130805731Y-78915529D01*
X130805730Y-78915529D01*
X130669059Y-78972140D01*
X130523968Y-79001000D01*
X130376032Y-79001000D01*
X130230941Y-78972140D01*
X130094270Y-78915529D01*
X130094269Y-78915529D01*
X130094268Y-78915528D01*
X129971265Y-78833340D01*
X129866660Y-78728735D01*
X129784472Y-78605732D01*
X129727860Y-78469059D01*
X129699000Y-78323967D01*
X129699000Y-78176033D01*
X129727860Y-78030941D01*
X129784472Y-77894268D01*
X129866660Y-77771265D01*
X129971265Y-77666660D01*
X130094268Y-77584472D01*
X130230941Y-77527860D01*
X130376032Y-77499000D01*
X130523968Y-77499000D01*
X130669059Y-77527860D01*
G37*
G36*
X123269059Y-77527860D02*
G01*
X123405732Y-77584472D01*
X123528735Y-77666660D01*
X123633340Y-77771265D01*
X123715528Y-77894268D01*
X123772140Y-78030941D01*
X123801000Y-78176033D01*
X123801000Y-78323967D01*
X123772140Y-78469059D01*
X123715528Y-78605732D01*
X123633340Y-78728735D01*
X123528735Y-78833340D01*
X123405732Y-78915528D01*
X123405731Y-78915529D01*
X123405730Y-78915529D01*
X123269059Y-78972140D01*
X123123968Y-79001000D01*
X122976032Y-79001000D01*
X122830941Y-78972140D01*
X122694270Y-78915529D01*
X122694269Y-78915529D01*
X122694268Y-78915528D01*
X122571265Y-78833340D01*
X122466660Y-78728735D01*
X122384472Y-78605732D01*
X122327860Y-78469059D01*
X122299000Y-78323967D01*
X122299000Y-78176033D01*
X122327860Y-78030941D01*
X122384472Y-77894268D01*
X122466660Y-77771265D01*
X122571265Y-77666660D01*
X122694268Y-77584472D01*
X122830941Y-77527860D01*
X122976032Y-77499000D01*
X123123968Y-77499000D01*
X123269059Y-77527860D01*
G37*
G36*
X156569059Y-77527860D02*
G01*
X156705732Y-77584472D01*
X156828735Y-77666660D01*
X156933340Y-77771265D01*
X157015528Y-77894268D01*
X157072140Y-78030941D01*
X157101000Y-78176033D01*
X157101000Y-78323967D01*
X157072140Y-78469059D01*
X157015528Y-78605732D01*
X156933340Y-78728735D01*
X156828735Y-78833340D01*
X156705732Y-78915528D01*
X156705731Y-78915529D01*
X156705730Y-78915529D01*
X156569059Y-78972140D01*
X156423968Y-79001000D01*
X156276032Y-79001000D01*
X156130941Y-78972140D01*
X155994270Y-78915529D01*
X155994269Y-78915529D01*
X155994268Y-78915528D01*
X155871265Y-78833340D01*
X155766660Y-78728735D01*
X155684472Y-78605732D01*
X155627860Y-78469059D01*
X155599000Y-78323967D01*
X155599000Y-78176033D01*
X155627860Y-78030941D01*
X155684472Y-77894268D01*
X155766660Y-77771265D01*
X155871265Y-77666660D01*
X155994268Y-77584472D01*
X156130941Y-77527860D01*
X156276032Y-77499000D01*
X156423968Y-77499000D01*
X156569059Y-77527860D01*
G37*
G36*
X145469059Y-77527860D02*
G01*
X145605732Y-77584472D01*
X145728735Y-77666660D01*
X145833340Y-77771265D01*
X145915528Y-77894268D01*
X145972140Y-78030941D01*
X146001000Y-78176033D01*
X146001000Y-78323967D01*
X145972140Y-78469059D01*
X145915528Y-78605732D01*
X145833340Y-78728735D01*
X145728735Y-78833340D01*
X145605732Y-78915528D01*
X145605731Y-78915529D01*
X145605730Y-78915529D01*
X145469059Y-78972140D01*
X145323968Y-79001000D01*
X145176032Y-79001000D01*
X145030941Y-78972140D01*
X144894270Y-78915529D01*
X144894269Y-78915529D01*
X144894268Y-78915528D01*
X144771265Y-78833340D01*
X144666660Y-78728735D01*
X144584472Y-78605732D01*
X144527860Y-78469059D01*
X144499000Y-78323967D01*
X144499000Y-78176033D01*
X144527860Y-78030941D01*
X144584472Y-77894268D01*
X144666660Y-77771265D01*
X144771265Y-77666660D01*
X144894268Y-77584472D01*
X145030941Y-77527860D01*
X145176032Y-77499000D01*
X145323968Y-77499000D01*
X145469059Y-77527860D01*
G37*
G36*
X138069059Y-77527860D02*
G01*
X138205732Y-77584472D01*
X138328735Y-77666660D01*
X138433340Y-77771265D01*
X138515528Y-77894268D01*
X138572140Y-78030941D01*
X138601000Y-78176033D01*
X138601000Y-78323967D01*
X138572140Y-78469059D01*
X138515528Y-78605732D01*
X138433340Y-78728735D01*
X138328735Y-78833340D01*
X138205732Y-78915528D01*
X138205731Y-78915529D01*
X138205730Y-78915529D01*
X138069059Y-78972140D01*
X137923968Y-79001000D01*
X137776032Y-79001000D01*
X137630941Y-78972140D01*
X137494270Y-78915529D01*
X137494269Y-78915529D01*
X137494268Y-78915528D01*
X137371265Y-78833340D01*
X137266660Y-78728735D01*
X137184472Y-78605732D01*
X137127860Y-78469059D01*
X137099000Y-78323967D01*
X137099000Y-78176033D01*
X137127860Y-78030941D01*
X137184472Y-77894268D01*
X137266660Y-77771265D01*
X137371265Y-77666660D01*
X137494268Y-77584472D01*
X137630941Y-77527860D01*
X137776032Y-77499000D01*
X137923968Y-77499000D01*
X138069059Y-77527860D01*
G37*
G36*
X149169059Y-77527860D02*
G01*
X149305732Y-77584472D01*
X149428735Y-77666660D01*
X149533340Y-77771265D01*
X149615528Y-77894268D01*
X149672140Y-78030941D01*
X149701000Y-78176033D01*
X149701000Y-78323967D01*
X149672140Y-78469059D01*
X149615528Y-78605732D01*
X149533340Y-78728735D01*
X149428735Y-78833340D01*
X149305732Y-78915528D01*
X149305731Y-78915529D01*
X149305730Y-78915529D01*
X149169059Y-78972140D01*
X149023968Y-79001000D01*
X148876032Y-79001000D01*
X148730941Y-78972140D01*
X148594270Y-78915529D01*
X148594269Y-78915529D01*
X148594268Y-78915528D01*
X148471265Y-78833340D01*
X148366660Y-78728735D01*
X148284472Y-78605732D01*
X148227860Y-78469059D01*
X148199000Y-78323967D01*
X148199000Y-78176033D01*
X148227860Y-78030941D01*
X148284472Y-77894268D01*
X148366660Y-77771265D01*
X148471265Y-77666660D01*
X148594268Y-77584472D01*
X148730941Y-77527860D01*
X148876032Y-77499000D01*
X149023968Y-77499000D01*
X149169059Y-77527860D01*
G37*
G36*
X152869059Y-77527860D02*
G01*
X153005732Y-77584472D01*
X153128735Y-77666660D01*
X153233340Y-77771265D01*
X153315528Y-77894268D01*
X153372140Y-78030941D01*
X153401000Y-78176033D01*
X153401000Y-78323967D01*
X153372140Y-78469059D01*
X153315528Y-78605732D01*
X153233340Y-78728735D01*
X153128735Y-78833340D01*
X153005732Y-78915528D01*
X153005731Y-78915529D01*
X153005730Y-78915529D01*
X152869059Y-78972140D01*
X152723968Y-79001000D01*
X152576032Y-79001000D01*
X152430941Y-78972140D01*
X152294270Y-78915529D01*
X152294269Y-78915529D01*
X152294268Y-78915528D01*
X152171265Y-78833340D01*
X152066660Y-78728735D01*
X151984472Y-78605732D01*
X151927860Y-78469059D01*
X151899000Y-78323967D01*
X151899000Y-78176033D01*
X151927860Y-78030941D01*
X151984472Y-77894268D01*
X152066660Y-77771265D01*
X152171265Y-77666660D01*
X152294268Y-77584472D01*
X152430941Y-77527860D01*
X152576032Y-77499000D01*
X152723968Y-77499000D01*
X152869059Y-77527860D01*
G37*
G36*
X119569059Y-77527860D02*
G01*
X119705732Y-77584472D01*
X119828735Y-77666660D01*
X119933340Y-77771265D01*
X120015528Y-77894268D01*
X120072140Y-78030941D01*
X120101000Y-78176033D01*
X120101000Y-78323967D01*
X120072140Y-78469059D01*
X120015528Y-78605732D01*
X119933340Y-78728735D01*
X119828735Y-78833340D01*
X119705732Y-78915528D01*
X119705731Y-78915529D01*
X119705730Y-78915529D01*
X119569059Y-78972140D01*
X119423968Y-79001000D01*
X119276032Y-79001000D01*
X119130941Y-78972140D01*
X118994270Y-78915529D01*
X118994269Y-78915529D01*
X118994268Y-78915528D01*
X118871265Y-78833340D01*
X118766660Y-78728735D01*
X118684472Y-78605732D01*
X118627860Y-78469059D01*
X118599000Y-78323967D01*
X118599000Y-78176033D01*
X118627860Y-78030941D01*
X118684472Y-77894268D01*
X118766660Y-77771265D01*
X118871265Y-77666660D01*
X118994268Y-77584472D01*
X119130941Y-77527860D01*
X119276032Y-77499000D01*
X119423968Y-77499000D01*
X119569059Y-77527860D01*
G37*
G36*
X134369059Y-77527860D02*
G01*
X134505732Y-77584472D01*
X134628735Y-77666660D01*
X134733340Y-77771265D01*
X134815528Y-77894268D01*
X134872140Y-78030941D01*
X134901000Y-78176033D01*
X134901000Y-78323967D01*
X134872140Y-78469059D01*
X134815528Y-78605732D01*
X134733340Y-78728735D01*
X134628735Y-78833340D01*
X134505732Y-78915528D01*
X134505731Y-78915529D01*
X134505730Y-78915529D01*
X134369059Y-78972140D01*
X134223968Y-79001000D01*
X134076032Y-79001000D01*
X133930941Y-78972140D01*
X133794270Y-78915529D01*
X133794269Y-78915529D01*
X133794268Y-78915528D01*
X133671265Y-78833340D01*
X133566660Y-78728735D01*
X133484472Y-78605732D01*
X133427860Y-78469059D01*
X133399000Y-78323967D01*
X133399000Y-78176033D01*
X133427860Y-78030941D01*
X133484472Y-77894268D01*
X133566660Y-77771265D01*
X133671265Y-77666660D01*
X133794268Y-77584472D01*
X133930941Y-77527860D01*
X134076032Y-77499000D01*
X134223968Y-77499000D01*
X134369059Y-77527860D01*
G37*
G36*
X97564795Y-76170156D02*
G01*
X97671150Y-76191311D01*
X97771334Y-76232809D01*
X97871520Y-76274307D01*
X98051844Y-76394795D01*
X98205205Y-76548156D01*
X98325693Y-76728480D01*
X98325693Y-76728481D01*
X98408689Y-76928850D01*
X98451000Y-77141561D01*
X98451000Y-77358439D01*
X98408689Y-77571150D01*
X98369128Y-77666659D01*
X98325693Y-77771520D01*
X98205205Y-77951844D01*
X98051844Y-78105205D01*
X97871520Y-78225693D01*
X97671150Y-78308689D01*
X97564794Y-78329845D01*
X97458440Y-78351000D01*
X97241560Y-78351000D01*
X97135206Y-78329845D01*
X97028850Y-78308689D01*
X96828480Y-78225693D01*
X96648156Y-78105205D01*
X96494795Y-77951844D01*
X96374307Y-77771520D01*
X96330872Y-77666659D01*
X96291311Y-77571150D01*
X96249000Y-77358439D01*
X96249000Y-77141561D01*
X96291311Y-76928850D01*
X96374307Y-76728481D01*
X96374307Y-76728480D01*
X96494795Y-76548156D01*
X96648156Y-76394795D01*
X96828480Y-76274307D01*
X97028850Y-76191311D01*
X97135205Y-76170156D01*
X97241560Y-76149000D01*
X97458440Y-76149000D01*
X97564795Y-76170156D01*
G37*
G36*
X100954795Y-76170156D02*
G01*
X101061150Y-76191311D01*
X101161334Y-76232809D01*
X101261520Y-76274307D01*
X101441844Y-76394795D01*
X101595205Y-76548156D01*
X101715693Y-76728480D01*
X101715693Y-76728481D01*
X101798689Y-76928850D01*
X101841000Y-77141561D01*
X101841000Y-77358439D01*
X101798689Y-77571150D01*
X101759128Y-77666659D01*
X101715693Y-77771520D01*
X101595205Y-77951844D01*
X101441844Y-78105205D01*
X101261520Y-78225693D01*
X101061150Y-78308689D01*
X100954794Y-78329845D01*
X100848440Y-78351000D01*
X100631560Y-78351000D01*
X100525206Y-78329845D01*
X100418850Y-78308689D01*
X100218480Y-78225693D01*
X100038156Y-78105205D01*
X99884795Y-77951844D01*
X99764307Y-77771520D01*
X99720872Y-77666659D01*
X99681311Y-77571150D01*
X99639000Y-77358439D01*
X99639000Y-77141561D01*
X99681311Y-76928850D01*
X99764307Y-76728481D01*
X99764307Y-76728480D01*
X99884795Y-76548156D01*
X100038156Y-76394795D01*
X100218480Y-76274307D01*
X100418850Y-76191311D01*
X100525205Y-76170156D01*
X100631560Y-76149000D01*
X100848440Y-76149000D01*
X100954795Y-76170156D01*
G37*
G36*
X149169059Y-74987860D02*
G01*
X149305732Y-75044472D01*
X149428735Y-75126660D01*
X149533340Y-75231265D01*
X149615528Y-75354268D01*
X149672140Y-75490941D01*
X149701000Y-75636033D01*
X149701000Y-75783967D01*
X149672140Y-75929059D01*
X149615528Y-76065732D01*
X149533340Y-76188735D01*
X149428735Y-76293340D01*
X149305732Y-76375528D01*
X149305731Y-76375529D01*
X149305730Y-76375529D01*
X149169059Y-76432140D01*
X149023968Y-76461000D01*
X148876032Y-76461000D01*
X148730941Y-76432140D01*
X148594270Y-76375529D01*
X148594269Y-76375529D01*
X148594268Y-76375528D01*
X148471265Y-76293340D01*
X148366660Y-76188735D01*
X148284472Y-76065732D01*
X148227860Y-75929059D01*
X148199000Y-75783967D01*
X148199000Y-75636033D01*
X148227860Y-75490941D01*
X148284472Y-75354268D01*
X148366660Y-75231265D01*
X148471265Y-75126660D01*
X148594268Y-75044472D01*
X148730941Y-74987860D01*
X148876032Y-74959000D01*
X149023968Y-74959000D01*
X149169059Y-74987860D01*
G37*
G36*
X126969059Y-74987860D02*
G01*
X127105732Y-75044472D01*
X127228735Y-75126660D01*
X127333340Y-75231265D01*
X127415528Y-75354268D01*
X127472140Y-75490941D01*
X127501000Y-75636033D01*
X127501000Y-75783967D01*
X127472140Y-75929059D01*
X127415528Y-76065732D01*
X127333340Y-76188735D01*
X127228735Y-76293340D01*
X127105732Y-76375528D01*
X127105731Y-76375529D01*
X127105730Y-76375529D01*
X126969059Y-76432140D01*
X126823968Y-76461000D01*
X126676032Y-76461000D01*
X126530941Y-76432140D01*
X126394270Y-76375529D01*
X126394269Y-76375529D01*
X126394268Y-76375528D01*
X126271265Y-76293340D01*
X126166660Y-76188735D01*
X126084472Y-76065732D01*
X126027860Y-75929059D01*
X125999000Y-75783967D01*
X125999000Y-75636033D01*
X126027860Y-75490941D01*
X126084472Y-75354268D01*
X126166660Y-75231265D01*
X126271265Y-75126660D01*
X126394268Y-75044472D01*
X126530941Y-74987860D01*
X126676032Y-74959000D01*
X126823968Y-74959000D01*
X126969059Y-74987860D01*
G37*
G36*
X130669059Y-74987860D02*
G01*
X130805732Y-75044472D01*
X130928735Y-75126660D01*
X131033340Y-75231265D01*
X131115528Y-75354268D01*
X131172140Y-75490941D01*
X131201000Y-75636033D01*
X131201000Y-75783967D01*
X131172140Y-75929059D01*
X131115528Y-76065732D01*
X131033340Y-76188735D01*
X130928735Y-76293340D01*
X130805732Y-76375528D01*
X130805731Y-76375529D01*
X130805730Y-76375529D01*
X130669059Y-76432140D01*
X130523968Y-76461000D01*
X130376032Y-76461000D01*
X130230941Y-76432140D01*
X130094270Y-76375529D01*
X130094269Y-76375529D01*
X130094268Y-76375528D01*
X129971265Y-76293340D01*
X129866660Y-76188735D01*
X129784472Y-76065732D01*
X129727860Y-75929059D01*
X129699000Y-75783967D01*
X129699000Y-75636033D01*
X129727860Y-75490941D01*
X129784472Y-75354268D01*
X129866660Y-75231265D01*
X129971265Y-75126660D01*
X130094268Y-75044472D01*
X130230941Y-74987860D01*
X130376032Y-74959000D01*
X130523968Y-74959000D01*
X130669059Y-74987860D01*
G37*
G36*
X141769059Y-74987860D02*
G01*
X141905732Y-75044472D01*
X142028735Y-75126660D01*
X142133340Y-75231265D01*
X142215528Y-75354268D01*
X142272140Y-75490941D01*
X142301000Y-75636033D01*
X142301000Y-75783967D01*
X142272140Y-75929059D01*
X142215528Y-76065732D01*
X142133340Y-76188735D01*
X142028735Y-76293340D01*
X141905732Y-76375528D01*
X141905731Y-76375529D01*
X141905730Y-76375529D01*
X141769059Y-76432140D01*
X141623968Y-76461000D01*
X141476032Y-76461000D01*
X141330941Y-76432140D01*
X141194270Y-76375529D01*
X141194269Y-76375529D01*
X141194268Y-76375528D01*
X141071265Y-76293340D01*
X140966660Y-76188735D01*
X140884472Y-76065732D01*
X140827860Y-75929059D01*
X140799000Y-75783967D01*
X140799000Y-75636033D01*
X140827860Y-75490941D01*
X140884472Y-75354268D01*
X140966660Y-75231265D01*
X141071265Y-75126660D01*
X141194268Y-75044472D01*
X141330941Y-74987860D01*
X141476032Y-74959000D01*
X141623968Y-74959000D01*
X141769059Y-74987860D01*
G37*
G36*
X138069059Y-74987860D02*
G01*
X138205732Y-75044472D01*
X138328735Y-75126660D01*
X138433340Y-75231265D01*
X138515528Y-75354268D01*
X138572140Y-75490941D01*
X138601000Y-75636033D01*
X138601000Y-75783967D01*
X138572140Y-75929059D01*
X138515528Y-76065732D01*
X138433340Y-76188735D01*
X138328735Y-76293340D01*
X138205732Y-76375528D01*
X138205731Y-76375529D01*
X138205730Y-76375529D01*
X138069059Y-76432140D01*
X137923968Y-76461000D01*
X137776032Y-76461000D01*
X137630941Y-76432140D01*
X137494270Y-76375529D01*
X137494269Y-76375529D01*
X137494268Y-76375528D01*
X137371265Y-76293340D01*
X137266660Y-76188735D01*
X137184472Y-76065732D01*
X137127860Y-75929059D01*
X137099000Y-75783967D01*
X137099000Y-75636033D01*
X137127860Y-75490941D01*
X137184472Y-75354268D01*
X137266660Y-75231265D01*
X137371265Y-75126660D01*
X137494268Y-75044472D01*
X137630941Y-74987860D01*
X137776032Y-74959000D01*
X137923968Y-74959000D01*
X138069059Y-74987860D01*
G37*
G36*
X145469059Y-74987860D02*
G01*
X145605732Y-75044472D01*
X145728735Y-75126660D01*
X145833340Y-75231265D01*
X145915528Y-75354268D01*
X145972140Y-75490941D01*
X146001000Y-75636033D01*
X146001000Y-75783967D01*
X145972140Y-75929059D01*
X145915528Y-76065732D01*
X145833340Y-76188735D01*
X145728735Y-76293340D01*
X145605732Y-76375528D01*
X145605731Y-76375529D01*
X145605730Y-76375529D01*
X145469059Y-76432140D01*
X145323968Y-76461000D01*
X145176032Y-76461000D01*
X145030941Y-76432140D01*
X144894270Y-76375529D01*
X144894269Y-76375529D01*
X144894268Y-76375528D01*
X144771265Y-76293340D01*
X144666660Y-76188735D01*
X144584472Y-76065732D01*
X144527860Y-75929059D01*
X144499000Y-75783967D01*
X144499000Y-75636033D01*
X144527860Y-75490941D01*
X144584472Y-75354268D01*
X144666660Y-75231265D01*
X144771265Y-75126660D01*
X144894268Y-75044472D01*
X145030941Y-74987860D01*
X145176032Y-74959000D01*
X145323968Y-74959000D01*
X145469059Y-74987860D01*
G37*
G36*
X119569059Y-74987860D02*
G01*
X119705732Y-75044472D01*
X119828735Y-75126660D01*
X119933340Y-75231265D01*
X120015528Y-75354268D01*
X120072140Y-75490941D01*
X120101000Y-75636033D01*
X120101000Y-75783967D01*
X120072140Y-75929059D01*
X120015528Y-76065732D01*
X119933340Y-76188735D01*
X119828735Y-76293340D01*
X119705732Y-76375528D01*
X119705731Y-76375529D01*
X119705730Y-76375529D01*
X119569059Y-76432140D01*
X119423968Y-76461000D01*
X119276032Y-76461000D01*
X119130941Y-76432140D01*
X118994270Y-76375529D01*
X118994269Y-76375529D01*
X118994268Y-76375528D01*
X118871265Y-76293340D01*
X118766660Y-76188735D01*
X118684472Y-76065732D01*
X118627860Y-75929059D01*
X118599000Y-75783967D01*
X118599000Y-75636033D01*
X118627860Y-75490941D01*
X118684472Y-75354268D01*
X118766660Y-75231265D01*
X118871265Y-75126660D01*
X118994268Y-75044472D01*
X119130941Y-74987860D01*
X119276032Y-74959000D01*
X119423968Y-74959000D01*
X119569059Y-74987860D01*
G37*
G36*
X123269059Y-74987860D02*
G01*
X123405732Y-75044472D01*
X123528735Y-75126660D01*
X123633340Y-75231265D01*
X123715528Y-75354268D01*
X123772140Y-75490941D01*
X123801000Y-75636033D01*
X123801000Y-75783967D01*
X123772140Y-75929059D01*
X123715528Y-76065732D01*
X123633340Y-76188735D01*
X123528735Y-76293340D01*
X123405732Y-76375528D01*
X123405731Y-76375529D01*
X123405730Y-76375529D01*
X123269059Y-76432140D01*
X123123968Y-76461000D01*
X122976032Y-76461000D01*
X122830941Y-76432140D01*
X122694270Y-76375529D01*
X122694269Y-76375529D01*
X122694268Y-76375528D01*
X122571265Y-76293340D01*
X122466660Y-76188735D01*
X122384472Y-76065732D01*
X122327860Y-75929059D01*
X122299000Y-75783967D01*
X122299000Y-75636033D01*
X122327860Y-75490941D01*
X122384472Y-75354268D01*
X122466660Y-75231265D01*
X122571265Y-75126660D01*
X122694268Y-75044472D01*
X122830941Y-74987860D01*
X122976032Y-74959000D01*
X123123968Y-74959000D01*
X123269059Y-74987860D01*
G37*
G36*
X134369059Y-74987860D02*
G01*
X134505732Y-75044472D01*
X134628735Y-75126660D01*
X134733340Y-75231265D01*
X134815528Y-75354268D01*
X134872140Y-75490941D01*
X134901000Y-75636033D01*
X134901000Y-75783967D01*
X134872140Y-75929059D01*
X134815528Y-76065732D01*
X134733340Y-76188735D01*
X134628735Y-76293340D01*
X134505732Y-76375528D01*
X134505731Y-76375529D01*
X134505730Y-76375529D01*
X134369059Y-76432140D01*
X134223968Y-76461000D01*
X134076032Y-76461000D01*
X133930941Y-76432140D01*
X133794270Y-76375529D01*
X133794269Y-76375529D01*
X133794268Y-76375528D01*
X133671265Y-76293340D01*
X133566660Y-76188735D01*
X133484472Y-76065732D01*
X133427860Y-75929059D01*
X133399000Y-75783967D01*
X133399000Y-75636033D01*
X133427860Y-75490941D01*
X133484472Y-75354268D01*
X133566660Y-75231265D01*
X133671265Y-75126660D01*
X133794268Y-75044472D01*
X133930941Y-74987860D01*
X134076032Y-74959000D01*
X134223968Y-74959000D01*
X134369059Y-74987860D01*
G37*
G36*
X115869059Y-74987860D02*
G01*
X116005732Y-75044472D01*
X116128735Y-75126660D01*
X116233340Y-75231265D01*
X116315528Y-75354268D01*
X116372140Y-75490941D01*
X116401000Y-75636033D01*
X116401000Y-75783967D01*
X116372140Y-75929059D01*
X116315528Y-76065732D01*
X116233340Y-76188735D01*
X116128735Y-76293340D01*
X116005732Y-76375528D01*
X116005731Y-76375529D01*
X116005730Y-76375529D01*
X115869059Y-76432140D01*
X115723968Y-76461000D01*
X115576032Y-76461000D01*
X115430941Y-76432140D01*
X115294270Y-76375529D01*
X115294269Y-76375529D01*
X115294268Y-76375528D01*
X115171265Y-76293340D01*
X115066660Y-76188735D01*
X114984472Y-76065732D01*
X114927860Y-75929059D01*
X114899000Y-75783967D01*
X114899000Y-75636033D01*
X114927860Y-75490941D01*
X114984472Y-75354268D01*
X115066660Y-75231265D01*
X115171265Y-75126660D01*
X115294268Y-75044472D01*
X115430941Y-74987860D01*
X115576032Y-74959000D01*
X115723968Y-74959000D01*
X115869059Y-74987860D01*
G37*
G36*
X152869059Y-74987860D02*
G01*
X153005732Y-75044472D01*
X153128735Y-75126660D01*
X153233340Y-75231265D01*
X153315528Y-75354268D01*
X153372140Y-75490941D01*
X153401000Y-75636033D01*
X153401000Y-75783967D01*
X153372140Y-75929059D01*
X153315528Y-76065732D01*
X153233340Y-76188735D01*
X153128735Y-76293340D01*
X153005732Y-76375528D01*
X153005731Y-76375529D01*
X153005730Y-76375529D01*
X152869059Y-76432140D01*
X152723968Y-76461000D01*
X152576032Y-76461000D01*
X152430941Y-76432140D01*
X152294270Y-76375529D01*
X152294269Y-76375529D01*
X152294268Y-76375528D01*
X152171265Y-76293340D01*
X152066660Y-76188735D01*
X151984472Y-76065732D01*
X151927860Y-75929059D01*
X151899000Y-75783967D01*
X151899000Y-75636033D01*
X151927860Y-75490941D01*
X151984472Y-75354268D01*
X152066660Y-75231265D01*
X152171265Y-75126660D01*
X152294268Y-75044472D01*
X152430941Y-74987860D01*
X152576032Y-74959000D01*
X152723968Y-74959000D01*
X152869059Y-74987860D01*
G37*
G36*
X112169059Y-74987860D02*
G01*
X112305732Y-75044472D01*
X112428735Y-75126660D01*
X112533340Y-75231265D01*
X112615528Y-75354268D01*
X112672140Y-75490941D01*
X112701000Y-75636033D01*
X112701000Y-75783967D01*
X112672140Y-75929059D01*
X112615528Y-76065732D01*
X112533340Y-76188735D01*
X112428735Y-76293340D01*
X112305732Y-76375528D01*
X112305731Y-76375529D01*
X112305730Y-76375529D01*
X112169059Y-76432140D01*
X112023968Y-76461000D01*
X111876032Y-76461000D01*
X111730941Y-76432140D01*
X111594270Y-76375529D01*
X111594269Y-76375529D01*
X111594268Y-76375528D01*
X111471265Y-76293340D01*
X111366660Y-76188735D01*
X111284472Y-76065732D01*
X111227860Y-75929059D01*
X111199000Y-75783967D01*
X111199000Y-75636033D01*
X111227860Y-75490941D01*
X111284472Y-75354268D01*
X111366660Y-75231265D01*
X111471265Y-75126660D01*
X111594268Y-75044472D01*
X111730941Y-74987860D01*
X111876032Y-74959000D01*
X112023968Y-74959000D01*
X112169059Y-74987860D01*
G37*
G36*
X108469059Y-74987860D02*
G01*
X108605732Y-75044472D01*
X108728735Y-75126660D01*
X108833340Y-75231265D01*
X108915528Y-75354268D01*
X108972140Y-75490941D01*
X109001000Y-75636033D01*
X109001000Y-75783967D01*
X108972140Y-75929059D01*
X108915528Y-76065732D01*
X108833340Y-76188735D01*
X108728735Y-76293340D01*
X108605732Y-76375528D01*
X108605731Y-76375529D01*
X108605730Y-76375529D01*
X108469059Y-76432140D01*
X108323968Y-76461000D01*
X108176032Y-76461000D01*
X108030941Y-76432140D01*
X107894270Y-76375529D01*
X107894269Y-76375529D01*
X107894268Y-76375528D01*
X107771265Y-76293340D01*
X107666660Y-76188735D01*
X107584472Y-76065732D01*
X107527860Y-75929059D01*
X107499000Y-75783967D01*
X107499000Y-75636033D01*
X107527860Y-75490941D01*
X107584472Y-75354268D01*
X107666660Y-75231265D01*
X107771265Y-75126660D01*
X107894268Y-75044472D01*
X108030941Y-74987860D01*
X108176032Y-74959000D01*
X108323968Y-74959000D01*
X108469059Y-74987860D01*
G37*
G36*
X156569059Y-74987860D02*
G01*
X156705732Y-75044472D01*
X156828735Y-75126660D01*
X156933340Y-75231265D01*
X157015528Y-75354268D01*
X157072140Y-75490941D01*
X157101000Y-75636033D01*
X157101000Y-75783967D01*
X157072140Y-75929059D01*
X157015528Y-76065732D01*
X156933340Y-76188735D01*
X156828735Y-76293340D01*
X156705732Y-76375528D01*
X156705731Y-76375529D01*
X156705730Y-76375529D01*
X156569059Y-76432140D01*
X156423968Y-76461000D01*
X156276032Y-76461000D01*
X156130941Y-76432140D01*
X155994270Y-76375529D01*
X155994269Y-76375529D01*
X155994268Y-76375528D01*
X155871265Y-76293340D01*
X155766660Y-76188735D01*
X155684472Y-76065732D01*
X155627860Y-75929059D01*
X155599000Y-75783967D01*
X155599000Y-75636033D01*
X155627860Y-75490941D01*
X155684472Y-75354268D01*
X155766660Y-75231265D01*
X155871265Y-75126660D01*
X155994268Y-75044472D01*
X156130941Y-74987860D01*
X156276032Y-74959000D01*
X156423968Y-74959000D01*
X156569059Y-74987860D01*
G37*
G36*
X97564795Y-70520156D02*
G01*
X97671150Y-70541311D01*
X97871520Y-70624307D01*
X98051844Y-70744795D01*
X98205205Y-70898156D01*
X98325693Y-71078480D01*
X98408689Y-71278851D01*
X98451000Y-71491560D01*
X98451000Y-71708440D01*
X98408689Y-71921149D01*
X98325693Y-72121520D01*
X98205205Y-72301844D01*
X98051844Y-72455205D01*
X97871520Y-72575693D01*
X97771334Y-72617191D01*
X97671150Y-72658689D01*
X97564794Y-72679845D01*
X97458440Y-72701000D01*
X97241560Y-72701000D01*
X97135206Y-72679845D01*
X97028850Y-72658689D01*
X96928666Y-72617191D01*
X96828480Y-72575693D01*
X96648156Y-72455205D01*
X96494795Y-72301844D01*
X96374307Y-72121520D01*
X96291311Y-71921149D01*
X96249000Y-71708440D01*
X96249000Y-71491560D01*
X96291311Y-71278851D01*
X96374307Y-71078480D01*
X96494795Y-70898156D01*
X96648156Y-70744795D01*
X96828480Y-70624307D01*
X97028850Y-70541311D01*
X97135205Y-70520156D01*
X97241560Y-70499000D01*
X97458440Y-70499000D01*
X97564795Y-70520156D01*
G37*
G36*
X100954795Y-70520156D02*
G01*
X101061150Y-70541311D01*
X101261520Y-70624307D01*
X101441844Y-70744795D01*
X101595205Y-70898156D01*
X101715693Y-71078480D01*
X101798689Y-71278851D01*
X101841000Y-71491560D01*
X101841000Y-71708440D01*
X101798689Y-71921149D01*
X101715693Y-72121520D01*
X101595205Y-72301844D01*
X101441844Y-72455205D01*
X101261520Y-72575693D01*
X101161334Y-72617191D01*
X101061150Y-72658689D01*
X100954794Y-72679845D01*
X100848440Y-72701000D01*
X100631560Y-72701000D01*
X100525206Y-72679845D01*
X100418850Y-72658689D01*
X100318666Y-72617191D01*
X100218480Y-72575693D01*
X100038156Y-72455205D01*
X99884795Y-72301844D01*
X99764307Y-72121520D01*
X99681311Y-71921149D01*
X99639000Y-71708440D01*
X99639000Y-71491560D01*
X99681311Y-71278851D01*
X99764307Y-71078480D01*
X99884795Y-70898156D01*
X100038156Y-70744795D01*
X100218480Y-70624307D01*
X100418850Y-70541311D01*
X100525205Y-70520156D01*
X100631560Y-70499000D01*
X100848440Y-70499000D01*
X100954795Y-70520156D01*
G37*
G36*
X130369059Y-69727860D02*
G01*
X130505732Y-69784472D01*
X130628735Y-69866660D01*
X130733340Y-69971265D01*
X130815528Y-70094268D01*
X130872140Y-70230941D01*
X130901000Y-70376033D01*
X130901000Y-70523967D01*
X130872140Y-70669059D01*
X130815528Y-70805732D01*
X130733340Y-70928735D01*
X130628735Y-71033340D01*
X130505732Y-71115528D01*
X130505731Y-71115529D01*
X130505730Y-71115529D01*
X130369059Y-71172140D01*
X130223968Y-71201000D01*
X130076032Y-71201000D01*
X129930941Y-71172140D01*
X129794270Y-71115529D01*
X129794269Y-71115529D01*
X129794268Y-71115528D01*
X129671265Y-71033340D01*
X129566660Y-70928735D01*
X129484472Y-70805732D01*
X129427860Y-70669059D01*
X129399000Y-70523967D01*
X129399000Y-70376033D01*
X129427860Y-70230941D01*
X129484472Y-70094268D01*
X129566660Y-69971265D01*
X129671265Y-69866660D01*
X129794268Y-69784472D01*
X129930941Y-69727860D01*
X130076032Y-69699000D01*
X130223968Y-69699000D01*
X130369059Y-69727860D01*
G37*
G36*
X130369059Y-67187860D02*
G01*
X130505732Y-67244472D01*
X130628735Y-67326660D01*
X130733340Y-67431265D01*
X130815528Y-67554268D01*
X130872140Y-67690941D01*
X130901000Y-67836033D01*
X130901000Y-67983967D01*
X130872140Y-68129059D01*
X130815528Y-68265732D01*
X130733340Y-68388735D01*
X130628735Y-68493340D01*
X130505732Y-68575528D01*
X130505731Y-68575529D01*
X130505730Y-68575529D01*
X130369059Y-68632140D01*
X130223968Y-68661000D01*
X130076032Y-68661000D01*
X129930941Y-68632140D01*
X129794270Y-68575529D01*
X129794269Y-68575529D01*
X129794268Y-68575528D01*
X129671265Y-68493340D01*
X129566660Y-68388735D01*
X129484472Y-68265732D01*
X129427860Y-68129059D01*
X129399000Y-67983967D01*
X129399000Y-67836033D01*
X129427860Y-67690941D01*
X129484472Y-67554268D01*
X129566660Y-67431265D01*
X129671265Y-67326660D01*
X129794268Y-67244472D01*
X129930941Y-67187860D01*
X130076032Y-67159000D01*
X130223968Y-67159000D01*
X130369059Y-67187860D01*
G37*
G36*
X139669059Y-63467860D02*
G01*
X139805732Y-63524472D01*
X139928735Y-63606660D01*
X140033340Y-63711265D01*
X140033341Y-63711267D01*
X140115529Y-63834270D01*
X140172140Y-63970941D01*
X140201000Y-64116032D01*
X140201000Y-64263968D01*
X140197086Y-64283643D01*
X140172140Y-64409059D01*
X140115528Y-64545732D01*
X140033340Y-64668735D01*
X139928735Y-64773340D01*
X139805732Y-64855528D01*
X139805731Y-64855529D01*
X139805730Y-64855529D01*
X139669059Y-64912140D01*
X139523968Y-64941000D01*
X139376032Y-64941000D01*
X139230941Y-64912140D01*
X139094270Y-64855529D01*
X139094269Y-64855529D01*
X139094268Y-64855528D01*
X138971265Y-64773340D01*
X138866660Y-64668735D01*
X138784472Y-64545732D01*
X138727860Y-64409059D01*
X138702914Y-64283643D01*
X138699000Y-64263968D01*
X138699000Y-64116032D01*
X138727860Y-63970941D01*
X138784471Y-63834270D01*
X138866659Y-63711267D01*
X138866660Y-63711265D01*
X138971265Y-63606660D01*
X139094268Y-63524472D01*
X139230941Y-63467860D01*
X139376032Y-63439000D01*
X139523968Y-63439000D01*
X139669059Y-63467860D01*
G37*
G36*
X117983642Y-63279781D02*
G01*
X118129414Y-63340162D01*
X118129416Y-63340163D01*
X118260608Y-63427822D01*
X118372178Y-63539392D01*
X118459837Y-63670584D01*
X118459838Y-63670586D01*
X118520219Y-63816358D01*
X118551000Y-63971107D01*
X118551000Y-64128893D01*
X118520219Y-64283642D01*
X118468269Y-64409059D01*
X118459837Y-64429416D01*
X118372178Y-64560608D01*
X118260608Y-64672178D01*
X118129416Y-64759837D01*
X118129415Y-64759838D01*
X118129414Y-64759838D01*
X117983642Y-64820219D01*
X117828893Y-64851000D01*
X117671107Y-64851000D01*
X117516358Y-64820219D01*
X117370586Y-64759838D01*
X117370585Y-64759838D01*
X117370584Y-64759837D01*
X117239392Y-64672178D01*
X117127822Y-64560608D01*
X117040163Y-64429416D01*
X117031731Y-64409059D01*
X116979781Y-64283642D01*
X116949000Y-64128893D01*
X116949000Y-63971107D01*
X116979781Y-63816358D01*
X117040162Y-63670586D01*
X117040163Y-63670584D01*
X117127822Y-63539392D01*
X117239392Y-63427822D01*
X117370584Y-63340163D01*
X117370586Y-63340162D01*
X117516358Y-63279781D01*
X117671107Y-63249000D01*
X117828893Y-63249000D01*
X117983642Y-63279781D01*
G37*
G36*
X139669059Y-60927860D02*
G01*
X139805732Y-60984472D01*
X139928735Y-61066660D01*
X140033340Y-61171265D01*
X140088550Y-61253893D01*
X140115529Y-61294270D01*
X140172140Y-61430941D01*
X140201000Y-61576032D01*
X140201000Y-61723968D01*
X140172140Y-61869059D01*
X140127844Y-61976000D01*
X140115528Y-62005732D01*
X140033340Y-62128735D01*
X139928735Y-62233340D01*
X139805732Y-62315528D01*
X139805731Y-62315529D01*
X139805730Y-62315529D01*
X139669059Y-62372140D01*
X139523968Y-62401000D01*
X139376032Y-62401000D01*
X139230941Y-62372140D01*
X139094270Y-62315529D01*
X139094269Y-62315529D01*
X139094268Y-62315528D01*
X138971265Y-62233340D01*
X138866660Y-62128735D01*
X138784472Y-62005732D01*
X138772157Y-61976000D01*
X138727860Y-61869059D01*
X138699000Y-61723968D01*
X138699000Y-61576032D01*
X138727860Y-61430941D01*
X138784471Y-61294270D01*
X138811450Y-61253893D01*
X138866660Y-61171265D01*
X138971265Y-61066660D01*
X139094268Y-60984472D01*
X139230941Y-60927860D01*
X139376032Y-60899000D01*
X139523968Y-60899000D01*
X139669059Y-60927860D01*
G37*
G36*
X96433642Y-60404781D02*
G01*
X96519061Y-60440163D01*
X96579416Y-60465163D01*
X96710608Y-60552822D01*
X96822178Y-60664392D01*
X96893134Y-60770586D01*
X96909838Y-60795586D01*
X96970219Y-60941358D01*
X97001000Y-61096107D01*
X97001000Y-61253893D01*
X96970219Y-61408642D01*
X96909838Y-61554414D01*
X96909837Y-61554416D01*
X96822178Y-61685608D01*
X96710608Y-61797178D01*
X96579416Y-61884837D01*
X96579415Y-61884838D01*
X96579414Y-61884838D01*
X96433642Y-61945219D01*
X96278893Y-61976000D01*
X96121107Y-61976000D01*
X95966358Y-61945219D01*
X95820586Y-61884838D01*
X95820585Y-61884838D01*
X95820584Y-61884837D01*
X95689392Y-61797178D01*
X95577822Y-61685608D01*
X95490163Y-61554416D01*
X95490162Y-61554414D01*
X95429781Y-61408642D01*
X95399000Y-61253893D01*
X95399000Y-61096107D01*
X95429781Y-60941358D01*
X95490162Y-60795586D01*
X95506866Y-60770586D01*
X95577822Y-60664392D01*
X95689392Y-60552822D01*
X95820584Y-60465163D01*
X95880939Y-60440163D01*
X95966358Y-60404781D01*
X96121107Y-60374000D01*
X96278893Y-60374000D01*
X96433642Y-60404781D01*
G37*
G36*
X117983642Y-60379781D02*
G01*
X118129414Y-60440162D01*
X118129416Y-60440163D01*
X118260608Y-60527822D01*
X118372178Y-60639392D01*
X118459837Y-60770584D01*
X118459838Y-60770586D01*
X118520219Y-60916358D01*
X118551000Y-61071107D01*
X118551000Y-61228893D01*
X118520219Y-61383642D01*
X118509863Y-61408643D01*
X118459837Y-61529416D01*
X118372178Y-61660608D01*
X118260608Y-61772178D01*
X118129416Y-61859837D01*
X118129415Y-61859838D01*
X118129414Y-61859838D01*
X117983642Y-61920219D01*
X117828893Y-61951000D01*
X117671107Y-61951000D01*
X117516358Y-61920219D01*
X117370586Y-61859838D01*
X117370585Y-61859838D01*
X117370584Y-61859837D01*
X117239392Y-61772178D01*
X117127822Y-61660608D01*
X117040163Y-61529416D01*
X116990137Y-61408643D01*
X116979781Y-61383642D01*
X116949000Y-61228893D01*
X116949000Y-61071107D01*
X116979781Y-60916358D01*
X117040162Y-60770586D01*
X117040163Y-60770584D01*
X117127822Y-60639392D01*
X117239392Y-60527822D01*
X117370584Y-60440163D01*
X117370586Y-60440162D01*
X117516358Y-60379781D01*
X117671107Y-60349000D01*
X117828893Y-60349000D01*
X117983642Y-60379781D01*
G37*
G36*
X96433642Y-55504781D02*
G01*
X96579414Y-55565162D01*
X96579416Y-55565163D01*
X96710608Y-55652822D01*
X96822178Y-55764392D01*
X96909837Y-55895584D01*
X96909838Y-55895586D01*
X96970219Y-56041358D01*
X97001000Y-56196107D01*
X97001000Y-56353893D01*
X96970219Y-56508642D01*
X96909838Y-56654414D01*
X96909837Y-56654416D01*
X96822178Y-56785608D01*
X96710608Y-56897178D01*
X96579416Y-56984837D01*
X96579415Y-56984838D01*
X96579414Y-56984838D01*
X96433642Y-57045219D01*
X96278893Y-57076000D01*
X96121107Y-57076000D01*
X95966358Y-57045219D01*
X95820586Y-56984838D01*
X95820585Y-56984838D01*
X95820584Y-56984837D01*
X95689392Y-56897178D01*
X95577822Y-56785608D01*
X95490163Y-56654416D01*
X95490162Y-56654414D01*
X95429781Y-56508642D01*
X95399000Y-56353893D01*
X95399000Y-56196107D01*
X95429781Y-56041358D01*
X95490162Y-55895586D01*
X95490163Y-55895584D01*
X95577822Y-55764392D01*
X95689392Y-55652822D01*
X95820584Y-55565163D01*
X95820586Y-55565162D01*
X95966358Y-55504781D01*
X96121107Y-55474000D01*
X96278893Y-55474000D01*
X96433642Y-55504781D01*
G37*
G36*
X115283642Y-53879781D02*
G01*
X115429414Y-53940162D01*
X115429416Y-53940163D01*
X115560608Y-54027822D01*
X115672178Y-54139392D01*
X115759837Y-54270584D01*
X115759838Y-54270586D01*
X115820219Y-54416358D01*
X115851000Y-54571107D01*
X115851000Y-54728893D01*
X115820219Y-54883642D01*
X115759838Y-55029414D01*
X115759837Y-55029416D01*
X115672178Y-55160608D01*
X115560608Y-55272178D01*
X115429416Y-55359837D01*
X115429415Y-55359838D01*
X115429414Y-55359838D01*
X115283642Y-55420219D01*
X115128893Y-55451000D01*
X114971107Y-55451000D01*
X114816358Y-55420219D01*
X114670586Y-55359838D01*
X114670585Y-55359838D01*
X114670584Y-55359837D01*
X114539392Y-55272178D01*
X114427822Y-55160608D01*
X114340163Y-55029416D01*
X114340162Y-55029414D01*
X114279781Y-54883642D01*
X114249000Y-54728893D01*
X114249000Y-54571107D01*
X114279781Y-54416358D01*
X114340162Y-54270586D01*
X114340163Y-54270584D01*
X114427822Y-54139392D01*
X114539392Y-54027822D01*
X114670584Y-53940163D01*
X114670586Y-53940162D01*
X114816358Y-53879781D01*
X114971107Y-53849000D01*
X115128893Y-53849000D01*
X115283642Y-53879781D01*
G37*
G36*
X116391848Y-51751320D02*
G01*
X116391850Y-51751321D01*
X116391851Y-51751321D01*
X116533074Y-51809817D01*
X116533077Y-51809819D01*
X116660169Y-51894739D01*
X116768261Y-52002831D01*
X116824875Y-52087560D01*
X116853183Y-52129926D01*
X116874017Y-52180225D01*
X116885568Y-52201836D01*
X116901114Y-52220778D01*
X116920056Y-52236323D01*
X116941666Y-52247874D01*
X116965115Y-52254987D01*
X116989501Y-52257389D01*
X117013887Y-52254987D01*
X117037336Y-52247874D01*
X117058947Y-52236323D01*
X117077889Y-52220777D01*
X117093434Y-52201835D01*
X117104985Y-52180225D01*
X117112098Y-52156776D01*
X117114500Y-52132390D01*
X117114500Y-51771500D01*
X120216500Y-51771500D01*
X120216500Y-52132390D01*
X120218902Y-52156776D01*
X120226015Y-52180225D01*
X120237566Y-52201836D01*
X120253111Y-52220778D01*
X120272053Y-52236323D01*
X120293664Y-52247874D01*
X120317113Y-52254987D01*
X120341499Y-52257389D01*
X120365885Y-52254987D01*
X120389334Y-52247874D01*
X120410945Y-52236323D01*
X120429887Y-52220778D01*
X120445432Y-52201836D01*
X120456983Y-52180225D01*
X120477817Y-52129926D01*
X120506125Y-52087560D01*
X120562739Y-52002831D01*
X120670831Y-51894739D01*
X120797923Y-51809819D01*
X120797926Y-51809817D01*
X120939149Y-51751321D01*
X120939150Y-51751321D01*
X120939152Y-51751320D01*
X121089069Y-51721500D01*
X121241931Y-51721500D01*
X121391848Y-51751320D01*
X121391850Y-51751321D01*
X121391851Y-51751321D01*
X121533074Y-51809817D01*
X121533077Y-51809819D01*
X121660169Y-51894739D01*
X121768261Y-52002831D01*
X121853181Y-52129923D01*
X121853183Y-52129926D01*
X121911679Y-52271149D01*
X121941500Y-52421071D01*
X121941500Y-52573929D01*
X121911679Y-52723851D01*
X121853183Y-52865074D01*
X121853182Y-52865075D01*
X121853181Y-52865077D01*
X121768261Y-52992169D01*
X121660169Y-53100261D01*
X121533077Y-53185181D01*
X121533074Y-53185183D01*
X121391851Y-53243679D01*
X121391850Y-53243679D01*
X121391848Y-53243680D01*
X121241931Y-53273500D01*
X121089069Y-53273500D01*
X120939152Y-53243680D01*
X120939150Y-53243679D01*
X120939149Y-53243679D01*
X120797926Y-53185183D01*
X120797923Y-53185181D01*
X120670831Y-53100261D01*
X120562739Y-52992169D01*
X120477818Y-52865075D01*
X120477817Y-52865074D01*
X120456981Y-52814772D01*
X120445432Y-52793164D01*
X120429886Y-52774222D01*
X120410944Y-52758677D01*
X120389334Y-52747126D01*
X120365885Y-52740013D01*
X120341499Y-52737611D01*
X120317113Y-52740013D01*
X120293664Y-52747126D01*
X120272053Y-52758677D01*
X120253111Y-52774223D01*
X120237566Y-52793165D01*
X120226015Y-52814775D01*
X120218902Y-52838224D01*
X120216500Y-52862610D01*
X120216500Y-53223500D01*
X117114500Y-53223500D01*
X117114500Y-52862610D01*
X117112098Y-52838224D01*
X117104985Y-52814775D01*
X117093434Y-52793164D01*
X117077889Y-52774222D01*
X117058947Y-52758677D01*
X117037336Y-52747126D01*
X117013887Y-52740013D01*
X116989501Y-52737611D01*
X116965115Y-52740013D01*
X116941666Y-52747126D01*
X116920055Y-52758677D01*
X116901113Y-52774222D01*
X116885568Y-52793164D01*
X116874019Y-52814772D01*
X116853183Y-52865074D01*
X116853182Y-52865075D01*
X116768261Y-52992169D01*
X116660169Y-53100261D01*
X116533077Y-53185181D01*
X116533074Y-53185183D01*
X116391851Y-53243679D01*
X116391850Y-53243679D01*
X116391848Y-53243680D01*
X116241931Y-53273500D01*
X116089069Y-53273500D01*
X115939152Y-53243680D01*
X115939150Y-53243679D01*
X115939149Y-53243679D01*
X115797926Y-53185183D01*
X115797923Y-53185181D01*
X115670831Y-53100261D01*
X115562739Y-52992169D01*
X115477819Y-52865077D01*
X115477818Y-52865075D01*
X115477817Y-52865074D01*
X115419321Y-52723851D01*
X115389500Y-52573929D01*
X115389500Y-52421071D01*
X115419321Y-52271149D01*
X115477817Y-52129926D01*
X115477819Y-52129923D01*
X115562739Y-52002831D01*
X115670831Y-51894739D01*
X115797923Y-51809819D01*
X115797926Y-51809817D01*
X115939149Y-51751321D01*
X115939150Y-51751321D01*
X115939152Y-51751320D01*
X116089069Y-51721500D01*
X116241931Y-51721500D01*
X116391848Y-51751320D01*
G37*
G36*
X122191362Y-48795898D02*
G01*
X122203614Y-48796500D01*
X122276906Y-48796500D01*
X122293664Y-48805457D01*
X122305207Y-48809587D01*
X122415831Y-48843145D01*
X122415834Y-48843146D01*
X122528924Y-48903594D01*
X122628054Y-48984947D01*
X122709406Y-49084075D01*
X122769854Y-49197164D01*
X122779540Y-49229096D01*
X122807080Y-49319882D01*
X122816500Y-49415527D01*
X122816500Y-50179473D01*
X122807080Y-50275118D01*
X122779540Y-50365904D01*
X122769854Y-50397836D01*
X122709406Y-50510925D01*
X122628054Y-50610054D01*
X122528925Y-50691406D01*
X122415836Y-50751854D01*
X122390193Y-50759632D01*
X122305208Y-50785413D01*
X122282575Y-50794787D01*
X122277018Y-50798500D01*
X122203614Y-50798500D01*
X122191362Y-50799102D01*
X122165500Y-50801649D01*
X122139638Y-50799102D01*
X122127386Y-50798500D01*
X120914500Y-50798500D01*
X120914500Y-48796500D01*
X122127386Y-48796500D01*
X122139638Y-48795898D01*
X122165500Y-48793351D01*
X122191362Y-48795898D01*
G37*
G36*
X115191362Y-48795898D02*
G01*
X115203614Y-48796500D01*
X116416500Y-48796500D01*
X116416500Y-50798500D01*
X115203614Y-50798500D01*
X115191362Y-50799102D01*
X115165500Y-50801649D01*
X115139638Y-50799102D01*
X115127386Y-50798500D01*
X115054094Y-50798500D01*
X115037336Y-50789543D01*
X115025799Y-50785415D01*
X114940807Y-50759632D01*
X114915164Y-50751854D01*
X114802075Y-50691406D01*
X114702947Y-50610054D01*
X114621594Y-50510924D01*
X114561146Y-50397835D01*
X114551460Y-50365903D01*
X114523920Y-50275117D01*
X114514500Y-50179472D01*
X114514500Y-49415527D01*
X114523920Y-49319882D01*
X114561145Y-49197168D01*
X114621596Y-49084074D01*
X114702947Y-48984946D01*
X114802076Y-48903594D01*
X114915166Y-48843146D01*
X114915169Y-48843145D01*
X115025790Y-48809588D01*
X115048425Y-48800212D01*
X115053981Y-48796500D01*
X115127386Y-48796500D01*
X115139638Y-48795898D01*
X115165500Y-48793351D01*
X115191362Y-48795898D01*
G37*
G36*
X118466500Y-50798500D02*
G01*
X116864500Y-50798500D01*
X116864500Y-48796500D01*
X118466500Y-48796500D01*
X118466500Y-50798500D01*
G37*
G36*
X120466500Y-50798500D02*
G01*
X118864500Y-50798500D01*
X118864500Y-48796500D01*
X120466500Y-48796500D01*
X120466500Y-50798500D01*
G37*
M02*
