M48
; DRILL file {KiCad (5.1.5)-3} date 2020/1/17 17:17:51
; FORMAT={2:4/ absolute / inch / suppress leading zeros}
; #@! TF.CreationDate,2020-01-17T17:17:51-08:00
; #@! TF.GenerationSoftware,Kicad,Pcbnew,(5.1.5)-3
; #@! TF.FileFunction,Plated,1,2,PTH
FMAT,2
INCH,TZ
T1C0.0118
T2C0.0197
T3C0.0236
T4C0.0276
T5C0.0315
T6C0.0335
%
G90
G05
T1
X42205Y-28642
X43661Y-28642
X45118Y-28563
X46575Y-28642
X46989Y-23675
X47240Y-23424
X48031Y-28642
X48445Y-23130
X48760Y-23406
X49488Y-28642
X49743Y-25968
X50492Y-23287
X50670Y-22445
X50758Y-22727
X50768Y-23445
X50945Y-28642
X50958Y-24475
X51004Y-26043
X51398Y-23169
X51663Y-24193
X51713Y-23051
X51800Y-25549
X51831Y-22736
X51988Y-24154
X52146Y-22736
X52402Y-28642
X52461Y-26358
X52736Y-26122
X53248Y-22224
X53406Y-26348
X53524Y-22382
X53858Y-28642
X53878Y-22382
X54114Y-23197
X55315Y-28642
X56791Y-28642
T2
X45202Y-20570
X54862Y-22618
T4
X37874Y-22156
X46358Y-24075
X46358Y-25217
X45295Y-21516
X37874Y-24085
T5
X58642Y-35870
X58642Y-36870
X61555Y-41933
X61555Y-42933
X60098Y-41933
X60098Y-42933
X57185Y-35870
X57185Y-36870
X54272Y-32839
X54272Y-33839
X42618Y-35870
X42618Y-36870
X45531Y-38902
X45531Y-39902
X49902Y-38902
X49902Y-39902
X49902Y-41933
X49902Y-42933
X58642Y-38902
X58642Y-39902
X58642Y-41933
X58642Y-42933
X51240Y-26736
X51240Y-27736
X61555Y-32839
X61555Y-33839
X44075Y-32839
X44075Y-33839
X60098Y-38902
X60098Y-39902
X52815Y-32839
X52815Y-33839
X52815Y-41933
X52815Y-42933
X54272Y-41933
X54272Y-42933
X42618Y-41933
X42618Y-42933
X42618Y-32839
X42618Y-33839
X52815Y-29807
X52815Y-30807
X46988Y-35870
X46988Y-36870
X58642Y-29807
X58642Y-30807
X57185Y-41933
X57185Y-42933
X61555Y-38902
X61555Y-39902
X52815Y-35870
X52815Y-36870
X54272Y-35870
X54272Y-36870
X44075Y-29807
X44075Y-30807
X57185Y-32839
X57185Y-33839
X45531Y-35870
X45531Y-36870
X46988Y-38902
X46988Y-39902
X49902Y-32839
X49902Y-33839
X58642Y-32839
X58642Y-33839
X61555Y-29807
X61555Y-30807
X42618Y-29807
X42618Y-30807
X52815Y-38902
X52815Y-39902
X54272Y-38902
X54272Y-39902
X45531Y-41933
X45531Y-42933
X55728Y-29807
X55728Y-30807
X46988Y-29807
X46988Y-30807
X48445Y-35870
X48445Y-36870
X51358Y-35870
X51358Y-36870
X49902Y-35870
X49902Y-36870
X60098Y-29807
X60098Y-30807
X54902Y-24272
X54902Y-25272
X55728Y-32839
X55728Y-33839
X55728Y-41933
X55728Y-42933
X42618Y-38902
X42618Y-39902
X44075Y-38902
X44075Y-39902
X55728Y-35870
X55728Y-36870
X46988Y-32839
X46988Y-33839
X44075Y-35870
X44075Y-36870
X48445Y-41933
X48445Y-42933
X46988Y-41933
X46988Y-42933
X51358Y-38902
X51358Y-39902
X60098Y-35870
X60098Y-36870
X54272Y-29807
X54272Y-30807
X57185Y-29807
X57185Y-30807
X45531Y-32839
X45531Y-33839
X44075Y-41933
X44075Y-42933
X49902Y-29807
X49902Y-30807
X48445Y-32839
X48445Y-33839
X48445Y-29807
X48445Y-30807
X60098Y-32839
X60098Y-33839
X55728Y-38902
X55728Y-39902
X57185Y-38902
X57185Y-39902
X45531Y-29807
X45531Y-30807
X48445Y-38902
X48445Y-39902
X51358Y-32839
X51358Y-33839
X51358Y-29807
X51358Y-30807
T6
X45734Y-20668
X47703Y-20668
T3
G00X45341Y-19743
M15
G01X45341Y-19468
M16
G05
G00X48097Y-19468
M15
G01X48097Y-19743
M16
G05
T0
M30
