G04 #@! TF.GenerationSoftware,KiCad,Pcbnew,(5.1.5)-3*
G04 #@! TF.CreationDate,2020-01-17T17:17:55-08:00*
G04 #@! TF.ProjectId,testing,74657374-696e-4672-9e6b-696361645f70,rev?*
G04 #@! TF.SameCoordinates,Original*
G04 #@! TF.FileFunction,Legend,Bot*
G04 #@! TF.FilePolarity,Positive*
%FSLAX46Y46*%
G04 Gerber Fmt 4.6, Leading zero omitted, Abs format (unit mm)*
G04 Created by KiCad (PCBNEW (5.1.5)-3) date 2020-01-17 17:17:55*
%MOMM*%
%LPD*%
G04 APERTURE LIST*
G04 #@! TA.AperFunction,Profile*
%ADD10C,0.050000*%
G04 #@! TD*
%ADD11C,0.160000*%
%ADD12C,1.602000*%
%ADD13C,1.502000*%
%ADD14R,1.302000X2.002000*%
%ADD15O,1.302000X2.002000*%
%ADD16R,1.602000X2.002000*%
%ADD17C,1.552000*%
%ADD18R,0.502000X1.452000*%
G04 APERTURE END LIST*
D10*
X161050000Y-112850000D02*
X93050000Y-112850000D01*
X93050000Y-48350000D02*
X93050000Y-112850000D01*
X161050000Y-48350000D02*
X93050000Y-48350000D01*
X161050000Y-112850000D02*
X161050000Y-48350000D01*
D11*
G04 #@! TO.C,J1*
X116965500Y-53347500D02*
X116965500Y-52897500D01*
X116965500Y-53347500D02*
X117415500Y-53347500D01*
X122565500Y-52797500D02*
X122115500Y-52797500D01*
X122565500Y-50947500D02*
X122565500Y-52797500D01*
X114765500Y-48397500D02*
X114765500Y-48647500D01*
X122565500Y-48397500D02*
X122565500Y-48647500D01*
X114765500Y-50947500D02*
X114765500Y-52797500D01*
X114765500Y-52797500D02*
X115215500Y-52797500D01*
G04 #@! TD*
G04 #@! TO.C,J1*
X123983333Y-49304895D02*
X123983333Y-49885466D01*
X124016666Y-50001580D01*
X124083333Y-50078990D01*
X124183333Y-50117695D01*
X124250000Y-50117695D01*
X123283333Y-50117695D02*
X123683333Y-50117695D01*
X123483333Y-50117695D02*
X123483333Y-49304895D01*
X123550000Y-49421009D01*
X123616666Y-49498419D01*
X123683333Y-49537123D01*
G04 #@! TD*
%LPC*%
D12*
G04 #@! TO.C,TP5*
X96200000Y-61175000D03*
G04 #@! TD*
G04 #@! TO.C,TP4*
X117750000Y-61150000D03*
G04 #@! TD*
G04 #@! TO.C,TP3*
X117750000Y-64050000D03*
G04 #@! TD*
G04 #@! TO.C,TP2*
X115050000Y-54650000D03*
G04 #@! TD*
G04 #@! TO.C,TP1*
X96200000Y-56275000D03*
G04 #@! TD*
D13*
G04 #@! TO.C,BOOT0UP1*
X130150000Y-67910000D03*
X130150000Y-70450000D03*
G04 #@! TD*
G04 #@! TO.C,RST1*
X139450000Y-64190000D03*
X139450000Y-61650000D03*
G04 #@! TD*
G04 #@! TO.C,SW68*
X156350000Y-106510000D03*
X156350000Y-109050000D03*
G04 #@! TD*
G04 #@! TO.C,SW67*
X156350000Y-98810000D03*
X156350000Y-101350000D03*
G04 #@! TD*
G04 #@! TO.C,SW66*
X156350000Y-83410000D03*
X156350000Y-85950000D03*
G04 #@! TD*
G04 #@! TO.C,SW65*
X156350000Y-75710000D03*
X156350000Y-78250000D03*
G04 #@! TD*
G04 #@! TO.C,SW64*
X152650000Y-106510000D03*
X152650000Y-109050000D03*
G04 #@! TD*
G04 #@! TO.C,SW63*
X152650000Y-98810000D03*
X152650000Y-101350000D03*
G04 #@! TD*
G04 #@! TO.C,SW62*
X152650000Y-91110000D03*
X152650000Y-93650000D03*
G04 #@! TD*
G04 #@! TO.C,SW61*
X152650000Y-83410000D03*
X152650000Y-85950000D03*
G04 #@! TD*
G04 #@! TO.C,SW60*
X152650000Y-75710000D03*
X152650000Y-78250000D03*
G04 #@! TD*
G04 #@! TO.C,SW59*
X148950000Y-106510000D03*
X148950000Y-109050000D03*
G04 #@! TD*
G04 #@! TO.C,SW58*
X148950000Y-98810000D03*
X148950000Y-101350000D03*
G04 #@! TD*
G04 #@! TO.C,SW57*
X148950000Y-91110000D03*
X148950000Y-93650000D03*
G04 #@! TD*
G04 #@! TO.C,SW56*
X148950000Y-83410000D03*
X148950000Y-85950000D03*
G04 #@! TD*
G04 #@! TO.C,SW55*
X148950000Y-75710000D03*
X148950000Y-78250000D03*
G04 #@! TD*
G04 #@! TO.C,SW54*
X145250000Y-106510000D03*
X145250000Y-109050000D03*
G04 #@! TD*
G04 #@! TO.C,SW53*
X145250000Y-98810000D03*
X145250000Y-101350000D03*
G04 #@! TD*
G04 #@! TO.C,SW52*
X145250000Y-91110000D03*
X145250000Y-93650000D03*
G04 #@! TD*
G04 #@! TO.C,SW51*
X145250000Y-83410000D03*
X145250000Y-85950000D03*
G04 #@! TD*
G04 #@! TO.C,SW50*
X145250000Y-75710000D03*
X145250000Y-78250000D03*
G04 #@! TD*
G04 #@! TO.C,SW49*
X141550000Y-106510000D03*
X141550000Y-109050000D03*
G04 #@! TD*
G04 #@! TO.C,SW48*
X141550000Y-98810000D03*
X141550000Y-101350000D03*
G04 #@! TD*
G04 #@! TO.C,SW47*
X141550000Y-91110000D03*
X141550000Y-93650000D03*
G04 #@! TD*
G04 #@! TO.C,SW46*
X141550000Y-83410000D03*
X141550000Y-85950000D03*
G04 #@! TD*
G04 #@! TO.C,SW45*
X141550000Y-75710000D03*
X141550000Y-78250000D03*
G04 #@! TD*
G04 #@! TO.C,SW44*
X137850000Y-106510000D03*
X137850000Y-109050000D03*
G04 #@! TD*
G04 #@! TO.C,SW43*
X137850000Y-98810000D03*
X137850000Y-101350000D03*
G04 #@! TD*
G04 #@! TO.C,SW42*
X137850000Y-91110000D03*
X137850000Y-93650000D03*
G04 #@! TD*
G04 #@! TO.C,SW41*
X137850000Y-83410000D03*
X137850000Y-85950000D03*
G04 #@! TD*
G04 #@! TO.C,SW40*
X137850000Y-75710000D03*
X137850000Y-78250000D03*
G04 #@! TD*
G04 #@! TO.C,SW39*
X134150000Y-106510000D03*
X134150000Y-109050000D03*
G04 #@! TD*
G04 #@! TO.C,SW38*
X134150000Y-98810000D03*
X134150000Y-101350000D03*
G04 #@! TD*
G04 #@! TO.C,SW37*
X134150000Y-91110000D03*
X134150000Y-93650000D03*
G04 #@! TD*
G04 #@! TO.C,SW36*
X134150000Y-83410000D03*
X134150000Y-85950000D03*
G04 #@! TD*
G04 #@! TO.C,SW35*
X134150000Y-75710000D03*
X134150000Y-78250000D03*
G04 #@! TD*
G04 #@! TO.C,SW34*
X130450000Y-98810000D03*
X130450000Y-101350000D03*
G04 #@! TD*
G04 #@! TO.C,SW33*
X130450000Y-91110000D03*
X130450000Y-93650000D03*
G04 #@! TD*
G04 #@! TO.C,SW32*
X130450000Y-83410000D03*
X130450000Y-85950000D03*
G04 #@! TD*
G04 #@! TO.C,SW31*
X130450000Y-75710000D03*
X130450000Y-78250000D03*
G04 #@! TD*
G04 #@! TO.C,SW30*
X126750000Y-106510000D03*
X126750000Y-109050000D03*
G04 #@! TD*
G04 #@! TO.C,SW29*
X126750000Y-98810000D03*
X126750000Y-101350000D03*
G04 #@! TD*
G04 #@! TO.C,SW28*
X126750000Y-91110000D03*
X126750000Y-93650000D03*
G04 #@! TD*
G04 #@! TO.C,SW27*
X126750000Y-83410000D03*
X126750000Y-85950000D03*
G04 #@! TD*
G04 #@! TO.C,SW26*
X126750000Y-75710000D03*
X126750000Y-78250000D03*
G04 #@! TD*
G04 #@! TO.C,SW25*
X123050000Y-106510000D03*
X123050000Y-109050000D03*
G04 #@! TD*
G04 #@! TO.C,SW24*
X123050000Y-98810000D03*
X123050000Y-101350000D03*
G04 #@! TD*
G04 #@! TO.C,SW23*
X123050000Y-91110000D03*
X123050000Y-93650000D03*
G04 #@! TD*
G04 #@! TO.C,SW22*
X123050000Y-83410000D03*
X123050000Y-85950000D03*
G04 #@! TD*
G04 #@! TO.C,SW21*
X123050000Y-75710000D03*
X123050000Y-78250000D03*
G04 #@! TD*
G04 #@! TO.C,SW20*
X119350000Y-106510000D03*
X119350000Y-109050000D03*
G04 #@! TD*
G04 #@! TO.C,SW19*
X119350000Y-98810000D03*
X119350000Y-101350000D03*
G04 #@! TD*
G04 #@! TO.C,SW18*
X119350000Y-91110000D03*
X119350000Y-93650000D03*
G04 #@! TD*
G04 #@! TO.C,SW17*
X119350000Y-83410000D03*
X119350000Y-85950000D03*
G04 #@! TD*
G04 #@! TO.C,SW16*
X119350000Y-75710000D03*
X119350000Y-78250000D03*
G04 #@! TD*
G04 #@! TO.C,SW15*
X115650000Y-106510000D03*
X115650000Y-109050000D03*
G04 #@! TD*
G04 #@! TO.C,SW14*
X115650000Y-98810000D03*
X115650000Y-101350000D03*
G04 #@! TD*
G04 #@! TO.C,SW13*
X115650000Y-91110000D03*
X115650000Y-93650000D03*
G04 #@! TD*
G04 #@! TO.C,SW12*
X115650000Y-83410000D03*
X115650000Y-85950000D03*
G04 #@! TD*
G04 #@! TO.C,SW11*
X115650000Y-75710000D03*
X115650000Y-78250000D03*
G04 #@! TD*
G04 #@! TO.C,SW10*
X111950000Y-106510000D03*
X111950000Y-109050000D03*
G04 #@! TD*
G04 #@! TO.C,SW8*
X111950000Y-91110000D03*
X111950000Y-93650000D03*
G04 #@! TD*
G04 #@! TO.C,SW5*
X108250000Y-106510000D03*
X108250000Y-109050000D03*
G04 #@! TD*
G04 #@! TO.C,SW4*
X108250000Y-98810000D03*
X108250000Y-101350000D03*
G04 #@! TD*
G04 #@! TO.C,SW3*
X108250000Y-91110000D03*
X108250000Y-93650000D03*
G04 #@! TD*
G04 #@! TO.C,SW1*
X108250000Y-75710000D03*
X108250000Y-78250000D03*
G04 #@! TD*
G04 #@! TO.C,SW9*
X111950000Y-98810000D03*
X111950000Y-101350000D03*
G04 #@! TD*
G04 #@! TO.C,SW7*
X111950000Y-83410000D03*
X111950000Y-85950000D03*
G04 #@! TD*
G04 #@! TO.C,SW6*
X111950000Y-75710000D03*
X111950000Y-78250000D03*
G04 #@! TD*
G04 #@! TO.C,SW2*
X108250000Y-83410000D03*
X108250000Y-85950000D03*
G04 #@! TD*
D14*
G04 #@! TO.C,J1*
X115765500Y-49797500D03*
X121565500Y-49797500D03*
D15*
X122165500Y-49797500D03*
X115165500Y-49797500D03*
D16*
X117665500Y-49797500D03*
D17*
X121165500Y-52497500D03*
D18*
X118665500Y-52497500D03*
X119315500Y-52497500D03*
X119965500Y-52497500D03*
X117365500Y-52497500D03*
X118015500Y-52497500D03*
D17*
X116165500Y-52497500D03*
D16*
X119665500Y-49797500D03*
G04 #@! TD*
M02*
